<svg width="740pt" height="493pt" viewBox="0 0 740 493" xmlns="http://www.w3.org/2000/svg"><path fill="#231f20" d="M332.99 149.01c12.2-4.29 25.43-3.58 38.08-2.11 2.53.43 5.09.22 7.57-.41 2.07 3.59 1.11 7.94.02 11.68 5.01 5.95 7.35 13.63 8.61 21.18.22 1.54.4 3.08.58 4.63l.06.53.21 1.75c-5.35-4.81-10.17-10.26-13.95-16.39-6.57 7.04-16.87 6.13-25.63 6.96-6.76 1.09-13.81.43-20.33 2.85 2.87 8.95 1.37 18.56-.16 27.63l-.87-1.3c-1.4-2.02-2.51-4.21-3.38-6.5-4.48-1.6-8.97-3.18-13.66-4.02 5.21.31 9.83 3.12 15.01 3.53.26-2.01 1.66-4.14 1.04-6.13-2.94-1.77-6.39-2.39-9.62-3.41-.35-.67-1.06-2.02-1.42-2.69 2.45-1.71 4.76-3.61 7.02-5.57 2.99-3.12 9.11-.5 10.61-5.41-6.92-2.67-15.23.63-19.96 6-.27-.5-.81-1.51-1.08-2.01-1.22-2.51-1.51-5.6-.06-8.08 1.46-2.94 4.82-3.96 7.71-4.91-.2-8.25 6.11-15.21 13.6-17.8m36.78 20.81c-2.34 1.86-5.25 2.71-7.95 3.87 4.78.48 9.75-2.19 12.08-6.39-1.63.37-2.82 1.58-4.13 2.52Z" id="#231f20ff"/><g id="#211636ff" fill="#211636"><path d="M296.95 171.09c.72-6.61 6.79-11.65 13.05-12.95-.11.32-.31.96-.42 1.28-3.16 1.31-6.44 2.72-8.57 5.54-1.7 1.82-1.9 4.73-4.06 6.13ZM302.82 167.92c2.59-3 6.19-5.66 10.3-5.76-1.37 2.09-4.25 2.09-6.08 3.63-3.43 2.15-4.88 6.05-6.87 9.36-.64-2.72 1.12-5.17 2.65-7.23ZM448.84 302.65c21.77 3.02 43.47 7.23 64.35 14.23 13.41 4.97 27.08 10.45 38.01 19.93 3.75 3.02 6.18 7.24 9.22 10.9l.16.21c-4.2 10.99-14.57 17.85-24.53 23.15-18.63 9.63-39.09 15.04-59.51 19.35-10.95 2-21.9 4.26-33 5.16 2.17-1.15 4.68-1.88 6.51-3.58.45-8.34 1.44-16.65 1.08-25.01-.1-21.46 1.12-43.06-2.29-64.34ZM294.83 308.81c3.65-1.71 6.81-4.79 11.06-4.85.35 24.66.11 49.34.24 74.01-.45 6.3 1.06 12.59.25 18.87-28.07-2.95-56.12-7.9-82.82-17.26-10.79-3.92-21.45-8.6-30.77-15.39-5.59-4.2-10.82-9.38-13.26-16.08 2.92-4.19 5.82-8.5 9.82-11.76 12.08-10.41 27.36-15.83 42.22-20.92 5.5-1.93 11.31-2.86 16.7-5.09 3.2 5.58 9.53 8.46 15.75 8.82 3.63-.05 7.03-1.47 10.38-2.68 6.79-2.61 13.96-4.26 20.43-7.67Z"/></g><g id="#da9fb7ff" fill="#da9fb7"><path d="M369.77 169.82c1.31-.94 2.5-2.15 4.13-2.52-2.33 4.2-7.3 6.87-12.08 6.39 2.7-1.16 5.61-2.01 7.95-3.87ZM311.74 179.8c.27.5.81 1.51 1.08 2.01-1.08 1.86-2.46 3.54-4.29 4.71-8.09 5.79-14.86 13.11-22.04 19.94-2.54 2.63-5.63 5.19-6.39 8.96 2.8.99 5.51 2.25 7.9 4.04-4.14-1.13-8.13-2.75-12.15-4.23 2.59-3.52 5.26-6.99 8-10.4 3.04-3 6.67-5.32 10.12-7.81 2.25-3.36 4.78-6.61 8.04-9.06 1.73-.96 3.74-1.39 5.35-2.58 1.77-1.59 2.98-3.68 4.38-5.58Z"/></g><path fill="#fd9e82" d="M348.54 176.83c8.76-.83 19.06.08 25.63-6.96 3.78 6.13 8.6 11.58 13.95 16.39.64 3.26 1.19 6.55 1.55 9.86 4.99-2.35 3.82-10.81-1.76-11.61l-.06-.53c.33-.48.99-1.46 1.32-1.94 7.94 1.13 7.91 13.44 1.94 17.13-2.77 1.61-2.5 5.09-2.78 7.85-.35 7.22-4.53 13.4-7 20.01-3.6 4.88-9.29 8.16-15.39 8.43-6.09.67-11.84-1.79-17.26-4.23-.22.39-.67 1.17-.89 1.56-.22-3.1-3.19-4.48-5.19-6.36-2.18-1.8-3.95-4.1-6.37-5.59-3.24-.99-6.98-.38-9.95-2.18-2.67-2.78-3.43-6.78-4.7-10.29-3.24.04-6.45-.42-9.68-.59-3.92 2.32-6.23 6.86-10.74 8.28-2.98.98-5.28 3.11-7.72 4.97-1.85-.41-3.65-.96-5.44-1.57-2.39-1.79-5.1-3.05-7.9-4.04.76-3.77 3.85-6.33 6.39-8.96 7.18-6.83 13.95-14.15 22.04-19.94 1.83-1.17 3.21-2.85 4.29-4.71 4.73-5.37 13.04-8.67 19.96-6-1.5 4.91-7.62 2.29-10.61 5.41-2.26 1.96-4.57 3.86-7.02 5.57.36.67 1.07 2.02 1.42 2.69 3.23 1.02 6.68 1.64 9.62 3.41.62 1.99-.78 4.12-1.04 6.13-5.18-.41-9.8-3.22-15.01-3.53 4.69.84 9.18 2.42 13.66 4.02.87 2.29 1.98 4.48 3.38 6.5-1.27 1.94-2.4 4.49-.8 6.63 1.2 2.56 4.03 3.31 6.6 3.68-1.56-3.05-3.11-6.11-4.93-9.01 1.53-9.07 3.03-18.68.16-27.63 6.52-2.42 13.57-1.76 20.33-2.85m-36.34 13.75.88 1.03c4.11 1.04 8.24 2.04 12.13 3.78-.17-1.96-2.36-2.22-3.77-2.87-3.01-.86-6.02-2.37-9.24-1.94m2.04 12.75c-.63 1.1-1.2 2.25-1.65 3.44 2.99-.19 5.98-1.11 7.69-3.76-2.02.07-4.03.2-6.04.32Z" id="#fd9e82ff"/><path fill="#d392aa" d="M387.27 179.35c5.19-1.23 7.59 3.97 9.17 7.85.33 3.89.77 8.3-1.65 11.67-1.08 1.65-3.15 2.38-4.12 4.1-.54 4.55-.97 9.15-2.43 13.52-1.19 3.26-2.86 6.32-4.25 9.49.33 2.14.51 4.31.36 6.49l-.29.77c-.59 1.62-1.02 3.3-1.46 4.98.1-3.76.53-7.74-1.27-11.19 2.47-6.61 6.65-12.79 7-20.01.28-2.76.01-6.24 2.78-7.85 5.97-3.69 6-16-1.94-17.13-.33.48-.99 1.46-1.32 1.94-.18-1.55-.36-3.09-.58-4.63Z" id="#d392aaff"/><path fill="#db715a" d="M387.91 184.51c5.58.8 6.75 9.26 1.76 11.61-.36-3.31-.91-6.6-1.55-9.86l-.21-1.75Z" id="#db715aff"/><path fill="#e18266" d="M312.2 190.58c3.22-.43 6.23 1.08 9.24 1.94 1.41.65 3.6.91 3.77 2.87-3.89-1.74-8.02-2.74-12.13-3.78l-.88-1.03Z" id="#e18266ff"/><path fill="#dc7c68" d="M314.24 203.33c2.01-.12 4.02-.25 6.04-.32-1.71 2.65-4.7 3.57-7.69 3.76a24.15 24.15 0 0 1 1.65-3.44Z" id="#dc7c68ff"/><path fill="#e17363" d="M326.38 212.64c-1.6-2.14-.47-4.69.8-6.63l.87 1.3c1.82 2.9 3.37 5.96 4.93 9.01-2.57-.37-5.4-1.12-6.6-3.68Z" id="#e17363ff"/><path fill="#fbfefa" d="M271.52 220.9c.63-2.05 1.49-6.37 4.33-5.67 4.02 1.48 8.01 3.1 12.15 4.23 1.79.61 3.59 1.16 5.44 1.57.03.43.08 1.28.11 1.71-.55.88-1.1 1.77-1.65 2.67-6.78-1.54-13.53-3.29-20.38-4.51Z" id="#fbfefaff"/><g id="#282828ff" fill="#282828"><path d="M263.08 236.93c2.11-5.43 3.58-11.08 5.49-16.57.74.13 2.21.41 2.95.54 6.85 1.22 13.6 2.97 20.38 4.51-.47 12.96-2.1 25.84-3.37 38.73l1.08-.69c-2.12 3.11-1.93 7.02-2.39 10.61-.46 5.07-1.91 10.02-2 15.14 3.75-5.49 5.29-12.12 7.88-18.18 1.49-4.19 3.79-8.2 3.84-12.76 5.54-3.84 10.79-8.13 16.57-11.61 7.52-3.49 15.6-6.06 23.87-6.98-2.81 7.62-5.16 15.4-7.53 23.17-.47 1.63-.92 3.31-.83 5.03 3.26 1.45 6.9 1.82 10.1 3.45-3.95 2.44-8.17 4.48-11.71 7.52 11.97 28.31 20.4 58.18 24.3 88.7 2.45 10.7 1.31 21.7 1.69 32.56-15.7-.66-31.39-1.58-47.03-3.08l.01-.18c.81-6.28-.7-12.57-.25-18.87-.13-24.67.11-49.35-.24-74.01-4.25.06-7.41 3.14-11.06 4.85-6.47 3.41-13.64 5.06-20.43 7.67-3.35 1.21-6.75 2.63-10.38 2.68-6.22-.36-12.55-3.24-15.75-8.82-2.12-2.78-3.67-6-4.06-9.5.01-.49.04-1.45.05-1.93-.01-7.54.84-15.1 3.09-22.31 4.18-13.63 11.03-26.23 15.73-39.67ZM339.28 239.48c2.34-2.76 5.07-5.22 8.54-6.47.69 9.9 9.23 16.31 16.37 21.99-.72.56-1.44 1.13-2.14 1.71 1.26.18 2.53.32 3.81.42-1.58.67-3.34.36-4.99.44-.96 1.24-1.72 2.6-2.51 3.96l1-1.04c.08 1.19.14 2.38.27 3.57-.34-.29-1.03-.87-1.37-1.16-.73 1.33-1.4 2.7-2.06 4.07-.49-.65-1.45-1.96-1.94-2.61-5.56-5.02-10.82-10.66-13.98-17.53-1.1-2.29-.94-4.88-1-7.35ZM393.82 239.67c10 .94 19.48 4.75 28.5 8.99 10.64 5.04 18.45 15.08 21.55 26.34 1.25 4.71 2.13 9.5 3.1 14.27.13.53.38 1.61.5 2.14l.59.13c.09 3.71.23 7.43.78 11.11 3.41 21.28 2.19 42.88 2.29 64.34.36 8.36-.63 16.67-1.08 25.01-1.83 1.7-4.34 2.43-6.51 3.58-21.72 3.18-43.76 4.15-65.7 4.54.05-7.23-.08-14.47.06-21.71 1.94-9.06 2.42-18.35 4.26-27.43 4.64-23.41 11.09-46.54 20.42-68.54.45-1.27 1.03-2.56.99-3.94-3.55-3.02-7.88-4.92-11.73-7.52 3.65-1.11 7.36-2 11.02-3.1-2.49-9.55-5.42-19.03-9.04-28.21Z"/></g><path fill="#e07261" d="M365.94 235.46c6.1-.27 11.79-3.55 15.39-8.43 1.8 3.45 1.37 7.43 1.27 11.19-2.87 7.95-10.47 12.84-16.69 18.08-.43-.33-1.29-.97-1.72-1.3-7.14-5.68-15.68-12.09-16.37-21.99l-.03-.22c.22-.39.67-1.17.89-1.56 5.42 2.44 11.17 4.9 17.26 4.23Z" id="#e07261ff"/><path fill="#292728" d="M382.6 238.22c.44-1.68.87-3.36 1.46-4.98 3.63 1.11 6.41 3.71 8.55 6.75-.15 10.13-8.26 17.36-14.78 24.12-.95.9-1.9 1.82-2.82 2.74-.31-.99-.91-2.98-1.21-3.98-1.15-2.73-2.55-6.22-6.03-6.35-.48.15-1.43.45-1.91.61-1.28-.1-2.55-.24-3.81-.42.7-.58 1.42-1.15 2.14-1.71.43.33 1.29.97 1.72 1.3 6.22-5.24 13.82-10.13 16.69-18.08Z" id="#292728ff"/><g id="#444444ff" fill="#444"><path d="M337.38 239.67c.47-.05 1.42-.14 1.9-.19.06 2.47-.1 5.06 1 7.35 3.16 6.87 8.42 12.51 13.98 17.53-.15.64-.45 1.92-.59 2.56-.17 44.1.18 88.22-.2 132.31l-.07.87c-.38-10.86.76-21.86-1.69-32.56-3.9-30.52-12.33-60.39-24.3-88.7 3.54-3.04 7.76-5.08 11.71-7.52-3.2-1.63-6.84-2-10.1-3.45-.09-1.72.36-3.4.83-5.03 2.37-7.77 4.72-15.55 7.53-23.17ZM392.61 239.99l.15-1.1 1.06.78c3.62 9.18 6.55 18.66 9.04 28.21-3.66 1.1-7.37 1.99-11.02 3.1 3.85 2.6 8.18 4.5 11.73 7.52.04 1.38-.54 2.67-.99 3.94-9.33 22-15.78 45.13-20.42 68.54-1.84 9.08-2.32 18.37-4.26 27.43-.16-38.1-.02-76.2-.07-114.3 6.52-6.76 14.63-13.99 14.78-24.12Z"/></g><path fill="#ed2865" d="M365.86 257.13c.48-.16 1.43-.46 1.91-.61 1.27 1.78 3.34 3.25 3.88 5.44-1.02 3.58-4.81 6.04-4.66 10 .31 9.35 1.13 18.67 1.88 28 .23 10.01.75 20.02 1.78 29.99.92 10.03.22 20.2 1.95 30.15.27-4.73.35-9.47.36-14.21.43 7.89 1.41 15.82 1.01 23.71-.02-.59-.07-1.77-.09-2.36-5.21-.96-9.72-4.65-11.23-9.79-1.91-7.99-2.97-16.26-1.93-24.46 1.6-14.95 1.92-30.01 3.56-44.96.36-6.28 1.26-12.61.48-18.89-.01-1.99-2.19-2.4-3.56-3.16-.54-.64-1.06-1.27-1.57-1.92-.13-1.19-.19-2.38-.27-3.57l-1 1.04c.79-1.36 1.55-2.72 2.51-3.96 1.65-.08 3.41.23 4.99-.44Z" id="#ed2865ff"/><g id="#ce275aff" fill="#ce275a"><path d="M367.77 256.52c3.48.13 4.88 3.62 6.03 6.35-1.9 2.28-3.67 4.65-5.38 7.08 1.54 25.31 3.14 50.62 4.54 75.94-.01 4.74-.09 9.48-.36 14.21-1.73-9.95-1.03-20.12-1.95-30.15-1.03-9.97-1.55-19.98-1.78-29.99-.75-9.33-1.57-18.65-1.88-28-.15-3.96 3.64-6.42 4.66-10-.54-2.19-2.61-3.66-3.88-5.44Z"/><path d="M361.2 265.98c1.37.76 3.55 1.17 3.56 3.16.78 6.28-.12 12.61-.48 18.89-1.64 14.95-1.96 30.01-3.56 44.96-1.04 8.2.02 16.47 1.93 24.46 1.51 5.14 6.02 8.83 11.23 9.79.02.59.07 1.77.09 2.36-2.53 6.19-4.9 12.53-8.47 18.21-2.92-5.15-5.44-10.5-7.86-15.9-1.99-3.72-.62-7.94-.35-11.88 2.11-29.28 4.45-58.55 6.49-87.84.44-2.45-1.28-4.37-2.58-6.21Z"/></g><path fill="#1a1919" d="M289.61 263.45c2.51-1.64 4.91-3.42 7.33-5.19-.05 4.56-2.35 8.57-3.84 12.76-2.59 6.06-4.13 12.69-7.88 18.18.09-5.12 1.54-10.07 2-15.14.46-3.59.27-7.5 2.39-10.61Z" id="#1a1919ff"/><path fill="#fefdfe" d="M358.26 262.9c.34.29 1.03.87 1.37 1.16.51.65 1.03 1.28 1.57 1.92 1.3 1.84 3.02 3.76 2.58 6.21-2.04 29.29-4.38 58.56-6.49 87.84-.27 3.94-1.64 8.16.35 11.88 2.42 5.4 4.94 10.75 7.86 15.9 3.57-5.68 5.94-12.02 8.47-18.21.4-7.89-.58-15.82-1.01-23.71-1.4-25.32-3-50.63-4.54-75.94 1.71-2.43 3.48-4.8 5.38-7.08.3 1 .9 2.99 1.21 3.98.92-.92 1.87-1.84 2.82-2.74.05 38.1-.09 76.2.07 114.3-.14 7.24-.01 14.48-.06 21.71-8.13-.18-16.32.57-24.37-.89.38-44.09.03-88.21.2-132.31.14-.64.44-1.92.59-2.56.49.65 1.45 1.96 1.94 2.61.66-1.37 1.33-2.74 2.06-4.07Z" id="#fefdfeff"/><g id="#f8eeffff" fill="#f8eeff"><path d="M446.97 289.27c18.1 3.03 36.32 5.78 53.96 11.02 17.27 5.15 34.92 11.12 49.15 22.57 3.52 3.33 7.65 6.71 9 11.56l-.89-.55c-8.06-11.87-21.51-18.37-34.33-23.83-24.24-9.71-50.03-14.81-75.8-18.5l-.59-.13c-.12-.53-.37-1.61-.5-2.14ZM195.62 318.64c14.78-9.59 31.74-15.19 48.64-19.73-.01.48-.04 1.44-.05 1.93-16.22 4.39-32.43 9.72-46.79 18.61-6.07 3.87-12 8.48-15.66 14.8l-.87-.35c2.96-6.63 8.93-11.21 14.73-15.26Z"/></g><path fill="#3c2d66" d="M448.06 291.54c25.77 3.69 51.56 8.79 75.8 18.5 12.82 5.46 26.27 11.96 34.33 23.83 1.9 4.29 4.34 9.16 2.23 13.84-3.04-3.66-5.47-7.88-9.22-10.9-10.93-9.48-24.6-14.96-38.01-19.93-20.88-7-42.58-11.21-64.35-14.23-.55-3.68-.69-7.4-.78-11.11Z" id="#3c2d66ff"/><path fill="#3c2d65" d="M197.42 319.45c14.36-8.89 30.57-14.22 46.79-18.61.39 3.5 1.94 6.72 4.06 9.5-5.39 2.23-11.2 3.16-16.7 5.09-14.86 5.09-30.14 10.51-42.22 20.92-4 3.26-6.9 7.57-9.82 11.76-1.82-4.72.01-9.65 2.23-13.86 3.66-6.32 9.59-10.93 15.66-14.8Z" id="#3c2d65ff"/></svg>