<svg width="626pt" height="626pt" viewBox="0 0 626 626" xmlns="http://www.w3.org/2000/svg"><path fill="#efa196" d="M279.98 45.04c-.93-2.88 2.13-1.98 3.88-2 .32 1.29.95 3.88 1.27 5.17-.49.21-1.47.64-1.97.85 3.05-7.64-.84-4.93-3.18-4.02Z" id="#efa196ff"/><path fill="#e86a5a" d="M279.98 45.04c2.34-.91 6.23-3.62 3.18 4.02.5-.21 1.48-.64 1.97-.85.76 1 1.01 2.73 2.59 2.7 2.24.85-.2 4.79.3 7.08.26 1.66.97 3.24 1.02 4.94-3.13.13-6.34-.39-9.31.75-1.01.33-2 .68-2.98 1.05-.67.09-2.03.26-2.71.35-.6-6.55.71-13.29 3.13-19.32.37.97.76 1.93 1.18 2.89 1.27.47 1.63-1.62 1.55-2.52l.08-1.09Z" id="#e86a5aff"/><path fill="#ecaba5" d="M277.17 45.76c.19-1.53 2.33-.57 2.73.37.08.9-.28 2.99-1.55 2.52-.42-.96-.81-1.92-1.18-2.89Z" id="#ecaba5ff"/><path fill="#de938c" d="M285.13 48.21c1.17-4.54 2.57.74 2.59 2.7-1.58.03-1.83-1.7-2.59-2.7Z" id="#de938cff"/><path fill="#976670" d="M279.73 63.68c2.97-1.14 6.18-.62 9.31-.75 1.7-.4 2.7-.04 2.99 1.06-4.11-.05-8.21-.15-12.3-.31Z" id="#976670ff"/><path fill="#22325e" d="M276.75 64.73c.98-.37 1.97-.72 2.98-1.05 4.09.16 8.19.26 12.3.31.47.02 1.43.07 1.9.09 2.42 10.6 6.28 20.99 7.14 31.88-3.65-9.87-4.9-20.75-8.16-30.86-5.39-.13-10.78-.25-16.16-.37Z" id="#22325eff"/><path fill="#083a73" d="M269.04 70.03c.56-2.5 2.46-4.48 5-4.95.68-.09 2.04-.26 2.71-.35 5.38.12 10.77.24 16.16.37 3.26 10.11 4.51 20.99 8.16 30.86 1.96 3.4 1.58 8.29 5.17 10.79 4.88-2.98 9.03 3.81 4.67 6.26-2.23 2.64-1.2 8.32 2.16 10 3.36 3.16 6.23 6.92 9.47 10.26-1.43 4.2-2.22 9.46 2.42 11.87-.27 1.19-.58 2.38-.84 3.57l-.22.91-.83.48c-7.9 3.61-4.29 13.53-1.85 19.81 1.65-.09 3.25-.55 4.88-.79-1.8 8.04-7.47 15.27-7.95 23.59 2.47 1.29 5.07 2.68 7.97 2.32-.7-3.07-6.77-1.44-5.97-4.95 2.25-7.22 5.72-13.98 8.25-21.1 1.06 1.22 1.92 2.61 2.95 3.86 6.47.41 13.57-1.61 17.47-7.14.27-2.65.26-5.21-.27-7.79-.1-1.14-.02-2.27.22-3.38 6.08 3.45 13.19 4.35 20.08 3.25 11.18-3.74 21.61-9.34 31.82-15.15 3.05-2.11 1.94-6.31 2.45-9.53 1.7-.05 5.09-.14 6.79-.18 4.51-9.37 9.85-18.28 14.37-27.64 1.48-1.01 3.18-1.51 4.8-.48 5.44 1.9 10.76 4.25 15.56 7.47 2.14 1.99 5.39 3.78 3.27 7.67-3.56 9.85-7.81 19.44-11.94 29.05-8.57 15.46-21.37 27.99-35.23 38.73-10.61 8.44-21.28 17.56-26.39 30.57-3.38 11.69-5.41 23.73-8.56 35.49-1.91 2.3-4.83 3.68-7.85 3.34-10.2-1.8-20.1-4.97-30.33-6.65-16.46-2.68-34.54-3.16-48.4-13.6-7.19-7.26-3.25-18.13-.96-26.7 1.89-3.9 2.37-8.54 4.71-12.18 2.26-2.78 3.76-6.66 3.46-10.25.88-4.82 3.45-9.6 3.76-14.75l.64.32c3.46 2.73.63-5.25 1.2-7.25-.3.16-.91.48-1.21.64l-.66.34c-.16-6.03-3.56-11.29-5.28-16.96-4.84-14.74-13.03-28.96-12.61-44.82.16-1.33.49-3.97.65-5.29 3.12-8.18-1.86-5.26-1.01-2.01l-.95.05c.09-1.44.26-4.32.35-5.76.58-4.04.77-8.13.77-12.21l-1.28.68c-3.1 1.11.34-9.68-1.75-10.69m59.14 108.17c-.9 1.03-2.66 1.95-2.05 3.59 1.28 2.38 5.7 1.18 4.85-1.73.32-1.57-1.89-1.29-2.8-1.86m-4.15 6.78c-.08 1.33-.08 2.66-.01 4 1.33.07 2.67.06 4-.01.71-2.66-1.33-4.71-3.99-3.99Z" id="#083a73ff"/><path fill="#03123b" d="m270.79 80.72 1.28-.68c0 4.08-.19 8.17-.77 12.21-.23-3.84-.31-7.68-.51-11.53Z" id="#03123bff"/><path fill="#e56c5d" d="M440.94 89.08c-.94-3.06 5.12-4.83 4.05-1.08-.01 1.35 0 2.7.04 4.05.65-.72 1.31-1.44 1.97-2.16-.06 3.02.05 6.09.02 9.13.08 4.55-1.22 8.91-2.38 13.25-4.8-3.22-10.12-5.57-15.56-7.47 2.77-4.15 6.32-8.33 6.09-13.61 2.38.26 3.26-.95 2.9-3.26.11-3.48 2.89 4.24 2.87 1.15Z" id="#e56c5dff"/><path fill="#f2a599" d="M444.99 88c5.46.65 2 7.47 3.02 10.99l-.99.03c.03-3.04-.08-6.11-.02-9.13-.66.72-1.32 1.44-1.97 2.16-.04-1.35-.05-2.7-.04-4.05Z" id="#f2a599ff"/><path fill="#00124b" d="M271.9 97.96c-.85-3.25 4.13-6.17 1.01 2.01-.16 1.32-.49 3.96-.65 5.29l-.36-7.3Z" id="#00124bff"/><path fill="#82a6e1" d="M329.15 113.21c2.18-2.61 5.67-4.14 8.79-2.12 8.39 4.1 15.4 10.45 22.44 16.47 2.1 1.61 5.45 3.16 4.62 6.37-2.38 3.64-4.74 7.32-7.09 10.99-2.43-.77-4.96-1.33-7.07-2.85.16-2.46.62-4.88.97-7.32 1.4-4.16-4.6-4.95-6.79-6.8-5.03-1.51-7.76-7.76-13.84-5.95-2.91-1.1-2.32-5.93-2.03-8.79Z" id="#82a6e1ff"/><path fill="#14234e" d="M313.07 123.01c-3.36-1.68-4.39-7.36-2.16-10-.37 3.6 1.04 6.73 2.16 10Z" id="#14234eff"/><path fill="#e56253" d="M331.18 122c6.08-1.81 8.81 4.44 13.84 5.95 2.19 1.85 8.19 2.64 6.79 6.8-2.19 1.53-3.05 5.77-.97 7.32 2.11 1.52 4.64 2.08 7.07 2.85 1.62 5.56-4.71 9.16-9.6 6.7-2.16-1.36-.81 1.03-.67 2.2-.12 1.55-.37 4.67-.49 6.22-1.51 1.92-3.15 4.17-5.86 4.14-3.24-.04-6.44-.15-9.65.16-2.87-.83-5.25-2.7-7.7-4.32-.78-3.42-.29-6.95-.04-10.4l.22-.91c.74 5.71 8.28 3.07 12.08 4.22-3.23-3.26-7.56-5.12-11.24-7.79-4.64-2.41-3.85-7.67-2.42-11.87 4.15-2.52 5.86-7.47 8.64-11.27Z" id="#e56253ff"/><path fill="#a890af" d="M350.84 142.07c-2.08-1.55-1.22-5.79.97-7.32-.35 2.44-.81 4.86-.97 7.32Z" id="#a890afff"/><path fill="#d45045" d="M324.96 145.14c3.68 2.67 8.01 4.53 11.24 7.79-3.8-1.15-11.34 1.49-12.08-4.22.26-1.19.57-2.38.84-3.57Z" id="#d45045ff"/><path fill="#2967a1" d="M321.22 169.91c-2.44-6.28-6.05-16.2 1.85-19.81-.65 3.26-2.89 8.14.87 9.92 2.45 1.62 4.83 3.49 7.7 4.32.32.19.96.58 1.28.77 1.89.64 6.66 2.04 8.04-.08l.33-.85c2.71.03 4.35-2.22 5.86-4.14.35-.53 1.05-1.6 1.4-2.13.53 2.58.54 5.14.27 7.79-3.9 5.53-11 7.55-17.47 7.14-1.03-1.25-1.89-2.64-2.95-3.86-2.53 7.12-6 13.88-8.25 21.1-.8 3.51 5.27 1.88 5.97 4.95-2.9.36-5.5-1.03-7.97-2.32.48-8.32 6.15-15.55 7.95-23.59-1.63.24-3.23.7-4.88.79Z" id="#2967a1ff"/><path fill="#8c617f" d="m323.07 150.1.83-.48c-.25 3.45-.74 6.98.04 10.4-3.76-1.78-1.52-6.66-.87-9.92Z" id="#8c617fff"/><path fill="#92606e" d="M347.15 160.04c.12-1.55.37-4.67.49-6.22.28.18.85.53 1.13.71-.24 1.11-.32 2.24-.22 3.38-.35.53-1.05 1.6-1.4 2.13Z" id="#92606eff"/><path fill="#af6d80" d="M331.64 164.34c3.21-.31 6.41-.2 9.65-.16l-.33.85c-2.69.04-5.37.07-8.04.08-.32-.19-.96-.58-1.28-.77Z" id="#af6d80ff"/><path fill="#6b608c" d="M332.92 165.11c2.67-.01 5.35-.04 8.04-.08-1.38 2.12-6.15.72-8.04.08Z" id="#6b608cff"/><path fill="#000e3e" d="M290.81 166.7c.3-.16.91-.48 1.21-.64-.57 2 2.26 9.98-1.2 7.25.07-2.2.07-4.41-.01-6.61Z" id="#000e3eff"/><path fill="#246098" d="M328.18 178.2c.91.57 3.12.29 2.8 1.86.85 2.91-3.57 4.11-4.85 1.73-.61-1.64 1.15-2.56 2.05-3.59Z" id="#246098ff"/><path fill="#24629b" d="M324.03 184.98c2.66-.72 4.7 1.33 3.99 3.99-1.33.07-2.67.08-4 .01-.07-1.34-.07-2.67.01-4Z" id="#24629bff"/><path fill="#1d2c5a" d="M286.42 187.74c.3 3.59-1.2 7.47-3.46 10.25.46-3.56 1.56-7.19 3.46-10.25Z" id="#1d2c5aff"/><path fill="#7fa7e4" d="M279.21 236.87c13.86 10.44 31.94 10.92 48.4 13.6 10.23 1.68 20.13 4.85 30.33 6.65-.14 17.35 2.09 34.59 3.09 51.88-.07 3.67 0 7.38-.06 11.07l-.1.96c-3.75 2.68-8.18 4.72-12.82 5.04-7.45.93-14.87.93-22.29.04-.36-.36-1.07-1.09-1.43-1.45-3.33-10.93-4.62-22.37-7.66-33.35-1.56-4.12-5.02-.58-5.02 2.35-1.28 10.16-2.41 20.34-4.65 30.34-4.62 1.48-9.55.19-14.27.13l-.77-.29c-1.73-1.27-3.85-2.35-6.02-1.55-5.27-1.27-9.94-4.15-14.76-6.51-.47-1.22-1.25-2.41-1.18-3.76 0-4.02 0-8.02-.01-12.02.08-21.28 3.17-42.85 9.22-63.13Z" id="#7fa7e4ff"/><path fill="#dfe8f7" d="M269.02 311.99c1.13-3.11-2.1-10.58.97-11.99.01 4 .01 8 .01 12.02l-.98-.03Z" id="#dfe8f7ff"/><path fill="#bed5f7" d="M361.03 309h.97c-.01 2.75-.02 8.24-.03 10.98l-1 .09c.06-3.69-.01-7.4.06-11.07Z" id="#bed5f7ff"/><path fill="#e76454" d="M271.18 315.78c4.82 2.36 9.49 5.24 14.76 6.51 1.6 1.65 3.8 2.29 6.02 1.55l.77.29c4.73 2.18 10.06 1.64 15.12 2.03l.6 1.8c-2.33 2.02-6.95 1.56-6.31 6.12-5.54 11.99-4.37 25.29-6.47 37.97.03 2.88-3.08 4.75-2.77 7.75 2.7.07 5.76-.01 8.38 1.01-5.37-.38-11.13 1.4-16.27-.72-1.56-17.2-2.08-34.98-9.16-51-1.48-4.45-4.2-8.6-4.67-13.31Z" id="#e76454ff"/><path fill="#ea6d5c" d="M348.05 326.07c4.64-.32 9.07-2.36 12.82-5.04 13.65 15.66 12.8 37.6 16.14 56.9-2.84 2.36-6.64 2.65-10.02 3.8-2.26-1.01-3.44-2.93-3.39-5.41-1.64-4.92 1.17-9.43 1.41-14.23-1.42-3.1-5.86-4.54-4.31-8.97-1.36-8.61-.52-17.29-.17-25.93-2.88-5.23-8.28 1.09-12.58-.12l.1-1Z" id="#ea6d5cff"/><path fill="#b28cb3" d="M285.94 322.29c2.17-.8 4.29.28 6.02 1.55-2.22.74-4.42.1-6.02-1.55Z" id="#b28cb3ff"/><path fill="#b98aa0" d="M292.73 324.13c4.72.06 9.65 1.35 14.27-.13.22.54.64 1.62.85 2.16-5.06-.39-10.39.15-15.12-2.03Z" id="#b98aa0ff"/><path fill="#e76352" d="M347.95 327.07c4.3 1.21 9.7-5.11 12.58.12-.35 8.64-1.19 17.32.17 25.93-1.55 4.43 2.89 5.87 4.31 8.97-.24 4.8-3.05 9.31-1.41 14.23-.05 2.48 1.13 4.4 3.39 5.41-2.98.78-5.78 2.23-8.9 2.47-.21-.36-.62-1.08-.83-1.44-4.4-9.45-7.74-19.37-12.24-28.77-4.75-9.81-12.38-17.72-18.19-26.83 7.02.88 14.1 1.02 21.12-.09Z" id="#e76352ff"/><path fill="#b3809b" d="M325.76 326.11c7.42.89 14.84.89 22.29-.04l-.1 1c-7.02 1.11-14.1.97-21.12.09-.27-.26-.8-.79-1.07-1.05Z" id="#b3809bff"/><path fill="#eb6d5b" d="M308.45 327.96c.68 2.24 1.24 4.51 1.88 6.76-.22 4.82-.36 9.68-.1 14.51-.96 10.31-3.77 20.38-4.15 30.75-1.49.8-3.14 1.01-4.8.83-2.62-1.02-5.68-.94-8.38-1.01-.31-3 2.8-4.87 2.77-7.75 2.1-12.68.93-25.98 6.47-37.97-.64-4.56 3.98-4.1 6.31-6.12Z" id="#eb6d5bff"/><path fill="#f5cbc7" d="M310.33 334.72c1.52 4.69.48 9.74-.1 14.51-.26-4.83-.12-9.69.1-14.51Z" id="#f5cbc7ff"/><path fill="#c1ebf9" d="M161.16 338.95c.79-1.8 5.89-1.8 6.68.01-1.67 0-5.01-.01-6.68-.01Z" id="#c1ebf9ff"/><g id="#6594e5ff" fill="#6594e5"><path d="M498.07 339.11c5.19-1.73 14.25-2.96 15.91 3.92.01 2.65.02 5.32.02 7.99-2.27 13.85-9.16 26.96-19.23 36.75-13.08 13.71-28.46 24.89-43.04 36.93-1.75 1.66-4.73 1.86-5.65 4.37-1.43 1.89-1.65 5.13-4.15 6 1.01-4.85 5.44-8.69 4.13-14.08 3.76-17.89 7.28-36.69 17.98-51.94 2.01-2.26 2.97-6.1 6.11-7.13.41 7.4 2.84 14.8 2.1 22.25 5.42-5.55 7.42-15.15 15.91-16.9l-3.17-.44c2.43-5.02 7.05-8.8 9.11-13.94-8.24 7.29-13.04 17.78-19.96 26.28-2.49-6.09-1.35-13.04-2.7-19.4-.42-1.66 2.78-1.89 3.27-3.11 6.94-6.81 14.31-13.69 23.36-17.55m2.24 5.24c-1.46 1.29-3.6 2.49-3.34 4.75 1.74-1.31 4.23-2.7 4.06-5.2l-.72.45m-3.96 20.17c-2.95-.24-8.99 3.06.3.96 2.97.26 8.93-3.1-.3-.96m-27.23 22.76c-1.66 2.96-4.42 5.45-5.18 8.8 2.16-.86 2.96-3.22 4.26-4.95 5.58-.45 11.2.05 16.81-.13l-.03-.95c-4.43-.34-9.08.44-13.32-.66-1.57.06-1.3-2.58-2.54-2.11m-12.33 21.02c2.53-1.49 3.58-4.64 4.26-7.33-2.73.78-3.08 5.01-4.26 7.33m-2.58 4.4c1.74-.04 2.89-2.88 2.58-4.4-1.74.03-2.9 2.87-2.58 4.4m-4.26 7.33c2.72-.8 3.06-5.02 4.26-7.33-2.53 1.48-3.59 4.63-4.26 7.33ZM469.37 427.68c6.91-8.62 16.79-17.99 28.61-19.69 3.36.01 6.66-.04 10.04-.01 3.6-.47 7.08 4.64 10 .99-.17 1.25-1 2.45-.75 3.75 4.54 3.78 4.67 10.85 2.35 15.97-1.88 4.42-3.21 9.13-5.73 13.25-7.56.44-15.11 1.4-22.7 1.1.21-1.06.43-2.12.66-3.16 2.55-2.37 6.71-4.19 7.2-7.99-2.73 2.3-5.94 4.49-7.2 7.99-2.14.37-3.2 2.26-3.93 4.1 7.92.56 16.08-1.02 23.91.67-6.94 15.22-20.11 26.89-33.07 37.14-9.77 1.82-20.23 1.83-29.56-1.66-1.89 1.87-3.77 3.77-5.3 5.95 2.34-.17 3.59-2.38 5.33-3.66 7.99 1.1 16.04 1.59 24.09 2.11-.59 2.45-3.77 3.02-5.27 4.55-15.91 9.91-31.31 20.63-47.41 30.22-1.16-10.05-.56-20.18-.62-30.27l.15-.83c19.34-16.91 31.78-39.97 48.09-59.34 1.11 3.57-.14 7.23-.56 10.83-1.61 8.69-2.06 17.54-1.65 26.36 5.8-3.72 10.3-9.03 15.23-13.77 2.12-2.29 4.86-4.2 5.77-7.34-6.8 5.51-12.23 12.49-18.94 18.09-4.25-11.52 3.19-23.7 1.26-35.35M511 418c1.8-1.17 4.19-2.66 4.03-5.1-1.7 1.29-4.21 2.64-4.03 5.1m-4.03 5.1c1.7-1.29 4.2-2.65 4.03-5.1-1.8 1.17-4.2 2.66-4.03 5.1m-1.66 1.26c-1.84 2.08-5.51 3.54-5.34 6.74 2.27-2.01 6.01-3.84 6.06-7.2l-.72.46m-46.06 46.88c-1.9 1.79-3.95 3.56-5.34 5.79 3.38-.06 5.14-3.88 7.18-6.06-.46.07-1.38.21-1.84.27m-23.22 21.77c2.84-.39 4.6-2.9 6.07-5.08-2.81.41-4.77 2.77-6.07 5.08m-6.09 5.06c2.82-.46 4.65-2.82 6.09-5.06-2.88.26-4.66 2.86-6.09 5.06m-3.69 2.16c-1.25 1.14-2.5 2.32-3.35 3.8 2.5.17 3.89-2.32 5.2-4.06-.46.06-1.39.19-1.85.26Z"/></g><path fill="#57a3bc" d="m159.05 338.99 2.11-.04c1.67 0 5.01.01 6.68.01.3.25.91.76 1.21 1.02-3.37-.03-6.72 0-10.08.03l.08-1.02Z" id="#57a3bcff"/><path fill="#0aa0c8" d="M147.01 350.04c1.84-5.2 6.67-8.9 11.96-10.03 3.36-.03 6.71-.06 10.08-.03 5.24 1.3 8.53 6.2 11.7 10.26 13.2 17.95 25.91 36.45 35.24 56.77 3.91 8.65 9.44 16.44 14.92 24.17l.19.92c-.11 8.63-.15 17.27-.08 25.9l-1.83-.16c-7.22-8.16-14.03-16.64-21.14-24.88-8.93-10.97-23.06-16.12-32.16-26.87-8.8-16.45-24.64-29.35-28.88-48.07-.02-2.67-.03-5.33 0-7.98Z" id="#0aa0c8ff"/><path fill="#b6c5ec" d="M513.98 343.03c2.24.74.55 5.57.97 7.94l-.95.05c0-2.67-.01-5.34-.02-7.99Z" id="#b6c5ecff"/><g id="#4c7ecfff" fill="#4c7ecf"><path d="m500.31 344.35.72-.45c.17 2.5-2.32 3.89-4.06 5.2-.26-2.26 1.88-3.46 3.34-4.75ZM506.97 423.1c-.17-2.44 2.23-3.93 4.03-5.1.17 2.45-2.33 3.81-4.03 5.1ZM505.31 424.36l.72-.46c-.05 3.36-3.79 5.19-6.06 7.2-.17-3.2 3.5-4.66 5.34-6.74Z"/></g><path fill="#7bc3de" d="m146.06 350.01.95.03c-.03 2.65-.02 5.31 0 7.98-2.25-.89-.54-5.61-.95-8.01Z" id="#7bc3deff"/><path fill="#4e80d2" d="M474.14 379.17c6.92-8.5 11.72-18.99 19.96-26.28-2.06 5.14-6.68 8.92-9.11 13.94l3.17.44c-8.49 1.75-10.49 11.35-15.91 16.9.74-7.45-1.69-14.85-2.1-22.25.32-.54.97-1.61 1.29-2.15 1.35 6.36.21 13.31 2.7 19.4Z" id="#4e80d2ff"/><g id="#6494e5ff" fill="#6494e5"><path d="M104.9 359.76c11.46-2.89 23.51 1.54 31.82 9.55 5.77 5.83 12.68 11.63 16.78 18.49-.8 3.43.91 6.76 1.57 10.11 1.51 7.65 3.53 15.31 2.91 23.2-2.05-1.37-3.46-3.91-6.1-4.16 2.88 3.88 6.88 6.73 11.06 9.06 2.49 2.46 4.37 6.2 8.07 6.99 2.9 2.66 4.93 7.25 9.09 8.06-2.74-2.9-5.03-6.93-9.09-8.06-2.47-2.49-4.33-6.3-8.07-6.99-3.85-3.58-3.42-9.21-3.96-14.01-.76-7.43-2.57-14.69-4.08-21.98 3.07.96 4.08 4.73 6.3 6.78 6.99 9.56 14.69 18.59 22.52 27.47 2.22 2.15 4.23 4.7 7.07 6.08 1.28 6.5 1.45 13.14 1.16 19.75-4.53-1.02-6.27-6.68-10.61-8.34 2.18 4.11-3.09 4.16-5.32 6.28-8.99 1.3-17.97 4.29-27.1 2.01-2.74-.35.83 1.57 1.74 1.36 8.48 1.49 17.68.77 25.36-3.37 2.97-.26 5.74-2.05 8.72-1.85 5.21 4.39 9.05 10.92 15.29 13.83 2.98 5.64 8.16 9.85 12.97 13.98 1.57 3.78 4.81 6.55 8.02 8.98.9 3.1 3.6 4.99 5.89 7.06.52 2.24 2.35 3.73 4.01 5.16.09 5.96.12 11.94.05 17.92-10.43-1.07-20.46-4.67-30.97-5.15-9.72-3.85-20.77-2.61-30.56-6.37-1.46-1.95-2.54-4.21-4.45-5.76.49 2.03 1.42 3.93 2.08 5.92-16.01-1.97-31.95-4.57-48.06-5.74-4.71 1.61-5.87-3.19-8.95-5.04-.49-2.28-2.21-3.94-4.13-5.1-.06 2.51 2.41 3.75 4.13 5.1.59 1.59 1.37 3.11 1.97 4.7-13.32-1.2-26.71-.5-40.06-.71 1.27-12.13 15.43-14.92 25.15-17.18 1.18.83 3.4 3.71 2.82.47l.08-1.02c3.74.12 7.25-1.53 10.98-1.27 5.67.04 11.34.02 17.01.03 7.87.11 15.48 2.19 23.07 4-.99-1.4-2.21-2.62-3.16-4.04 3.01-.24 4.14 3.33 6.3 4.81 19.98 6.27 40.01 12.32 59.82 19.07 3.11.38 5.89 2.13 9.05 2.21-10.1-9.15-20.18-19.59-33.1-25.03-32.5-13.46-67.14-28.09-88.15-57.84-6.41-9.27-14.17-18.7-15.86-30.16 0-3.05.01-6.03.01-9.04.99-9.95 9.16-18.35 18.91-20.22m-10.94 17.16c2.3 2.78 6.37 5.18 10.11 6.15-2.16-3.24-6.57-4.79-10.11-6.15m17.98 11c2.13 3.6 6.26 5.96 10.15 7.14-2.06-3.77-6.61-5.23-10.15-7.14m20.4 14.45c-9.55 5.99-21.33 6.62-32.29 7.74l-.06.94c12.01.01 23.89-2.81 35-7.3-.47-.96-1.46-2.5-2.65-1.38m23.61 81.54c.76 3.75 3.98 7.07 7.1 9.18-.76-3.77-3.99-7.08-7.1-9.18Z"/><path d="M71.99 496.03c23.71-.19 47.59.42 71.04 4.07-1.66 2.03-3.46 3.93-5.09 5.99 3.32-.42 4.85-4.05 7.37-5.85 18.36 1.59 36.33 6.17 54.69 7.73 1.33.84 2.87 1.21 4.39 1.54 8.91 1.27 17.57 3.96 26.58 4.6.06 3.62.03 7.2.1 10.85-15.76.2-31.16-3.96-46.81-5.25-11.09-.82-22.53-1.61-33.56-.08-2.85.63-5.81.25-8.7.36-2.8-.02-5.62-.21-8.3.63-1.86.51-3.8.38-5.71.41-7-.06-13.99-.09-20.99 0-9.32-.29-18.52-3.53-26.15-8.86a26.386 26.386 0 0 1-8.86-16.14m52.05 18.98c3.53-1.29 7.89-2.88 10.03-6.08-3.7.96-7.82 3.33-10.03 6.08m-6.12 4.05c2.35-.5 4.85-2.02 6.12-4.05-2.55.15-5.02 1.73-6.12 4.05Z"/></g><path fill="#4f7fd2" d="M496.35 364.52c9.23-2.14 3.27 1.22.3.96-9.29 2.1-3.25-1.2-.3-.96Z" id="#4f7fd2ff"/><path fill="#4f82d2" d="M93.96 376.92c3.54 1.36 7.95 2.91 10.11 6.15-3.74-.97-7.81-3.37-10.11-6.15Z" id="#4f82d2ff"/><path fill="#fdb113" d="M366.99 381.73c3.38-1.15 7.18-1.44 10.02-3.8 1.69.9 2 3.41 2.82 5.1 1.16 3.79 1.85 7.92 4.4 11.07-.29 1.64-.61 3.27-.98 4.9-15.05 4.91-30.4 8.68-45.53 13.27.07-1.82.23-5.46.3-7.28 2.74-2.38 5.26-5.32 8.94-6.16 1.7.71 3.6 2.92 5.41 1.31 1.07-.73 2.64-.93 3.34-2.09l.43-.74c.26-.41.77-1.23 1.03-1.64l2.95.28c-.08-1.49-1.32-2.11-2.42-2.78-.79-2.95.14-6.02.39-8.97 3.12-.24 5.92-1.69 8.9-2.47m3.3 6.46c-2.43 2.16-5.25 4.61-3.16 8.58 1.94 1.99 4.69 4.01 7.63 3.04 1.87-1.85 4.22-3.94 4.23-6.76-1.15-3.55-4.25-7.25-8.7-4.86Z" id="#fdb113ff"/><path fill="#cbdaf5" d="m85.04 380.03.95-.05c0 3.01-.01 5.99-.01 9.04-3.25-.16-.22-6.55-.94-8.99Z" id="#cbdaf5ff"/><path fill="#f68d4a" d="M285.01 380.09c5.14 2.12 10.9.34 16.27.72 1.66.18 3.31-.03 4.8-.83l.2.81-.12 1.08c-7.01.71-14.35-1.12-21.18.94 0-.68.02-2.04.03-2.72Z" id="#f68d4aff"/><path fill="#fad39b" d="M306.28 380.79c1.02 2.66.6 5.5.68 8.32l-.98-.14c.05-1.78.14-5.32.18-7.1l.12-1.08Z" id="#fad39bff"/><path fill="#fdb211" d="M284.98 382.81c6.83-2.06 14.17-.23 21.18-.94-.04 1.78-.13 5.32-.18 7.1-.08 4.33.38 8.67.93 12.97-6.31.15-12.61.03-18.91.06-9.78.02-19.56-.16-29.33.17-1.54-2.18-.24-4.52 1.45-6.1 2.41-1.77 5.28-2.76 7.98-4.01 2.75-.89 4.14 1.9 5.88 3.41 1.18 1.02 2.74-1.21 4.08-1.44.47-.26 1.41-.79 1.88-1.06.26-.22.78-.67 1.04-.9 1.01.36 2.03.68 3.07.98.25-2.04-1.68-2.98-2.84-4.28 1.41-1.87 2.1-4.37 3.77-5.96m9.33 6.46c-4.94 1.16-4.24 10.73.67 10.75 4.34 2.09 6.84-1.91 8.01-5.07-.29-3.93-4.19-8.29-8.68-5.68Z" id="#fdb211ff"/><path fill="#feaaab" d="M306.96 389.11c16.77-2.02 33.46-4.85 50.3-6.35-.44 3.07-.88 6.18-1.4 9.25-1.74-1.73-4.73-.46-3.03 1.93l-1.04.06c-1.53-.04-3.33-.22-2.81 1.92l-.09.93c-1.28-.48-2.62-.82-3.98-.92.04 1.37.99 2.2 2.05 2.9-3.68.84-6.2 3.78-8.94 6.16-2.3 1.94-1.51 4.96-.3 7.28-.25 1.2-1.25 2.78.42 3.4 15.02-3.96 29.87-8.53 44.86-12.63 4.28 2.66 5.73-5.3 1.88-4.13 1.72-1.37.22-3.42-.65-4.81-2.55-3.15-3.24-7.28-4.4-11.07 8.18 3.52 14.84 10.19 22.83 14.34 4.26 4.19 10.7 6.06 14.56 10.54 1.68 22.68.54 45.55.57 68.3-.91-8.09-1.54-16.21-1.93-24.34-2.01.82-4.34 3.22-4.26-.53-1.45-.23-4.33-.71-5.78-.94 5.92.34 3.84-6.27 4.38-10.18.61-3.47.89-6.94.67-10.45.27-2.48.33-5.2-2.1-6.62-2.08.2-3.9 1.41-5.88 1.97-.59-2.5.13-5.17-.34-7.63-3.23-2.54-5.72-7.8-10.66-5.74-9.17 2.2-18.6 2.9-27.91 4.22-2.64.46-5.55-1.95-7.82.16-.95.93-4.02 1.57-2.25 3.16-3.36.1-6.77-.06-10.04 1.13-4.44.34-8.83.97-13.09 2.31-4.34.61-8.73.96-13.03 1.86-3.67.6-7.33 1.23-10.96 2.08-6.77.2-13.41 1.6-20.02 2.95-4.3.84-8.78.81-12.99 2.07l-.81.22-.82-.1c-13-11.07-26.49-21.58-40.03-31.98l-.26-.74c9.48-.41 18.78-2.73 28.26-3.02-1.69 1.58-2.99 3.92-1.45 6.1l.34.78c-2.28-.54-2.16 1.34-2.02 3 8.26.27 16.54-.26 24.79.25 8.68.82 18.01 1.82 26.51.05.77-.53.79-1.35.04-2.44l-.28-.87c.39-4.68-.39-9.24-1.09-13.83Z" id="#feaaabff"/><path fill="#fbaf69" d="M357.26 382.76c.21.36.62 1.08.83 1.44-.25 2.95-1.18 6.02-.39 8.97l-1.84-1.16c.52-3.07.96-6.18 1.4-9.25Z" id="#fbaf69ff"/><g id="#4f80d1ff" fill="#4f80d1"><path d="M469.12 387.28c1.24-.47.97 2.17 2.54 2.11 4.24 1.1 8.89.32 13.32.66l.03.95c-5.61.18-11.23-.32-16.81.13-1.3 1.73-2.1 4.09-4.26 4.95.76-3.35 3.52-5.84 5.18-8.8ZM200.03 460.02c4.81 4.12 9.96 8.34 12.97 13.98-4.81-4.13-9.99-8.34-12.97-13.98Z"/></g><path fill="#4d81d2" d="M111.94 387.92c3.54 1.91 8.09 3.37 10.15 7.14-3.89-1.18-8.02-3.54-10.15-7.14Z" id="#4d81d2ff"/><path fill="#4d81d1" d="M155.07 397.91c-.66-3.35-2.37-6.68-1.57-10.11.35.55 1.05 1.66 1.4 2.22 1.51 7.29 3.32 14.55 4.08 21.98.54 4.8.11 10.43 3.96 14.01-4.18-2.33-8.18-5.18-11.06-9.06 2.64.25 4.05 2.79 6.1 4.16.62-7.89-1.4-15.55-2.91-23.2Z" id="#4d81d1ff"/><path fill="#fde7b9" d="M370.29 388.19c4.45-2.39 7.55 1.31 8.7 4.86-.01 2.82-2.36 4.91-4.23 6.76-2.94.97-5.69-1.05-7.63-3.04-2.09-3.97.73-6.42 3.16-8.58m.95 1.99c-1.66 1.16-3.15 3.21-1.66 5.16 1.45 5.01 9.81.43 6.31-4.11-1.48-.55-3.01-1.68-4.65-1.05Z" id="#fde7b9ff"/><path fill="#f2c889" d="M277.16 390.15c1.18-2.34 3.51.47 3.82 1.92-.26.23-.78.68-1.04.9-1.14-.46-2.67-1.52-2.78-2.82Z" id="#f2c889ff"/><path fill="#fde9bb" d="M294.31 389.27c4.49-2.61 8.39 1.75 8.68 5.68-1.17 3.16-3.67 7.16-8.01 5.07-4.91-.02-5.61-9.59-.67-10.75m.93 1.91c-4.7 2.05-.85 10.82 4.09 6.15 3.63-3.42-.8-7.18-4.09-6.15Z" id="#fde9bbff"/><path fill="#f7b461" d="m305.98 388.97.98.14c.7 4.59 1.48 9.15 1.09 13.83-4.77.03-9.52.07-14.27.26-1.92-.12-3.85-.19-5.77-.23L288 402c6.3-.03 12.6.09 18.91-.06-.55-4.3-1.01-8.64-.93-12.97Z" id="#f7b461ff"/><path fill="#f4cf93" d="M272.9 390c2.01.82 4.35 1.86 5.16 4.03-1.34.23-2.9 2.46-4.08 1.44 2.36-1.85-1.21-3.34-1.08-5.47Z" id="#f4cf93ff"/><path fill="#f9b123" d="M371.24 390.18c1.64-.63 3.17.5 4.65 1.05 3.5 4.54-4.86 9.12-6.31 4.11-1.49-1.95 0-4 1.66-5.16Z" id="#f9b123ff"/><path fill="#f9b020" d="M295.24 391.18c3.29-1.03 7.72 2.73 4.09 6.15-4.94 4.67-8.79-4.1-4.09-6.15Z" id="#f9b020ff"/><path fill="#ffeed7" d="M352.83 393.94c-1.7-2.39 1.29-3.66 3.03-1.93l1.84 1.16c1.1.67 2.34 1.29 2.42 2.78l-2.95-.28c-1.4-.7-2.83-1.33-4.34-1.73Z" id="#ffeed7ff"/><path fill="#fff5e7" d="M348.98 395.92c-.52-2.14 1.28-1.96 2.81-1.92 1.26 1.33 2.79 2.35 4.35 3.31l-.43.74c-2.34-.39-4.5-1.37-6.73-2.13Z" id="#fff5e7ff"/><path fill="#f3be7f" d="m351.79 394 1.04-.06c1.51.4 2.94 1.03 4.34 1.73-.26.41-.77 1.23-1.03 1.64-1.56-.96-3.09-1.98-4.35-3.31Z" id="#f3be7fff"/><path fill="#f9b072" d="M384.23 394.1c.87 1.39 2.37 3.44.65 4.81-.41.02-1.22.07-1.63.09.37-1.63.69-3.26.98-4.9Z" id="#f9b072ff"/><path fill="#fff0de" d="M344.91 395.93c1.36.1 2.7.44 3.98.92 1.16 1.09 2.35 2.15 3.48 3.29-1.81 1.61-3.71-.6-5.41-1.31-1.06-.7-2.01-1.53-2.05-2.9Z" id="#fff0deff"/><path fill="#f6c786" d="M348.98 395.92c2.23.76 4.39 1.74 6.73 2.13-.7 1.16-2.27 1.36-3.34 2.09-1.13-1.14-2.32-2.2-3.48-3.29l.09-.93Z" id="#f6c786ff"/><path fill="#fff4e8" d="M337.72 412.27c15.13-4.59 30.48-8.36 45.53-13.27.41-.02 1.22-.07 1.63-.09 3.85-1.17 2.4 6.79-1.88 4.13-14.99 4.1-29.84 8.67-44.86 12.63-1.67-.62-.67-2.2-.42-3.4Z" id="#fff4e8ff"/><path fill="#fedadb" d="m231.08 400.05 1.04-.22c-.16 10.62-.25 21.24.06 31.86l-1.08.41-.19-.92c.13-10.39-.01-20.76.17-31.13Z" id="#fedadbff"/><path fill="#fe5a59" d="M232.12 399.83c13.54 10.4 27.03 20.91 40.03 31.98-.33 42.07-.08 84.14-.13 126.21.22 2.49.02 4.93-.6 7.34-13.46-9.31-25.82-20.23-39.3-29.57l-.13-.84c.01-2.95.04-5.81.2-8.72 1.64-11.67.46-23.5.84-35.23-.35-4.75.83-9.7-.78-14.28-.27-5.82-.33-11.64-.08-17.45.81-9.05 1.99-18.67.01-27.58-.31-10.62-.22-21.24-.06-31.86Z" id="#fe5a59ff"/><path fill="#4d7fd0" d="M456.79 408.3c1.18-2.32 1.53-6.55 4.26-7.33-.68 2.69-1.73 5.84-4.26 7.33Z" id="#4d7fd0ff"/><g id="#4f81d3ff" fill="#4f81d3"><path d="M132.34 402.37c1.19-1.12 2.18.42 2.65 1.38-11.11 4.49-22.99 7.31-35 7.3l.06-.94c10.96-1.12 22.74-1.75 32.29-7.74ZM200 507.97c10.51.48 20.54 4.08 30.97 5.15v.99c-9.01-.64-17.67-3.33-26.58-4.6-1.52-.33-3.06-.7-4.39-1.54Z"/></g><path fill="#f4c884" d="M258.67 402.17c9.77-.33 19.55-.15 29.33-.17l.01.97c-9.67.03-19.34.07-29-.02l-.34-.78Z" id="#f4c884ff"/><path fill="#fffaf5" d="M256.99 405.95c-.14-1.66-.26-3.54 2.02-3 9.66.09 19.33.05 29 .02 1.92.04 3.85.11 5.77.23 4.79.87 9.7.94 14.55.61.75 1.09.73 1.91-.04 2.44-8.84-.24-17.68-.5-26.51-.05-8.25-.51-16.53.02-24.79-.25Z" id="#fffaf5ff"/><path fill="#fff5d1" d="M293.78 403.2c4.75-.19 9.5-.23 14.27-.26l.28.87c-4.85.33-9.76.26-14.55-.61Z" id="#fff5d1ff"/><path fill="#feac71" d="M337.72 412.27c-1.21-2.32-2-5.34.3-7.28-.07 1.82-.23 5.46-.3 7.28Z" id="#feac71ff"/><path fill="#ffc0c2" d="M281.78 406.2c8.83-.45 17.67-.19 26.51.05-8.5 1.77-17.83.77-26.51-.05Z" id="#ffc0c2ff"/><path fill="#aabfe6" d="M498.01 407c2.5.25 7.51.74 10.01.98-3.38-.03-6.68.02-10.04.01l.03-.99Z" id="#aabfe6ff"/><path fill="#f4b0b1" d="M417.22 407.91c.43.04 1.29.11 1.73.14.32 23.72-.38 47.45.34 71.16.04.5.13 1.49.17 1.99-.02 2.24-.18 4.49-.49 6.76l-.96.05c-.05-3.94-.12-7.88-.22-11.8-.03-22.75 1.11-45.62-.57-68.3Z" id="#f4b0b1ff"/><path fill="#4f80d3" d="M454.21 412.7c-.32-1.53.84-4.37 2.58-4.4.31 1.52-.84 4.36-2.58 4.4Z" id="#4f80d3ff"/><path fill="#fea6a6" d="M391.89 411.75c4.94-2.06 7.43 3.2 10.66 5.74.47 2.46-.25 5.13.34 7.63-3.55 1.28-7.09 2.54-10.62 3.86-.46-2.96-4.03-2.04-6.22-2.92 1.11-1.51 3.04-2.76 2.94-4.85-2.85-1.07-5.02-3.08-7.28-5.02-9.01-.39-18.31.04-26.95 2.86l-.85.24c-1.77-1.59 1.3-2.23 2.25-3.16 2.27-2.11 5.18.3 7.82-.16 9.31-1.32 18.74-2.02 27.91-4.22Z" id="#fea6a6ff"/><path fill="#4f80d4" d="M449.95 420.03c.67-2.7 1.73-5.85 4.26-7.33-1.2 2.31-1.54 6.53-4.26 7.33Z" id="#4f80d4ff"/><path fill="#4c80cf" d="M511 418c-.18-2.46 2.33-3.81 4.03-5.1.16 2.44-2.23 3.93-4.03 5.1Z" id="#4c80cfff"/><path fill="#fea0a1" d="M354.76 419.05c8.64-2.82 17.94-3.25 26.95-2.86 2.26 1.94 4.43 3.95 7.28 5.02.1 2.09-1.83 3.34-2.94 4.85 2.19.88 5.76-.04 6.22 2.92-2.38 1.45-7.42 1.96-6.14 5.78 2.93 3.26 7.31-1.1 10.93-.82.03 1.39-.26 2.81-1.21 3.9-3.42 4.79-7.06 9.43-10.63 14.12-2.44-3.41-6.79-5.75-5.38-10.85-5.09-4.65-3.79-13.77-9.75-18.17-1.14-.87-.95-2.57-1.5-3.77-4.62-.22-9.22-.32-13.83-.12Z" id="#fea0a1ff"/><path fill="#fe9a9a" d="M343.87 420.42c3.27-1.19 6.68-1.03 10.04-1.13l.85-.24c4.61-.2 9.21-.1 13.83.12.55 1.2.36 2.9 1.5 3.77 5.96 4.4 4.66 13.52 9.75 18.17-1.41 5.1 2.94 7.44 5.38 10.85-2.88-.82-4.62 1.78-3.21 4.24-4.73 6.52-9.8 12.79-14.83 19.06 2.1-5.16 1.89-10.87.81-16.26-.23-3.38-5.1-4.79-2.97-9.01.77-4.54-2.12-8.04-4.47-11.43-.82-2.26.24-5.45-2.09-7-2.65-1.91-.83-6.56-4.03-8.04-2.94-2.57-6.92-2.47-10.56-3.1Z" id="#fe9a9aff"/><path fill="#fe9594" d="M330.78 422.73c4.26-1.34 8.65-1.97 13.09-2.31 3.64.63 7.62.53 10.56 3.1 3.2 1.48 1.38 6.13 4.03 8.04 2.33 1.55 1.27 4.74 2.09 7 2.35 3.39 5.24 6.89 4.47 11.43-2.13 4.22 2.74 5.63 2.97 9.01 1.08 5.39 1.29 11.1-.81 16.26-1.72 2.81-3.67 5.49-5.77 8.04-1.34-3.21-2.8-6.54-1.69-10.04-2.13-1.92-6.1-2.92-3.75-7.25 1.96-3.72-.67-4.78-2.46-6.54-2.01-3.59.43-9.22-3.49-11.48-3.94-2.16-.8-8.05-3.9-11.15-3.72-3.62-1.17-9.9-4.35-13.71l-10.99-.4Z" id="#fe9594ff"/><path fill="#fe908f" d="M317.75 424.59c4.3-.9 8.69-1.25 13.03-1.86l10.99.4c3.18 3.81.63 10.09 4.35 13.71 3.1 3.1-.04 8.99 3.9 11.15 3.92 2.26 1.48 7.89 3.49 11.48 1.79 1.76 4.42 2.82 2.46 6.54-2.35 4.33 1.62 5.33 3.75 7.25-1.11 3.5.35 6.83 1.69 10.04-3.29 4.73-6.79 9.33-10.42 13.81.02-2.13 1.57-3.82 1.81-5.84-2.87-2.4-7.93-4.21-5.72-9.26-.67-3.41 1.46-8.56-2.52-10.6-.98-4.21.01-10.09-4.21-12.79-2.07-7.94-1.73-17.68-8.21-23.72-2.18-2.33-.65-5.86-1.32-8.71-4.4-.1-8.74-.89-13.07-1.6Z" id="#fe908fff"/><path fill="#fe8b8a" d="M306.79 426.67c3.63-.85 7.29-1.48 10.96-2.08 4.33.71 8.67 1.5 13.07 1.6.67 2.85-.86 6.38 1.32 8.71 6.48 6.04 6.14 15.78 8.21 23.72 4.22 2.7 3.23 8.58 4.21 12.79 3.98 2.04 1.85 7.19 2.52 10.6-2.21 5.05 2.85 6.86 5.72 9.26-.24 2.02-1.79 3.71-1.81 5.84-1.89 2.79-3.82 5.57-6.03 8.12-6.03-8.73-9.58-19.09-16.01-27.63.99-.35 1.99-.67 3-.96-.96-3.26-6.68-3.62-4.12-8.63-1.04-3.48-1.81-6.95-1.26-10.64-3.89-2.77-.09-10.16-6.09-9.81-.55-2.6-3.11-3.62-4.59-5.53 3.09-2.72 4.88-8.07.55-10.41.21-5.22-6.11-4.01-9.65-4.95Z" id="#fe8b8aff"/><g id="#4d80d1ff" fill="#4d80d1"><path d="M162.94 426.01c3.74.69 5.6 4.5 8.07 6.99-3.7-.79-5.58-4.53-8.07-6.99ZM221.02 482.98c2.34 2.01 5.1 3.88 5.89 7.06-2.29-2.07-4.99-3.96-5.89-7.06Z"/></g><path fill="#fe8484" d="M286.77 429.62c6.61-1.35 13.25-2.75 20.02-2.95 3.54.94 9.86-.27 9.65 4.95 4.33 2.34 2.54 7.69-.55 10.41 1.48 1.91 4.04 2.93 4.59 5.53 6-.35 2.2 7.04 6.09 9.81-.55 3.69.22 7.16 1.26 10.64-2.56 5.01 3.16 5.37 4.12 8.63-1.01.29-2.01.61-3 .96-5.37 3.1-7.49 10-11.47 14.61-.8-2.7-5.93-5.15-3.31-8.01 2.48-2.97-2.54-4.82-2.51-7.86-.19-4.01-4.21-6.05-3.91-10.22-5.04-7.06-2.72-16.68-5.19-24.73-2.76-2.39-2.58-6.47-4.89-8.98-3.62-1.01-7.1-2.59-10.9-2.79Z" id="#fe8484ff"/><path fill="#4d80d2" d="M468.26 428.86c.27-.29.83-.88 1.11-1.18 1.93 11.65-5.51 23.83-1.26 35.35 6.71-5.6 12.14-12.58 18.94-18.09-.91 3.14-3.65 5.05-5.77 7.34-4.93 4.74-9.43 10.05-15.23 13.77-.41-8.82.04-17.67 1.65-26.36.42-3.6 1.67-7.26.56-10.83Z" id="#4d80d2ff"/><path fill="#4e81d1" d="M190.79 430.35c1.84-.89 1.32 2.57 2.05 3.65.68 5.96 1.44 11.95.19 17.91 1.93 3.02 4.88 5.21 7 8.11-6.24-2.91-10.08-9.44-15.29-13.83-2.98-.2-5.75 1.59-8.72 1.85 2.23-2.12 7.5-2.17 5.32-6.28 4.34 1.66 6.08 7.32 10.61 8.34.29-6.61.12-13.25-1.16-19.75Z" id="#4e81d1ff"/><path fill="#fe7d7d" d="M273.78 431.69c4.21-1.26 8.69-1.23 12.99-2.07 3.8.2 7.28 1.78 10.9 2.79 2.31 2.51 2.13 6.59 4.89 8.98 2.47 8.05.15 17.67 5.19 24.73-.3 4.17 3.72 6.21 3.91 10.22-.03 3.04 4.99 4.89 2.51 7.86-2.62 2.86 2.51 5.31 3.31 8.01-3.94 5.8-7.98 11.54-12.18 17.16-.92-2.89-1.74-5.82-4.91-6.85l-1.24-9.73c-3.73-3.72-1.93-9.52-5.55-13.26-.19-3.52-2.07-6.34-4.12-8.98-1.05-7.02-1.54-14.12-2.79-21.1-.55-.24-1.64-.73-2.19-.97-1.78-4.34-3.36-8.77-4.75-13.24-1.78-1.5-3.97-2.4-5.97-3.55Z" id="#fe7d7dff"/><path fill="#ffd4d5" d="M410.2 440.22c-.32-3.49-.09-7.03.67-10.45.22 3.51-.06 6.98-.67 10.45Z" id="#ffd4d5ff"/><path fill="#5c8ba7" d="m231.1 432.1 1.08-.41c-.27 9.19-.24 18.38-.01 27.58l-1.04-.31-.11-.96c-.07-8.63-.03-17.27.08-25.9Z" id="#5c8ba7ff"/><path fill="#e76f76" d="M232.18 431.69c1.98 8.91.8 18.53-.01 27.58-.23-9.2-.26-18.39.01-27.58Z" id="#e76f76ff"/><path fill="#fe6666" d="m272.15 431.81.82.1c.09 42.03-.05 84.06.08 126.1-.3 2.57.46 5.78-.73 8.34-.23-.25-.67-.74-.9-.99.62-2.41.82-4.85.6-7.34.05-42.07-.2-84.14.13-126.21Z" id="#fe6666ff"/><path fill="#fe7676" d="m272.97 431.91.81-.22c2 1.15 4.19 2.05 5.97 3.55 1.39 4.47 2.97 8.9 4.75 13.24.55.24 1.64.73 2.19.97 1.25 6.98 1.74 14.08 2.79 21.1 2.05 2.64 3.93 5.46 4.12 8.98 3.62 3.74 1.82 9.54 5.55 13.26l1.24 9.73c3.17 1.03 3.99 3.96 4.91 6.85-9.39 13.27-18.38 26.82-27.92 39.99-2.28 2.85 2.49 6.27 4.4 3.42 8.72-11.81 16.33-24.42 25.21-36.13 2.02.99 2.17 3.82 4.38 4.96-1.76 6.17 3.82 6.31 7.55 7.6 1.82 4.63-4.54 9.72-1.09 13.97 3.92 3.78 1.4 9.92 2.28 14.83 1.69.16 3.76.14 4.35-1.83.58.87 1.1 1.77 1.66 2.68-16.89 3.09-34.04 4.77-51.03 7.34-.76-.15-3.62 1.8-2.77.15 1.19-2.56.43-5.77.73-8.34-.13-42.04.01-84.07-.08-126.1Z" id="#fe7676ff"/><path fill="#4e7ed0" d="M491.85 439.88c1.26-3.5 4.47-5.69 7.2-7.99-.49 3.8-4.65 5.62-7.2 7.99Z" id="#4e7ed0ff"/><path fill="#4b80d1" d="M171.01 433c4.06 1.13 6.35 5.16 9.09 8.06-4.16-.81-6.19-5.4-9.09-8.06Z" id="#4b80d1ff"/><path fill="#6595e5" d="M192.84 434c14.4 12.18 26.66 27.07 38 42.22.06.46.16 1.38.21 1.84-.05 5.01-.01 10.06-.12 15.08-1.3-1.08-2.63-2.13-4.02-3.1-.79-3.18-3.55-5.05-5.89-7.06-1.62-3.78-4.85-6.51-8.02-8.98-3.01-5.64-8.16-9.86-12.97-13.98-2.12-2.9-5.07-5.09-7-8.11 1.25-5.96.49-11.95-.19-17.91Z" id="#6595e5ff"/><path fill="#fea7a7" d="M396.12 446.83c2.66-3.85 5.06-8.09 8.79-10.99.01 1.31-.01 2.62-.07 3.94-.01 2.96-1.98 6.67-.08 9.46.26.29.8.87 1.06 1.16 1.45.23 4.33.71 5.78.94-.08 3.75 2.25 1.35 4.26.53.39 8.13 1.02 16.25 1.93 24.34.1 3.92.17 7.86.22 11.8-.08 6.73.18 13.48-.25 20.21-1.2-8.31-.28-16.75-1.91-25.02-2.93 1.21-6.01-1.03-3.93-5.18 2.22-5.19-4.97-6.86-3.02-12.03-.42-2.9-.62-5.84-1.1-8.7-4.94 1.76-4.43-3.22-7.16-4.89-2.2-1.38-1.25-5.48-4.52-5.57Z" id="#fea7a7ff"/><path fill="#f4c0c3" d="M404.76 449.24c-1.9-2.79.07-6.5.08-9.46.06 3.16-.07 6.27-.08 9.46Z" id="#f4c0c3ff"/><path fill="#5181cd" d="M487.92 443.98c.73-1.84 1.79-3.73 3.93-4.1-.23 1.04-.45 2.1-.66 3.16 7.59.3 15.14-.66 22.7-1.1 1.36-.04 2.73-.02 4.1.07.42 2.97-4.97.07-6.16 2.64-7.83-1.69-15.99-.11-23.91-.67Z" id="#5181cdff"/><path fill="#fea4a3" d="M396.12 446.83c3.27.09 2.32 4.19 4.52 5.57 2.73 1.67 2.22 6.65 7.16 4.89.48 2.86.68 5.8 1.1 8.7-1.95 5.17 5.24 6.84 3.02 12.03-2.08 4.15 1 6.39 3.93 5.18 1.63 8.27.71 16.71 1.91 25.02.51 4.31-.49 8.91.91 13.12.74 8.49.21 17.1.3 25.65-1.75.06-3.5-.04-5.23-.21 2.32-.99 6.08-1.12 3.26-5.8.08-8.53.37-17.14-1.3-25.55-3.42-.38-3.23-4.3-4.27-6.81-2.88-5.75-.51-13.75-6.01-18.04.09-7.91-2.76-15.34-7.19-21.78-2.06-2.47.19-6.64-2.55-8.52-2.94-.41-5.8-.59-8.69-1.16 2.59-4.42 6.06-8.21 9.13-12.29Z" id="#fea4a3ff"/><path fill="#4c81d1" d="M148.92 450.05c9.13 2.28 18.11-.71 27.1-2.01-7.68 4.14-16.88 4.86-25.36 3.37-.91.21-4.48-1.71-1.74-1.36Z" id="#4c81d1ff"/><path fill="#faa5a4" d="M382.01 456.2c-1.41-2.46.33-5.06 3.21-4.24a428.87 428.87 0 0 0-3.21 4.24Z" id="#faa5a4ff"/><path fill="#fcd9da" d="m231.13 458.96 1.04.31c-.25 5.81-.19 11.63.08 17.45l-.12 1.07-1.08.27c-.05-.46-.15-1.38-.21-1.84.09-5.76.08-11.52.29-17.26Z" id="#fcd9daff"/><path fill="#ff9f9f" d="M386.99 459.12c2.89.57 5.75.75 8.69 1.16 2.74 1.88.49 6.05 2.55 8.52 4.43 6.44 7.28 13.87 7.19 21.78 5.5 4.29 3.13 12.29 6.01 18.04 1.04 2.51.85 6.43 4.27 6.81 1.67 8.41 1.38 17.02 1.3 25.55 2.82 4.68-.94 4.81-3.26 5.8-.41.06-1.23.16-1.64.21-3.88-1.59.3-3.82-.56-6.35 1.3-4.99-6.13-5.33-3.63-10.66.31-6.72-8.74-8.78-7.17-15.82-4.48-4.29-3.63-10.24-4.15-15.84-2.6-3.36-1.63-8.18-4.74-11.15-2.26-3.56-1.84-8.28-4.28-11.78-2.06-2.99-2.99-8.93-7.94-6.8 1.09-1.59 2.3-3.08 3.47-4.6 2.15.83 5.16-1.14 2.75-3.15.29-.43.86-1.29 1.14-1.72Z" id="#ff9f9fff"/><path fill="#7e90b8" d="M419.29 479.21c3.97-6.46 6.33-14.48 10.77-20.29.19 3.02-2 5.41-3.05 8.08-2.61 4.67-4.36 9.87-7.55 14.2-.04-.5-.13-1.49-.17-1.99Z" id="#7e90b8ff"/><path fill="#faa7a6" d="M383.1 463.99c.56-1.33 1.54-2.38 2.75-3.15 2.41 2.01-.6 3.98-2.75 3.15Z" id="#faa7a6ff"/><path fill="#ff9a9b" d="M379.63 468.59c4.95-2.13 5.88 3.81 7.94 6.8 2.44 3.5 2.02 8.22 4.28 11.78 3.11 2.97 2.14 7.79 4.74 11.15.52 5.6-.33 11.55 4.15 15.84-1.57 7.04 7.48 9.1 7.17 15.82-2.5 5.33 4.93 5.67 3.63 10.66.86 2.53-3.32 4.76.56 6.35l-.08.87c-4.29-.25-8.53 1.14-12.79.86-1.56-.22-4.67-.65-6.22-.87-.48-3.24 4.33-3.2 6.01-5.08-.64-3.33-3.58-5.66-5.39-8.39-1.32-4.98-1.43-10.17-1.84-15.26-1.73-3.12-4.32-5.6-6.3-8.53-1.72-6.69-1.49-14.95-7.58-19.48-2.26-4.04-.2-10.84-6-12.36 2.6-3.37 5.08-6.84 7.72-10.16Z" id="#ff9a9bff"/><path fill="#4c7dce" d="M459.25 471.24c.46-.06 1.38-.2 1.84-.27-2.04 2.18-3.8 6-7.18 6.06 1.39-2.23 3.44-4 5.34-5.79Z" id="#4c7dceff"/><path fill="#6a8ac4" d="M93.91 473.96c2.72-.01 4.06 2.82 6.03 4.3.58 3.24-1.64.36-2.82-.47-1.16-1.2-2.35-2.4-3.21-3.83Z" id="#6a8ac4ff"/><path fill="#4f81d2" d="M213 474c3.17 2.47 6.4 5.2 8.02 8.98-3.21-2.43-6.45-5.2-8.02-8.98Z" id="#4f81d2ff"/><path fill="#d1def7" d="M111 475.01c5.66-.02 11.32-.17 16.98.03l.03.96c-5.67-.01-11.34.01-17.01-.03v-.96Z" id="#d1def7ff"/><path fill="#f06571" d="M232.25 476.72c1.61 4.58.43 9.53.78 14.28-.38 11.73.8 23.56-.84 35.23l-.06-1.04c-.22-15.8-.22-31.6 0-47.4l.12-1.07Z" id="#f06571ff"/><path fill="#8e82c1" d="m231.05 478.06 1.08-.27c-.22 15.8-.22 31.6 0 47.4l-1.06-.23c-.07-3.65-.04-7.23-.1-10.85v-.99c.07-5.98.04-11.96-.05-17.92.01-.51.01-1.54.01-2.06.11-5.02.07-10.07.12-15.08Z" id="#8e82c1ff"/><path fill="#fe9695" d="M361.89 491.79c3.35-4.34 6.57-8.78 10.02-13.04 5.8 1.52 3.74 8.32 6 12.36 6.09 4.53 5.86 12.79 7.58 19.48 1.98 2.93 4.57 5.41 6.3 8.53.41 5.09.52 10.28 1.84 15.26 1.81 2.73 4.75 5.06 5.39 8.39-1.68 1.88-6.49 1.84-6.01 5.08 1.55.22 4.66.65 6.22.87-4.81 1.6-10.05 1.67-15.03 2.1-.65-1.83-1.5-3.59-2.45-5.28-.26-2.94 4.93-8.11.12-9.36-5.4-1.66-.28-9.62-4.99-12.06-2.8-3.96.35-10.72-4.52-13.51-2.29-5.48-.84-11.7-1.53-17.44-3-.53-5.93-1.05-8.94-1.38Z" id="#fe9695ff"/><path fill="#5182cf" d="M449.2 480.13c9.33 3.49 19.79 3.48 29.56 1.66 3.33-.81 6.12 2.99-1.4 1.75-1.36.28-2.66.82-4.04.99-8.05-.52-16.1-1.01-24.09-2.11-1.74 1.28-2.99 3.49-5.33 3.66 1.53-2.18 3.41-4.08 5.3-5.95Z" id="#5182cfff"/><path fill="#4c7fd1" d="M155.95 483.91c3.11 2.1 6.34 5.41 7.1 9.18-3.12-2.11-6.34-5.43-7.1-9.18Z" id="#4c7fd1ff"/><g id="#4b7fd0ff" fill="#4b7fd0"><path d="M105.93 485.88c1.92 1.16 3.64 2.82 4.13 5.1-1.72-1.35-4.19-2.59-4.13-5.1ZM429.94 498.07c1.43-2.2 3.21-4.8 6.09-5.06-1.44 2.24-3.27 4.6-6.09 5.06Z"/></g><path fill="#f9908f" d="M322.02 495.04c2.2-2.7 3.5-6.82 6.84-8.14 1.45 2.64 2.76 5.37 4.09 8.09-3.58-.96-7.31-.26-10.93.05Z" id="#f9908fff"/><path fill="#dbabc7" d="m418.01 488.01.96-.05.04 1.02c.19 10.43-.64 20.93.65 31.33l-.99 1.03c-1.4-4.21-.4-8.81-.91-13.12.43-6.73.17-13.48.25-20.21Z" id="#dbabc7ff"/><path fill="#4c7fd0" d="M436.03 493.01c1.3-2.31 3.26-4.67 6.07-5.08-1.47 2.18-3.23 4.69-6.07 5.08Z" id="#4c7fd0ff"/><path fill="#9890c5" d="m419.01 488.98 1.01.05c.06 10.09-.54 20.22.62 30.27-.24.25-.74.76-.98 1.01-1.29-10.4-.46-20.9-.65-31.33Z" id="#9890c5ff"/><path fill="#4c7dd3" d="M226.91 490.04c1.39.97 2.72 2.02 4.02 3.1 0 .52 0 1.55-.01 2.06-1.66-1.43-3.49-2.92-4.01-5.16Z" id="#4c7dd3ff"/><path fill="#4d80d0" d="M110.06 490.98c3.08 1.85 4.24 6.65 8.95 5.04 16.11 1.17 32.05 3.77 48.06 5.74-.66-1.99-1.59-3.89-2.08-5.92 1.91 1.55 2.99 3.81 4.45 5.76 9.79 3.76 20.84 2.52 30.56 6.37-18.36-1.56-36.33-6.14-54.69-7.73-2.52 1.8-4.05 5.43-7.37 5.85 1.63-2.06 3.43-3.96 5.09-5.99-23.45-3.65-47.33-4.26-71.04-4.07-3.56.7-3.59-1.76-.02-1.06 13.35.21 26.74-.49 40.06.71-.6-1.59-1.38-3.11-1.97-4.7Z" id="#4d80d0ff"/><path fill="#fe9191" d="M354 502.8c2.28-3.9 5.19-7.4 7.89-11.01 3.01.33 5.94.85 8.94 1.38.69 5.74-.76 11.96 1.53 17.44 4.87 2.79 1.72 9.55 4.52 13.51 4.71 2.44-.41 10.4 4.99 12.06 4.81 1.25-.38 6.42-.12 9.36.95 1.69 1.8 3.45 2.45 5.28-4.18 2.31-9.66.97-14.2 2.08-.97-6.18-.92-12.46-1.21-18.68-6.43-5.91-6.66-15.55-8.27-23.63.46-3.8-2.64-7.85-6.52-7.79Z" id="#fe9191ff"/><path fill="#fe8181" d="M322.02 495.04c3.62-.31 7.35-1.01 10.93-.05l.39.78c-.7 2.94-2.73 3.34-5.31 2.36-1.04 3.41 1.44 2.64 3.73 2.01-.25 2.85 1.14 5.14 4.2 5.24-1.1 2.25-3.65 6.08.77 6.01 1.63 6.29 3.1 12.66 3.66 19.2 6.06 5.27 9.14 14.05 8.03 21.98 2.43.63.24 2.19-.52 3.34-6.82 1.82-14.57 2.23-21.78 2.95-.56-.91-1.08-1.81-1.66-2.68-.59 1.97-2.66 1.99-4.35 1.83-.88-4.91 1.64-11.05-2.28-14.83-3.45-4.25 2.91-9.34 1.09-13.97-3.73-1.29-9.31-1.43-7.55-7.6-2.21-1.14-2.36-3.97-4.38-4.96 5.36-6.95 9.63-14.68 15.03-21.61Z" id="#fe8181ff"/><path fill="#fe8a8a" d="M333.34 495.77c2.94 5.7 5.8 11.44 8.96 17.03 3.72 1.5 5.61-2.49 7.59-4.81 2.87.41 5.15-1.32 3.2-4.04l.91-1.15c3.88-.06 6.98 3.99 6.52 7.79 1.61 8.08 1.84 17.72 8.27 23.63.29 6.22.24 12.5 1.21 18.68-7.31 1.1-14.68 2.5-22.1 3.01.76-1.15 2.95-2.71.52-3.34 1.11-7.93-1.97-16.71-8.03-21.98-.56-6.54-2.03-12.91-3.66-19.2-4.42.07-1.87-3.76-.77-6.01-3.06-.1-4.45-2.39-4.2-5.24-2.29.63-4.77 1.4-3.73-2.01 2.58.98 4.61.58 5.31-2.36Z" id="#fe8a8aff"/><path fill="#4e81d4" d="M426.25 500.23c.46-.07 1.39-.2 1.85-.26-1.31 1.74-2.7 4.23-5.2 4.06.85-1.48 2.1-2.66 3.35-3.8Z" id="#4e81d4ff"/><path fill="#f99794" d="M349.89 507.99c1.03-1.38 2.08-2.74 3.2-4.04 1.95 2.72-.33 4.45-3.2 4.04Z" id="#f99794ff"/><path fill="#4e7fd1" d="M124.04 515.01c2.21-2.75 6.33-5.12 10.03-6.08-2.14 3.2-6.5 4.79-10.03 6.08Z" id="#4e7fd1ff"/><path fill="#4e80d1" d="M117.92 519.06c1.1-2.32 3.57-3.9 6.12-4.05-1.27 2.03-3.77 3.55-6.12 4.05Z" id="#4e80d1ff"/><path fill="#c4dcfd" d="M150.7 519.63c11.03-1.53 22.47-.74 33.56.08-11.17.31-22.42.72-33.56-.08Z" id="#c4dcfdff"/><path fill="#bccbec" d="M133.7 520.62c2.68-.84 5.5-.65 8.3-.63-.9 2.29-5.87.58-8.3.63Z" id="#bccbecff"/><path fill="#b6cefb" d="M107 521.03c7-.09 13.99-.06 20.99 0l.01.96c-7 .04-13.99.08-20.99-.01l-.01-.95Z" id="#b6cefbff"/><path fill="#fddadc" d="m231.07 524.96 1.06.23.06 1.04c-.16 2.91-.19 5.77-.2 8.72-2.9-.61-.29-7.21-.92-9.99Z" id="#fddadcff"/></svg>