<svg width="780" height="1600" viewBox="0 0 585 1200" xmlns="http://www.w3.org/2000/svg"><path fill="#231f20" opacity=".97" d="M200.34 362.5c13.43-1 27.64-1.41 40.32 3.92 9.53 5.9 18.25 12.98 27.1 19.83 1.4 1.7 3.05-.43 4.47-1.01 4.94-3.5 11.18-4.38 16.16-7.77 11.41-1.27 23.92-3.87 34.64 1.43 11.42 3 23.95 4.62 33.02 13.03 9.96 11.05 17.34 24.86 19.21 39.78l.94 1.22c10.63.19 21.84-4.71 32.13-.33 12.62 4 22.52 13.91 28.67 25.4 2.97 5.5 4.9 11.52 8.33 16.79 20.08-2.24 42.82 8.13 50.18 27.82 1.2 2.37 2.18 4.85 4.16 6.72 6.47 18.71 9.88 38.37 11.98 57.99 2.15 4.33 2.55 10.27 7.05 12.93.62 4.76 3.05 8.97 4.72 13.42 3.11 9.02 3.99 18.68 7.12 27.69.51 11.23 2.08 22.42 2.45 33.65-1.39 16.93-4.99 33.68-10.43 49.75-2.29 5.03-3.18 10.55-3.81 16.01-4.03 2.02-4.49 6.9-6.32 10.57-7.83 17.38-15.38 35.04-26.38 50.72-10.62 13.98-21.46 28.11-28.6 44.28-9.04 20.26-8.28 42.97-10.74 64.59-4.76 47.94-5.84 96.07-8.73 144.06.76 41.19-.81 82.26-2.52 123.34-1.59 11.57 1.72 23.01.5 34.64-112.31.04-224.62.08-336.93-.02.27-34.16-.01-68.28-2.43-102.3-1.86-19.5-1.48-39.24-4.81-58.58-4.86-22.35-4.99-45.53-10.13-67.78.52-13.48-2.76-26.85-3.76-40.29-3.84-25.95-11.08-51.53-10.98-77.94-3.2-5.12-1.76-11.72-3.38-17.4 2.55-6.07-7.57-4.2-3.55-10.68-4.11-19.3-6.71-38.98-11.94-58.05-1.02-5.68-3.18-11.38-2.67-17.17-3.32-24.04-5.33-48.4-4.2-72.69 2.71-16.79 6.34-33.46 11.29-49.72 3.18-5.71 6.92-11.47 7.79-18.08.64-.14 1.92-.42 2.56-.55 11.2-18.19 22.5-36.3 32.93-54.95 9.64-16.48 23.84-29.5 35.9-44.1 2.59-4.56 2.61-10.04 3.93-15a2965.15 2965.15 0 0 1 15.62-77.58c4.07-14.16 12.44-26.73 22.82-37.03 8.13-4.64 16.55-9.95 26.32-10.56m1.99 34.9c-8.57 2.47-15.95 10.4-16.55 19.52-3.07 14.34-9 27.85-11.38 42.37-.52 5.83-4.88 10.79-4.41 16.72 23.88-1.91 47.87-1.54 71.78-3.2 1.84-4.65 3.94-9.92 2.46-14.89-.75-12.96-1.05-25.97-2.18-38.93.6-6.5-3.89-11.71-7.99-16.04-8.57-7.78-21.18-5.97-31.73-5.55m94.99 12c-7.21.38-12.92 4.88-19.16 7.84-.88 15.9 1.01 31.94-1.08 47.76-.36 5.44-1.17 12.37 4.2 15.69 8.65 2.88 18.05 2.33 26.7 5.4 7.09 2.85 14.15 5.99 20.25 10.69 2.62 2.22 4.83 5.81 8.52 6.19 6.7-18.78 5.9-39.04 4.67-58.63-1.18-7.72.53-17.06-5.63-23.13-9.41-10.68-24.87-13.83-38.47-11.81m93.03 53.94c-4 1.9-6.66 5.46-6.97 9.94-.13 12.1-2.11 24.08-4.05 36.01-3.93 26.75-8.55 53.6-8.4 80.72-1.27 8.62-1.51 18.74 4.27 25.87 3.15.78 6.33-1.14 7.82-3.86 4.32-6.58 10.64-11.43 15.22-17.78 16.31-28.03 24.63-61.78 17.28-93.9-2.12-9.61-3.09-19.85-8.57-28.31-3.81-5.36-9.16-11.59-16.6-8.69m60.69 43.65c.16 23.03.7 46.83-7.43 68.79-3.5 8.43-6.18 17.2-10.58 25.23-3.34 8.22-9.67 14.8-12.98 22.99 1.54 6.76 3.68 13.39 6.14 19.88 7.8.77 15.15-3.18 21.58-7.12 12.36-7.59 20.63-21.14 22.67-35.42 4.07-19.13 6.02-39.02 2.78-58.41-1.01-7.81-.94-16.21-4.86-23.25-2.77-6.91-9.02-14.24-17.32-12.69m-253.7 1.52c-15.24 2.26-31.01 7.43-41.6 19.24-11.85 14.28-22.58 29.48-33.36 44.59-7.69 12.28-17.25 23.44-23.4 36.65-5.16 10.05-9.67 20.41-14.35 30.69-4.5 8.48-7.31 17.81-8.57 27.31-.55 15.58.34 31.14 1.53 46.67 1.27 12.78 1.5 25.78 4.46 38.34 3.56 11.97 5.57 24.33 7.42 36.66 2.72 14.53 6.71 28.81 9.45 43.33.11 19.89 5.71 39.1 8.52 58.68 6.37 32.87 9.36 66.3 14.35 99.4 6.29 49.43 12.01 99.07 12.22 148.93.52 17.34-1.92 34.56-.97 51.93 89.59.18 179.19-.02 268.78.11-1.67-4.14-.48-8.79-.84-13.04.12-26.67-.13-53.34.11-80.01 2.13-16.81-.09-33.82 1.38-50.66 1.45-12.41-.59-24.98 1.43-37.33.43-9.34-.59-18.75.99-28 .12-25.87 4.04-51.52 5.79-77.28 2.06-25.33 2.85-51 9.3-75.73 4.17-17.56 12.71-33.92 24.22-47.79 7.4-9.86 13.75-20.46 19.78-31.18 7.75-17.95 17.9-34.8 24.88-53.1 2.97-11.76 5.11-23.71 7.64-35.57 2.52-9.58 1.25-19.64 1.45-29.41-.45.05-1.35.13-1.79.18-4.61 10.78-12.43 20.18-21.48 27.54-9.91 6.26-19.52 13.46-30.75 17.23-21.52 8.3-49.51-5.33-53.04-28.89-5.42.03-10.38 3.35-15.88 3.01-7.3-.6-15.38-1.82-20.82-7.21-5.36-4.57-8.25-11.14-12.38-16.69-5.31-1.32-7.97 4.59-11.83 6.87-9.77 7.47-22.92 5.12-34.27 4.37-17.23-.7-35.35-8.78-43.83-24.42-4.74 3.18-6.83 9.14-11.91 12.04-8.02 6.74-17.95 13.1-28.98 11.02-8.09.27-14.78-4.72-21.84-7.86-5.13 13.06-25.91 13.14-32.09.81-3.31-5.02-2.07-11.77 1.49-16.33 11.04-18.42 24.05-35.59 39.09-50.91 3.02-5.27 8.74-7.91 12.6-12.44 7.47-4.41 16.25-5.54 24.74-6.23 27.36-.33 55.44 2.02 81.95-6.27.54-3.16-2.18-5.53-4.12-7.57-4.06-4.54-9.26-7.93-14.94-10.03-15.67-6.18-32.69-6.4-49.15-8.8-17.08-1.42-34.28-3.36-51.38-2.85m124.91 64.94c-14.6 2.56-29.43 3.54-44.1 5.69-1.44 6.14-2.1 13.39 2.06 18.67 6.15 7.21 16.76 9.5 25.78 7.32 3.68.58 7.05-1.15 9.31-3.85 4.91-7.41 8.22-16.27 8.64-25.22-.55-.74-.43-3.09-1.69-2.61m-91.93 7.89c-8.8 5.6-19.47 12.78-21.36 23.68 3.93-.16 8.38-.84 11.03-4.04 4.58-6.09 8.61-12.79 11.1-20l-.77.36Z" id="#231f20f8"/><g id="#ffd5ffff" fill="#ffd5ff"><path d="M202.33 397.4c10.55-.42 23.16-2.23 31.73 5.55 4.1 4.33 8.59 9.54 7.99 16.04 1.13 12.96 1.43 25.97 2.18 38.93 1.48 4.97-.62 10.24-2.46 14.89-23.91 1.66-47.9 1.29-71.78 3.2-.47-5.93 3.89-10.89 4.41-16.72 2.38-14.52 8.31-28.03 11.38-42.37.6-9.12 7.98-17.05 16.55-19.52ZM297.32 409.4c13.6-2.02 29.06 1.13 38.47 11.81 6.16 6.07 4.45 15.41 5.63 23.13 1.23 19.59 2.03 39.85-4.67 58.63-3.69-.38-5.9-3.97-8.52-6.19-6.1-4.7-13.16-7.84-20.25-10.69-8.65-3.07-18.05-2.52-26.7-5.4-5.37-3.32-4.56-10.25-4.2-15.69 2.09-15.82.2-31.86 1.08-47.76 6.24-2.96 11.95-7.46 19.16-7.84ZM390.35 463.34c7.44-2.9 12.79 3.33 16.6 8.69 5.48 8.46 6.45 18.7 8.57 28.31 7.35 32.12-.97 65.87-17.28 93.9-4.58 6.35-10.9 11.2-15.22 17.78-1.49 2.72-4.67 4.64-7.82 3.86-5.78-7.13-5.54-17.25-4.27-25.87-.15-27.12 4.47-53.97 8.4-80.72 1.94-11.93 3.92-23.91 4.05-36.01.31-4.48 2.97-8.04 6.97-9.94ZM451.04 506.99c8.3-1.55 14.55 5.78 17.32 12.69 3.92 7.04 3.85 15.44 4.86 23.25 3.24 19.39 1.29 39.28-2.78 58.41-2.04 14.28-10.31 27.83-22.67 35.42-6.43 3.94-13.78 7.89-21.58 7.12-2.46-6.49-4.6-13.12-6.14-19.88 3.31-8.19 9.64-14.77 12.98-22.99 4.4-8.03 7.08-16.8 10.58-25.23 8.13-21.96 7.59-45.76 7.43-68.79Z"/><path d="M197.34 508.51c17.1-.51 34.3 1.43 51.38 2.85 16.46 2.4 33.48 2.62 49.15 8.8 5.68 2.1 10.88 5.49 14.94 10.03 1.94 2.04 4.66 4.41 4.12 7.57-26.51 8.29-54.59 5.94-81.95 6.27-8.49.69-17.27 1.82-24.74 6.23-3.86 4.53-9.58 7.17-12.6 12.44-15.04 15.32-28.05 32.49-39.09 50.91-3.56 4.56-4.8 11.31-1.49 16.33 6.18 12.33 26.96 12.25 32.09-.81 7.06 3.14 13.75 8.13 21.84 7.86 11.03 2.08 20.96-4.28 28.98-11.02 5.08-2.9 7.17-8.86 11.91-12.04 8.48 15.64 26.6 23.72 43.83 24.42 11.35.75 24.5 3.1 34.27-4.37 3.86-2.28 6.52-8.19 11.83-6.87 4.13 5.55 7.02 12.12 12.38 16.69 5.44 5.39 13.52 6.61 20.82 7.21 5.5.34 10.46-2.98 15.88-3.01 3.53 23.56 31.52 37.19 53.04 28.89 11.23-3.77 20.84-10.97 30.75-17.23 9.05-7.36 16.87-16.76 21.48-27.54.44-.05 1.34-.13 1.79-.18-.2 9.77 1.07 19.83-1.45 29.41-2.53 11.86-4.67 23.81-7.64 35.57-6.98 18.3-17.13 35.15-24.88 53.1-6.03 10.72-12.38 21.32-19.78 31.18-11.51 13.87-20.05 30.23-24.22 47.79-6.45 24.73-7.24 50.4-9.3 75.73-1.75 25.76-5.67 51.41-5.79 77.28-1.58 9.25-.56 18.66-.99 28-2.02 12.35.02 24.92-1.43 37.33-1.47 16.84.75 33.85-1.38 50.66-.24 26.67.01 53.34-.11 80.01.36 4.25-.83 8.9.84 13.04-89.59-.13-179.19.07-268.78-.11-.95-17.37 1.49-34.59.97-51.93-.21-49.86-5.93-99.5-12.22-148.93-4.99-33.1-7.98-66.53-14.35-99.4-2.81-19.58-8.41-38.79-8.52-58.68-2.74-14.52-6.73-28.8-9.45-43.33-1.85-12.33-3.86-24.69-7.42-36.66-2.96-12.56-3.19-25.56-4.46-38.34-1.19-15.53-2.08-31.09-1.53-46.67 1.26-9.5 4.07-18.83 8.57-27.31 4.68-10.28 9.19-20.64 14.35-30.69 6.15-13.21 15.71-24.37 23.4-36.65 10.78-15.11 21.51-30.31 33.36-44.59 10.59-11.81 26.36-16.98 41.6-19.24Z"/><path d="M322.25 573.45c1.26-.48 1.14 1.87 1.69 2.61-.42 8.95-3.73 17.81-8.64 25.22-2.26 2.7-5.63 4.43-9.31 3.85-9.02 2.18-19.63-.11-25.78-7.32-4.16-5.28-3.5-12.53-2.06-18.67 14.67-2.15 29.5-3.13 44.1-5.69ZM230.32 581.34l.77-.36c-2.49 7.21-6.52 13.91-11.1 20-2.65 3.2-7.1 3.88-11.03 4.04 1.89-10.9 12.56-18.08 21.36-23.68ZM513.98 734.1c.94-2.67 1.08-6.31 3.04-8.18-.49 3.14 2.04 9.2-3.04 8.18Z"/></g></svg>