<svg width="485pt" height="1085pt" viewBox="0 0 485 1085" xmlns="http://www.w3.org/2000/svg"><path fill="#231f20" d="M109 36.99c9.95-8.29 24.76-4.48 33.83 3.18 5.1 3.97 6.51 10.46 8.95 16.1 7.99 14.63 9.21 31.62 12.16 47.73 2.92 20.87 3.72 41.98 5.01 62.99 2.18 42.68.97 86.55 14.36 127.71 3.13 10.12 11.79 16.8 18.95 24.02 3.47 3.36 11.42 4.11 13.36-1.21 8.19-9.07 9.33-21.98 11.32-33.51 6.89-53.53 10.21-107.57 20.48-160.63 5.16-24.13 10.05-49.22 23.69-70.22 9.24-14.13 29.93-21.25 44.91-12.18 6.26 2.79 9.31 9.36 14.57 13.43 6.29 13.61 9.94 28.55 9.62 43.59 1.37 18.63 1.88 37.33 1.78 56.02-1.42 25.65-2.53 51.32-3.01 77-2.21 30.99-.78 62.15-3.91 93.11 2.2-.52 3.88-2.13 5.66-3.41 15-13.1 39.41-15.1 55.56-3 9.12 8.58 12.7 21.35 14.5 33.39 2.36 12.25-1.11 24.55-1.65 36.82 9.26.61 19.26-1.48 27.82 3.11 5.66 2.42 9.73 7.41 15.55 9.48 8.7 16.45 12.42 35.25 11.9 53.78-.74 28.77-8.05 57.04-18.29 83.81-1.5 2.81.11 7.46-3.65 8.45-2.43 6.23-4.78 12.5-7.06 18.79-2.97 11.36-3.68 23.18-6.48 34.59-3.5 15.21-7.37 30.24-9.45 45.66-2.59 9.81-6.29 19.27-8.88 29.08-5.24 15-7.76 30.9-14.5 45.37-8.75 19.39-11.96 40.54-16.89 61.07-3.46 15.78-3.46 31.97-4.97 47.99-3.45 48.29-8.88 96.53-8.98 144.97-1.2 12.61-1.49 25.26-1.24 37.93-.51 24.34-2.41 48.63-2.02 73h-36.05c1.21-31.32 2.7-62.63 2.04-94.01 1.48-27.11.9-54.32 3.42-81.39 1.17-31.96 5.45-63.71 8.82-95.49 2.28-14.26 2.16-28.71 3.98-43 1.85-17.13 7.57-33.5 10.52-50.4 9.07-18.92 14.91-39.12 22.16-58.75 4-12.35 9.3-24.4 12.17-37.06l-1.73.48c-12.82 10.1-26.23 20.44-42.3 24.65-9.04 3.14-18.61-.78-25.89-6.14-10.06-7.62-11.01-21.35-11.02-32.88 1.42-16.63 5.54-32.82 8.84-49.12-4.1 1.07-7.33 4.06-10.95 6.13-8.59 5.38-18.16 9.76-28.41 10.44-12.58 2.92-26.54-2.75-33.39-13.67-8.42-12.7-8.52-28.89-6.87-43.5 2.51-14.23 6.73-28.4 14-40.96.81-1.24.73-2.75.58-4.14-7.31-2.53-15.2-.18-22.54 1.22-13.4 2.9-21.88 14.69-32.1 22.85-12.03 14.88-21.27 32.45-36.74 44.26-1.91 7-7.89 10.87-13.88 14.19-9.17 1.88-20.12-3.76-22.06-13.36-1.48-7.33 3.02-13.94 7.38-19.37 13.97-17.04 26.56-35.22 41.86-51.15 8.04-7.62 13.86-17.87 24.21-22.77 20.2-11.43 44.14-13.14 66.85-11.84 4.91.53 9.93 1.27 14.88.61 1.61-.79 1.5-2.9.6-4.18-1.79-3.49-5.08-5.94-8.69-7.3-34.42-9.25-69.13-21.83-105.33-18.95-7.48.49-13.27 5.79-19.17 9.78-12.48 9.02-22.31 21.04-33.44 31.56-15.34 16.41-30.18 33.32-43.78 51.22-4.61 6.74-8.76 13.8-13.58 20.41-9.7 12.13-10 28.77-9.19 43.54 1.65 11.9 2.36 24.26 7.37 35.37 3.51 7.5 2.96 16.01 5.28 23.83 1.61 4.66 4.12 9 5.09 13.9 3.93 15.66 9.42 30.88 14.93 46.04 7.85 26.27 13.62 53.09 20.56 79.6 2.62 8.17 3.18 16.84 3.67 25.36 1.39 18.32 3.03 36.62 3.89 54.98.03 45 0 90.01 0 135.02 1.8 34.62 2.09 69.6-2.83 103.99H73.12c2.21-5.7.18-12.12.89-18.01 2.18-21.63.07-43.36-.93-64.98.37-16.77-1.72-33.41-2.78-50.1.19-7.18 2.43-14.33 1.08-21.5-.74-4.15.57-8.27.61-12.41.45-6.16-1.88-12.19-.33-18.31 2.9-18.13.11-36.47 1.28-54.68-4.18-24.64-2.86-49.95-8.51-74.38-4.59-21.34-9.67-42.58-15.36-63.65-1.05-6.37-5.43-11.29-8.09-16.97-3.89-7.44-4.21-16.05-5.94-24.08-5.14-11.28-7.26-23.52-9.15-35.67-1.16-9.6-5.56-18.38-8.52-27.48-2.31-9.79-3.05-19.84-4.29-29.8-2.78-16.42-.06-33.07 2.58-49.31 1.6-7.26 7.96-11.77 10.31-18.69 2.11-5.47 8.37-7.92 10.55-13.35 2.1-6.04 6.65-10.72 10.37-15.78 9.49-11.8 20.06-22.75 28.7-35.21.5-1.2 1-2.43 1.18-3.71-4.39-39.85-7.28-79.86-8.55-119.93 1.57-19.97.29-40 .93-60 .94-10.31 2.11-20.63 1.87-31-.41-24.59 2.58-49.05 3.58-73.6 1.15-27.68 4.72-55.49 12.74-82.07C91.2 57.64 96.79 43.66 109 36.99m189.25 39.17c-3.18 7.25-6.39 14.51-8.99 22-.95 7.18-2.26 14.37-4.89 21.15-2.95 10.67-4 21.74-5.28 32.7-2.97 25.44-7.26 50.71-10.9 76.06-.53 9.4-.85 18.84-1.84 28.22-1.3 12.3-5.44 24.07-6.91 36.35-2.66 13.25-1.87 28.03-10.47 39.31-7.54 10.18-16.24 22.69-29.96 24.05-7.92-.26-16.31 1.31-23.73-2.34-13.42-6.73-25.68-16.25-34.21-28.72-7.14-11.4-14.41-23.37-16.02-37.01-4.49-19-7.69-38.39-8.16-57.93-2.13-14.36.13-28.94-1.4-43.33-.54-8.79-1.42-17.54-2.05-26.32-4.63-26.71-3.73-54.1-9.09-80.68-.49-.97-.88-2.53-2.17-2.61-1.57 4.72-3.14 9.44-4.84 14.12-9.77 44.48-8.98 90.27-10.93 135.47-1.43 14.73.88 29.67-1.32 44.35-.28 6.99 0 14-.07 21.01-2.02 22.57-.6 45.33-1.04 68 1.33 16.65 1.1 33.42 3.18 50.04 13.14-9.84 23.97-22.65 38.91-29.94 13.53-8.26 29.86-6.85 44.92-9.09 15.69 1.89 31.15 5.41 46.84 7.32 17.87 5.8 34.79 14.86 52.9 19.6 1.38-5.56 4.8-10.38 6.24-15.94 1.9-5.16.67-10.69 1.11-16.01 1.34-11.62 2.32-23.28 2-35 2.15-14.25-.37-28.76 1.83-42.99.56-12.99-.84-26.08 1.07-38.99.28-28.04-1.38-56.32 3.95-84.01-.02-28.16 1.61-56.62-4.42-84.34 2.53-5.76-1.74-4.7-4.26-4.5m72.09 269.2c-4.57 3.5-10.16 5.6-14.13 9.86-6.32 6.67-13.37 12.68-18.94 20.03-5.29 6.73-5.21 16.44-11.54 22.49-5.25 4.97-5.1 12.85-8.18 19.01-4.16 6.13 1.34 11.84 3.12 17.53 2.02 10.2-1.19 20.81-7.37 29.02-5.24 5.45-12.82 7.19-19.23 10.75-7.68 14.02-13.74 28.86-19.06 43.91-1.13 8.21-6.3 16.66-2.84 24.98 7.18.3 13.95-3.04 19.58-7.21 9.62-8.01 14.26-19.96 20.6-30.41 11.81-19.44 27.44-36.71 36.01-58.01 12-22.56 22.06-46.33 27.49-71.37.69-9.24-.04-18.47-1.23-27.63-.55-1.88-2.02-4.5-4.28-2.95m51.85 75.75c-6.16 8.22-14.88 14.32-19.35 23.79-9.9 17.89-17.94 36.71-26.78 55.12-8.15 18.22-14.18 37.26-20.92 56.02-2.79 18.86-11.75 36.76-11.1 56.08 12.07-3.99 21.2-13.32 29.62-22.41 6.41-8.91 14.17-16.85 19.7-26.38 15.4-23.33 25.15-49.97 30.82-77.25 6.89-18.84 8.22-39.31 4.67-58.99-1.19-2.73-3.27-6.17-6.66-5.98Z" id="#231f20fc"/><g id="#ffd5ffff" fill="#ffd5ff"><path d="M298.25 76.16c2.52-.2 6.79-1.26 4.26 4.5 6.03 27.72 4.4 56.18 4.42 84.34-5.33 27.69-3.67 55.97-3.95 84.01-1.91 12.91-.51 26-1.07 38.99-2.2 14.23.32 28.74-1.83 42.99.32 11.72-.66 23.38-2 35-.44 5.32.79 10.85-1.11 16.01-1.44 5.56-4.86 10.38-6.24 15.94-18.11-4.74-35.03-13.8-52.9-19.6-15.69-1.91-31.15-5.43-46.84-7.32-15.06 2.24-31.39.83-44.92 9.09-14.94 7.29-25.77 20.1-38.91 29.94-2.08-16.62-1.85-33.39-3.18-50.04.44-22.67-.98-45.43 1.04-68 .07-7.01-.21-14.02.07-21.01 2.2-14.68-.11-29.62 1.32-44.35 1.95-45.2 1.16-90.99 10.93-135.47 1.7-4.68 3.27-9.4 4.84-14.12 1.29.08 1.68 1.64 2.17 2.61 5.36 26.58 4.46 53.97 9.09 80.68.63 8.78 1.51 17.53 2.05 26.32 1.53 14.39-.73 28.97 1.4 43.33.47 19.54 3.67 38.93 8.16 57.93 1.61 13.64 8.88 25.61 16.02 37.01 8.53 12.47 20.79 21.99 34.21 28.72 7.42 3.65 15.81 2.08 23.73 2.34 13.72-1.36 22.42-13.87 29.96-24.05 8.6-11.28 7.81-26.06 10.47-39.31 1.47-12.28 5.61-24.05 6.91-36.35.99-9.38 1.31-18.82 1.84-28.22 3.64-25.35 7.93-50.62 10.9-76.06 1.28-10.96 2.33-22.03 5.28-32.7 2.63-6.78 3.94-13.97 4.89-21.15 2.6-7.49 5.81-14.75 8.99-22ZM370.34 345.36c2.26-1.55 3.73 1.07 4.28 2.95 1.19 9.16 1.92 18.39 1.23 27.63-5.43 25.04-15.49 48.81-27.49 71.37-8.57 21.3-24.2 38.57-36.01 58.01-6.34 10.45-10.98 22.4-20.6 30.41-5.63 4.17-12.4 7.51-19.58 7.21-3.46-8.32 1.71-16.77 2.84-24.98 5.32-15.05 11.38-29.89 19.06-43.91 6.41-3.56 13.99-5.3 19.23-10.75 6.18-8.21 9.39-18.82 7.37-29.02-1.78-5.69-7.28-11.4-3.12-17.53 3.08-6.16 2.93-14.04 8.18-19.01 6.33-6.05 6.25-15.76 11.54-22.49 5.57-7.35 12.62-13.36 18.94-20.03 3.97-4.26 9.56-6.36 14.13-9.86Z"/><path d="M166.36 410.4c36.2-2.88 70.91 9.7 105.33 18.95 3.61 1.36 6.9 3.81 8.69 7.3.9 1.28 1.01 3.39-.6 4.18-4.95.66-9.97-.08-14.88-.61-22.71-1.3-46.65.41-66.85 11.84-10.35 4.9-16.17 15.15-24.21 22.77-15.3 15.93-27.89 34.11-41.86 51.15-4.36 5.43-8.86 12.04-7.38 19.37 1.94 9.6 12.89 15.24 22.06 13.36 5.99-3.32 11.97-7.19 13.88-14.19 15.47-11.81 24.71-29.38 36.74-44.26 10.22-8.16 18.7-19.95 32.1-22.85 7.34-1.4 15.23-3.75 22.54-1.22.15 1.39.23 2.9-.58 4.14-7.27 12.56-11.49 26.73-14 40.96-1.65 14.61-1.55 30.8 6.87 43.5 6.85 10.92 20.81 16.59 33.39 13.67 10.25-.68 19.82-5.06 28.41-10.44 3.62-2.07 6.85-5.06 10.95-6.13-3.3 16.3-7.42 32.49-8.84 49.12.01 11.53.96 25.26 11.02 32.88 7.28 5.36 16.85 9.28 25.89 6.14 16.07-4.21 29.48-14.55 42.3-24.65l1.73-.48c-2.87 12.66-8.17 24.71-12.17 37.06-7.25 19.63-13.09 39.83-22.16 58.75-2.95 16.9-8.67 33.27-10.52 50.4-1.82 14.29-1.7 28.74-3.98 43-3.37 31.78-7.65 63.53-8.82 95.49-2.52 27.07-1.94 54.28-3.42 81.39.66 31.38-.83 62.69-2.04 94.01H105.16c4.92-34.39 4.63-69.37 2.83-103.99 0-45.01.03-90.02 0-135.02-.86-18.36-2.5-36.66-3.89-54.98-.49-8.52-1.05-17.19-3.67-25.36-6.94-26.51-12.71-53.33-20.56-79.6-5.51-15.16-11-30.38-14.93-46.04-.97-4.9-3.48-9.24-5.09-13.9-2.32-7.82-1.77-16.33-5.28-23.83-5.01-11.11-5.72-23.47-7.37-35.37-.81-14.77-.51-31.41 9.19-43.54 4.82-6.61 8.97-13.67 13.58-20.41 13.6-17.9 28.44-34.81 43.78-51.22 11.13-10.52 20.96-22.54 33.44-31.56 5.9-3.99 11.69-9.29 19.17-9.78Z"/><path d="M422.19 421.11c3.39-.19 5.47 3.25 6.66 5.98 3.55 19.68 2.22 40.15-4.67 58.99-5.67 27.28-15.42 53.92-30.82 77.25-5.53 9.53-13.29 17.47-19.7 26.38-8.42 9.09-17.55 18.42-29.62 22.41-.65-19.32 8.31-37.22 11.1-56.08 6.74-18.76 12.77-37.8 20.92-56.02 8.84-18.41 16.88-37.23 26.78-55.12 4.47-9.47 13.19-15.57 19.35-23.79Z"/></g></svg>