<svg width="784" height="1090pt" viewBox="0 0 588 1090" xmlns="http://www.w3.org/2000/svg"><path fill="#231f20" d="M318.67 36.69c6.79-2.88 14.4-1.11 20.96 1.74 12.31 8.16 20.32 22.12 22.21 36.67 2.51 14.23 2.65 28.77 5.09 42.99 3.7-7.41 5.66-15.53 9.12-23.05 6.77-13.75 11.38-28.76 21.13-40.86 6.95-5.84 13.71-12.24 22.18-15.84 6.83-1.59 13.31 1.19 19.3 4.03 7.05 4.92 9.58 13.49 13.05 20.92.73 2.33 4.95.61 3.19 5.18 1.07 8.64 2.06 17.41 2.74 26.13.9 11.45-.38 23 1.21 34.41.22 12.76-.15 25.56 1.41 38.26 6.78-9.02 8.89-20.68 14.77-30.28 6.38-10.19 12.08-20.93 19.69-30.25 5.29-2.99 11.52-3.94 17.21-5.95 9.39-2.86 20.24.15 26.75 7.5 12.2 14.86 15.19 35.06 14.35 53.71.7 27.85-3.78 55.41-6.96 82.99-4.01 32.7-8.48 65.35-11.84 98.12-2.8 25.18-5.25 50.4-8.73 75.5-6.18 31.96-8.67 64.56-15.51 96.4-7.98 30.93-19.22 60.89-30.14 90.89-3.58 8.55-9.08 16.22-11.72 25.2-2.46 9.1-6.17 17.87-7.77 27.21-2.79 19.12-3.56 38.46-5.23 57.69-.32 91.67 0 183.34-.16 275 1.23 32.99 3.46 65.95 3.03 99h-36.06c.67-4.66 1.76-9.43.12-14.02-2.16-5 1.45-9.85.76-14.87-1.77-12.98-3.32-26.01-3.81-39.1-.17-9.36.46-18.73-.85-28.01-.7-14.46.53-28.98-.55-43.4-1.77-24.15.69-48.47-1.61-72.59-.02-36.67.01-73.34 0-110.01-.71-31.01 2.1-62 6.33-92.69 3.15-12.89 2.02-26.49 5.77-39.22 5-12.23 8.55-25.11 15.34-36.53 16.28-36.39 27.44-74.83 36.59-113.55 3.51-20.75 5.13-41.8 9.46-62.42 4.78-36.75 7.38-73.75 11.62-110.57 3.78-36.76 11.04-73.07 14.2-109.9 1.41-21.64 3.89-43.52.56-65.1-.44.01-1.3.04-1.73.06-8.07 14.01-14.75 28.78-19.75 44.17-3.2 9.74-6.36 19.5-10.12 29.04-5.56 12.91-5.08 27.4-9.36 40.69-3.81 11.36-5.26 23.23-6.99 35.03-2.93 15.86-6.74 31.6-8.24 47.69-.43 8.17-4.79 15.9-11.66 20.32-8.93 4.99-22.91-.12-24.06-10.98-2.02-15.86-1.07-32.08.04-48.03-.1-48.33.21-96.67-.16-145-2.55-21.01 2.06-42.57-4.09-63.15-.89.82-1.65 1.77-1.99 2.94-4.61 12.35-11.87 23.56-15.63 36.24-4.67 17.25-7.71 34.88-11.76 52.28-8.22 36.59-12.02 73.95-16.78 111.09-1.71 14.48-3.92 28.97-8.13 42.96-1.03 3.84-3.74 6.89-6.72 9.41-10.24 4.81-23.67-2.62-26.12-13.42-1.77-23.41-2.72-46.93-4.51-70.36.31-10.81 2.53-21.57 1.37-32.38-1.01-18.19-.31-36.43-.45-54.64-.18-7.86 3.07-15.49 1.53-23.39-2.29-5.88 2.79-11.4.09-17.21-1.68-6.4.57-12.85.17-19.27-1.52-10.05-1.95-20.25-4.08-30.19-6.68 5.75-10 14.69-11.54 23.2-1.04 5.65-4.47 10.45-6.1 15.92-1.47 5.13-2.76 10.34-3.43 15.65-2.24 20.74-10.54 40.39-11.5 61.32-.55 18.06-4.89 35.61-7.6 53.39-1.36 25.6-6.16 50.84-8.92 76.3-.49 7.34-5.69 14.07-12.77 16.17-8.28 3.34-17.93-2.71-21.48-10.22-3.89-47.71-8.02-95.4-12.92-143.03-1.18-16.97-4.98-33.58-7.93-50.29-3.44-15.39-6.21-30.97-10.72-46.1-.42-.34-1.28-1-1.7-1.34-1.73 8.21-3.42 16.7-2.31 25.11 1.07 11.35-1.88 22.69-.07 34.01.58 14.7 3.7 29.23 3.25 43.99 1.32 35.01 1.07 70.03 2.91 105.01-.48 5.99-1.13 11.96-.94 18 .02 18.14-4.93 35.84-5.1 53.98-1.7 18.76-8.81 36.47-14.46 54.28-2.9 9.43-6.91 18.51-12.51 26.66-4.78 6.98-6.8 15.41-11.44 22.47-5.53 9.42-4.96 21.92-13.65 29.41-6.75 6.94-18.01 10.7-26.82 5.2-8.24-3.09-10.61-12.28-14.92-19.02-16.27-31.22-34.75-61.28-49.99-93.05-3.61-8.51-9.1-16.06-15.05-23.08 3.89 27.29 10.42 54.27 19.96 80.14 9.37 22.74 15.29 46.81 25.99 69.01 14.85 28.77 30.99 56.87 46.87 85.09 5.65 9.98 13.16 18.93 17.37 29.72 7.79 16.57 5.33 35.36 9.13 52.86 1.39 14.06-1.62 28.18-.16 42.32 1.58 12.91.3 25.94 1.03 38.9 2.18 28.98 1.15 58.08 2.99 87.1 3.4 46.57 1.14 93.33 1.79 140 .7 22.61-1.42 45.12-2.32 67.69-1.38 7.01.53 14.44-1.72 21.31h-34.01c1.22-21.66.53-43.4 2.98-64.99.17-38.67.01-77.35.08-116.02.3-6.43-1.25-12.66-1.86-18.99-.98-36.36-2.72-72.64-3.17-109.01-2.56-31.92.62-64.07-1.92-95.98 1.35-19.49-7.82-37.9-18.59-53.44-4.23-2.87-3.36-8.81-6.58-12.49-23.42-37.47-44.67-76.5-59.85-118.04-2.32-9.91-5.11-19.7-8.94-29.13-6.23-23.13-17.27-44.99-19.91-69.02-1.4-13.4-7.29-26.17-6.14-39.83 1.38-8.66 5.27-16.66 10.18-23.84 7.64-7.19 18.5-9.58 28.71-8.14 12.64.9 21.43 11.49 27.28 21.69 7.53 13.45 15.99 26.37 22.87 40.19 5.23 8.85 9.2 18.42 14.93 26.99 5.54 9.21 12.34 17.79 16.05 27.98 1.44 3.97 2.93 8.05 5.62 11.37.83.63 1.8 2.41 3.02 1.49 9.31-17.64 16.29-36.36 22.93-55.12 3.74-11.96 5.59-24.41 8.52-36.57 2.69-9.47 1.45-19.42 2.76-29.09-.18-26.67 3.45-53.37 1.17-79.99-.08-31.08-1.84-62.08-2.84-93.11.37-19-2.33-37.96-.45-56.92.77-13.84.5-28.4 5.9-41.42 4.08-5.13 4.57-12.13 8.67-17.25 5.33-4.81 11.78-8.36 18.73-10.18 7.48-.98 13.71 3.7 20.02 6.78 7.59 11.91 14.38 24.42 19.29 37.72 6.04 12.85 8.54 26.95 10.14 40.95 1.32 10.82 5.54 20.97 7.84 31.57 2.59-4.64 2.88-10.13 4.7-15.07 4.51-13.66 6.19-28.02 10.3-41.77 3.4-8.19 5.58-16.82 8.94-25.03 7.77-9.12 10.93-22.39 20.37-30.58 3.3-3.41 6.73-6.78 10.97-9.02Z" id="#231f20fc"/><path fill="#ffd5ff" d="M315.2 105.12c1.54-8.51 4.86-17.45 11.54-23.2 2.13 9.94 2.56 20.14 4.08 30.19.4 6.42-1.85 12.87-.17 19.27 2.7 5.81-2.38 11.33-.09 17.21 1.54 7.9-1.71 15.53-1.53 23.39.14 18.21-.56 36.45.45 54.64 1.16 10.81-1.06 21.57-1.37 32.38 1.79 23.43 2.74 46.95 4.51 70.36 2.45 10.8 15.88 18.23 26.12 13.42 2.98-2.52 5.69-5.57 6.72-9.41 4.21-13.99 6.42-28.48 8.13-42.96 4.76-37.14 8.56-74.5 16.78-111.09 4.05-17.4 7.09-35.03 11.76-52.28 3.76-12.68 11.02-23.89 15.63-36.24.34-1.17 1.1-2.12 1.99-2.94 6.15 20.58 1.54 42.14 4.09 63.15.37 48.33.06 96.67.16 145-1.11 15.95-2.06 32.17-.04 48.03 1.15 10.86 15.13 15.97 24.06 10.98 6.87-4.42 11.23-12.15 11.66-20.32 1.5-16.09 5.31-31.83 8.24-47.69 1.73-11.8 3.18-23.67 6.99-35.03 4.28-13.29 3.8-27.78 9.36-40.69 3.76-9.54 6.92-19.3 10.12-29.04 5-15.39 11.68-30.16 19.75-44.17.43-.02 1.29-.05 1.73-.06 3.33 21.58.85 43.46-.56 65.1-3.16 36.83-10.42 73.14-14.2 109.9-4.24 36.82-6.84 73.82-11.62 110.57-4.33 20.62-5.95 41.67-9.46 62.42-9.15 38.72-20.31 77.16-36.59 113.55-6.79 11.42-10.34 24.3-15.34 36.53-3.75 12.73-2.62 26.33-5.77 39.22C418.1 706 415.29 736.99 416 768c.01 36.67-.02 73.34 0 110.01 2.3 24.12-.16 48.44 1.61 72.59 1.08 14.42-.15 28.94.55 43.4 1.31 9.28.68 18.65.85 28.01.49 13.09 2.04 26.12 3.81 39.1.69 5.02-2.92 9.87-.76 14.87 1.64 4.59.55 9.36-.12 14.02H169.96c2.25-6.87.34-14.3 1.72-21.31.9-22.57 3.02-45.08 2.32-67.69-.65-46.67 1.61-93.43-1.79-140-1.84-29.02-.81-58.12-2.99-87.1-.73-12.96.55-25.99-1.03-38.9-1.46-14.14 1.55-28.26.16-42.32-3.8-17.5-1.34-36.29-9.13-52.86-4.21-10.79-11.72-19.74-17.37-29.72-15.88-28.22-32.02-56.32-46.87-85.09-10.7-22.2-16.62-46.27-25.99-69.01-9.54-25.87-16.07-52.85-19.96-80.14 5.95 7.02 11.44 14.57 15.05 23.08 15.24 31.77 33.72 61.83 49.99 93.05 4.31 6.74 6.68 15.93 14.92 19.02 8.81 5.5 20.07 1.74 26.82-5.2 8.69-7.49 8.12-19.99 13.65-29.41 4.64-7.06 6.66-15.49 11.44-22.47 5.6-8.15 9.61-17.23 12.51-26.66 5.65-17.81 12.76-35.52 14.46-54.28.17-18.14 5.12-35.84 5.1-53.98-.19-6.04.46-12.01.94-18-1.84-34.98-1.59-70-2.91-105.01.45-14.76-2.67-29.29-3.25-43.99-1.81-11.32 1.14-22.66.07-34.01-1.11-8.41.58-16.9 2.31-25.11.42.34 1.28 1 1.7 1.34 4.51 15.13 7.28 30.71 10.72 46.1 2.95 16.71 6.75 33.32 7.93 50.29 4.9 47.63 9.03 95.32 12.92 143.03 3.55 7.51 13.2 13.56 21.48 10.22 7.08-2.1 12.28-8.83 12.77-16.17 2.76-25.46 7.56-50.7 8.92-76.3 2.71-17.78 7.05-35.33 7.6-53.39.96-20.93 9.26-40.58 11.5-61.32.67-5.31 1.96-10.52 3.43-15.65 1.63-5.47 5.06-10.27 6.1-15.92Z" id="#ffd5ffff"/></svg>