<svg width="539pt" height="684" viewBox="0 0 539 513" xmlns="http://www.w3.org/2000/svg"><g id="#fdd4feff" fill="#fdd4fe"><path d="M269.15 63.99c.89-2.14 5-1.35 6.84-.49-2.18.82-4.45.98-6.84.49ZM283.75 63.25c2.45.73 8.3-1.82 9.27.8-3.1-.02-6.22-.38-9.27-.8ZM150.25 110.26c1.05-.96 2.31-1.64 3.57-2.29.2.26.6.77.79 1.02 9.93 14.74 24.29 26.11 39.75 34.61 26.4 14.21 54.94 23.81 81.67 37.33 24.03 10.95 45.91 26.1 65.98 43.18 1.02 1.51 1.73 3.98 3.99 3.79 2.36 1.94 4.54 4.09 6.86 6.11 5.46 5.92 11.1 11.71 17.05 17.15 2.11 2.48 4.49 4.7 6.92 6.88 2.9 3.15 5.81 6.35 9.14 9.07 5.77 6.67 11 14.47 9.04 23.9-2.95-.59-6.06-.83-8.7-2.35-18.88-11.61-36.97-24.65-53.75-39.1-3.48-.99-4.4-5.13-7.69-6.38-3.34-1.41-4.96-5.01-7.66-7.24a56.89 56.89 0 0 0-5.15-5.15c-2.41-2.63-5.09-6.13-9.06-5.85-1.53 9.34 7.84 14.01 13.89 19.03 1.99 2.07 3.38 5.08 6.23 6.05 16.02 14.94 33.92 27.77 52.67 39.05 6.03 6.52 15.06 9.43 20.98 16.14 5.68 6.01-1.91 13.56-4.97 18.71-17.88-7.09-33.02-20.02-49.99-28.85-9.92-7.1-20.12-13.72-29.95-20.9-4.3-3.74-9.31-6.41-12.65-11.24-1.6-1.82-3.32-3.52-5.14-5.13-2.06-5.43-10.93 0-7.85 4.86 23 15.55 44.26 33.53 67.78 48.35 11.86 8.47 25.45 14.19 37.01 23.1.9 1.65 2.2 3.06 3.89 3.91-1.86 10.86-12.28 21.07-23.9 18.99-8.96.79-14.58-7.13-20.4-12.53-18.46-14.72-38.24-27.61-56.7-42.36-7.52-5.15-13.63-13.22-22.92-15.17-.83 5.7 4.83 9.19 8.36 12.66 20.22 16.78 42.65 30.54 63.59 46.34 3.33 2.63 4.99 7.8 9.2 9.06 7.29 3.35 4.94 12.11.82 17.03-1.78.76-3.21 2.15-3.88 3.98-7.29 3.74-15.87 1.88-23.19-.84-24.52-10.27-45.07-27.22-66.21-42.93-14.57-11.52-31.04-20.35-46.73-30.27-.89 6.88 5.56 11.17 8.67 16.38 8.57 13.57 18.7 26.5 24.4 41.64 2.83 7.18-1.64 14.48-6.39 19.58-4.14 1.64-9.14 3.77-13.35 1.18-1.46-2.75-3.07-5.39-5.3-7.58-1.3-2.08-3.05-3.81-4.91-5.38-7.75-8.15-15.68-16.15-23.91-23.82-7.79-8.33-14.96-17.27-24.14-24.13-4.84-3.64-7.18-9.25-11.39-13.44-10.74-18.08-10.87-40.35-21.49-58.5-3.11-5.7-8.12-10.05-11.02-15.86-3.3-5.15-8.93-8.55-12.79-13.36-1-1.09-1.92-2.31-3.4-2.75-4.25-3.15-8.45-6.04-11.87-10.13-1.1-1.45-1.81-3.76-3.97-3.81-2.46-1.95-5.3-3.32-7.96-4.98 13.36-34.15 37.58-63.89 66.13-86.76ZM418.79 114.15c2.65-.31 5.45 2.61 5.14 5.25l-.77-.43c-1.42-1.64-2.88-3.24-4.37-4.82ZM427.96 122.32c6.38 2.12 10.4 9.68 15.86 13.95l-.12 1.78-.59.05c-4.6-5.51-9.81-10.5-15.21-15.2l.06-.58ZM501.03 277.99l.96.02c.07 5.32.07 10.65-.01 15.98l-.96.01c-.08-5.33-.02-10.68.01-16.01ZM441 436.65a23.9 23.9 0 0 1 3.61-3.71c1.24 1.94-1.65 4.89-3.61 3.71ZM122.28 435.66l.69.53c2.68 3.22 5.76 6.04 8.88 8.83 2.1 2.29 4.24 4.55 6.38 6.81-6.67-2.38-10.49-9.72-16.04-14.08.02-.53.07-1.57.09-2.09ZM421.94 455.61c1.1-1.32 2.33-2.52 3.64-3.64 1.3 1.95-1.69 4.89-3.64 3.64ZM267 507.01c9.66-.07 19.33-.02 29 .01v.96c-9.66-.02-19.32.16-28.98-.02l-.02-.95Z"/></g><g id="#4b539aff" fill="#4b539a"><path d="M275.99 63.5c2.53-.63 5.12-.71 7.76-.25 3.05.42 6.17.78 9.27.8 45.66 3.53 90.54 20.58 125.77 50.1 1.49 1.58 2.95 3.18 4.37 4.82-2.53-1-4.51-2.83-6.6-4.5C378.95 83.63 330 68.26 281.63 68.42c-45.16.26-90.23 14.25-127.02 40.57-.19-.25-.59-.76-.79-1.02 7.81-7.41 18.03-12.24 27.26-17.85 27.02-14.99 57.59-22.66 88.07-26.13 2.39.49 4.66.33 6.84-.49ZM423.93 119.4c1.74-.3 2.94 1.8 4.03 2.92l-.06.58c-2.09.19-3.7-1.55-3.97-3.5ZM443.11 138.1l.59-.05c1.12 1.09 3.22 2.31 2.89 4.09-1.91-.4-3.7-1.93-3.48-4.04ZM92.08 202c2.16.05 2.87 2.36 3.97 3.81-2.5.64-3.56-1.83-3.97-3.81ZM107.92 215.94c1.48.44 2.4 1.66 3.4 2.75 3.86 4.81 9.49 8.21 12.79 13.36-6.7-3.69-11.91-9.9-16.19-16.11ZM342.01 224.11c2.42-.46 3.44 1.89 3.99 3.79-2.26.19-2.97-2.28-3.99-3.79ZM312.06 230.79a56.89 56.89 0 0 1 5.15 5.15c-2.68-.16-4.98-2.47-5.15-5.15ZM352.86 234.01c3.73.7 5.67 4.47 8.42 6.71 2.95 3.39 7.16 6 8.63 10.44-5.95-5.44-11.59-11.23-17.05-17.15ZM316.89 243.97c3.23.43 4.83 3.48 6.23 6.05-2.85-.97-4.24-3.98-6.23-6.05ZM294.07 257.8c1.82 1.61 3.54 3.31 5.14 5.13-2.68-.15-4.97-2.45-5.14-5.13ZM376.83 258.04c4.3 1.06 7.27 5.34 9.14 9.07-3.33-2.72-6.24-5.92-9.14-9.07ZM64.03 273.02l.96-.03c0 9 .06 18-.01 27.01h-.97c-.01-9-.11-17.99.02-26.98ZM168.01 319.85c9.18 6.86 16.35 15.8 24.14 24.13-7.15-2.43-10.18-10.73-15.89-15.24-2.44-3.19-7.68-4.51-8.25-8.89ZM391.01 334.11c2.11-.26 4.59 1.62 3.89 3.91-1.69-.85-2.99-2.26-3.89-3.91ZM342.93 345.95c4.48 1.08 6.45 5.79 9.2 9.06-4.21-1.26-5.87-6.43-9.2-9.06ZM216.06 367.8c1.86 1.57 3.61 3.3 4.91 5.38-2.41-.81-4.79-2.62-4.91-5.38ZM349.07 376.02c.67-1.83 2.1-3.22 3.88-3.98.26 2.24-1.67 4.12-3.88 3.98ZM117.93 431c2.66.14 4.73 2.64 5.04 5.19l-.69-.53c-1.63-1.37-3.21-2.85-4.35-4.66ZM425.58 451.97c4.2-5.89 9.47-11.21 15.42-15.32-4.33 5.51-9.59 11.39-15.42 15.32ZM131.85 445.02c4.21 1.21 6.85 5.31 10.48 7.6 34.89 28.76 78.56 46.73 123.65 50.33 31.45 1.26 63.87-.62 93.36-12.57 12.78-4.2 23.95-12.45 36.72-16.43-.78 2.12-3.56 2.58-5.09 4.01-28.67 17.07-61.48 28.07-94.97 29.06-9.67-.03-19.34-.08-29-.01-21.79.05-42.98-6.42-63.3-13.7-9.56-4.34-19.4-8.16-28.35-13.71-3.54-2.2-6.92-4.71-10.89-6.08-2.12-3.71-6.63-4.74-9.98-7-1.2-1.88-2.76-3.55-5.03-3.99-1.21-1.94-2.75-3.75-5.19-3.87-1.98-2.31-3.73-4.81-6.03-6.83-2.14-2.26-4.28-4.52-6.38-6.81Z"/></g><path fill="#212162" d="M281.63 68.42c48.37-.16 97.32 15.21 134.93 46.05 2.09 1.67 4.07 3.5 6.6 4.5l.77.43c.27 1.95 1.88 3.69 3.97 3.5 5.4 4.7 10.61 9.69 15.21 15.2-.22 2.11 1.57 3.64 3.48 4.04 1.53 1.04 2.34 2.7 2.89 4.41 1.91 1.15 3.5 2.74 4.02 4.98 2.55 1.58 3.72 4.41 5.09 6.95 21.43 29.63 33.97 65.26 38.61 101.4 3.19 5.56 2.74 12 3.83 18.11-.03 5.33-.09 10.68-.01 16.01.49 6.59.38 13.13-3.11 18.93-2.7 21.02-8.03 41.89-16.48 61.41-6.36 16.08-15.89 30.52-24.94 45.16-1.49.98-2.59 2.27-2.96 4.06-1.92 1.13-3.53 2.73-4.02 4.99-1.79 1.28-3.37 2.81-4.9 4.39a23.9 23.9 0 0 0-3.61 3.71c-5.95 4.11-11.22 9.43-15.42 15.32-1.31 1.12-2.54 2.32-3.64 3.64-2.4 1.83-3.23 5.63-6.68 5.74-5.27 5.33-11.77 10.26-19.2 12.6-12.77 3.98-23.94 12.23-36.72 16.43-29.49 11.95-61.91 13.83-93.36 12.57-45.09-3.6-88.76-21.57-123.65-50.33-3.63-2.29-6.27-6.39-10.48-7.6-3.12-2.79-6.2-5.61-8.88-8.83-.31-2.55-2.38-5.05-5.04-5.19-.39-.08-1.18-.25-1.58-.33-1.75-3.92-4.29-7.66-7.85-10.14-1.13-2.38-2.2-5.01-4.44-6.55-8.12-13.75-16.83-27.55-22.49-42.65-9.05-22.74-14.82-46.93-16.59-71.33.07-9.01.01-18.01.01-27.01 3.13-25.97 8.35-52.01 19.13-75.97 2.66 1.66 5.5 3.03 7.96 4.98.41 1.98 1.47 4.45 3.97 3.81 3.42 4.09 7.62 6.98 11.87 10.13 4.28 6.21 9.49 12.42 16.19 16.11 2.9 5.81 7.91 10.16 11.02 15.86 10.62 18.15 10.75 40.42 21.49 58.5 4.21 4.19 6.55 9.8 11.39 13.44.57 4.38 5.81 5.7 8.25 8.89 5.71 4.51 8.74 12.81 15.89 15.24 8.23 7.67 16.16 15.67 23.91 23.82.12 2.76 2.5 4.57 4.91 5.38 2.23 2.19 3.84 4.83 5.3 7.58 4.21 2.59 9.21.46 13.35-1.18 4.75-5.1 9.22-12.4 6.39-19.58-5.7-15.14-15.83-28.07-24.4-41.64-3.11-5.21-9.56-9.5-8.67-16.38 15.69 9.92 32.16 18.75 46.73 30.27 21.14 15.71 41.69 32.66 66.21 42.93 7.32 2.72 15.9 4.58 23.19.84 2.21.14 4.14-1.74 3.88-3.98 4.12-4.92 6.47-13.68-.82-17.03-2.75-3.27-4.72-7.98-9.2-9.06-20.94-15.8-43.37-29.56-63.59-46.34-3.53-3.47-9.19-6.96-8.36-12.66 9.29 1.95 15.4 10.02 22.92 15.17 18.46 14.75 38.24 27.64 56.7 42.36 5.82 5.4 11.44 13.32 20.4 12.53 11.62 2.08 22.04-8.13 23.9-18.99.7-2.29-1.78-4.17-3.89-3.91-11.56-8.91-25.15-14.63-37.01-23.1-23.52-14.82-44.78-32.8-67.78-48.35-3.08-4.86 5.79-10.29 7.85-4.86.17 2.68 2.46 4.98 5.14 5.13 3.34 4.83 8.35 7.5 12.65 11.24 9.83 7.18 20.03 13.8 29.95 20.9 8.34 8.03 18.89 13.27 28.55 19.52 8.59 5.43 18.43 9.15 25.91 16.16 2.05 2.45 3.72-2.08 5.64-2.83 5.58 12.88-.17 29.84-12.87 36.15-5.71 2.97-12.3 2.99-18.41 4.54-4.78 1.05-6.65 6.09-9.65 9.39-5.52 8.82-16.8 12.21-26.69 10.73-24.1-3.58-44.72-17.94-63.66-32.34-4.66-4.28-9.87-7.9-15.7-10.41-1.31 10.07 6.52 20.48 1.05 30.01-3.84 10.17-14.16 17.19-24.89 17.82-4.88-.96-9.77-2.94-12.89-7.01-7.46-9.16-16.22-17.1-24.41-25.58-10.89-13.08-23.84-24.21-36.35-35.65-10.59-12.84-17.53-28.49-21.51-44.56-2.52-14.72-9.45-28.51-19.26-39.7-5.66-6.69-12.94-11.69-18.9-18.08-1.72-1.67-3.88-3.69-6.5-3.1-11.83 29.5-12.2 62.06-9.75 93.27 5.77 33.43 18.24 66.17 38.58 93.53 35.47 48.58 94.78 76.94 154.3 79.49 22.57 1.99 44.83-3.24 66.68-8.38 25.72-9.52 51.42-21.25 71.3-40.64 5.44-4.2 10.12-9.26 14.45-14.57 18.85-18.91 33.09-42.27 41.6-67.55 6.18-18.84 12.42-38.21 11.66-58.29 1.92-19.01 1.34-38.56-4.09-56.99-7.57-34.35-24.46-66.75-48.74-92.26-20.05-21.31-45.04-37.73-71.91-49.15-29.39-12.12-61.78-14.88-93.25-13.4-8.98.88-17.93 2.23-26.71 4.29-21.19 4.12-40.78 14-59.31 24.72l.12 1.55c13.82 15.29 33.38 23.07 51.74 31.38 32.37 14.57 66.14 26.93 95.27 47.66 22.07 17.05 43.69 34.83 63.05 54.95 6.66 6.16 12.6 13.27 16.41 21.56 3.32 9.03 2.6 18.82 4.87 28.09 2.08 7.73 2.22 16.7-2.73 23.41-2.14 2.46-5.48 3.97-8.84 3.22-2.02-7.01 6.52-11.03 5.04-17.97-2.51-6.15-8.95-9.35-14.1-12.91-3.73-1.98-7.03-4.88-11.12-6.07-18.75-11.28-36.65-24.11-52.67-39.05-1.4-2.57-3-5.62-6.23-6.05-6.05-5.02-15.42-9.69-13.89-19.03 3.97-.28 6.65 3.22 9.06 5.85.17 2.68 2.47 4.99 5.15 5.15 2.7 2.23 4.32 5.83 7.66 7.24 3.29 1.25 4.21 5.39 7.69 6.38 16.78 14.45 34.87 27.49 53.75 39.1 2.64 1.52 5.75 1.76 8.7 2.35 1.96-9.43-3.27-17.23-9.04-23.9-1.87-3.73-4.84-8.01-9.14-9.07-2.43-2.18-4.81-4.4-6.92-6.88-1.47-4.44-5.68-7.05-8.63-10.44-2.75-2.24-4.69-6.01-8.42-6.71-2.32-2.02-4.5-4.17-6.86-6.11-.55-1.9-1.57-4.25-3.99-3.79-20.07-17.08-41.95-32.23-65.98-43.18-26.73-13.52-55.27-23.12-81.67-37.33-15.46-8.5-29.82-19.87-39.75-34.61 36.79-26.32 81.86-40.31 127.02-40.57Z" id="#212162ff"/></svg>