<svg width="1000pt" height="667pt" viewBox="0 0 1000 667" xmlns="http://www.w3.org/2000/svg"><g id="#fd9e82ff" fill="#fd9e82"><path d="M0 0h.5C.37.07.12.22 0 .29V0ZM525.15 33.99c2.61-.96 6.36-.11 6.91 3.02.43 8.24-.53 16.46-.57 24.68-.19.3-.57.92-.76 1.22.01 12.66-1.46 25.1-1.61 37.78 8.31 2.13 16.12 5.87 24.46 7.93 4.7 1.54 9.21 3.64 13.97 5.07 8.27 2.62 17.75 4.7 25.85.41 1.1 11.14 5.02 21.75 9.14 32.08-.53 4.79-1.74 9.55-3.65 13.99-1.08.53-1.98 1.82-3.28 1.24-.51-1.4.42-2.83.08-4.26-1.5-.8-3.45.22-3.7 1.88-.91 2.71 1.71 4.89 1.59 7.57-.06 2.28-.18 4.55-.19 6.83-4.15 7.55-9.33 14.54-15.73 20.33-1.03.65-1.64 1.69-1.79 2.89-1.72-.81-3.08.97-4.48 1.65-9.16 6.24-21.4 8.28-31.8 4.04-5.26-1.75-9.56-5.29-13.83-8.69-8.78-8.87-14.54-20.28-17.99-32.18-6.61.08-12-5.26-13.49-11.43-2.35-7.02-.45-15.21 5.25-20.06 1.06.21 2.16.3 3.26.41.29 1.56.63 3.1 1.02 4.64-1.45 2.11-4.2 3.29-4.66 6.03-1.6 5.03.74 12.6 6.78 13.06-.5-5.08-1.28-10.13-1.39-15.24 1.78-2.89 3.52-5.81 5.34-8.67 7.76-1.29 15.28-3.72 23.03-5.06 8.29-.28 15.53 4.47 23.36 6.4 5.51-.32 7.71-8.27 3.09-11.41-.19 2.16.07 4.42-.64 6.5-.95 1.53-3.11 1.7-4.71 1.37-6.15-1.25-11.61-5.05-18.01-5.17-10.7-.91-20.52 4.56-31.03 5.37-5.77.35-8.7-5.61-10.59-10.12-.04 3.88.08 7.82-1.17 11.55-10.97 3.61-21.92 7.23-32.54 11.77-22.13 9.14-44.41 17.92-66.49 27.14-3.11.91-6.13 2.15-9.01 3.62-12.09 4.24-23.86 9.39-35.98 13.56-2.99-.82-1.58-4.58-3.84-6.12-1.5-1.39-3.63-3.11-5.76-2.06-2.63 1.26-4.27 3.86-6.3 5.86 1.28 2.05 3.13 3.68 4.83 5.39-3.46-.09-6.92-.09-10.38-.28l.04-.66c2.03-.48 4.09-.77 6.17-1-2.52-3.7-5.86-6.86-7.76-10.96-2.11-4.96-4.04-10.34-2.92-15.8 1.21-5.55 4.01-10.76 8.05-14.77 9.38-9.22 20.49-16.7 32.74-21.53-.25-.3-.75-.9-.99-1.2 8.99-2.26 18.14-4 27.37-4.97 23.83-3.01 47.75-5.33 71.55-8.63 3.12-.63 6.92-.41 9.2-3.02.19-5.56 3.55-10.21 7.32-14-.17-5.23.06-10.73 3.42-15.06 1.52-4.08 6.44-4.96 10.27-4.3 2.81-2.89 7.4-4.58 11.06-2.2-1.54 9.51-5.07 18.78-5.15 28.47.46.35 1.37 1.06 1.83 1.41.35-9.63 3.07-18.97 5.16-28.33.99-4.58 6.55-9.02 11.07-6.18 2.14 1.14 1.72 4.33 3.78 5.25 1.13-2.51.85-5.39 1.29-8.07.23-7.69 1.04-15.32 1.68-22.98.48-2.06.28-4.63 2.23-6m-6.18 38.41c-.26 2.37 2.77.12 1.95-1.23l-1.95 1.23Z"/><path d="M525.33 197.89c6.41 4.72 12.73 10.14 20.75 11.9 10.24 2.77 21.2-.4 29.62-6.48.3.12.9.37 1.2.5.68 2.89.95 5.88 1.53 8.8.4 4.16 1.21 8.27 1.83 12.41-1.19 7.01-6.77 12.01-10.43 17.77-.12.28-.37.83-.5 1.1-7.32 4.07-15.99 6.24-24.3 4.33-4.07-.56-7.61-2.73-11.41-4.11a52.82 52.82 0 0 0-2.3-3c-3.77-4.35-7.99-8.66-9.91-14.19-.46-4.78.8-9.49 1.4-14.2.99-4.92 1.53-9.91 2.52-14.83ZM661 392.79c9.84-.69 19.57-2.61 29-5.5-1.52 21.81-5.35 43.37-8.53 64.98-1.71 11.24-3.95 22.42-5.45 33.69-.73 12.26-.61 24.6-2.39 36.79-7.67 4.37-13.48 11.37-21.3 15.5-3.09 1.78-6.74 1.38-10.08 2.16-1.11 1.03-.72 2.58-.5 3.88-3.08 1.15-2.21 5.79-4.67 7.79-1.87 1.5-4.5 2.65-6.88 2.02-1.41-11.89.81-23.94.67-35.91-.91.51-1.83.99-2.76 1.44-3.02.46-9.41 2.25-9.21-2.72 3.68-3.05 6.94-6.7 8.76-11.18 3.18-7.54 7.43-15.3 14.71-19.58 2.59-1.74 5.6-2.78 8.1-4.67.78-9.13 1.66-18.31 1.06-27.48-.86-16.04-2.58-32.01-4.56-47.94-.39-4.48-.68-8.99-.49-13.49 4.8.77 9.7 1.01 14.52.22Z"/></g><path fill="#231f20" d="M531.49 61.69c6.44-2.84 13.73-3.2 20.63-2.26 15.43 2.22 29.99 8.38 43.48 16.01 5.95 3.21 11.66 7.3 18.4 8.56 1.51 6.2-3.12 11.9-6.93 16.34 3.26 12.08 1.94 24.95-1.34 36.9-.66 2.17-1.28 4.35-2.01 6.49-.39.82-.78 1.63-1.18 2.45-4.12-10.33-8.04-20.94-9.14-32.08l-.24-2.35.48-1.44c-1.61-.56-3.07.58-4.61.87-6.83 1.77-14.1 1.6-20.97.14.29.12.85.36 1.14.49-.42.47-1.24 1.41-1.65 1.88-4.76-1.43-9.27-3.53-13.97-5.07-8.34-2.06-16.15-5.8-24.46-7.93.15-12.68 1.62-25.12 1.61-37.78.19-.3.57-.92.76-1.22Z" id="#231f20ff"/><path fill="#eb8971" d="M503.26 70.42c.46.38 1.38 1.16 1.84 1.55-2.09 9.36-4.81 18.7-5.16 28.33-.46-.35-1.37-1.06-1.83-1.41.08-9.69 3.61-18.96 5.15-28.47Z" id="#eb8971ff"/><path fill="#824231" d="m518.97 72.4 1.95-1.23c.82 1.35-2.21 3.6-1.95 1.23Z" id="#824231ff"/><path fill="#fcac94" d="M589.03 111.18c1.54-.29 3-1.43 4.61-.87l-.48 1.44c-7.42 4.26-16.29 2.68-23.96.06-.29-.13-.85-.37-1.14-.49 6.87 1.46 14.14 1.63 20.97-.14Z" id="#fcac94ff"/><path fill="#2f1a19" d="M569.2 111.81c7.67 2.62 16.54 4.2 23.96-.06l.24 2.35c-8.1 4.29-17.58 2.21-25.85-.41.41-.47 1.23-1.41 1.65-1.88Z" id="#2f1a19ff"/><path fill="#e9856e" d="M494.38 118.09c1.89 4.51 4.82 10.47 10.59 10.12 10.51-.81 20.33-6.28 31.03-5.37 6.4.12 11.86 3.92 18.01 5.17 1.6.33 3.76.16 4.71-1.37.71-2.08.45-4.34.64-6.5 4.62 3.14 2.42 11.09-3.09 11.41-7.83-1.93-15.07-6.68-23.36-6.4-7.75 1.34-15.27 3.77-23.03 5.06-2.36.33-4.73.39-7.09.18-1.1-.11-2.2-.2-3.26-.41-2.09-.31-4.24-1.1-6.32-.34 1.25-3.73 1.13-7.67 1.17-11.55Z" id="#e9856eff"/><path fill="#ea846e" d="M353.1 125.34c3.3-.99 6.65-1.8 9.97-2.74.24.3.74.9.99 1.2-12.25 4.83-23.36 12.31-32.74 21.53-4.04 4.01-6.84 9.22-8.05 14.77-1.12 5.46.81 10.84 2.92 15.8 1.9 4.1 5.24 7.26 7.76 10.96-2.08.23-4.14.52-6.17 1-5.43-1.46-10.41-5.35-13.08-10.37-1.11-2.47-1.52-5.17-2.41-7.71-1.79-6.16.68-12.35 2.3-18.24 1.89-3.88 4.28-7.52 7.25-10.65 3.38-4.16 8.4-6.35 12.83-9.16 6.09-2.24 12.18-4.58 18.43-6.39Z" id="#ea846eff"/><g id="#976dafff" fill="#976daf"><path d="M322 132.97c9.26-5.81 20.35-7.54 31.1-7.63-6.25 1.81-12.34 4.15-18.43 6.39-4.43 2.81-9.45 5-12.83 9.16-2.97 3.13-5.36 6.77-7.25 10.65-1.62 5.89-4.09 12.08-2.3 18.24.89 2.54 1.3 5.24 2.41 7.71 2.67 5.02 7.65 8.91 13.08 10.37l-.04.66c-1.72 1.43-1.95 3.6-2.07 5.7-4.03-1.09-7.19-4.04-11.17-5.12-1.33-1.84-2.86-3.5-4.35-5.2-6.08-8.14-8.33-19.15-5.44-28.95 2.49-9.3 9.14-17.07 17.29-21.98ZM507.22 222.38c3.36-5.48 9.58-8.21 15.59-9.66-.6 4.71-1.86 9.42-1.4 14.2 1.92 5.53 6.14 9.84 9.91 14.19.67 2.65.17 5.4.07 8.09-4.52-3.3-7.54-9.21-13.43-10.2-5.48 1.13-7.36 7.32-9.58 11.73-.23-.01-.67-.04-.89-.05-3.07-9.11-3.2-19.13-.27-28.3ZM578.43 212.61c6.02 1.63 12.27 4.31 15.63 9.89 3.02 9.18 2.45 19.18-.25 28.36-.36-.09-1.1-.27-1.46-.36-1.68-4.47-4.04-10.56-9.37-11.32-5.4 1.1-8.97 6.01-12.44 9.92-1.62-1.68-.68-4.24-.71-6.31 3.66-5.76 9.24-10.76 10.43-17.77-.62-4.14-1.43-8.25-1.83-12.41ZM690.73 343.98c.15.42.46 1.24.61 1.66 1.66-.5 3.67.19 3.53 2.23.78 12 2.17 24.06 1.34 36.08-1.67 1.73-4.04 2.47-6.21 3.34-9.43 2.89-19.16 4.81-29 5.5-4.82.79-9.72.55-14.52-.22-1.18-.24-2.36-.56-3.5-.88-2.56-1.23-4.48-3.46-5.63-6.02-3.27-7.06-4.75-14.91-4.46-22.67.1-2.65.48-5.78 2.99-7.29 2.77-.04 5.49-.61 8.26-.8 13.45-1.73 26.94-3.5 40.19-6.46 2.46-.77 6.47-.99 6.4-4.47Z"/></g><path fill="#281e1d" d="M502.79 130.39c2.36.21 4.73.15 7.09-.18-1.82 2.86-3.56 5.78-5.34 8.67-.26-1.29-.54-2.56-.73-3.85-.39-1.54-.73-3.08-1.02-4.64Z" id="#281e1dff"/><path fill="#df7361" d="M503.81 135.03c.19 1.29.47 2.56.73 3.85.11 5.11.89 10.16 1.39 15.24-6.04-.46-8.38-8.03-6.78-13.06.46-2.74 3.21-3.92 4.66-6.03Z" id="#df7361ff"/><path fill="#fba389" d="M605.73 137.24c3.01.6 4.94 3.22 6.2 5.81 2.21 5.12 1.44 11.01-.83 15.98-2.39 5.79-8.42 10.29-14.9 9.22-1.09 1.64-1.87 3.46-2.81 5.18.01-2.28.13-4.55.19-6.83.12-2.68-2.5-4.86-1.59-7.57.25-1.66 2.2-2.68 3.7-1.88.34 1.43-.59 2.86-.08 4.26 1.3.58 2.2-.71 3.28-1.24 2.15 2.16 4.97-1.15 6.82-2.48 2.45-4.2 3.34-11.43-1.99-13.96.73-2.14 1.35-4.32 2.01-6.49Z" id="#fba389ff"/><path fill="#e17564" d="M602.54 146.18c.4-.82.79-1.63 1.18-2.45 5.33 2.53 4.44 9.76 1.99 13.96-1.85 1.33-4.67 4.64-6.82 2.48 1.91-4.44 3.12-9.2 3.65-13.99Z" id="#e17564ff"/><g id="#724c89ff" fill="#724c89"><path d="M385.17 172.17c2.88-1.47 5.9-2.71 9.01-3.62 26.05 17.23 50.71 36.5 74.91 56.22 1.22-.78 2.39-1.8 3.88-2.01 4.3-1.27 7.39 3.93 11.65 2.89 6.88-3.78 15.03-3.04 22.6-3.27-2.93 9.17-2.8 19.19.27 28.3.22.01.66.04.89.05 2.22-4.41 4.1-10.6 9.58-11.73 5.89.99 8.91 6.9 13.43 10.2.02 69.61-.01 139.23.01 208.84.28 3.71-1.33 7.3-.02 10.94-.15 9.39.13 18.78-.01 28.17-.38 5.66.43 11.36-.19 17.02-6.3.7-12.67-.08-18.98-.47-13.3-.82-26.46-3.61-38.93-8.3-5.88-3.56-12.81-7.51-14.87-14.54-.24-44.47-.86-88.93-.66-133.39 1.81-2.1 2.29-4.9 3.25-7.42 4.01-13.12 8.87-25.95 12.9-39.05-4.78 3.7-9.43 7.66-15.12 9.93-.07 2.44-.04 4.92-.7 7.3-.14-2.42-.07-4.84.06-7.25-3.53-5.07-8.34-9.08-12.64-13.47-17.61-16.77-35.77-32.96-53.96-49.1-25.71-23.07-52.06-45.44-77.03-69.31 3.98 1.08 7.14 4.03 11.17 5.12 2.91 1.19 5.95 2.68 9.21 2.19 3.41-.48 6.84-.86 10.28-1.14 9.88-1.28 19.14-5.44 27.65-10.47 4.86-3.32 10.08-6.96 12.36-12.63ZM594.06 222.5c8.64 1.03 17.04 3.43 25.29 6.15 7.48 2.72 15.1 5.55 21.4 10.57 13.76 10.59 23.82 25.33 30.94 41.02 9.03 20.32 15.67 41.75 19.04 63.74.07 3.48-3.94 3.7-6.4 4.47-13.25 2.96-26.74 4.73-40.19 6.46-4.98-9.72-7.48-20.45-10.71-30.82.22 10.56 1.78 21.08 2.45 31.62-2.51 1.51-2.89 4.64-2.99 7.29-.29 7.76 1.19 15.61 4.46 22.67 1.15 2.56 3.07 4.79 5.63 6.02-.04 31.48-.43 62.97-.61 94.46-7.28 4.28-11.53 12.04-14.71 19.58-2.16-.29-3.96 1.26-5.96 1.78-16.79 5.31-34.6 7.19-52.15 6.75-.55-5.8.04-11.63-.19-17.44-.06-84.3-.11-168.62-.03-252.93.13-.27.38-.82.5-1.1.03 2.07-.91 4.63.71 6.31l.68.52c4.06-1.52 8.1-3.89 12.62-3.47 3.25.58 5.21 3.97 8.51 4.35.36.09 1.1.27 1.46.36 2.7-9.18 3.27-19.18.25-28.36m-10.72 202.75c.39.43.39.43 0 0Z"/></g><path fill="#976caf" d="M349.19 185.73c12.12-4.17 23.89-9.32 35.98-13.56-2.28 5.67-7.5 9.31-12.36 12.63-8.51 5.03-17.77 9.19-27.65 10.47l.92-2.37c-.99-1.59-2.31-2.94-3.26-4.54 2.13-.86 4.18-1.9 6.37-2.63Z" id="#976cafff"/><path fill="#fca790" d="M339.59 177.55c2.13-1.05 4.26.67 5.76 2.06 2.26 1.54.85 5.3 3.84 6.12-2.19.73-4.24 1.77-6.37 2.63-1.56.21-3.13.33-4.7.44-1.7-1.71-3.55-3.34-4.83-5.39 2.03-2 3.67-4.6 6.3-5.86Z" id="#fca790ff"/><path fill="#9f78b4" d="M338.12 188.8c1.57-.11 3.14-.23 4.7-.44.95 1.6 2.27 2.95 3.26 4.54l-.92 2.37c-3.44.28-6.87.66-10.28 1.14-3.26.49-6.3-1-9.21-2.19.12-2.1.35-4.27 2.07-5.7 3.46.19 6.92.19 10.38.28Z" id="#9f78b4ff"/><path fill="#df7360" d="M525.76 193.65c4.27 3.4 8.57 6.94 13.83 8.69 10.4 4.24 22.64 2.2 31.8-4.04 1.4-.68 2.76-2.46 4.48-1.65.35 2.38.65 4.77 1.03 7.16-.3-.13-.9-.38-1.2-.5-8.42 6.08-19.38 9.25-29.62 6.48-8.02-1.76-14.34-7.18-20.75-11.9.13-1.42.27-2.83.43-4.24Z" id="#df7360ff"/><path fill="#684180" d="M570.54 249.1c3.47-3.91 7.04-8.82 12.44-9.92 5.33.76 7.69 6.85 9.37 11.32-3.3-.38-5.26-3.77-8.51-4.35-4.52-.42-8.56 1.95-12.62 3.47l-.68-.52Z" id="#684180ff"/><path fill="#d2a472" d="M531.32 241.11c.79.97 1.57 1.96 2.3 3 1.41 2.68 2.89 5.49 3.01 8.59-.06.36-.17 1.07-.23 1.42-.12 69.55.04 139.13-.08 208.66.54 2.78-.5 5.51-.49 8.29 1.3 8.84-.32 17.92.98 26.74-.7-.07-2.11-.22-2.81-.3-.88-.13-1.76-.25-2.63-.36.14-9.39-.14-18.78.01-28.17-1.31-3.64.3-7.23.02-10.94-.02-69.61.01-139.23-.01-208.84.1-2.69.6-5.44-.07-8.09Z" id="#d2a472ff"/><path fill="#ffca84" d="M533.62 244.11c3.8 1.38 7.34 3.55 11.41 4.11 8.31 1.91 16.98-.26 24.3-4.33-.08 84.31-.03 168.63.03 252.93-.3.12-.9.37-1.2.49-10.4 1.29-20.92 1.19-31.35.5-1.3-8.82.32-17.9-.98-26.74-.01-2.78 1.03-5.51.49-8.29.12-69.53-.04-139.11.08-208.66 7.31 3.59 15.94 4.41 23.76 2.14 2.06-.86 4.6-1.32 5.97-3.25-9.66 2.31-19.96 2.96-29.5-.31-.12-3.1-1.6-5.91-3.01-8.59Z" id="#ffca84ff"/><path fill="#d29a5a" d="M536.4 254.12c.06-.35.17-1.06.23-1.42 9.54 3.27 19.84 2.62 29.5.31-1.37 1.93-3.91 2.39-5.97 3.25-7.82 2.27-16.45 1.45-23.76-2.14Z" id="#d29a5aff"/><path fill="#56346f" d="M458.77 320.93c5.69-2.27 10.34-6.23 15.12-9.93-4.03 13.1-8.89 25.93-12.9 39.05-.96 2.52-1.44 5.32-3.25 7.42.11-9.75.14-19.49.33-29.24.66-2.38.63-4.86.7-7.3Z" id="#56346fff"/><path fill="#563470" d="M635.88 355.71c-.67-10.54-2.23-21.06-2.45-31.62 3.23 10.37 5.73 21.1 10.71 30.82-2.77.19-5.49.76-8.26.8Z" id="#563470ff"/><path fill="#724c8a" d="M583.34 425.25c.39.43.39.43 0 0Z" id="#724c8aff"/><path fill="#292941" d="M531.37 497.15c.87.11 1.75.23 2.63.36-.43.2-1.29.6-1.73.81-.32 1.75-.21 3.55.04 5.32 7.04 2.24 14.49 1.08 21.73 1.41 4.91.28 9.82-.27 14.61-1.37.24-2.14.01-4.29-.49-6.37.3-.12.9-.37 1.2-.49.23 5.81-.36 11.64.19 17.44 17.55.44 35.36-1.44 52.15-6.75 2-.52 3.8-2.07 5.96-1.78-1.82 4.48-5.08 8.13-8.76 11.18-.2 4.97 6.19 3.18 9.21 2.72-.2 49.12.18 98.26-.21 147.37h-64.84l.78-.42c-3.35-37.24-5.94-74.58-8.99-111.87-2.8.02-5.6.02-8.39.03-2.9 37.42-5.91 74.84-8.81 112.26h-64.39c-.03-53.87-.05-107.73.01-161.6 12.47 4.69 25.63 7.48 38.93 8.3 6.31.39 12.68 1.17 18.98.47.62-5.66-.19-11.36.19-17.02Z" id="#292941ff"/><path fill="#1f2034" d="M532.27 498.32c.44-.21 1.3-.61 1.73-.81.7.08 2.11.23 2.81.3 10.43.69 20.95.79 31.35-.5.5 2.08.73 4.23.49 6.37-4.79 1.1-9.7 1.65-14.61 1.37-7.24-.33-14.69.83-21.73-1.41-.25-1.77-.36-3.57-.04-5.32Z" id="#1f2034ff"/><path fill="#eb846e" d="M652.33 538.25c7.82-4.13 13.63-11.13 21.3-15.5-.73 4.19-2.41 8.41-5.63 11.32-1.88 1.93-4.64 2.53-6.71 4.22-2 1.58-4.75 1.7-6.8 3.13-1.34 2.55-3.61 4.77-6.54 5.28-2.3.45-5.58.49-6.2-2.41-.22-1.3-.61-2.85.5-3.88 3.34-.78 6.99-.38 10.08-2.16Z" id="#eb846eff"/></svg>