<svg width="636" height="469pt" viewBox="0 0 477 469" xmlns="http://www.w3.org/2000/svg"><g id="#fed4feff" fill="#fed4fe"><path d="M243 30.01c4.65-.01 9.32-.16 13.97.04l.03.93c-4.67.02-9.33.06-14-.01v-.96ZM382.97 75.14c.43.03 1.29.07 1.72.09 4.36 6.89 12.27 10.42 17.57 16.51 27.69 25.6 46.95 59.68 58.53 95.12-4.37 7.65-13.24 10.62-19.46 16.4-17.68 12.67-35.09 25.7-52.87 38.22-3.64 3.37-8.95 5.02-11.14 9.84-3.11 14.65-2.15 29.82-4.5 44.58-2.56 12.46-6.99 24.82-14.72 35.06-3.95 2.01-6.55 5.62-9.2 9.06-4.1 4.24-9.8 6.4-15.05 8.81-13.54 5.42-27.69 9.19-41.19 14.73-8.92 2.3-17.91 6.53-27.35 5.23-1.6-1.47-3.97-3-3.21-5.54 15.68-5.61 32.5-11.29 42.96-25.08 10.25-10.11 12.47-25.54 9.84-39.15-.11-3.86-3.9-11.08 4.2-8.23-2.11-9.55-8.18-18.2-16.26-23.69-2.5-1.56-5.23-2.71-7.7-4.32-2.95-1.98-1.75 4.89-.31 6.25l-.2 1.63c-4.06 3.54-8.24 6.97-11.69 11.15a48.342 48.342 0 0 0-5.1 5.12l-.89.06c.21-6.6 2.31-13.11 1.87-19.7-1.56-.81-3.14-1.56-4.76-2.18-2.63 13.97-1.02 29.45-8.95 41.95-1.84 5.16-8.57 7.91-8.15 13.93l4.81-.14c4.93-6.42 10.72-12.14 15.52-18.66 3.58.77 7.04 1.94 10.79 1.83-3.25-3.02-5.09-7.13-7.04-11.04 4.39-5.25 8.64-10.71 13.87-15.18 1.83-.56 3.23-1.95 4.07-3.65 2.49 1.6 3.99 4.61 6.12 6.74 2.21 10.82 3.66 21.81 4.1 32.86-.2 7.28-2.73 14.4-7.1 20.21-3.55 1.8-6.33 4.59-8.14 8.14-13.71 8.84-29.25 16.26-45.74 17.2-3.5-.14-6.97-.29-10.45-.04-5.44.74-9.78-2.53-14.37-4.71-4.91-6.82-9.24-14.78-8.44-23.54.79-24.37 5.54-48.36 9.74-72.31.19-2.46 1.84-7.25-4.4-3.53-6.33 14.43-5.55 30.8-8 46.14-1.68 11.06-.78 22.32-2.58 33.37-.85.8-1.42 2.38-2.79 2.28-4.81-.32-9.46-2.03-13.77-4.11-4.52-3.25-7.17-8.43-8.12-13.84-1.24-28.93 7.21-56.98 14.33-84.69.88-3.75 2.02-7.51 1.62-11.43-3.72-.29-5.78 3.97-6.02 7.1-7.59 26.05-15.06 52.72-15.07 80.05-3.8-.96-7.51-2.2-10.95-4.05-.72-1.8-2.13-3.19-3.89-3.96-3.78-4.74-5.51-10.99-5.12-17.01-.37-12.72 1.93-25.28 4.41-37.7 2.83-12.39 4.73-24.95 7.66-37.32 1.41-6.64 3.42-13.3 2.96-20.17-2.73.35-4.66 2.2-5.27 4.85-6.02 25.54-11.44 51.25-14.9 77.28-4.69.15-9.36-1.33-13.63-3.17-.72-29.75 3.68-59.44 10.28-88.41 1.12-4.89 4.3-8.9 6.46-13.34 2.97-1.74 6-3.68 7.13-7.13 14.28-9.85 31.7-13.59 48.33-17.48 29.89-7.28 60.78-8.41 91.41-7.23 3.5.89 6.99.91 10.47.06 1.4-.41 2.47-1.42 3.59-2.3 2.29-1.75 4.41-3.71 6.28-5.91 11.15-8.39 21.28-18.09 31.9-27.13 2.24.15 2.94-2.3 3.97-3.82 7.99-5.95 15.63-12.29 22.81-19.21-.2-.43-.62-1.31-.83-1.75ZM103.39 86.95c-1.41-1.83 2.66-5.58 3.56-2.97-1.22.95-2.38 1.97-3.56 2.97ZM30.05 239.03l.95-.04c0 6.33.04 12.66-.01 19.01h-.97c0-6.33-.18-12.65.03-18.97ZM414 390.65c1.06-1.37 2.27-2.62 3.61-3.71 1.24 1.94-1.64 4.89-3.61 3.71ZM83.2 387.74c1.72 1.63 3.35 3.35 4.95 5.09-2.53.31-5.42-2.53-4.95-5.09ZM101.23 405.8c1.69 1.65 3.39 3.28 5.02 5-2.54.44-5.5-2.45-5.02-5ZM392.94 411.61a29.11 29.11 0 0 1 3.65-3.63c1.28 1.96-1.71 4.89-3.65 3.63ZM236.99 465c3.44-.12 6.85.19 10.26.74-3.43.14-6.82.4-10.23.23l-.03-.97ZM252.7 465.63c3.35-1 6.86-.62 10.31-.65-.87 2.91-7.43.44-10.31.65Z"/></g><g id="#212161ff" fill="#212161"><path d="M151 55c28.34-14.91 60.25-22.02 92-24.03 4.67.07 9.33.03 14 .01 42.17 1.83 83.86 15.42 118.7 39.32 1.54 2.73 4.64 3.5 7.27 4.84.21.44.63 1.32.83 1.75-7.18 6.92-14.82 13.26-22.81 19.21-2.44-.45-3.46 1.91-3.97 3.82-10.62 9.04-20.75 18.74-31.9 27.13-2.99.68-5.14 3.17-6.28 5.91-1.12.88-2.19 1.89-3.59 2.3-3.51-.1-6.97-.23-10.47-.06-30.63-1.18-61.52-.05-91.41 7.23-16.63 3.89-34.05 7.63-48.33 17.48-2.62 1.99-5.94 3.93-7.13 7.13-2.16 4.44-5.34 8.45-6.46 13.34-6.6 28.97-11 58.66-10.28 88.41 4.27 1.84 8.94 3.32 13.63 3.17 3.46-26.03 8.88-51.74 14.9-77.28.61-2.65 2.54-4.5 5.27-4.85.46 6.87-1.55 13.53-2.96 20.17-2.93 12.37-4.83 24.93-7.66 37.32-2.48 12.42-4.78 24.98-4.41 37.7-.39 6.02 1.34 12.27 5.12 17.01-.29 2.25 1.65 4.16 3.89 3.96 3.44 1.85 7.15 3.09 10.95 4.05.01-27.33 7.48-54 15.07-80.05.24-3.13 2.3-7.39 6.02-7.1.4 3.92-.74 7.68-1.62 11.43-7.12 27.71-15.57 55.76-14.33 84.69.95 5.41 3.6 10.59 8.12 13.84 4.31 2.08 8.96 3.79 13.77 4.11 1.37.1 1.94-1.48 2.79-2.28 1.8-11.05.9-22.31 2.58-33.37 2.45-15.34 1.67-31.71 8-46.14 6.24-3.72 4.59 1.07 4.4 3.53-4.2 23.95-8.95 47.94-9.74 72.31-.8 8.76 3.53 16.72 8.44 23.54 4.59 2.18 8.93 5.45 14.37 4.71 3.47.61 6.96.62 10.45.04 16.49-.94 32.03-8.36 45.74-17.2 3.23-1.79 6.33-4.92 8.14-8.14 4.37-5.81 6.9-12.93 7.1-20.21 1.34.64 2.62 1.41 3.7 2.45.02 8.09-4.89 14.79-7.84 21.97-10.46 13.79-27.28 19.47-42.96 25.08-.76 2.54 1.61 4.07 3.21 5.54 9.44 1.3 18.43-2.93 27.35-5.23 13.5-5.54 27.65-9.31 41.19-14.73 5.25-2.41 10.95-4.57 15.05-8.81 3.77-1.75 7.32-5.27 9.2-9.06 7.73-10.24 12.16-22.6 14.72-35.06 2.35-14.76 1.39-29.93 4.5-44.58 2.19-4.82 7.5-6.47 11.14-9.84 17.78-12.52 35.19-25.55 52.87-38.22 6.22-5.78 15.09-8.75 19.46-16.4 2.89 15.39 6.86 30.65 8.21 46.28-.49 2.39-.32 4.67.5 6.85.65 3.87.73 7.79.21 11.76-.52 3.72-.76 7.47-.71 11.24.48 9.19-1.97 18.18-3.8 27.1-4.06 20.56-11.39 40.4-21.18 58.92-4.43 8.95-10.88 16.72-15.55 25.5-1.48.98-2.57 2.27-2.94 4.05-3.57 2.04-4.26 6.31-7.92 8.38a22.633 22.633 0 0 0-3.61 3.71c-6.41 4.95-12.92 10.51-17.41 17.33a29.11 29.11 0 0 0-3.65 3.63c-2.4 1.82-3.22 5.63-6.66 5.73-1.08 2.48-3.99 2.43-5.32 4.6-16.79 11.27-34.45 21.68-53.64 28.45-17.69 6.84-36.44 10.62-55.25 12.75-2.83 1.4-5.83 2.15-9.06 1.84-3.45.03-6.96-.35-10.31.65-1.77.55-3.65.37-5.45.11-3.41-.55-6.82-.86-10.26-.74-2.59.3-5.06-.32-7.34-1.53-36.55-3.4-72.09-16.15-102.69-36.39-4.89-1.84-7.5-6.91-12.5-8.58-2.04-3.47-6.16-4.15-8.21-7.7-1.63-1.72-3.33-3.35-5.02-5-3.49-5.05-7.81-9.74-13.08-12.97-1.6-1.74-3.23-3.46-4.95-5.09-1.81-2.29-5.35-3.12-5.64-6.4C49.78 346.41 32.59 302.69 30.99 258c.05-6.35.01-12.68.01-19.01 2.09-37.75 13.7-75.02 34.1-106.9 4.14-7.42 9.94-12.76 14.16-19.83 3-1.48 3.13-5.21 5.91-7.03 6.56-5.44 13.62-11.01 18.22-18.28 1.18-1 2.34-2.02 3.56-2.97 2.38.23 2.99-2.31 4.29-3.74C123.92 71.74 136.51 61.47 151 55m107.31-8.58c-2.64.89-5.62.59-8.31.61-24.46-.96-49.33 2.62-72.09 11.82-25.41 9.16-49.07 23.7-67.66 43.4-19.73 18.78-35.73 41.59-46.32 66.72-7.5 16.91-10.33 35.27-14.74 53.1-3.55 23.59.51 47.3 3.13 70.76 3.36 8.92 6.77 17.8 8.78 27.15 19.52 47.49 56.13 88.32 103.04 109.83 13.94 5.76 28.17 10.94 42.93 14.14 37.89 9.65 78.38 5.32 114.77-8.2 25.62-9.75 47.94-26.53 67.92-44.99 33.98-32.94 55.6-78.53 59.21-125.74-.76-17.53 2.24-35.89-3.13-52.86-15.74 6.89-28.94 18.07-43.01 27.68-6.17 5.34-15.53 8.06-18.74 16.21-2.41 19.52-3.25 39.5-9.67 58.28-4.15 10.56-10.04 20.33-16.43 29.66-1.71 3.34-5.28 4.71-8.05 6.92-16.98 9.59-36.76 12.08-54.6 19.55-8.1 3.87-17.4 3.69-25.64 7.19-8.7 2.43-14.68-5.53-21.75-8.56-10.1.26-21.08-.07-29.27-6.77-3.94-4.48-7.11-9.55-10.77-14.24-8.34-5.31-18.93-5.99-26.68-12.32-3.35-5.57-3.94-12.71-8.41-17.58-6.1-3.78-13.97-5.71-16.8-13.2-5.04-7.01-4.21-15.88-6.24-23.7-7.53-1.23-16.62-4.71-17.76-13.27.18-12.21-.63-24.5.53-36.67 3.55-22.77 5.14-46.54 15.27-67.56 13.96-17.28 35.81-24.97 56.88-29.12 17.69-4.38 35.76-7.17 53.96-8.25 16.99-1.11 34.05.19 51.05-.67 18.14-12.2 32.97-28.65 51.09-40.88-.89-2.7-1.48-5.93-4.13-7.49-12.16-7.79-25.23-14.28-38.89-18.98-12.92-4.85-26.76-6.48-40.06-10.05-6.43-.57-12.99-2.6-19.41-1.92Z"/><path d="M295.14 262.78c2.47 1.61 5.2 2.76 7.7 4.32 4.79 6.19 10.1 12.2 12.94 19.66-1.84 1.4-3.68 2.78-5.56 4.12-1.18-3.58-2.53-7.17-5.12-9.99-2.13-2.13-3.63-5.14-6.12-6.74-2.22-.89-3.9 1.73-4.07 3.65-5.23 4.47-9.48 9.93-13.87 15.18 1.95 3.91 3.79 8.02 7.04 11.04-3.75.11-7.21-1.06-10.79-1.83-4.8 6.52-10.59 12.24-15.52 18.66l-4.81.14c-.42-6.02 6.31-8.77 8.15-13.93 7.93-12.5 6.32-27.98 8.95-41.95 1.62.62 3.2 1.37 4.76 2.18.44 6.59-1.66 13.1-1.87 19.7l.89-.06c2.74.2 4.77-2.64 5.1-5.12 3.45-4.18 7.63-7.61 11.69-11.15l.2-1.63c.28-2.07.39-4.17.31-6.25Z"/></g><g id="#4b539aff" fill="#4b539a"><path d="M85.23 103.32c7.01-4.26 11.24-12.14 18.16-16.37-4.6 7.27-11.66 12.84-18.22 18.28.02-.48.05-1.43.06-1.91ZM357.02 99.92c.51-1.91 1.53-4.27 3.97-3.82-1.03 1.52-1.73 3.97-3.97 3.82ZM318.84 132.96c1.14-2.74 3.29-5.23 6.28-5.91-1.87 2.2-3.99 4.16-6.28 5.91ZM304.78 135.2c3.5-.17 6.96-.04 10.47.06-3.48.85-6.97.83-10.47-.06ZM157.91 167.04c1.19-3.2 4.51-5.14 7.13-7.13-1.13 3.45-4.16 5.39-7.13 7.13ZM469 233.14c2.16.9 1.36 5.01.5 6.85-.82-2.18-.99-4.46-.5-6.85ZM469 262.99c-.05-3.77.19-7.52.71-11.24.08 2.81.22 8.44.29 11.26l-1-.02ZM294.83 269.03c-1.44-1.36-2.64-8.23.31-6.25.08 2.08-.03 4.18-.31 6.25ZM302.84 267.1c8.08 5.49 14.15 14.14 16.26 23.69-8.1-2.85-4.31 4.37-4.2 8.23 2.63 13.61.41 29.04-9.84 39.15 2.95-7.18 7.86-13.88 7.84-21.97-1.08-1.04-2.36-1.81-3.7-2.45-.44-11.05-1.89-22.04-4.1-32.86 2.59 2.82 3.94 6.41 5.12 9.99 1.88-1.34 3.72-2.72 5.56-4.12-2.84-7.46-8.15-13.47-12.94-19.66ZM294.91 277.8c.17-1.92 1.85-4.54 4.07-3.65-.84 1.7-2.24 3.09-4.07 3.65ZM277.84 286.93c1.57-1.84 3.28-3.54 5.1-5.12-.33 2.48-2.36 5.32-5.1 5.12ZM165.06 302.03c1.76.77 3.17 2.16 3.89 3.96-2.24.2-4.18-1.71-3.89-3.96ZM348.9 340.02c2.65-3.44 5.25-7.05 9.2-9.06-1.88 3.79-5.43 7.31-9.2 9.06ZM293.96 342.1c1.81-3.55 4.59-6.34 8.14-8.14-1.81 3.22-4.91 6.35-8.14 8.14ZM237.77 359.26c3.48-.25 6.95-.1 10.45.04-3.49.58-6.98.57-10.45-.04ZM396.59 407.98c4.49-6.82 11-12.38 17.41-17.33-5.03 6.21-10.71 12.89-17.41 17.33ZM88.15 392.83c5.27 3.23 9.59 7.92 13.08 12.97-5.01-2.54-7.87-8.43-12.95-11.19-.03-.45-.1-1.33-.13-1.78Z"/></g></svg>