<svg width="696" height="482pt" viewBox="0 0 522 482" xmlns="http://www.w3.org/2000/svg"><g id="#fdd4feff" fill="#fdd4fe"><path d="M243.35 20.45c51.84-6.77 105.01 8.39 148.3 36.91 1.16.53 1.57 1.46 1.24 2.77-14.49-9.47-29.64-18.14-45.94-24.09-25.63-10.42-53.64-12.39-80.95-14.06-25.94.33-51.49 6.5-75.73 15.42-.81-1.64 1.53-1.99 2.41-2.76 2.16-.73 2.9-2.99 4.58-4.32 12.25-3.74 24.78-7.81 37.76-7.32 2.97.06 5.61-1.55 8.33-2.55ZM173.32 40.35c1.01 1.21 8.67-2.06 8.51.49-16.26 6.83-31.23 16.27-45.35 26.71-9.15 7.76-19.32 14.45-27.02 23.79-1.67 3.9-5.65 5.84-7.67 9.5-25.11 29.62-43.58 65.52-49.74 104.08-.94 1.1-1.87 2.21-2.81 3.31 7.17-39.74 22.99-78.62 49.52-109.46 20.44-24.32 45.64-44.95 74.56-58.42ZM401.96 66.01c5.73 1.74 11.62 5.24 13.77 11.2l.4.78c-2.25.32-3.55-.96-4.29-2.93-.53-1.91-2.01-3.36-3.91-3.91-2.07-1.24-4-2.7-5.98-4.07l.01-1.07Z"/><path d="M415.73 77.21c6.67 2.18 10.53 9.73 16.09 14.06l-.12 1.78-.59.05c-4.53-5.47-9.75-10.33-14.98-15.11l-.4-.78ZM317.33 162.35c12.2-6.52 27.57-10.56 40.68-4.38 14.42 5.53 26.86 14.93 39.75 23.2 7.85 7.62 18.17 12.63 29.23 12.88 18.7 1.18 37.62 3.31 56.27 1.31l.66-.2c2.76 20.45 6.46 41.16 4.23 61.83-.41 20.41-5.63 40.33-11.3 59.81l-.57-.16c-15.6-1.56-31.55-.29-47.27-.56-9.52-.67-12.22 9.61-18.72 14.19-1.4 3.71-4.85 5.68-7.37 8.54-2.79 2.6-5.57 5.22-8.09 8.1-14.26 14.64-37.32 13.31-56.01 13 3.22-9.22 11.87-15.87 13.53-25.75 1.29-2.29 2.12-5.53-.14-7.31-1.46-9.57-11.14-14.07-18.91-17.88.89-4.25 2.71-9.15-.27-12.99-2.25-7.94-12.11-6.09-18.34-7.71-14.77-.01-29.21 3.63-43.8 5.54-13.91 2.1-27.91 3.58-41.88 5.18-13.86 1.73-27.84.55-41.75 1.31-20.82-.49-41.67-.48-62.49 0-3.07-.19-6.03-1.07-8.84-2.27-.67-1.84-2.11-3.26-3.92-3.98-3.28-4.48-2.07-10.31.11-15.02 1.7-.88 3.13-2.24 3.81-4.06 3.38-1.44 6.95-2.47 10.68-2.46 28.54-2.9 56.9-7.24 85.41-10.39 12.53-1.56 25.21-2.07 37.61-4.55 4.48-1.28 9.04-3.3 12.19-6.82.83-7.92-7.69-12.56-13.62-15.9-32.16-15.08-64.11-30.62-96.21-45.84-7.41-3.21-13.71-8.11-19.03-14.09.05-5.45 1.73-10.66 3.13-15.86 14.33-1.35 27.75 4.64 41.19 8.5 29.46 8.85 58.02 20.59 87.8 28.42 3.93 1.08 8.15 1.23 11.79 3.25-1.42 12.71-2.18 26.11 4.23 37.7 2.24 8.99 5.5 17.65 10.43 25.55 4.7 2.47 10.08 6.07 15.47 3.53 6.39-1 10.33-6.63 12.89-12.05 6.38-13.27 8.41-28.14 9.36-42.69 3.49-1.01 7.05-1.95 10.69-2.31.25 5.93.01 11.88-.15 17.83-.65 6.06-1.75 12.47-.12 18.47-.41 13.63 10.22 24.98 22.12 30.05 6.75 2.75 13.93 5.02 21.32 4.68-.82-5.09-6.87-5.74-11.01-6.62-6.27-1.4-12.07-4.51-17.12-8.44-.8-1.75-2.18-3.15-3.96-3.89-8.59-11-5.27-25.61-4.33-38.35 1.87-6.47 1.41-13.31-.95-19.56-6.51-.37-13.12-.33-19.5 1.11-1.84 2.19-2.12 5.24-3.05 7.88-3.49 14.29-3.4 29.81-11.29 42.71-1.72 4.98-8.68 5.79-13.02 4.27-.24-2.2-1.71-3.69-3.88-4.01-3.74-6.6-5.07-14.15-8.01-21.08-6.05-13.52-5.6-29.79 1.01-43.02 6.46-12.41 17.75-21.27 29.33-28.64ZM45.45 231.96c-.81-1.82-1.69-6.03.55-6.79.37 2.27.19 4.53-.55 6.79Z"/><path d="M304.99 296.5c6.99-.53 15.07-1.22 21.72 1.78 4.66 7.56-4.69 11.75-7.99 17.36-3.3.89-5.99 3.33-8.21 5.84-5.61 2.02-9.97 6.35-15.53 8.48-12.82 5.46-25.85 11.28-39.97 12-8.52-.19-18.01 1.32-25.6-3.43-2.3-2.98-4.83-5.81-7.9-8-2.21-4.29-5.21-8.59-4.57-13.69l.04-6.66.09-.91c18.93-6.82 39.62-5.29 59.29-8.71 7.25-1.22 14.37-3.38 21.78-3.56 2.38.45 4.67.28 6.85-.5Z"/><path d="M323.19 318.19c6.23-4.6 14.7-.9 19.59 3.98 4.1 8.11 2.53 19.17-4.97 24.58-1.74 1.64-3.42 3.32-5.06 5.06-4.5 6.11-12.24 8.24-18.09 12.8-8.44 3.71-17.28 7.44-26.65 7.41-5.36-.04-10.68-.02-16.03-.01-6.26-.03-12.97-2.08-17.74-6.17a13.371 13.371 0 0 0-5.07-5.08c-1.79-.98-1.04-3.26-1.23-4.91.02-1.65.04-4.95.05-6.6 27.38-2.92 53.89-13.54 75.2-31.06ZM431 394.65c1.06-1.37 2.27-2.62 3.61-3.71 1.24 1.94-1.64 4.89-3.61 3.71ZM106.19 397.75c4.1 3.93 8.05 8.01 12.03 12.08-5.2-1.27-8.02-6.78-11.98-10.11-.02-.49-.04-1.48-.05-1.97ZM123.16 414.16c1.6.75 2.83 2.07 3.89 3.46-1.89 1.14-4.68-1.51-3.89-3.46ZM251.17 468c2.27-.39 4.53-.2 6.79.55-1.82.81-6.03 1.68-6.79-.55ZM277.01 468.49c2.16-.82 4.44-.98 6.84-.49-.88 2.16-5.01 1.35-6.84.49Z"/></g><path fill="#212161" d="M190.27 37.4c24.24-8.92 49.79-15.09 75.73-15.42 27.31 1.67 55.32 3.64 80.95 14.06 16.3 5.95 31.45 14.62 45.94 24.09 3 2.49 5.82 4.87 9.06 6.95 1.98 1.37 3.91 2.83 5.98 4.07-.04 2.16 1.76 3.95 3.91 3.91.74 1.97 2.04 3.25 4.29 2.93 5.23 4.78 10.45 9.64 14.98 15.11-.21 2.11 1.57 3.63 3.48 4.04 1.58 1.08 2.46 2.73 2.75 4.59 1.71 1.36 3.82 2.4 4.16 4.81 1.49.95 2.59 2.24 3 3.99 3.12 1.74 3.71 5.56 6.05 7.95 15.33 22.14 25.3 47.57 31.63 73.64-.1.37-.29 1.12-.39 1.5-21.24-1.34-42.78.38-63.81-3.62-7.37-1.39-13.2-6.61-20.22-8.83-12.89-8.27-25.33-17.67-39.75-23.2-13.11-6.18-28.48-2.14-40.68 4.38-11.58 7.37-22.87 16.23-29.33 28.64-6.61 13.23-7.06 29.5-1.01 43.02 2.94 6.93 4.27 14.48 8.01 21.08.31 1.89 1.92 3.75 3.88 4.01 4.34 1.52 11.3.71 13.02-4.27 7.89-12.9 7.8-28.42 11.29-42.71.93-2.64 1.21-5.69 3.05-7.88 6.38-1.44 12.99-1.48 19.5-1.11 2.36 6.25 2.82 13.09.95 19.56-.94 12.74-4.26 27.35 4.33 38.35-.23 2.24 1.7 4.2 3.96 3.89 5.05 3.93 10.85 7.04 17.12 8.44-3.41.85-6.81 1.67-10.31 1.94-11.9-5.07-22.53-16.42-22.12-30.05.32-6.16.33-12.32.12-18.47.16-5.95.4-11.9.15-17.83-3.64.36-7.2 1.3-10.69 2.31-.95 14.55-2.98 29.42-9.36 42.69-2.56 5.42-6.5 11.05-12.89 12.05-5.39 2.54-10.77-1.06-15.47-3.53-4.93-7.9-8.19-16.56-10.43-25.55-6.41-11.59-5.65-24.99-4.23-37.7-3.64-2.02-7.86-2.17-11.79-3.25-29.78-7.83-58.34-19.57-87.8-28.42-13.44-3.86-26.86-9.85-41.19-8.5-1.4 5.2-3.08 10.41-3.13 15.86 5.32 5.98 11.62 10.88 19.03 14.09 32.1 15.22 64.05 30.76 96.21 45.84 5.93 3.34 14.45 7.98 13.62 15.9-3.15 3.52-7.71 5.54-12.19 6.82-12.4 2.48-25.08 2.99-37.61 4.55-28.51 3.15-56.87 7.49-85.41 10.39-3.73-.01-7.3 1.02-10.68 2.46-2.23-.14-4.22 1.78-3.81 4.06-2.18 4.71-3.39 10.54-.11 15.02-.19 2.23 1.7 4.1 3.92 3.98 2.81 1.2 5.77 2.08 8.84 2.27 15.02 1.51 30.16.32 45.23.73 5.71-.38 11.66.76 17.26-.73 13.91-.76 27.89.42 41.75-1.31 13.97-1.6 27.97-3.08 41.88-5.18 14.59-1.91 29.03-5.55 43.8-5.54 6.23 1.62 16.09-.23 18.34 7.71 2.98 3.84 1.16 8.74.27 12.99 7.77 3.81 17.45 8.31 18.91 17.88.03 1.83.1 5.48.14 7.31-1.66 9.88-10.31 16.53-13.53 25.75 18.69.31 41.75 1.64 56.01-13 3.48-1.4 7.42-4.14 8.09-8.1 2.52-2.86 5.97-4.83 7.37-8.54 6.5-4.58 9.2-14.86 18.72-14.19 15.72.27 31.67-1 47.27.56-5.07 18.82-14.75 36.13-24.82 52.71-.83 2.91-3.99 4.11-4.96 7.03-.59 2.62-3.65 3.41-3.98 6.17-3.56 2.06-4.26 6.32-7.91 8.39a22.633 22.633 0 0 0-3.61 3.71c-4.58 2.72-7.94 6.97-11.78 10.57-2.29 2.4-5.27 4.52-6.05 7.95-.32 1.12-.85 2.6-2.23 2.72-2.59.28-3.9 2.8-5.4 4.61-6.47 2.46-10.39 8.65-16.5 11.58-22.94 15.18-48.7 26.6-75.8 31.54-9.07-1.55-18.06 1.6-27.12 1.71-58.29 5.67-118.05-14.94-161.51-53.92-40.38-34.48-66.7-84.71-72.7-137.41-3.42-22.93-1.8-46.12.14-69.08 6.16-38.56 24.63-74.46 49.74-104.08 2.02-3.66 6-5.6 7.67-9.5 7.7-9.34 17.87-16.03 27.02-23.79 14.12-10.44 29.09-19.88 45.35-26.71 2.8-1.16 5.67-2.18 8.44-3.44m65.07 4.16c-14.64 1.28-29.05 4.06-43.35 7.43-42.76 12.07-81.04 38.74-108.15 73.83-14.88 19.98-25.61 42.91-32.24 66.88-5.66 20.18-9.06 41.46-5.86 62.36-.96 58.64 28.63 115.82 74.57 151.58 28.58 23.53 63.96 38.12 100.35 43.85 10.59-.45 21.09 3.25 31.63 1.86 10.55-2.29 21.51-.36 32.01-3.03 23.59-4.28 46.12-13.11 66.77-25.21 18.99-11.69 37.99-24.52 51.32-42.74 12.75-13.89 21.88-30.46 31.29-46.67.95-1.61 2.39-4.31.1-5.48-6.59-.43-13.12-1.58-19.69-2.15-7.86 2.3-12.81 9.17-18.1 14.92-6.77 9-16.37 15-25.03 21.95-6.07 4.65-13.61 6.7-21.02 7.92-16.93 3.8-34.46-2.65-51.27 1.81-7.84 5.1-15.93 11.11-25.67 11.38-5.64.48-11.27 1.66-16.93 1.79-9.86-2.48-20.45-3.83-28.81-10.11-6.42-5.37-9.64-13.56-11.5-21.5-4.5-4.04-10.69-5.06-15.59-8.4-8.82-7.94-12.35-19.7-15.26-30.8-11.51-4.5-23.69-1.76-35.56-1.44-9.44 1.61-18.86-1.93-28.36-.52-10.65 1.69-22.66 1.09-31.64-5.47-11.24-8.85-11.25-27.7-1.19-37.45 11.5-7.68 26.01-6.5 38.91-9.96 8.42-.32 16.89-.16 25.21-1.87 17.4-1.29 34.82-2.86 52-5.98 6.2-1.07 12.93-.4 18.58-3.6 1.09-3.53-4.85-3.97-6.22-6.34-7.24-3.74-13.47-9.33-21.3-11.85-8.56-4.23-17.28-8.11-26.07-11.83-1.97-4.52-7.86-3.22-11.57-5.38-10.24-5.38-20.8-10.07-31.39-14.69-8.5-5.3-18.02-11.83-20.92-21.98-1.44-9.23-.07-22.66 10.68-25.61 11.95-.55 23.92 2.35 34.88 7.01 10.38 4.21 21.72 5.5 31.97 10.05 20.79 8.25 42.67 13.25 63.86 20.27 3.05.8 7.98 4.89 10.5.88 12.54-20.59 34.34-33.78 56.7-41.25 6.23 2 12.43-.72 18.68.41 8.75 2.7 17.68 5.38 25.35 10.55 9.55 6.02 17.81 13.94 27.94 19.06 9.25 4.61 19.34 8.48 29.75 8.62 8.41-3.75 16.74 1.33 25.32.34-.12-11.66-4.96-22.58-10.41-32.66-6.65-11.21-12.98-22.67-20.89-33.08-9.03-10.54-17.86-21.53-29.1-29.84C391.91 83.5 384.33 76.01 375 71c-35.32-22.21-78.07-32.92-119.66-29.44M298.14 297c-7.41.18-14.53 2.34-21.78 3.56-19.67 3.42-40.36 1.89-59.29 8.71l-.09.91c-1.85.74-1.82 5.87-.04 6.66-.64 5.1 2.36 9.4 4.57 13.69 3.07 2.19 5.6 5.02 7.9 8 7.59 4.75 17.08 3.24 25.6 3.43 14.12-.72 27.15-6.54 39.97-12 5.56-2.13 9.92-6.46 15.53-8.48 2.22-2.51 4.91-4.95 8.21-5.84 3.3-5.61 12.65-9.8 7.99-17.36-6.65-3-14.73-2.31-21.72-1.78-1.84-.87-5.96-1.67-6.85.5m25.05 21.19c-21.31 17.52-47.82 28.14-75.2 31.06-1.87.63-1.82 5.83-.05 6.6.19 1.65-.56 3.93 1.23 4.91.02.46.07 1.38.09 1.84 2.29.48 2.4 3.94 4.98 3.24 4.77 4.09 11.48 6.14 17.74 6.17l.04.97c5.32.08 10.64.09 15.97.01l.02-.97c9.37.03 18.21-3.7 26.65-7.41 5.85-4.56 13.59-6.69 18.09-12.8 2.57.43 5.49-2.49 5.06-5.06 7.5-5.41 9.07-16.47 4.97-24.58-4.89-4.88-13.36-8.58-19.59-3.98Z" id="#212161ff"/><g id="#4b539aff" fill="#4b539a"><path d="M407.93 71.15c1.9.55 3.38 2 3.91 3.91-2.15.04-3.95-1.75-3.91-3.91ZM431.11 93.1l.59-.05c1.12 1.09 3.22 2.31 2.89 4.09-1.91-.41-3.69-1.93-3.48-4.04ZM397.76 181.17c7.02 2.22 12.85 7.44 20.22 8.83 21.03 4 42.57 2.28 63.81 3.62.1-.38.29-1.13.39-1.5 1 .25 1.36 1.33 1.08 3.24-18.65 2-37.57-.13-56.27-1.31-11.06-.25-21.38-5.26-29.23-12.88ZM49.24 208.23c.94-1.1 1.87-2.21 2.81-3.31-1.94 22.96-3.56 46.15-.14 69.08 6 52.7 32.32 102.93 72.7 137.41 43.46 38.98 103.22 59.59 161.51 53.92 9.06-.11 18.05-3.26 27.12-1.71-9.48 2.74-19.53 4-29.39 4.38-2.4-.49-4.68-.33-6.84.49-6.22.63-12.81 1.12-19.05.06-2.26-.75-4.52-.94-6.79-.55-15.76.41-31.04-4.4-46.21-8.01-18.1-5.71-35.64-13.43-51.95-23.02-4.33-3.84-9.61-6.46-14.51-9.48-.99-1.48-2.29-2.57-4.04-2.98-.94-1.62-2.28-2.69-4.19-2.86-1.15-1.28-2.07-2.74-3.22-4.03-1.06-1.39-2.29-2.71-3.89-3.46-1.9-1.12-3.34-2.85-4.94-4.33-3.98-4.07-7.93-8.15-12.03-12.08-2.04-2.3-4.55-4.02-6.85-6.01-.13-2.44-1.94-3.98-3.86-5.19-.47-2.26-2.11-3.83-3.98-5.02-1.12-2.39-2.22-5-4.44-6.57-19.65-28.68-33.32-62.05-38.44-96.67-3.6-15.12-4.66-30.89-3.17-46.33.74-2.26.92-4.52.55-6.79-.03-5.79 2.46-11.24 3.24-16.94ZM339.67 245.26c-1.63-6-.53-12.41.12-18.47.21 6.15.2 12.31-.12 18.47ZM295 255.09c2.17.32 3.64 1.81 3.88 4.01-1.96-.26-3.57-2.12-3.88-4.01ZM351.02 261.04c1.78.74 3.16 2.14 3.96 3.89-2.26.31-4.19-1.65-3.96-3.89ZM372.1 273.37c4.14.88 10.19 1.53 11.01 6.62-7.39.34-14.57-1.93-21.32-4.68 3.5-.27 6.9-1.09 10.31-1.94Z"/><path d="M112.12 279.03c-.41-2.28 1.58-4.2 3.81-4.06-.68 1.82-2.11 3.18-3.81 4.06ZM112.01 294.05c1.81.72 3.25 2.14 3.92 3.98-2.22.12-4.11-1.75-3.92-3.98ZM298.14 297c.89-2.17 5.01-1.37 6.85-.5-2.18.78-4.47.95-6.85.5ZM124.77 300.3c20.82-.48 41.67-.49 62.49 0-5.6 1.49-11.55.35-17.26.73-15.07-.41-30.21.78-45.23-.73ZM216.94 316.84c-1.78-.79-1.81-5.92.04-6.66l-.04 6.66ZM352.21 326.85c2.26 1.78 1.43 5.02.14 7.31-.04-1.83-.11-5.48-.14-7.31ZM394.83 346.91c2.52-2.88 5.3-5.5 8.09-8.1-.67 3.96-4.61 6.7-8.09 8.1ZM332.75 351.81c1.64-1.74 3.32-3.42 5.06-5.06.43 2.57-2.49 5.49-5.06 5.06ZM247.94 355.85c-1.77-.77-1.82-5.97.05-6.6-.01 1.65-.03 4.95-.05 6.6ZM249.17 360.76c2.13 1.21 3.86 2.94 5.07 5.08-2.58.7-2.69-2.76-4.98-3.24-.02-.46-.07-1.38-.09-1.84ZM271.98 372.01c5.35-.01 10.67-.03 16.03.01l-.02.97c-5.33.08-10.65.07-15.97-.01l-.04-.97ZM419.22 405.22c3.84-3.6 7.2-7.85 11.78-10.57-4.31 6.9-11.73 11.3-16.41 17.97-.36.14-1.07.41-1.42.55.78-3.43 3.76-5.55 6.05-7.95Z"/></g></svg>