<?xml version="1.0" encoding="UTF-8" ?>
<!DOCTYPE svg PUBLIC "-//W3C//DTD SVG 1.1//EN" "http://www.w3.org/Graphics/SVG/1.1/DTD/svg11.dtd">
<svg width="740pt" height="493pt" viewBox="0 0 740 493" version="1.1" xmlns="http://www.w3.org/2000/svg">
<g id="#bca1e4ff">
</g>
<g id="#fefefdff">
</g>
<g id="#fffcfdff">
</g>
<g id="#231f20ff">
<path fill="#231f20" opacity="1.00" d=" M 332.99 149.01 C 345.19 144.72 358.42 145.43 371.07 146.90 C 373.60 147.33 376.16 147.12 378.64 146.49 C 380.71 150.08 379.75 154.43 378.66 158.17 C 383.67 164.12 386.01 171.80 387.27 179.35 C 387.49 180.89 387.67 182.43 387.85 183.98 L 387.91 184.51 L 388.12 186.26 C 382.77 181.45 377.95 176.00 374.17 169.87 C 367.60 176.91 357.30 176.00 348.54 176.83 C 341.78 177.92 334.73 177.26 328.21 179.68 C 331.08 188.63 329.58 198.24 328.05 207.31 L 327.18 206.01 C 325.78 203.99 324.67 201.80 323.80 199.51 C 319.32 197.91 314.83 196.33 310.14 195.49 C 315.35 195.80 319.97 198.61 325.15 199.02 C 325.41 197.01 326.81 194.88 326.19 192.89 C 323.25 191.12 319.80 190.50 316.57 189.48 C 316.22 188.81 315.51 187.46 315.15 186.79 C 317.60 185.08 319.91 183.18 322.17 181.22 C 325.16 178.10 331.28 180.72 332.78 175.81 C 325.86 173.14 317.55 176.44 312.82 181.81 C 312.55 181.31 312.01 180.30 311.74 179.80 C 310.52 177.29 310.23 174.20 311.68 171.72 C 313.14 168.78 316.50 167.76 319.39 166.81 C 319.19 158.56 325.50 151.60 332.99 149.01 M 369.77 169.82 C 367.43 171.68 364.52 172.53 361.82 173.69 C 366.60 174.17 371.57 171.50 373.90 167.30 C 372.27 167.67 371.08 168.88 369.77 169.82 Z" />
</g>
<g id="#211636ff">
<path fill="#211636" opacity="1.00" d=" M 296.95 171.09 C 297.67 164.48 303.74 159.44 310.00 158.14 C 309.89 158.46 309.69 159.10 309.58 159.42 C 306.42 160.73 303.14 162.14 301.01 164.96 C 299.31 166.78 299.11 169.69 296.95 171.09 Z" />
<path fill="#211636" opacity="1.00" d=" M 302.82 167.92 C 305.41 164.92 309.01 162.26 313.12 162.16 C 311.75 164.25 308.87 164.25 307.04 165.79 C 303.61 167.94 302.16 171.84 300.17 175.15 C 299.53 172.43 301.29 169.98 302.82 167.92 Z" />
<path fill="#211636" opacity="1.00" d=" M 448.84 302.65 C 470.61 305.67 492.31 309.88 513.19 316.88 C 526.60 321.85 540.27 327.33 551.20 336.81 C 554.95 339.83 557.38 344.05 560.42 347.71 L 560.58 347.92 C 556.38 358.91 546.01 365.77 536.05 371.07 C 517.42 380.70 496.96 386.11 476.54 390.42 C 465.59 392.42 454.64 394.68 443.54 395.58 C 445.71 394.43 448.22 393.70 450.05 392.00 C 450.50 383.66 451.49 375.35 451.13 366.99 C 451.03 345.53 452.25 323.93 448.84 302.65 Z" />
<path fill="#211636" opacity="1.00" d=" M 294.83 308.81 C 298.48 307.10 301.64 304.02 305.89 303.96 C 306.24 328.62 306.00 353.30 306.13 377.97 C 305.68 384.27 307.19 390.56 306.38 396.84 C 278.31 393.89 250.26 388.94 223.56 379.58 C 212.77 375.66 202.11 370.98 192.79 364.19 C 187.20 359.99 181.97 354.81 179.53 348.11 C 182.45 343.92 185.35 339.61 189.35 336.35 C 201.43 325.94 216.71 320.52 231.57 315.43 C 237.07 313.50 242.88 312.57 248.27 310.34 C 251.47 315.92 257.80 318.80 264.02 319.16 C 267.65 319.11 271.05 317.69 274.40 316.48 C 281.19 313.87 288.36 312.22 294.83 308.81 Z" />
</g>
<g id="#da9fb7ff">
<path fill="#da9fb7" opacity="1.00" d=" M 369.77 169.82 C 371.08 168.88 372.27 167.67 373.90 167.30 C 371.57 171.50 366.60 174.17 361.82 173.69 C 364.52 172.53 367.43 171.68 369.77 169.82 Z" />
<path fill="#da9fb7" opacity="1.00" d=" M 311.74 179.80 C 312.01 180.30 312.55 181.31 312.82 181.81 C 311.74 183.67 310.36 185.35 308.53 186.52 C 300.44 192.31 293.67 199.63 286.49 206.46 C 283.95 209.09 280.86 211.65 280.10 215.42 C 282.90 216.41 285.61 217.67 288.00 219.46 C 283.86 218.33 279.87 216.71 275.85 215.23 C 278.44 211.71 281.11 208.24 283.85 204.83 C 286.89 201.83 290.52 199.51 293.97 197.02 C 296.22 193.66 298.75 190.41 302.01 187.96 C 303.74 187.00 305.75 186.57 307.36 185.38 C 309.13 183.79 310.34 181.70 311.74 179.80 Z" />
</g>
<g id="#fd9e82ff">
<path fill="#fd9e82" opacity="1.00" d=" M 348.54 176.83 C 357.30 176.00 367.60 176.91 374.17 169.87 C 377.95 176.00 382.77 181.45 388.12 186.26 C 388.76 189.52 389.31 192.81 389.67 196.12 C 394.66 193.77 393.49 185.31 387.91 184.51 L 387.85 183.98 C 388.18 183.50 388.84 182.52 389.17 182.04 C 397.11 183.17 397.08 195.48 391.11 199.17 C 388.34 200.78 388.61 204.26 388.33 207.02 C 387.98 214.24 383.80 220.42 381.33 227.03 C 377.73 231.91 372.04 235.19 365.94 235.46 C 359.85 236.13 354.10 233.67 348.68 231.23 C 348.46 231.62 348.01 232.40 347.79 232.79 C 347.57 229.69 344.60 228.31 342.60 226.43 C 340.42 224.63 338.65 222.33 336.23 220.84 C 332.99 219.85 329.25 220.46 326.28 218.66 C 323.61 215.88 322.85 211.88 321.58 208.37 C 318.34 208.41 315.13 207.95 311.90 207.78 C 307.98 210.10 305.67 214.64 301.16 216.06 C 298.18 217.04 295.88 219.17 293.44 221.03 C 291.59 220.62 289.79 220.07 288.00 219.46 C 285.61 217.67 282.90 216.41 280.10 215.42 C 280.86 211.65 283.95 209.09 286.49 206.46 C 293.67 199.63 300.44 192.31 308.53 186.52 C 310.36 185.35 311.74 183.67 312.82 181.81 C 317.55 176.44 325.86 173.14 332.78 175.81 C 331.28 180.72 325.16 178.10 322.17 181.22 C 319.91 183.18 317.60 185.08 315.15 186.79 C 315.51 187.46 316.22 188.81 316.57 189.48 C 319.80 190.50 323.25 191.12 326.19 192.89 C 326.81 194.88 325.41 197.01 325.15 199.02 C 319.97 198.61 315.35 195.80 310.14 195.49 C 314.83 196.33 319.32 197.91 323.80 199.51 C 324.67 201.80 325.78 203.99 327.18 206.01 C 325.91 207.95 324.78 210.50 326.38 212.64 C 327.58 215.20 330.41 215.95 332.98 216.32 C 331.42 213.27 329.87 210.21 328.05 207.31 C 329.58 198.24 331.08 188.63 328.21 179.68 C 334.73 177.26 341.78 177.92 348.54 176.83 M 312.20 190.58 L 313.08 191.61 C 317.19 192.65 321.32 193.65 325.21 195.39 C 325.04 193.43 322.85 193.17 321.44 192.52 C 318.43 191.66 315.42 190.15 312.20 190.58 M 314.24 203.33 C 313.61 204.43 313.04 205.58 312.59 206.77 C 315.58 206.58 318.57 205.66 320.28 203.01 C 318.26 203.08 316.25 203.21 314.24 203.33 Z" />
</g>
<g id="#d392aaff">
<path fill="#d392aa" opacity="1.00" d=" M 387.27 179.35 C 392.46 178.12 394.86 183.32 396.44 187.20 C 396.77 191.09 397.21 195.50 394.79 198.87 C 393.71 200.52 391.64 201.25 390.67 202.97 C 390.13 207.52 389.70 212.12 388.24 216.49 C 387.05 219.75 385.38 222.81 383.99 225.98 C 384.32 228.12 384.50 230.29 384.35 232.47 L 384.06 233.24 C 383.47 234.86 383.04 236.54 382.60 238.22 C 382.70 234.46 383.13 230.48 381.33 227.03 C 383.80 220.42 387.98 214.24 388.33 207.02 C 388.61 204.26 388.34 200.78 391.11 199.17 C 397.08 195.48 397.11 183.17 389.17 182.04 C 388.84 182.52 388.18 183.50 387.85 183.98 C 387.67 182.43 387.49 180.89 387.27 179.35 Z" />
</g>
<g id="#db715aff">
<path fill="#db715a" opacity="1.00" d=" M 387.91 184.51 C 393.49 185.31 394.66 193.77 389.67 196.12 C 389.31 192.81 388.76 189.52 388.12 186.26 L 387.91 184.51 Z" />
</g>
<g id="#e18266ff">
<path fill="#e18266" opacity="1.00" d=" M 312.20 190.58 C 315.42 190.15 318.43 191.66 321.44 192.52 C 322.85 193.17 325.04 193.43 325.21 195.39 C 321.32 193.65 317.19 192.65 313.08 191.61 L 312.20 190.58 Z" />
</g>
<g id="#dc7c68ff">
<path fill="#dc7c68" opacity="1.00" d=" M 314.24 203.33 C 316.25 203.21 318.26 203.08 320.28 203.01 C 318.57 205.66 315.58 206.58 312.59 206.77 C 313.04 205.58 313.61 204.43 314.24 203.33 Z" />
</g>
<g id="#e17363ff">
<path fill="#e17363" opacity="1.00" d=" M 326.38 212.64 C 324.78 210.50 325.91 207.95 327.18 206.01 L 328.05 207.31 C 329.87 210.21 331.42 213.27 332.98 216.32 C 330.41 215.95 327.58 215.20 326.38 212.64 Z" />
</g>
<g id="#fbfefaff">
<path fill="#fbfefa" opacity="1.00" d=" M 271.52 220.90 C 272.15 218.85 273.01 214.53 275.85 215.23 C 279.87 216.71 283.86 218.33 288.00 219.46 C 289.79 220.07 291.59 220.62 293.44 221.03 C 293.47 221.46 293.52 222.31 293.55 222.74 C 293.00 223.62 292.45 224.51 291.90 225.41 C 285.12 223.87 278.37 222.12 271.52 220.90 Z" />
</g>
<g id="#282828ff">
<path fill="#282828" opacity="1.00" d=" M 263.08 236.93 C 265.19 231.50 266.66 225.85 268.57 220.36 C 269.31 220.49 270.78 220.77 271.52 220.90 C 278.37 222.12 285.12 223.87 291.90 225.41 C 291.43 238.37 289.80 251.25 288.53 264.14 L 289.61 263.45 C 287.49 266.56 287.68 270.47 287.22 274.06 C 286.76 279.13 285.31 284.08 285.22 289.20 C 288.97 283.71 290.51 277.08 293.10 271.02 C 294.59 266.83 296.89 262.82 296.94 258.26 C 302.48 254.42 307.73 250.13 313.51 246.65 C 321.03 243.16 329.11 240.59 337.38 239.67 C 334.57 247.29 332.22 255.07 329.85 262.84 C 329.38 264.47 328.93 266.15 329.02 267.87 C 332.28 269.32 335.92 269.69 339.12 271.32 C 335.17 273.76 330.95 275.80 327.41 278.84 C 339.38 307.15 347.81 337.02 351.71 367.54 C 354.16 378.24 353.02 389.24 353.40 400.10 C 337.70 399.44 322.01 398.52 306.37 397.02 L 306.38 396.84 C 307.19 390.56 305.68 384.27 306.13 377.97 C 306.00 353.30 306.24 328.62 305.89 303.96 C 301.64 304.02 298.48 307.10 294.83 308.81 C 288.36 312.22 281.19 313.87 274.40 316.48 C 271.05 317.69 267.65 319.11 264.02 319.16 C 257.80 318.80 251.47 315.92 248.27 310.34 C 246.15 307.56 244.60 304.34 244.21 300.84 C 244.22 300.35 244.25 299.39 244.26 298.91 C 244.25 291.37 245.10 283.81 247.35 276.60 C 251.53 262.97 258.38 250.37 263.08 236.93 Z" />
<path fill="#282828" opacity="1.00" d=" M 339.28 239.48 C 341.62 236.72 344.35 234.26 347.82 233.01 C 348.51 242.91 357.05 249.32 364.19 255.00 C 363.47 255.56 362.75 256.13 362.05 256.71 C 363.31 256.89 364.58 257.03 365.86 257.13 C 364.28 257.80 362.52 257.49 360.87 257.57 C 359.91 258.81 359.15 260.17 358.36 261.53 C 358.61 261.27 359.11 260.75 359.36 260.49 C 359.44 261.68 359.50 262.87 359.63 264.06 C 359.29 263.77 358.60 263.19 358.26 262.90 C 357.53 264.23 356.86 265.60 356.20 266.97 C 355.71 266.32 354.75 265.01 354.26 264.36 C 348.70 259.34 343.44 253.70 340.28 246.83 C 339.18 244.54 339.34 241.95 339.28 239.48 Z" />
<path fill="#282828" opacity="1.00" d=" M 393.82 239.67 C 403.82 240.61 413.30 244.42 422.32 248.66 C 432.96 253.70 440.77 263.74 443.87 275.00 C 445.12 279.71 446.00 284.50 446.97 289.27 C 447.10 289.80 447.35 290.88 447.47 291.41 L 448.06 291.54 C 448.15 295.25 448.29 298.97 448.84 302.65 C 452.25 323.93 451.03 345.53 451.13 366.99 C 451.49 375.35 450.50 383.66 450.05 392.00 C 448.22 393.70 445.71 394.43 443.54 395.58 C 421.82 398.76 399.78 399.73 377.84 400.12 C 377.89 392.89 377.76 385.65 377.90 378.41 C 379.84 369.35 380.32 360.06 382.16 350.98 C 386.80 327.57 393.25 304.44 402.58 282.44 C 403.03 281.17 403.61 279.88 403.57 278.50 C 400.02 275.48 395.69 273.58 391.84 270.98 C 395.49 269.87 399.20 268.98 402.86 267.88 C 400.37 258.33 397.44 248.85 393.82 239.67 Z" />
</g>
<g id="#e07261ff">
<path fill="#e07261" opacity="1.00" d=" M 365.94 235.46 C 372.04 235.19 377.73 231.91 381.33 227.03 C 383.13 230.48 382.70 234.46 382.60 238.22 C 379.73 246.17 372.13 251.06 365.91 256.30 C 365.48 255.97 364.62 255.33 364.19 255.00 C 357.05 249.32 348.51 242.91 347.82 233.01 L 347.79 232.79 C 348.01 232.40 348.46 231.62 348.68 231.23 C 354.10 233.67 359.85 236.13 365.94 235.46 Z" />
</g>
<g id="#292728ff">
<path fill="#292728" opacity="1.00" d=" M 382.60 238.22 C 383.04 236.54 383.47 234.86 384.06 233.24 C 387.69 234.35 390.47 236.95 392.61 239.99 C 392.46 250.12 384.35 257.35 377.83 264.11 C 376.88 265.01 375.93 265.93 375.01 266.85 C 374.70 265.86 374.10 263.87 373.80 262.87 C 372.65 260.14 371.25 256.65 367.77 256.52 C 367.29 256.67 366.34 256.97 365.86 257.13 C 364.58 257.03 363.31 256.89 362.05 256.71 C 362.75 256.13 363.47 255.56 364.19 255.00 C 364.62 255.33 365.48 255.97 365.91 256.30 C 372.13 251.06 379.73 246.17 382.60 238.22 Z" />
</g>
<g id="#444444ff">
<path fill="#444444" opacity="1.00" d=" M 337.38 239.67 C 337.85 239.62 338.80 239.53 339.28 239.48 C 339.34 241.95 339.18 244.54 340.28 246.83 C 343.44 253.70 348.70 259.34 354.26 264.36 C 354.11 265.00 353.81 266.28 353.67 266.92 C 353.50 311.02 353.85 355.14 353.47 399.23 L 353.40 400.10 C 353.02 389.24 354.16 378.24 351.71 367.54 C 347.81 337.02 339.38 307.15 327.41 278.84 C 330.95 275.80 335.17 273.76 339.12 271.32 C 335.92 269.69 332.28 269.32 329.02 267.87 C 328.93 266.15 329.38 264.47 329.85 262.84 C 332.22 255.07 334.57 247.29 337.38 239.67 Z" />
<path fill="#444444" opacity="1.00" d=" M 392.61 239.99 L 392.76 238.89 L 393.82 239.67 C 397.44 248.85 400.37 258.33 402.86 267.88 C 399.20 268.98 395.49 269.87 391.84 270.98 C 395.69 273.58 400.02 275.48 403.57 278.50 C 403.61 279.88 403.03 281.17 402.58 282.44 C 393.25 304.44 386.80 327.57 382.16 350.98 C 380.32 360.06 379.84 369.35 377.90 378.41 C 377.74 340.31 377.88 302.21 377.83 264.11 C 384.35 257.35 392.46 250.12 392.61 239.99 Z" />
</g>
<g id="#ed2865ff">
<path fill="#ed2865" opacity="1.00" d=" M 365.86 257.13 C 366.34 256.97 367.29 256.67 367.77 256.52 C 369.04 258.30 371.11 259.77 371.65 261.96 C 370.63 265.54 366.84 268.00 366.99 271.96 C 367.30 281.31 368.12 290.63 368.87 299.96 C 369.10 309.97 369.62 319.98 370.65 329.95 C 371.57 339.98 370.87 350.15 372.60 360.10 C 372.87 355.37 372.95 350.63 372.96 345.89 C 373.39 353.78 374.37 361.71 373.97 369.60 C 373.95 369.01 373.90 367.83 373.88 367.24 C 368.67 366.28 364.16 362.59 362.65 357.45 C 360.74 349.46 359.68 341.19 360.72 332.99 C 362.32 318.04 362.64 302.98 364.28 288.03 C 364.64 281.75 365.54 275.42 364.76 269.14 C 364.75 267.15 362.57 266.74 361.20 265.98 C 360.66 265.34 360.14 264.71 359.63 264.06 C 359.50 262.87 359.44 261.68 359.36 260.49 C 359.11 260.75 358.61 261.27 358.36 261.53 C 359.15 260.17 359.91 258.81 360.87 257.57 C 362.52 257.49 364.28 257.80 365.86 257.13 Z" />
</g>
<g id="#ce275aff">
<path fill="#ce275a" opacity="1.00" d=" M 367.77 256.52 C 371.25 256.65 372.65 260.14 373.80 262.87 C 371.90 265.15 370.13 267.52 368.42 269.95 C 369.96 295.26 371.56 320.57 372.96 345.89 C 372.95 350.63 372.87 355.37 372.60 360.10 C 370.87 350.15 371.57 339.98 370.65 329.95 C 369.62 319.98 369.10 309.97 368.87 299.96 C 368.12 290.63 367.30 281.31 366.99 271.96 C 366.84 268.00 370.63 265.54 371.65 261.96 C 371.11 259.77 369.04 258.30 367.77 256.52 Z" />
<path fill="#ce275a" opacity="1.00" d=" M 361.20 265.98 C 362.57 266.74 364.75 267.15 364.76 269.14 C 365.54 275.42 364.64 281.75 364.28 288.03 C 362.64 302.98 362.32 318.04 360.72 332.99 C 359.68 341.19 360.74 349.46 362.65 357.45 C 364.16 362.59 368.67 366.28 373.88 367.24 C 373.90 367.83 373.95 369.01 373.97 369.60 C 371.44 375.79 369.07 382.13 365.50 387.81 C 362.58 382.66 360.06 377.31 357.64 371.91 C 355.65 368.19 357.02 363.97 357.29 360.03 C 359.40 330.75 361.74 301.48 363.78 272.19 C 364.22 269.74 362.50 267.82 361.20 265.98 Z" />
</g>
<g id="#1a1919ff">
<path fill="#1a1919" opacity="1.00" d=" M 289.61 263.45 C 292.12 261.81 294.52 260.03 296.94 258.26 C 296.89 262.82 294.59 266.83 293.10 271.02 C 290.51 277.08 288.97 283.71 285.22 289.20 C 285.31 284.08 286.76 279.13 287.22 274.06 C 287.68 270.47 287.49 266.56 289.61 263.45 Z" />
</g>
<g id="#fefdfeff">
<path fill="#fefdfe" opacity="1.00" d=" M 358.26 262.90 C 358.60 263.19 359.29 263.77 359.63 264.06 C 360.14 264.71 360.66 265.34 361.20 265.98 C 362.50 267.82 364.22 269.74 363.78 272.19 C 361.74 301.48 359.40 330.75 357.29 360.03 C 357.02 363.97 355.65 368.19 357.64 371.91 C 360.06 377.31 362.58 382.66 365.50 387.81 C 369.07 382.13 371.44 375.79 373.97 369.60 C 374.37 361.71 373.39 353.78 372.96 345.89 C 371.56 320.57 369.96 295.26 368.42 269.95 C 370.13 267.52 371.90 265.15 373.80 262.87 C 374.10 263.87 374.70 265.86 375.01 266.85 C 375.93 265.93 376.88 265.01 377.83 264.11 C 377.88 302.21 377.74 340.31 377.90 378.41 C 377.76 385.65 377.89 392.89 377.84 400.12 C 369.71 399.94 361.52 400.69 353.47 399.23 C 353.85 355.14 353.50 311.02 353.67 266.92 C 353.81 266.28 354.11 265.00 354.26 264.36 C 354.75 265.01 355.71 266.32 356.20 266.97 C 356.86 265.60 357.53 264.23 358.26 262.90 Z" />
</g>
<g id="#f8eeffff">
<path fill="#f8eeff" opacity="1.00" d=" M 446.97 289.27 C 465.07 292.30 483.29 295.05 500.93 300.29 C 518.20 305.44 535.85 311.41 550.08 322.86 C 553.60 326.19 557.73 329.57 559.08 334.42 L 558.19 333.87 C 550.13 322.00 536.68 315.50 523.86 310.04 C 499.62 300.33 473.83 295.23 448.06 291.54 L 447.47 291.41 C 447.35 290.88 447.10 289.80 446.97 289.27 Z" />
<path fill="#f8eeff" opacity="1.00" d=" M 195.62 318.64 C 210.40 309.05 227.36 303.45 244.26 298.91 C 244.25 299.39 244.22 300.35 244.21 300.84 C 227.99 305.23 211.78 310.56 197.42 319.45 C 191.35 323.32 185.42 327.93 181.76 334.25 L 180.89 333.90 C 183.85 327.27 189.82 322.69 195.62 318.64 Z" />
</g>
<g id="#3c2d66ff">
<path fill="#3c2d66" opacity="1.00" d=" M 448.06 291.54 C 473.83 295.23 499.62 300.33 523.86 310.04 C 536.68 315.50 550.13 322.00 558.19 333.87 C 560.09 338.16 562.53 343.03 560.42 347.71 C 557.38 344.05 554.95 339.83 551.20 336.81 C 540.27 327.33 526.60 321.85 513.19 316.88 C 492.31 309.88 470.61 305.67 448.84 302.65 C 448.29 298.97 448.15 295.25 448.06 291.54 Z" />
</g>
<g id="#3c2d65ff">
<path fill="#3c2d65" opacity="1.00" d=" M 197.42 319.45 C 211.78 310.56 227.99 305.23 244.21 300.84 C 244.60 304.34 246.15 307.56 248.27 310.34 C 242.88 312.57 237.07 313.50 231.57 315.43 C 216.71 320.52 201.43 325.94 189.35 336.35 C 185.35 339.61 182.45 343.92 179.53 348.11 C 177.71 343.39 179.54 338.46 181.76 334.25 C 185.42 327.93 191.35 323.32 197.42 319.45 Z" />
</g>
</svg>
