<?xml version="1.0" encoding="UTF-8" ?>
<!DOCTYPE svg PUBLIC "-//W3C//DTD SVG 1.1//EN" "http://www.w3.org/Graphics/SVG/1.1/DTD/svg11.dtd">
<svg width="626pt" height="626pt" viewBox="0 0 626 626" version="1.1" xmlns="http://www.w3.org/2000/svg">
<g id="#ffffffff">
</g>
<g id="#efa196ff">
<path fill="#efa196" opacity="1.00" d=" M 279.98 45.04 C 279.05 42.16 282.11 43.06 283.86 43.04 C 284.18 44.33 284.81 46.92 285.13 48.21 C 284.64 48.42 283.66 48.85 283.16 49.06 C 286.21 41.42 282.32 44.13 279.98 45.04 Z" />
</g>
<g id="#e86a5aff">
<path fill="#e86a5a" opacity="1.00" d=" M 279.98 45.04 C 282.32 44.13 286.21 41.42 283.16 49.06 C 283.66 48.85 284.64 48.42 285.13 48.21 C 285.89 49.21 286.14 50.94 287.72 50.91 C 289.96 51.76 287.52 55.70 288.02 57.99 C 288.28 59.65 288.99 61.23 289.04 62.93 C 285.91 63.06 282.70 62.54 279.73 63.68 C 278.72 64.01 277.73 64.36 276.75 64.73 C 276.08 64.82 274.72 64.99 274.04 65.08 C 273.44 58.53 274.75 51.79 277.17 45.76 C 277.54 46.73 277.93 47.69 278.35 48.65 C 279.62 49.12 279.98 47.03 279.90 46.13 L 279.98 45.04 Z" />
</g>
<g id="#ecaba5ff">
<path fill="#ecaba5" opacity="1.00" d=" M 277.17 45.76 C 277.36 44.23 279.50 45.19 279.90 46.13 C 279.98 47.03 279.62 49.12 278.35 48.65 C 277.93 47.69 277.54 46.73 277.17 45.76 Z" />
</g>
<g id="#de938cff">
<path fill="#de938c" opacity="1.00" d=" M 285.13 48.21 C 286.30 43.67 287.70 48.95 287.72 50.91 C 286.14 50.94 285.89 49.21 285.13 48.21 Z" />
</g>
<g id="#976670ff">
<path fill="#976670" opacity="1.00" d=" M 279.73 63.68 C 282.70 62.54 285.91 63.06 289.04 62.93 C 290.74 62.53 291.74 62.89 292.03 63.99 C 287.92 63.94 283.82 63.84 279.73 63.68 Z" />
</g>
<g id="#22325eff">
<path fill="#22325e" opacity="1.00" d=" M 276.75 64.73 C 277.73 64.36 278.72 64.01 279.73 63.68 C 283.82 63.84 287.92 63.94 292.03 63.99 C 292.50 64.01 293.46 64.06 293.93 64.08 C 296.35 74.68 300.21 85.07 301.07 95.96 C 297.42 86.09 296.17 75.21 292.91 65.10 C 287.52 64.97 282.13 64.85 276.75 64.73 Z" />
</g>
<g id="#083a73ff">
<path fill="#083a73" opacity="1.00" d=" M 269.04 70.03 C 269.60 67.53 271.50 65.55 274.04 65.08 C 274.72 64.99 276.08 64.82 276.75 64.73 C 282.13 64.85 287.52 64.97 292.91 65.10 C 296.17 75.21 297.42 86.09 301.07 95.96 C 303.03 99.36 302.65 104.25 306.24 106.75 C 311.12 103.77 315.27 110.56 310.91 113.01 C 308.68 115.65 309.71 121.33 313.07 123.01 C 316.43 126.17 319.30 129.93 322.54 133.27 C 321.11 137.47 320.32 142.73 324.96 145.14 C 324.69 146.33 324.38 147.52 324.12 148.71 L 323.90 149.62 L 323.07 150.10 C 315.17 153.71 318.78 163.63 321.22 169.91 C 322.87 169.82 324.47 169.36 326.10 169.12 C 324.30 177.16 318.63 184.39 318.15 192.71 C 320.62 194.00 323.22 195.39 326.12 195.03 C 325.42 191.96 319.35 193.59 320.15 190.08 C 322.40 182.86 325.87 176.10 328.40 168.98 C 329.46 170.20 330.32 171.59 331.35 172.84 C 337.82 173.25 344.92 171.23 348.82 165.70 C 349.09 163.05 349.08 160.49 348.55 157.91 C 348.45 156.77 348.53 155.64 348.77 154.53 C 354.85 157.98 361.96 158.88 368.85 157.78 C 380.03 154.04 390.46 148.44 400.67 142.63 C 403.72 140.52 402.61 136.32 403.12 133.10 C 404.82 133.05 408.21 132.96 409.91 132.92 C 414.42 123.55 419.76 114.64 424.28 105.28 C 425.76 104.27 427.46 103.77 429.08 104.80 C 434.52 106.70 439.84 109.05 444.64 112.27 C 446.78 114.26 450.03 116.05 447.91 119.94 C 444.35 129.79 440.10 139.38 435.97 148.99 C 427.40 164.45 414.60 176.98 400.74 187.72 C 390.13 196.16 379.46 205.28 374.35 218.29 C 370.97 229.98 368.94 242.02 365.79 253.78 C 363.88 256.08 360.96 257.46 357.94 257.12 C 347.74 255.32 337.84 252.15 327.61 250.47 C 311.15 247.79 293.07 247.31 279.21 236.87 C 272.02 229.61 275.96 218.74 278.25 210.17 C 280.14 206.27 280.62 201.63 282.96 197.99 C 285.22 195.21 286.72 191.33 286.42 187.74 C 287.30 182.92 289.87 178.14 290.18 172.99 L 290.82 173.31 C 294.28 176.04 291.45 168.06 292.02 166.06 C 291.72 166.22 291.11 166.54 290.81 166.70 L 290.15 167.04 C 289.99 161.01 286.59 155.75 284.87 150.08 C 280.03 135.34 271.84 121.12 272.26 105.26 C 272.42 103.93 272.75 101.29 272.91 99.97 C 276.03 91.79 271.05 94.71 271.90 97.96 L 270.95 98.01 C 271.04 96.57 271.21 93.69 271.30 92.25 C 271.88 88.21 272.07 84.12 272.07 80.04 C 271.75 80.21 271.11 80.55 270.79 80.72 C 267.69 81.83 271.13 71.04 269.04 70.03 M 328.18 178.20 C 327.28 179.23 325.52 180.15 326.13 181.79 C 327.41 184.17 331.83 182.97 330.98 180.06 C 331.30 178.49 329.09 178.77 328.18 178.20 M 324.03 184.98 C 323.95 186.31 323.95 187.64 324.02 188.98 C 325.35 189.05 326.69 189.04 328.02 188.97 C 328.73 186.31 326.69 184.26 324.03 184.98 Z" />
</g>
<g id="#03123bff">
<path fill="#03123b" opacity="1.00" d=" M 270.79 80.72 C 271.11 80.55 271.75 80.21 272.07 80.04 C 272.07 84.12 271.88 88.21 271.30 92.25 C 271.07 88.41 270.99 84.57 270.79 80.72 Z" />
</g>
<g id="#e56c5dff">
<path fill="#e56c5d" opacity="1.00" d=" M 440.94 89.08 C 440.00 86.02 446.06 84.25 444.99 88.00 C 444.98 89.35 444.99 90.70 445.03 92.05 C 445.68 91.33 446.34 90.61 447.00 89.89 C 446.94 92.91 447.05 95.98 447.02 99.02 C 447.10 103.57 445.80 107.93 444.64 112.27 C 439.84 109.05 434.52 106.70 429.08 104.80 C 431.85 100.65 435.40 96.47 435.17 91.19 C 437.55 91.45 438.43 90.24 438.07 87.93 C 438.18 84.45 440.96 92.17 440.94 89.08 Z" />
</g>
<g id="#f2a599ff">
<path fill="#f2a599" opacity="1.00" d=" M 444.99 88.00 C 450.45 88.65 446.99 95.47 448.01 98.99 L 447.02 99.02 C 447.05 95.98 446.94 92.91 447.00 89.89 C 446.34 90.61 445.68 91.33 445.03 92.05 C 444.99 90.70 444.98 89.35 444.99 88.00 Z" />
</g>
<g id="#00124bff">
<path fill="#00124b" opacity="1.00" d=" M 271.90 97.96 C 271.05 94.71 276.03 91.79 272.91 99.97 C 272.75 101.29 272.42 103.93 272.26 105.26 C 272.17 103.43 271.99 99.79 271.90 97.96 Z" />
</g>
<g id="#82a6e1ff">
<path fill="#82a6e1" opacity="1.00" d=" M 329.15 113.21 C 331.33 110.60 334.82 109.07 337.94 111.09 C 346.33 115.19 353.34 121.54 360.38 127.56 C 362.48 129.17 365.83 130.72 365.00 133.93 C 362.62 137.57 360.26 141.25 357.91 144.92 C 355.48 144.15 352.95 143.59 350.84 142.07 C 351.00 139.61 351.46 137.19 351.81 134.75 C 353.21 130.59 347.21 129.80 345.02 127.95 C 339.99 126.44 337.26 120.19 331.18 122.00 C 328.27 120.90 328.86 116.07 329.15 113.21 Z" />
</g>
<g id="#14234eff">
<path fill="#14234e" opacity="1.00" d=" M 313.07 123.01 C 309.71 121.33 308.68 115.65 310.91 113.01 C 310.54 116.61 311.95 119.74 313.07 123.01 Z" />
</g>
<g id="#e56253ff">
<path fill="#e56253" opacity="1.00" d=" M 331.18 122.00 C 337.26 120.19 339.99 126.44 345.02 127.95 C 347.21 129.80 353.21 130.59 351.81 134.75 C 349.62 136.28 348.76 140.52 350.84 142.07 C 352.95 143.59 355.48 144.15 357.91 144.92 C 359.53 150.48 353.20 154.08 348.31 151.62 C 346.15 150.26 347.50 152.65 347.64 153.82 C 347.52 155.37 347.27 158.49 347.15 160.04 C 345.64 161.96 344.00 164.21 341.29 164.18 C 338.05 164.14 334.85 164.03 331.64 164.34 C 328.77 163.51 326.39 161.64 323.94 160.02 C 323.16 156.60 323.65 153.07 323.90 149.62 L 324.12 148.71 C 324.86 154.42 332.40 151.78 336.20 152.93 C 332.97 149.67 328.64 147.81 324.96 145.14 C 320.32 142.73 321.11 137.47 322.54 133.27 C 326.69 130.75 328.40 125.80 331.18 122.00 Z" />
</g>
<g id="#a890afff">
<path fill="#a890af" opacity="1.00" d=" M 350.84 142.07 C 348.76 140.52 349.62 136.28 351.81 134.75 C 351.46 137.19 351.00 139.61 350.84 142.07 Z" />
</g>
<g id="#d45045ff">
<path fill="#d45045" opacity="1.00" d=" M 324.96 145.14 C 328.64 147.81 332.97 149.67 336.20 152.93 C 332.40 151.78 324.86 154.42 324.12 148.71 C 324.38 147.52 324.69 146.33 324.96 145.14 Z" />
</g>
<g id="#2967a1ff">
<path fill="#2967a1" opacity="1.00" d=" M 321.22 169.91 C 318.78 163.63 315.17 153.71 323.07 150.10 C 322.42 153.36 320.18 158.24 323.94 160.02 C 326.39 161.64 328.77 163.51 331.64 164.34 C 331.96 164.53 332.60 164.92 332.92 165.11 C 334.81 165.75 339.58 167.15 340.96 165.03 L 341.29 164.18 C 344.00 164.21 345.64 161.96 347.15 160.04 C 347.50 159.51 348.20 158.44 348.55 157.91 C 349.08 160.49 349.09 163.05 348.82 165.70 C 344.92 171.23 337.82 173.25 331.35 172.84 C 330.32 171.59 329.46 170.20 328.40 168.98 C 325.87 176.10 322.40 182.86 320.15 190.08 C 319.35 193.59 325.42 191.96 326.12 195.03 C 323.22 195.39 320.62 194.00 318.15 192.71 C 318.63 184.39 324.30 177.16 326.10 169.12 C 324.47 169.36 322.87 169.82 321.22 169.91 Z" />
</g>
<g id="#8c617fff">
<path fill="#8c617f" opacity="1.00" d=" M 323.07 150.10 L 323.90 149.62 C 323.65 153.07 323.16 156.60 323.94 160.02 C 320.18 158.24 322.42 153.36 323.07 150.10 Z" />
</g>
<g id="#92606eff">
<path fill="#92606e" opacity="1.00" d=" M 347.15 160.04 C 347.27 158.49 347.52 155.37 347.64 153.82 C 347.92 154.00 348.49 154.35 348.77 154.53 C 348.53 155.64 348.45 156.77 348.55 157.91 C 348.20 158.44 347.50 159.51 347.15 160.04 Z" />
</g>
<g id="#af6d80ff">
<path fill="#af6d80" opacity="1.00" d=" M 331.64 164.34 C 334.85 164.03 338.05 164.14 341.29 164.18 L 340.96 165.03 C 338.27 165.07 335.59 165.10 332.92 165.11 C 332.60 164.92 331.96 164.53 331.64 164.34 Z" />
</g>
<g id="#6b608cff">
<path fill="#6b608c" opacity="1.00" d=" M 332.92 165.11 C 335.59 165.10 338.27 165.07 340.96 165.03 C 339.58 167.15 334.81 165.75 332.92 165.11 Z" />
</g>
<g id="#000e3eff">
<path fill="#000e3e" opacity="1.00" d=" M 290.81 166.70 C 291.11 166.54 291.72 166.22 292.02 166.06 C 291.45 168.06 294.28 176.04 290.82 173.31 C 290.89 171.11 290.89 168.90 290.81 166.70 Z" />
</g>
<g id="#246098ff">
<path fill="#246098" opacity="1.00" d=" M 328.18 178.20 C 329.09 178.77 331.30 178.49 330.98 180.06 C 331.83 182.97 327.41 184.17 326.13 181.79 C 325.52 180.15 327.28 179.23 328.18 178.20 Z" />
</g>
<g id="#24629bff">
<path fill="#24629b" opacity="1.00" d=" M 324.03 184.98 C 326.69 184.26 328.73 186.31 328.02 188.97 C 326.69 189.04 325.35 189.05 324.02 188.98 C 323.95 187.64 323.95 186.31 324.03 184.98 Z" />
</g>
<g id="#1d2c5aff">
<path fill="#1d2c5a" opacity="1.00" d=" M 286.42 187.74 C 286.72 191.33 285.22 195.21 282.96 197.99 C 283.42 194.43 284.52 190.80 286.42 187.74 Z" />
</g>
<g id="#7fa7e4ff">
<path fill="#7fa7e4" opacity="1.00" d=" M 279.21 236.87 C 293.07 247.31 311.15 247.79 327.61 250.47 C 337.84 252.15 347.74 255.32 357.94 257.12 C 357.80 274.47 360.03 291.71 361.03 309.00 C 360.96 312.67 361.03 316.38 360.97 320.07 L 360.87 321.03 C 357.12 323.71 352.69 325.75 348.05 326.07 C 340.60 327.00 333.18 327.00 325.76 326.11 C 325.40 325.75 324.69 325.02 324.33 324.66 C 321.00 313.73 319.71 302.29 316.67 291.31 C 315.11 287.19 311.65 290.73 311.65 293.66 C 310.37 303.82 309.24 314.00 307.00 324.00 C 302.38 325.48 297.45 324.19 292.73 324.13 L 291.96 323.84 C 290.23 322.57 288.11 321.49 285.94 322.29 C 280.67 321.02 276.00 318.14 271.18 315.78 C 270.71 314.56 269.93 313.37 270.00 312.02 C 270.00 308.00 270.00 304.00 269.99 300.00 C 270.07 278.72 273.16 257.15 279.21 236.87 Z" />
</g>
<g id="#fefdfdff">
</g>
<g id="#dfe8f7ff">
<path fill="#dfe8f7" opacity="1.00" d=" M 269.02 311.99 C 270.15 308.88 266.92 301.41 269.99 300.00 C 270.00 304.00 270.00 308.00 270.00 312.02 L 269.02 311.99 Z" />
</g>
<g id="#bed5f7ff">
<path fill="#bed5f7" opacity="1.00" d=" M 361.03 309.00 L 362.00 309.00 C 361.99 311.75 361.98 317.24 361.97 319.98 L 360.97 320.07 C 361.03 316.38 360.96 312.67 361.03 309.00 Z" />
</g>
<g id="#e76454ff">
<path fill="#e76454" opacity="1.00" d=" M 271.18 315.78 C 276.00 318.14 280.67 321.02 285.94 322.29 C 287.54 323.94 289.74 324.58 291.96 323.84 L 292.73 324.13 C 297.46 326.31 302.79 325.77 307.85 326.16 C 308.00 326.61 308.30 327.51 308.45 327.96 C 306.12 329.98 301.50 329.52 302.14 334.08 C 296.60 346.07 297.77 359.37 295.67 372.05 C 295.70 374.93 292.59 376.80 292.90 379.80 C 295.60 379.87 298.66 379.79 301.28 380.81 C 295.91 380.43 290.15 382.21 285.01 380.09 C 283.45 362.89 282.93 345.11 275.85 329.09 C 274.37 324.64 271.65 320.49 271.18 315.78 Z" />
</g>
<g id="#ea6d5cff">
<path fill="#ea6d5c" opacity="1.00" d=" M 348.05 326.07 C 352.69 325.75 357.12 323.71 360.87 321.03 C 374.52 336.69 373.67 358.63 377.01 377.93 C 374.17 380.29 370.37 380.58 366.99 381.73 C 364.73 380.72 363.55 378.80 363.60 376.32 C 361.96 371.40 364.77 366.89 365.01 362.09 C 363.59 358.99 359.15 357.55 360.70 353.12 C 359.34 344.51 360.18 335.83 360.53 327.19 C 357.65 321.96 352.25 328.28 347.95 327.07 L 348.05 326.07 Z" />
</g>
<g id="#b28cb3ff">
<path fill="#b28cb3" opacity="1.00" d=" M 285.94 322.29 C 288.11 321.49 290.23 322.57 291.96 323.84 C 289.74 324.58 287.54 323.94 285.94 322.29 Z" />
</g>
<g id="#b98aa0ff">
<path fill="#b98aa0" opacity="1.00" d=" M 292.73 324.13 C 297.45 324.19 302.38 325.48 307.00 324.00 C 307.22 324.54 307.64 325.62 307.85 326.16 C 302.79 325.77 297.46 326.31 292.73 324.13 Z" />
</g>
<g id="#e76352ff">
<path fill="#e76352" opacity="1.00" d=" M 347.95 327.07 C 352.25 328.28 357.65 321.96 360.53 327.19 C 360.18 335.83 359.34 344.51 360.70 353.12 C 359.15 357.55 363.59 358.99 365.01 362.09 C 364.77 366.89 361.96 371.40 363.60 376.32 C 363.55 378.80 364.73 380.72 366.99 381.73 C 364.01 382.51 361.21 383.96 358.09 384.20 C 357.88 383.84 357.47 383.12 357.26 382.76 C 352.86 373.31 349.52 363.39 345.02 353.99 C 340.27 344.18 332.64 336.27 326.83 327.16 C 333.85 328.04 340.93 328.18 347.95 327.07 Z" />
</g>
<g id="#b3809bff">
<path fill="#b3809b" opacity="1.00" d=" M 325.76 326.11 C 333.18 327.00 340.60 327.00 348.05 326.07 L 347.95 327.07 C 340.93 328.18 333.85 328.04 326.83 327.16 C 326.56 326.90 326.03 326.37 325.76 326.11 Z" />
</g>
<g id="#eb6d5bff">
<path fill="#eb6d5b" opacity="1.00" d=" M 308.45 327.96 C 309.13 330.20 309.69 332.47 310.33 334.72 C 310.11 339.54 309.97 344.40 310.23 349.23 C 309.27 359.54 306.46 369.61 306.08 379.98 C 304.59 380.78 302.94 380.99 301.28 380.81 C 298.66 379.79 295.60 379.87 292.90 379.80 C 292.59 376.80 295.70 374.93 295.67 372.05 C 297.77 359.37 296.60 346.07 302.14 334.08 C 301.50 329.52 306.12 329.98 308.45 327.96 Z" />
</g>
<g id="#f5cbc7ff">
<path fill="#f5cbc7" opacity="1.00" d=" M 310.33 334.72 C 311.85 339.41 310.81 344.46 310.23 349.23 C 309.97 344.40 310.11 339.54 310.33 334.72 Z" />
</g>
<g id="#c1ebf9ff">
<path fill="#c1ebf9" opacity="1.00" d=" M 161.16 338.95 C 161.95 337.15 167.05 337.15 167.84 338.96 C 166.17 338.96 162.83 338.95 161.16 338.95 Z" />
</g>
<g id="#6594e5ff">
<path fill="#6594e5" opacity="1.00" d=" M 498.07 339.11 C 503.26 337.38 512.32 336.15 513.98 343.03 C 513.99 345.68 514.00 348.35 514.00 351.02 C 511.73 364.87 504.84 377.98 494.77 387.77 C 481.69 401.48 466.31 412.66 451.73 424.70 C 449.98 426.36 447.00 426.56 446.08 429.07 C 444.65 430.96 444.43 434.20 441.93 435.07 C 442.94 430.22 447.37 426.38 446.06 420.99 C 449.82 403.10 453.34 384.30 464.04 369.05 C 466.05 366.79 467.01 362.95 470.15 361.92 C 470.56 369.32 472.99 376.72 472.25 384.17 C 477.67 378.62 479.67 369.02 488.16 367.27 C 487.37 367.16 485.78 366.94 484.99 366.83 C 487.42 361.81 492.04 358.03 494.10 352.89 C 485.86 360.18 481.06 370.67 474.14 379.17 C 471.65 373.08 472.79 366.13 471.44 359.77 C 471.02 358.11 474.22 357.88 474.71 356.66 C 481.65 349.85 489.02 342.97 498.07 339.11 M 500.31 344.35 C 498.85 345.64 496.71 346.84 496.97 349.10 C 498.71 347.79 501.20 346.40 501.03 343.90 L 500.31 344.35 M 496.35 364.52 C 493.40 364.28 487.36 367.58 496.65 365.48 C 499.62 365.74 505.58 362.38 496.35 364.52 M 469.12 387.28 C 467.46 390.24 464.70 392.73 463.94 396.08 C 466.10 395.22 466.90 392.86 468.20 391.13 C 473.78 390.68 479.40 391.18 485.01 391.00 L 484.98 390.05 C 480.55 389.71 475.90 390.49 471.66 389.39 C 470.09 389.45 470.36 386.81 469.12 387.28 M 456.79 408.30 C 459.32 406.81 460.37 403.66 461.05 400.97 C 458.32 401.75 457.97 405.98 456.79 408.30 M 454.21 412.70 C 455.95 412.66 457.10 409.82 456.79 408.30 C 455.05 408.33 453.89 411.17 454.21 412.70 M 449.95 420.03 C 452.67 419.23 453.01 415.01 454.21 412.70 C 451.68 414.18 450.62 417.33 449.95 420.03 Z" />
<path fill="#6594e5" opacity="1.00" d=" M 469.37 427.68 C 476.28 419.06 486.16 409.69 497.98 407.99 C 501.34 408.00 504.64 407.95 508.02 407.98 C 511.62 407.51 515.10 412.62 518.02 408.97 C 517.85 410.22 517.02 411.42 517.27 412.72 C 521.81 416.50 521.94 423.57 519.62 428.69 C 517.74 433.11 516.41 437.82 513.89 441.94 C 506.33 442.38 498.78 443.34 491.19 443.04 C 491.40 441.98 491.62 440.92 491.85 439.88 C 494.40 437.51 498.56 435.69 499.05 431.89 C 496.32 434.19 493.11 436.38 491.85 439.88 C 489.71 440.25 488.65 442.14 487.92 443.98 C 495.84 444.54 504.00 442.96 511.83 444.65 C 504.89 459.87 491.72 471.54 478.76 481.79 C 468.99 483.61 458.53 483.62 449.20 480.13 C 447.31 482.00 445.43 483.90 443.90 486.08 C 446.24 485.91 447.49 483.70 449.23 482.42 C 457.22 483.52 465.27 484.01 473.32 484.53 C 472.73 486.98 469.55 487.55 468.05 489.08 C 452.14 498.99 436.74 509.71 420.64 519.30 C 419.48 509.25 420.08 499.12 420.02 489.03 L 420.17 488.20 C 439.51 471.29 451.95 448.23 468.26 428.86 C 469.37 432.43 468.12 436.09 467.70 439.69 C 466.09 448.38 465.64 457.23 466.05 466.05 C 471.85 462.33 476.35 457.02 481.28 452.28 C 483.40 449.99 486.14 448.08 487.05 444.94 C 480.25 450.45 474.82 457.43 468.11 463.03 C 463.86 451.51 471.30 439.33 469.37 427.68 M 511.00 418.00 C 512.80 416.83 515.19 415.34 515.03 412.90 C 513.33 414.19 510.82 415.54 511.00 418.00 M 506.97 423.10 C 508.67 421.81 511.17 420.45 511.00 418.00 C 509.20 419.17 506.80 420.66 506.97 423.10 M 505.31 424.36 C 503.47 426.44 499.80 427.90 499.97 431.10 C 502.24 429.09 505.98 427.26 506.03 423.90 L 505.31 424.36 M 459.25 471.24 C 457.35 473.03 455.30 474.80 453.91 477.03 C 457.29 476.97 459.05 473.15 461.09 470.97 C 460.63 471.04 459.71 471.18 459.25 471.24 M 436.03 493.01 C 438.87 492.62 440.63 490.11 442.10 487.93 C 439.29 488.34 437.33 490.70 436.03 493.01 M 429.94 498.07 C 432.76 497.61 434.59 495.25 436.03 493.01 C 433.15 493.27 431.37 495.87 429.94 498.07 M 426.25 500.23 C 425.00 501.37 423.75 502.55 422.90 504.03 C 425.40 504.20 426.79 501.71 428.10 499.97 C 427.64 500.03 426.71 500.16 426.25 500.23 Z" />
</g>
<g id="#57a3bcff">
<path fill="#57a3bc" opacity="1.00" d=" M 159.05 338.99 C 159.57 338.98 160.63 338.96 161.16 338.95 C 162.83 338.95 166.17 338.96 167.84 338.96 C 168.14 339.21 168.75 339.72 169.05 339.98 C 165.68 339.95 162.33 339.98 158.97 340.01 L 159.05 338.99 Z" />
</g>
<g id="#0aa0c8ff">
<path fill="#0aa0c8" opacity="1.00" d=" M 147.01 350.04 C 148.85 344.84 153.68 341.14 158.97 340.01 C 162.33 339.98 165.68 339.95 169.05 339.98 C 174.29 341.28 177.58 346.18 180.75 350.24 C 193.95 368.19 206.66 386.69 215.99 407.01 C 219.90 415.66 225.43 423.45 230.91 431.18 L 231.10 432.10 C 230.99 440.73 230.95 449.37 231.02 458.00 C 230.56 457.96 229.65 457.88 229.19 457.84 C 221.97 449.68 215.16 441.20 208.05 432.96 C 199.12 421.99 184.99 416.84 175.89 406.09 C 167.09 389.64 151.25 376.74 147.01 358.02 C 146.99 355.35 146.98 352.69 147.01 350.04 Z" />
</g>
<g id="#b6c5ecff">
<path fill="#b6c5ec" opacity="1.00" d=" M 513.98 343.03 C 516.22 343.77 514.53 348.60 514.95 350.97 L 514.00 351.02 C 514.00 348.35 513.99 345.68 513.98 343.03 Z" />
</g>
<g id="#4c7ecfff">
<path fill="#4c7ecf" opacity="1.00" d=" M 500.31 344.35 L 501.03 343.90 C 501.20 346.40 498.71 347.79 496.97 349.10 C 496.71 346.84 498.85 345.64 500.31 344.35 Z" />
<path fill="#4c7ecf" opacity="1.00" d=" M 506.97 423.10 C 506.80 420.66 509.20 419.17 511.00 418.00 C 511.17 420.45 508.67 421.81 506.97 423.10 Z" />
<path fill="#4c7ecf" opacity="1.00" d=" M 505.31 424.36 L 506.03 423.90 C 505.98 427.26 502.24 429.09 499.97 431.10 C 499.80 427.90 503.47 426.44 505.31 424.36 Z" />
</g>
<g id="#7bc3deff">
<path fill="#7bc3de" opacity="1.00" d=" M 146.06 350.01 L 147.01 350.04 C 146.98 352.69 146.99 355.35 147.01 358.02 C 144.76 357.13 146.47 352.41 146.06 350.01 Z" />
</g>
<g id="#4e80d2ff">
<path fill="#4e80d2" opacity="1.00" d=" M 474.14 379.17 C 481.06 370.67 485.86 360.18 494.10 352.89 C 492.04 358.03 487.42 361.81 484.99 366.83 C 485.78 366.94 487.37 367.16 488.16 367.27 C 479.67 369.02 477.67 378.62 472.25 384.17 C 472.99 376.72 470.56 369.32 470.15 361.92 C 470.47 361.38 471.12 360.31 471.44 359.77 C 472.79 366.13 471.65 373.08 474.14 379.17 Z" />
</g>
<g id="#6494e5ff">
<path fill="#6494e5" opacity="1.00" d=" M 104.90 359.76 C 116.36 356.87 128.41 361.30 136.72 369.31 C 142.49 375.14 149.40 380.94 153.50 387.80 C 152.70 391.23 154.41 394.56 155.07 397.91 C 156.58 405.56 158.60 413.22 157.98 421.11 C 155.93 419.74 154.52 417.20 151.88 416.95 C 154.76 420.83 158.76 423.68 162.94 426.01 C 165.43 428.47 167.31 432.21 171.01 433.00 C 173.91 435.66 175.94 440.25 180.10 441.06 C 177.36 438.16 175.07 434.13 171.01 433.00 C 168.54 430.51 166.68 426.70 162.94 426.01 C 159.09 422.43 159.52 416.80 158.98 412.00 C 158.22 404.57 156.41 397.31 154.90 390.02 C 157.97 390.98 158.98 394.75 161.20 396.80 C 168.19 406.36 175.89 415.39 183.72 424.27 C 185.94 426.42 187.95 428.97 190.79 430.35 C 192.07 436.85 192.24 443.49 191.95 450.10 C 187.42 449.08 185.68 443.42 181.34 441.76 C 183.52 445.87 178.25 445.92 176.02 448.04 C 167.03 449.34 158.05 452.33 148.92 450.05 C 146.18 449.70 149.75 451.62 150.66 451.41 C 159.14 452.90 168.34 452.18 176.02 448.04 C 178.99 447.78 181.76 445.99 184.74 446.19 C 189.95 450.58 193.79 457.11 200.03 460.02 C 203.01 465.66 208.19 469.87 213.00 474.00 C 214.57 477.78 217.81 480.55 221.02 482.98 C 221.92 486.08 224.62 487.97 226.91 490.04 C 227.43 492.28 229.26 493.77 230.92 495.20 C 231.01 501.16 231.04 507.14 230.97 513.12 C 220.54 512.05 210.51 508.45 200.00 507.97 C 190.28 504.12 179.23 505.36 169.44 501.60 C 167.98 499.65 166.90 497.39 164.99 495.84 C 165.48 497.87 166.41 499.77 167.07 501.76 C 151.06 499.79 135.12 497.19 119.01 496.02 C 114.30 497.63 113.14 492.83 110.06 490.98 C 109.57 488.70 107.85 487.04 105.93 485.88 C 105.87 488.39 108.34 489.63 110.06 490.98 C 110.65 492.57 111.43 494.09 112.03 495.68 C 98.71 494.48 85.32 495.18 71.97 494.97 C 73.24 482.84 87.40 480.05 97.12 477.79 C 98.30 478.62 100.52 481.50 99.94 478.26 L 100.02 477.24 C 103.76 477.36 107.27 475.71 111.00 475.97 C 116.67 476.01 122.34 475.99 128.01 476.00 C 135.88 476.11 143.49 478.19 151.08 480.00 C 150.09 478.60 148.87 477.38 147.92 475.96 C 150.93 475.72 152.06 479.29 154.22 480.77 C 174.20 487.04 194.23 493.09 214.04 499.84 C 217.15 500.22 219.93 501.97 223.09 502.05 C 212.99 492.90 202.91 482.46 189.99 477.02 C 157.49 463.56 122.85 448.93 101.84 419.18 C 95.43 409.91 87.67 400.48 85.98 389.02 C 85.98 385.97 85.99 382.99 85.99 379.98 C 86.98 370.03 95.15 361.63 104.90 359.76 M 93.96 376.92 C 96.26 379.70 100.33 382.10 104.07 383.07 C 101.91 379.83 97.50 378.28 93.96 376.92 M 111.94 387.92 C 114.07 391.52 118.20 393.88 122.09 395.06 C 120.03 391.29 115.48 389.83 111.94 387.92 M 132.34 402.37 C 122.79 408.36 111.01 408.99 100.05 410.11 L 99.99 411.05 C 112.00 411.06 123.88 408.24 134.99 403.75 C 134.52 402.79 133.53 401.25 132.34 402.37 M 155.95 483.91 C 156.71 487.66 159.93 490.98 163.05 493.09 C 162.29 489.32 159.06 486.01 155.95 483.91 Z" />
<path fill="#6494e5" opacity="1.00" d=" M 71.99 496.03 C 95.70 495.84 119.58 496.45 143.03 500.10 C 141.37 502.13 139.57 504.03 137.94 506.09 C 141.26 505.67 142.79 502.04 145.31 500.24 C 163.67 501.83 181.64 506.41 200.00 507.97 C 201.33 508.81 202.87 509.18 204.39 509.51 C 213.30 510.78 221.96 513.47 230.97 514.11 C 231.03 517.73 231.00 521.31 231.07 524.96 C 215.31 525.16 199.91 521.00 184.26 519.71 C 173.17 518.89 161.73 518.10 150.70 519.63 C 147.85 520.26 144.89 519.88 142.00 519.99 C 139.20 519.97 136.38 519.78 133.70 520.62 C 131.84 521.13 129.90 521.00 127.99 521.03 C 120.99 520.97 114.00 520.94 107.00 521.03 C 97.68 520.74 88.48 517.50 80.85 512.17 C 76.06 508.04 72.90 502.28 71.99 496.03 M 124.04 515.01 C 127.57 513.72 131.93 512.13 134.07 508.93 C 130.37 509.89 126.25 512.26 124.04 515.01 M 117.92 519.06 C 120.27 518.56 122.77 517.04 124.04 515.01 C 121.49 515.16 119.02 516.74 117.92 519.06 Z" />
</g>
<g id="#4f7fd2ff">
<path fill="#4f7fd2" opacity="1.00" d=" M 496.35 364.52 C 505.58 362.38 499.62 365.74 496.65 365.48 C 487.36 367.58 493.40 364.28 496.35 364.52 Z" />
</g>
<g id="#4f82d2ff">
<path fill="#4f82d2" opacity="1.00" d=" M 93.96 376.92 C 97.50 378.28 101.91 379.83 104.07 383.07 C 100.33 382.10 96.26 379.70 93.96 376.92 Z" />
</g>
<g id="#fdb113ff">
<path fill="#fdb113" opacity="1.00" d=" M 366.99 381.73 C 370.37 380.58 374.17 380.29 377.01 377.93 C 378.70 378.83 379.01 381.34 379.83 383.03 C 380.99 386.82 381.68 390.95 384.23 394.10 C 383.94 395.74 383.62 397.37 383.25 399.00 C 368.20 403.91 352.85 407.68 337.72 412.27 C 337.79 410.45 337.95 406.81 338.02 404.99 C 340.76 402.61 343.28 399.67 346.96 398.83 C 348.66 399.54 350.56 401.75 352.37 400.14 C 353.44 399.41 355.01 399.21 355.71 398.05 L 356.14 397.31 C 356.40 396.90 356.91 396.08 357.17 395.67 C 357.91 395.74 359.38 395.88 360.12 395.95 C 360.04 394.46 358.80 393.84 357.70 393.17 C 356.91 390.22 357.84 387.15 358.09 384.20 C 361.21 383.96 364.01 382.51 366.99 381.73 M 370.29 388.19 C 367.86 390.35 365.04 392.80 367.13 396.77 C 369.07 398.76 371.82 400.78 374.76 399.81 C 376.63 397.96 378.98 395.87 378.99 393.05 C 377.84 389.50 374.74 385.80 370.29 388.19 Z" />
</g>
<g id="#cbdaf5ff">
<path fill="#cbdaf5" opacity="1.00" d=" M 85.04 380.03 L 85.99 379.98 C 85.99 382.99 85.98 385.97 85.98 389.02 C 82.73 388.86 85.76 382.47 85.04 380.03 Z" />
</g>
<g id="#f68d4aff">
<path fill="#f68d4a" opacity="1.00" d=" M 285.01 380.09 C 290.15 382.21 295.91 380.43 301.28 380.81 C 302.94 380.99 304.59 380.78 306.08 379.98 L 306.28 380.79 L 306.16 381.87 C 299.15 382.58 291.81 380.75 284.98 382.81 C 284.98 382.13 285.00 380.77 285.01 380.09 Z" />
</g>
<g id="#fad39bff">
<path fill="#fad39b" opacity="1.00" d=" M 306.28 380.79 C 307.30 383.45 306.88 386.29 306.96 389.11 L 305.98 388.97 C 306.03 387.19 306.12 383.65 306.16 381.87 L 306.28 380.79 Z" />
</g>
<g id="#fdb211ff">
<path fill="#fdb211" opacity="1.00" d=" M 284.98 382.81 C 291.81 380.75 299.15 382.58 306.16 381.87 C 306.12 383.65 306.03 387.19 305.98 388.97 C 305.90 393.30 306.36 397.64 306.91 401.94 C 300.60 402.09 294.30 401.97 288.00 402.00 C 278.22 402.02 268.44 401.84 258.67 402.17 C 257.13 399.99 258.43 397.65 260.12 396.07 C 262.53 394.30 265.40 393.31 268.10 392.06 C 270.85 391.17 272.24 393.96 273.98 395.47 C 275.16 396.49 276.72 394.26 278.06 394.03 C 278.53 393.77 279.47 393.24 279.94 392.97 C 280.20 392.75 280.72 392.30 280.98 392.07 C 281.99 392.43 283.01 392.75 284.05 393.05 C 284.30 391.01 282.37 390.07 281.21 388.77 C 282.62 386.90 283.31 384.40 284.98 382.81 M 294.31 389.27 C 289.37 390.43 290.07 400.00 294.98 400.02 C 299.32 402.11 301.82 398.11 302.99 394.95 C 302.70 391.02 298.80 386.66 294.31 389.27 Z" />
</g>
<g id="#feaaabff">
<path fill="#feaaab" opacity="1.00" d=" M 306.96 389.11 C 323.73 387.09 340.42 384.26 357.26 382.76 C 356.82 385.83 356.38 388.94 355.86 392.01 C 354.12 390.28 351.13 391.55 352.83 393.94 L 351.79 394.00 C 350.26 393.96 348.46 393.78 348.98 395.92 L 348.89 396.85 C 347.61 396.37 346.27 396.03 344.91 395.93 C 344.95 397.30 345.90 398.13 346.96 398.83 C 343.28 399.67 340.76 402.61 338.02 404.99 C 335.72 406.93 336.51 409.95 337.72 412.27 C 337.47 413.47 336.47 415.05 338.14 415.67 C 353.16 411.71 368.01 407.14 383.00 403.04 C 387.28 405.70 388.73 397.74 384.88 398.91 C 386.60 397.54 385.10 395.49 384.23 394.10 C 381.68 390.95 380.99 386.82 379.83 383.03 C 388.01 386.55 394.67 393.22 402.66 397.37 C 406.92 401.56 413.36 403.43 417.22 407.91 C 418.90 430.59 417.76 453.46 417.79 476.21 C 416.88 468.12 416.25 460.00 415.86 451.87 C 413.85 452.69 411.52 455.09 411.60 451.34 C 410.15 451.11 407.27 450.63 405.82 450.40 C 411.74 450.74 409.66 444.13 410.20 440.22 C 410.81 436.75 411.09 433.28 410.87 429.77 C 411.14 427.29 411.20 424.57 408.77 423.15 C 406.69 423.35 404.87 424.56 402.89 425.12 C 402.30 422.62 403.02 419.95 402.55 417.49 C 399.32 414.95 396.83 409.69 391.89 411.75 C 382.72 413.95 373.29 414.65 363.98 415.97 C 361.34 416.43 358.43 414.02 356.16 416.13 C 355.21 417.06 352.14 417.70 353.91 419.29 C 350.55 419.39 347.14 419.23 343.87 420.42 C 339.43 420.76 335.04 421.39 330.78 422.73 C 326.44 423.34 322.05 423.69 317.75 424.59 C 314.08 425.19 310.42 425.82 306.79 426.67 C 300.02 426.87 293.38 428.27 286.77 429.62 C 282.47 430.46 277.99 430.43 273.78 431.69 L 272.97 431.91 L 272.15 431.81 C 259.15 420.74 245.66 410.23 232.12 399.83 L 231.86 399.09 C 241.34 398.68 250.64 396.36 260.12 396.07 C 258.43 397.65 257.13 399.99 258.67 402.17 L 259.01 402.95 C 256.73 402.41 256.85 404.29 256.99 405.95 C 265.25 406.22 273.53 405.69 281.78 406.20 C 290.46 407.02 299.79 408.02 308.29 406.25 C 309.06 405.72 309.08 404.90 308.33 403.81 L 308.05 402.94 C 308.44 398.26 307.66 393.70 306.96 389.11 Z" />
</g>
<g id="#fbaf69ff">
<path fill="#fbaf69" opacity="1.00" d=" M 357.26 382.76 C 357.47 383.12 357.88 383.84 358.09 384.20 C 357.84 387.15 356.91 390.22 357.70 393.17 C 357.24 392.88 356.32 392.30 355.86 392.01 C 356.38 388.94 356.82 385.83 357.26 382.76 Z" />
</g>
<g id="#4f80d1ff">
<path fill="#4f80d1" opacity="1.00" d=" M 469.12 387.28 C 470.36 386.81 470.09 389.45 471.66 389.39 C 475.90 390.49 480.55 389.71 484.98 390.05 L 485.01 391.00 C 479.40 391.18 473.78 390.68 468.20 391.13 C 466.90 392.86 466.10 395.22 463.94 396.08 C 464.70 392.73 467.46 390.24 469.12 387.28 Z" />
<path fill="#4f80d1" opacity="1.00" d=" M 200.03 460.02 C 204.84 464.14 209.99 468.36 213.00 474.00 C 208.19 469.87 203.01 465.66 200.03 460.02 Z" />
</g>
<g id="#4d81d2ff">
<path fill="#4d81d2" opacity="1.00" d=" M 111.94 387.92 C 115.48 389.83 120.03 391.29 122.09 395.06 C 118.20 393.88 114.07 391.52 111.94 387.92 Z" />
</g>
<g id="#4d81d1ff">
<path fill="#4d81d1" opacity="1.00" d=" M 155.07 397.91 C 154.41 394.56 152.70 391.23 153.50 387.80 C 153.85 388.35 154.55 389.46 154.90 390.02 C 156.41 397.31 158.22 404.57 158.98 412.00 C 159.52 416.80 159.09 422.43 162.94 426.01 C 158.76 423.68 154.76 420.83 151.88 416.95 C 154.52 417.20 155.93 419.74 157.98 421.11 C 158.60 413.22 156.58 405.56 155.07 397.91 Z" />
</g>
<g id="#fde7b9ff">
<path fill="#fde7b9" opacity="1.00" d=" M 370.29 388.19 C 374.74 385.80 377.84 389.50 378.99 393.05 C 378.98 395.87 376.63 397.96 374.76 399.81 C 371.82 400.78 369.07 398.76 367.13 396.77 C 365.04 392.80 367.86 390.35 370.29 388.19 M 371.24 390.18 C 369.58 391.34 368.09 393.39 369.58 395.34 C 371.03 400.35 379.39 395.77 375.89 391.23 C 374.41 390.68 372.88 389.55 371.24 390.18 Z" />
</g>
<g id="#f2c889ff">
<path fill="#f2c889" opacity="1.00" d=" M 277.16 390.15 C 278.34 387.81 280.67 390.62 280.98 392.07 C 280.72 392.30 280.20 392.75 279.94 392.97 C 278.80 392.51 277.27 391.45 277.16 390.15 Z" />
</g>
<g id="#fde9bbff">
<path fill="#fde9bb" opacity="1.00" d=" M 294.31 389.27 C 298.80 386.66 302.70 391.02 302.99 394.95 C 301.82 398.11 299.32 402.11 294.98 400.02 C 290.07 400.00 289.37 390.43 294.31 389.27 M 295.24 391.18 C 290.54 393.23 294.39 402.00 299.33 397.33 C 302.96 393.91 298.53 390.15 295.24 391.18 Z" />
</g>
<g id="#f7b461ff">
<path fill="#f7b461" opacity="1.00" d=" M 305.98 388.97 L 306.96 389.11 C 307.66 393.70 308.44 398.26 308.05 402.94 C 303.28 402.97 298.53 403.01 293.78 403.20 C 291.86 403.08 289.93 403.01 288.01 402.97 L 288.00 402.00 C 294.30 401.97 300.60 402.09 306.91 401.94 C 306.36 397.64 305.90 393.30 305.98 388.97 Z" />
</g>
<g id="#f4cf93ff">
<path fill="#f4cf93" opacity="1.00" d=" M 272.90 390.00 C 274.91 390.82 277.25 391.86 278.06 394.03 C 276.72 394.26 275.16 396.49 273.98 395.47 C 276.34 393.62 272.77 392.13 272.90 390.00 Z" />
</g>
<g id="#f9b123ff">
<path fill="#f9b123" opacity="1.00" d=" M 371.24 390.18 C 372.88 389.55 374.41 390.68 375.89 391.23 C 379.39 395.77 371.03 400.35 369.58 395.34 C 368.09 393.39 369.58 391.34 371.24 390.18 Z" />
</g>
<g id="#f9b020ff">
<path fill="#f9b020" opacity="1.00" d=" M 295.24 391.18 C 298.53 390.15 302.96 393.91 299.33 397.33 C 294.39 402.00 290.54 393.23 295.24 391.18 Z" />
</g>
<g id="#ffeed7ff">
<path fill="#ffeed7" opacity="1.00" d=" M 352.83 393.94 C 351.13 391.55 354.12 390.28 355.86 392.01 C 356.32 392.30 357.24 392.88 357.70 393.17 C 358.80 393.84 360.04 394.46 360.12 395.95 C 359.38 395.88 357.91 395.74 357.17 395.67 C 355.77 394.97 354.34 394.34 352.83 393.94 Z" />
</g>
<g id="#fff5e7ff">
<path fill="#fff5e7" opacity="1.00" d=" M 348.98 395.92 C 348.46 393.78 350.26 393.96 351.79 394.00 C 353.05 395.33 354.58 396.35 356.14 397.31 L 355.71 398.05 C 353.37 397.66 351.21 396.68 348.98 395.92 Z" />
</g>
<g id="#f3be7fff">
<path fill="#f3be7f" opacity="1.00" d=" M 351.79 394.00 L 352.83 393.94 C 354.34 394.34 355.77 394.97 357.17 395.67 C 356.91 396.08 356.40 396.90 356.14 397.31 C 354.58 396.35 353.05 395.33 351.79 394.00 Z" />
</g>
<g id="#f9b072ff">
<path fill="#f9b072" opacity="1.00" d=" M 384.23 394.10 C 385.10 395.49 386.60 397.54 384.88 398.91 C 384.47 398.93 383.66 398.98 383.25 399.00 C 383.62 397.37 383.94 395.74 384.23 394.10 Z" />
</g>
<g id="#fff0deff">
<path fill="#fff0de" opacity="1.00" d=" M 344.91 395.93 C 346.27 396.03 347.61 396.37 348.89 396.85 C 350.05 397.94 351.24 399.00 352.37 400.14 C 350.56 401.75 348.66 399.54 346.96 398.83 C 345.90 398.13 344.95 397.30 344.91 395.93 Z" />
</g>
<g id="#f6c786ff">
<path fill="#f6c786" opacity="1.00" d=" M 348.98 395.92 C 351.21 396.68 353.37 397.66 355.71 398.05 C 355.01 399.21 353.44 399.41 352.37 400.14 C 351.24 399.00 350.05 397.94 348.89 396.85 L 348.98 395.92 Z" />
</g>
<g id="#fff4e8ff">
<path fill="#fff4e8" opacity="1.00" d=" M 337.72 412.27 C 352.85 407.68 368.20 403.91 383.25 399.00 C 383.66 398.98 384.47 398.93 384.88 398.91 C 388.73 397.74 387.28 405.70 383.00 403.04 C 368.01 407.14 353.16 411.71 338.14 415.67 C 336.47 415.05 337.47 413.47 337.72 412.27 Z" />
</g>
<g id="#fedadbff">
<path fill="#fedadb" opacity="1.00" d=" M 231.08 400.05 L 232.12 399.83 C 231.96 410.45 231.87 421.07 232.18 431.69 L 231.10 432.10 L 230.91 431.18 C 231.04 420.79 230.90 410.42 231.08 400.05 Z" />
</g>
<g id="#fe5a59ff">
<path fill="#fe5a59" opacity="1.00" d=" M 232.12 399.83 C 245.66 410.23 259.15 420.74 272.15 431.81 C 271.82 473.88 272.07 515.95 272.02 558.02 C 272.24 560.51 272.04 562.95 271.42 565.36 C 257.96 556.05 245.60 545.13 232.12 535.79 L 231.99 534.95 C 232.00 532.00 232.03 529.14 232.19 526.23 C 233.83 514.56 232.65 502.73 233.03 491.00 C 232.68 486.25 233.86 481.30 232.25 476.72 C 231.98 470.90 231.92 465.08 232.17 459.27 C 232.98 450.22 234.16 440.60 232.18 431.69 C 231.87 421.07 231.96 410.45 232.12 399.83 Z" />
</g>
<g id="#4d7fd0ff">
<path fill="#4d7fd0" opacity="1.00" d=" M 456.79 408.30 C 457.97 405.98 458.32 401.75 461.05 400.97 C 460.37 403.66 459.32 406.81 456.79 408.30 Z" />
</g>
<g id="#4f81d3ff">
<path fill="#4f81d3" opacity="1.00" d=" M 132.34 402.37 C 133.53 401.25 134.52 402.79 134.99 403.75 C 123.88 408.24 112.00 411.06 99.99 411.05 L 100.05 410.11 C 111.01 408.99 122.79 408.36 132.34 402.37 Z" />
<path fill="#4f81d3" opacity="1.00" d=" M 200.00 507.97 C 210.51 508.45 220.54 512.05 230.97 513.12 L 230.97 514.11 C 221.96 513.47 213.30 510.78 204.39 509.51 C 202.87 509.18 201.33 508.81 200.00 507.97 Z" />
</g>
<g id="#f4c884ff">
<path fill="#f4c884" opacity="1.00" d=" M 258.67 402.17 C 268.44 401.84 278.22 402.02 288.00 402.00 L 288.01 402.97 C 278.34 403.00 268.67 403.04 259.01 402.95 L 258.67 402.17 Z" />
</g>
<g id="#fffaf5ff">
<path fill="#fffaf5" opacity="1.00" d=" M 256.99 405.95 C 256.85 404.29 256.73 402.41 259.01 402.95 C 268.67 403.04 278.34 403.00 288.01 402.97 C 289.93 403.01 291.86 403.08 293.78 403.20 C 298.57 404.07 303.48 404.14 308.33 403.81 C 309.08 404.90 309.06 405.72 308.29 406.25 C 299.45 406.01 290.61 405.75 281.78 406.20 C 273.53 405.69 265.25 406.22 256.99 405.95 Z" />
</g>
<g id="#fff5d1ff">
<path fill="#fff5d1" opacity="1.00" d=" M 293.78 403.20 C 298.53 403.01 303.28 402.97 308.05 402.94 L 308.33 403.81 C 303.48 404.14 298.57 404.07 293.78 403.20 Z" />
</g>
<g id="#feac71ff">
<path fill="#feac71" opacity="1.00" d=" M 337.72 412.27 C 336.51 409.95 335.72 406.93 338.02 404.99 C 337.95 406.81 337.79 410.45 337.72 412.27 Z" />
</g>
<g id="#ffc0c2ff">
<path fill="#ffc0c2" opacity="1.00" d=" M 281.78 406.20 C 290.61 405.75 299.45 406.01 308.29 406.25 C 299.79 408.02 290.46 407.02 281.78 406.20 Z" />
</g>
<g id="#aabfe6ff">
<path fill="#aabfe6" opacity="1.00" d=" M 498.01 407.00 C 500.51 407.25 505.52 407.74 508.02 407.98 C 504.64 407.95 501.34 408.00 497.98 407.99 L 498.01 407.00 Z" />
</g>
<g id="#f4b0b1ff">
<path fill="#f4b0b1" opacity="1.00" d=" M 417.22 407.91 C 417.65 407.95 418.51 408.02 418.95 408.05 C 419.27 431.77 418.57 455.50 419.29 479.21 C 419.33 479.71 419.42 480.70 419.46 481.20 C 419.44 483.44 419.28 485.69 418.97 487.96 L 418.01 488.01 C 417.96 484.07 417.89 480.13 417.79 476.21 C 417.76 453.46 418.90 430.59 417.22 407.91 Z" />
</g>
<g id="#4f80d3ff">
<path fill="#4f80d3" opacity="1.00" d=" M 454.21 412.70 C 453.89 411.17 455.05 408.33 456.79 408.30 C 457.10 409.82 455.95 412.66 454.21 412.70 Z" />
</g>
<g id="#fea6a6ff">
<path fill="#fea6a6" opacity="1.00" d=" M 391.89 411.75 C 396.83 409.69 399.32 414.95 402.55 417.49 C 403.02 419.95 402.30 422.62 402.89 425.12 C 399.34 426.40 395.80 427.66 392.27 428.98 C 391.81 426.02 388.24 426.94 386.05 426.06 C 387.16 424.55 389.09 423.30 388.99 421.21 C 386.14 420.14 383.97 418.13 381.71 416.19 C 372.70 415.80 363.40 416.23 354.76 419.05 L 353.91 419.29 C 352.14 417.70 355.21 417.06 356.16 416.13 C 358.43 414.02 361.34 416.43 363.98 415.97 C 373.29 414.65 382.72 413.95 391.89 411.75 Z" />
</g>
<g id="#4f80d4ff">
<path fill="#4f80d4" opacity="1.00" d=" M 449.95 420.03 C 450.62 417.33 451.68 414.18 454.21 412.70 C 453.01 415.01 452.67 419.23 449.95 420.03 Z" />
</g>
<g id="#4c80cfff">
<path fill="#4c80cf" opacity="1.00" d=" M 511.00 418.00 C 510.82 415.54 513.33 414.19 515.03 412.90 C 515.19 415.34 512.80 416.83 511.00 418.00 Z" />
</g>
<g id="#fea0a1ff">
<path fill="#fea0a1" opacity="1.00" d=" M 354.76 419.05 C 363.40 416.23 372.70 415.80 381.71 416.19 C 383.97 418.13 386.14 420.14 388.99 421.21 C 389.09 423.30 387.16 424.55 386.05 426.06 C 388.24 426.94 391.81 426.02 392.27 428.98 C 389.89 430.43 384.85 430.94 386.13 434.76 C 389.06 438.02 393.44 433.66 397.06 433.94 C 397.09 435.33 396.80 436.75 395.85 437.84 C 392.43 442.63 388.79 447.27 385.22 451.96 C 382.78 448.55 378.43 446.21 379.84 441.11 C 374.75 436.46 376.05 427.34 370.09 422.94 C 368.95 422.07 369.14 420.37 368.59 419.17 C 363.97 418.95 359.37 418.85 354.76 419.05 Z" />
</g>
<g id="#fe9a9aff">
<path fill="#fe9a9a" opacity="1.00" d=" M 343.87 420.42 C 347.14 419.23 350.55 419.39 353.91 419.29 L 354.76 419.05 C 359.37 418.85 363.97 418.95 368.59 419.17 C 369.14 420.37 368.95 422.07 370.09 422.94 C 376.05 427.34 374.75 436.46 379.84 441.11 C 378.43 446.21 382.78 448.55 385.22 451.96 C 382.34 451.14 380.60 453.74 382.01 456.20 C 377.28 462.72 372.21 468.99 367.18 475.26 C 369.28 470.10 369.07 464.39 367.99 459.00 C 367.76 455.62 362.89 454.21 365.02 449.99 C 365.79 445.45 362.90 441.95 360.55 438.56 C 359.73 436.30 360.79 433.11 358.46 431.56 C 355.81 429.65 357.63 425.00 354.43 423.52 C 351.49 420.95 347.51 421.05 343.87 420.42 Z" />
</g>
<g id="#fe9594ff">
<path fill="#fe9594" opacity="1.00" d=" M 330.78 422.73 C 335.04 421.39 339.43 420.76 343.87 420.42 C 347.51 421.05 351.49 420.95 354.43 423.52 C 357.63 425.00 355.81 429.65 358.46 431.56 C 360.79 433.11 359.73 436.30 360.55 438.56 C 362.90 441.95 365.79 445.45 365.02 449.99 C 362.89 454.21 367.76 455.62 367.99 459.00 C 369.07 464.39 369.28 470.10 367.18 475.26 C 365.46 478.07 363.51 480.75 361.41 483.30 C 360.07 480.09 358.61 476.76 359.72 473.26 C 357.59 471.34 353.62 470.34 355.97 466.01 C 357.93 462.29 355.30 461.23 353.51 459.47 C 351.50 455.88 353.94 450.25 350.02 447.99 C 346.08 445.83 349.22 439.94 346.12 436.84 C 342.40 433.22 344.95 426.94 341.77 423.13 C 339.03 423.03 333.53 422.83 330.78 422.73 Z" />
</g>
<g id="#fe908fff">
<path fill="#fe908f" opacity="1.00" d=" M 317.75 424.59 C 322.05 423.69 326.44 423.34 330.78 422.73 C 333.53 422.83 339.03 423.03 341.77 423.13 C 344.95 426.94 342.40 433.22 346.12 436.84 C 349.22 439.94 346.08 445.83 350.02 447.99 C 353.94 450.25 351.50 455.88 353.51 459.47 C 355.30 461.23 357.93 462.29 355.97 466.01 C 353.62 470.34 357.59 471.34 359.72 473.26 C 358.61 476.76 360.07 480.09 361.41 483.30 C 358.12 488.03 354.62 492.63 350.99 497.11 C 351.01 494.98 352.56 493.29 352.80 491.27 C 349.93 488.87 344.87 487.06 347.08 482.01 C 346.41 478.60 348.54 473.45 344.56 471.41 C 343.58 467.20 344.57 461.32 340.35 458.62 C 338.28 450.68 338.62 440.94 332.14 434.90 C 329.96 432.57 331.49 429.04 330.82 426.19 C 326.42 426.09 322.08 425.30 317.75 424.59 Z" />
</g>
<g id="#fef7f6ff">
</g>
<g id="#fe8b8aff">
<path fill="#fe8b8a" opacity="1.00" d=" M 306.79 426.67 C 310.42 425.82 314.08 425.19 317.75 424.59 C 322.08 425.30 326.42 426.09 330.82 426.19 C 331.49 429.04 329.96 432.57 332.14 434.90 C 338.62 440.94 338.28 450.68 340.35 458.62 C 344.57 461.32 343.58 467.20 344.56 471.41 C 348.54 473.45 346.41 478.60 347.08 482.01 C 344.87 487.06 349.93 488.87 352.80 491.27 C 352.56 493.29 351.01 494.98 350.99 497.11 C 349.10 499.90 347.17 502.68 344.96 505.23 C 338.93 496.50 335.38 486.14 328.95 477.60 C 329.94 477.25 330.94 476.93 331.95 476.64 C 330.99 473.38 325.27 473.02 327.83 468.01 C 326.79 464.53 326.02 461.06 326.57 457.37 C 322.68 454.60 326.48 447.21 320.48 447.56 C 319.93 444.96 317.37 443.94 315.89 442.03 C 318.98 439.31 320.77 433.96 316.44 431.62 C 316.65 426.40 310.33 427.61 306.79 426.67 Z" />
</g>
<g id="#4d80d1ff">
<path fill="#4d80d1" opacity="1.00" d=" M 162.94 426.01 C 166.68 426.70 168.54 430.51 171.01 433.00 C 167.31 432.21 165.43 428.47 162.94 426.01 Z" />
<path fill="#4d80d1" opacity="1.00" d=" M 221.02 482.98 C 223.36 484.99 226.12 486.86 226.91 490.04 C 224.62 487.97 221.92 486.08 221.02 482.98 Z" />
</g>
<g id="#fe8484ff">
<path fill="#fe8484" opacity="1.00" d=" M 286.77 429.62 C 293.38 428.27 300.02 426.87 306.79 426.67 C 310.33 427.61 316.65 426.40 316.44 431.62 C 320.77 433.96 318.98 439.31 315.89 442.03 C 317.37 443.94 319.93 444.96 320.48 447.56 C 326.48 447.21 322.68 454.60 326.57 457.37 C 326.02 461.06 326.79 464.53 327.83 468.01 C 325.27 473.02 330.99 473.38 331.95 476.64 C 330.94 476.93 329.94 477.25 328.95 477.60 C 323.58 480.70 321.46 487.60 317.48 492.21 C 316.68 489.51 311.55 487.06 314.17 484.20 C 316.65 481.23 311.63 479.38 311.66 476.34 C 311.47 472.33 307.45 470.29 307.75 466.12 C 302.71 459.06 305.03 449.44 302.56 441.39 C 299.80 439.00 299.98 434.92 297.67 432.41 C 294.05 431.40 290.57 429.82 286.77 429.62 Z" />
</g>
<g id="#4d80d2ff">
<path fill="#4d80d2" opacity="1.00" d=" M 468.26 428.86 C 468.53 428.57 469.09 427.98 469.37 427.68 C 471.30 439.33 463.86 451.51 468.11 463.03 C 474.82 457.43 480.25 450.45 487.05 444.94 C 486.14 448.08 483.40 449.99 481.28 452.28 C 476.35 457.02 471.85 462.33 466.05 466.05 C 465.64 457.23 466.09 448.38 467.70 439.69 C 468.12 436.09 469.37 432.43 468.26 428.86 Z" />
</g>
<g id="#4e81d1ff">
<path fill="#4e81d1" opacity="1.00" d=" M 190.79 430.35 C 192.63 429.46 192.11 432.92 192.84 434.00 C 193.52 439.96 194.28 445.95 193.03 451.91 C 194.96 454.93 197.91 457.12 200.03 460.02 C 193.79 457.11 189.95 450.58 184.74 446.19 C 181.76 445.99 178.99 447.78 176.02 448.04 C 178.25 445.92 183.52 445.87 181.34 441.76 C 185.68 443.42 187.42 449.08 191.95 450.10 C 192.24 443.49 192.07 436.85 190.79 430.35 Z" />
</g>
<g id="#fe7d7dff">
<path fill="#fe7d7d" opacity="1.00" d=" M 273.78 431.69 C 277.99 430.43 282.47 430.46 286.77 429.62 C 290.57 429.82 294.05 431.40 297.67 432.41 C 299.98 434.92 299.80 439.00 302.56 441.39 C 305.03 449.44 302.71 459.06 307.75 466.12 C 307.45 470.29 311.47 472.33 311.66 476.34 C 311.63 479.38 316.65 481.23 314.17 484.20 C 311.55 487.06 316.68 489.51 317.48 492.21 C 313.54 498.01 309.50 503.75 305.30 509.37 C 304.38 506.48 303.56 503.55 300.39 502.52 C 300.08 500.09 299.46 495.23 299.15 492.79 C 295.42 489.07 297.22 483.27 293.60 479.53 C 293.41 476.01 291.53 473.19 289.48 470.55 C 288.43 463.53 287.94 456.43 286.69 449.45 C 286.14 449.21 285.05 448.72 284.50 448.48 C 282.72 444.14 281.14 439.71 279.75 435.24 C 277.97 433.74 275.78 432.84 273.78 431.69 Z" />
</g>
<g id="#ffd4d5ff">
<path fill="#ffd4d5" opacity="1.00" d=" M 410.20 440.22 C 409.88 436.73 410.11 433.19 410.87 429.77 C 411.09 433.28 410.81 436.75 410.20 440.22 Z" />
</g>
<g id="#5c8ba7ff">
<path fill="#5c8ba7" opacity="1.00" d=" M 231.10 432.10 L 232.18 431.69 C 231.91 440.88 231.94 450.07 232.17 459.27 L 231.13 458.96 L 231.02 458.00 C 230.95 449.37 230.99 440.73 231.10 432.10 Z" />
</g>
<g id="#e76f76ff">
<path fill="#e76f76" opacity="1.00" d=" M 232.18 431.69 C 234.16 440.60 232.98 450.22 232.17 459.27 C 231.94 450.07 231.91 440.88 232.18 431.69 Z" />
</g>
<g id="#fe6666ff">
<path fill="#fe6666" opacity="1.00" d=" M 272.15 431.81 L 272.97 431.91 C 273.06 473.94 272.92 515.97 273.05 558.01 C 272.75 560.58 273.51 563.79 272.32 566.35 C 272.09 566.10 271.65 565.61 271.42 565.36 C 272.04 562.95 272.24 560.51 272.02 558.02 C 272.07 515.95 271.82 473.88 272.15 431.81 Z" />
</g>
<g id="#fe7676ff">
<path fill="#fe7676" opacity="1.00" d=" M 272.97 431.91 L 273.78 431.69 C 275.78 432.84 277.97 433.74 279.75 435.24 C 281.14 439.71 282.72 444.14 284.50 448.48 C 285.05 448.72 286.14 449.21 286.69 449.45 C 287.94 456.43 288.43 463.53 289.48 470.55 C 291.53 473.19 293.41 476.01 293.60 479.53 C 297.22 483.27 295.42 489.07 299.15 492.79 C 299.46 495.23 300.08 500.09 300.39 502.52 C 303.56 503.55 304.38 506.48 305.30 509.37 C 295.91 522.64 286.92 536.19 277.38 549.36 C 275.10 552.21 279.87 555.63 281.78 552.78 C 290.50 540.97 298.11 528.36 306.99 516.65 C 309.01 517.64 309.16 520.47 311.37 521.61 C 309.61 527.78 315.19 527.92 318.92 529.21 C 320.74 533.84 314.38 538.93 317.83 543.18 C 321.75 546.96 319.23 553.10 320.11 558.01 C 321.80 558.17 323.87 558.15 324.46 556.18 C 325.04 557.05 325.56 557.95 326.12 558.86 C 309.23 561.95 292.08 563.63 275.09 566.20 C 274.33 566.05 271.47 568.00 272.32 566.35 C 273.51 563.79 272.75 560.58 273.05 558.01 C 272.92 515.97 273.06 473.94 272.97 431.91 Z" />
</g>
<g id="#4e7ed0ff">
<path fill="#4e7ed0" opacity="1.00" d=" M 491.85 439.88 C 493.11 436.38 496.32 434.19 499.05 431.89 C 498.56 435.69 494.40 437.51 491.85 439.88 Z" />
</g>
<g id="#4b80d1ff">
<path fill="#4b80d1" opacity="1.00" d=" M 171.01 433.00 C 175.07 434.13 177.36 438.16 180.10 441.06 C 175.94 440.25 173.91 435.66 171.01 433.00 Z" />
</g>
<g id="#6595e5ff">
<path fill="#6595e5" opacity="1.00" d=" M 192.84 434.00 C 207.24 446.18 219.50 461.07 230.84 476.22 C 230.90 476.68 231.00 477.60 231.05 478.06 C 231.00 483.07 231.04 488.12 230.93 493.14 C 229.63 492.06 228.30 491.01 226.91 490.04 C 226.12 486.86 223.36 484.99 221.02 482.98 C 219.40 479.20 216.17 476.47 213.00 474.00 C 209.99 468.36 204.84 464.14 200.03 460.02 C 197.91 457.12 194.96 454.93 193.03 451.91 C 194.28 445.95 193.52 439.96 192.84 434.00 Z" />
</g>
<g id="#fea7a7ff">
<path fill="#fea7a7" opacity="1.00" d=" M 396.12 446.83 C 398.78 442.98 401.18 438.74 404.91 435.84 C 404.92 437.15 404.90 438.46 404.84 439.78 C 404.83 442.74 402.86 446.45 404.76 449.24 C 405.02 449.53 405.56 450.11 405.82 450.40 C 407.27 450.63 410.15 451.11 411.60 451.34 C 411.52 455.09 413.85 452.69 415.86 451.87 C 416.25 460.00 416.88 468.12 417.79 476.21 C 417.89 480.13 417.96 484.07 418.01 488.01 C 417.93 494.74 418.19 501.49 417.76 508.22 C 416.56 499.91 417.48 491.47 415.85 483.20 C 412.92 484.41 409.84 482.17 411.92 478.02 C 414.14 472.83 406.95 471.16 408.90 465.99 C 408.48 463.09 408.28 460.15 407.80 457.29 C 402.86 459.05 403.37 454.07 400.64 452.40 C 398.44 451.02 399.39 446.92 396.12 446.83 Z" />
</g>
<g id="#f4c0c3ff">
<path fill="#f4c0c3" opacity="1.00" d=" M 404.76 449.24 C 402.86 446.45 404.83 442.74 404.84 439.78 C 404.90 442.94 404.77 446.05 404.76 449.24 Z" />
</g>
<g id="#5181cdff">
<path fill="#5181cd" opacity="1.00" d=" M 487.92 443.98 C 488.65 442.14 489.71 440.25 491.85 439.88 C 491.62 440.92 491.40 441.98 491.19 443.04 C 498.78 443.34 506.33 442.38 513.89 441.94 C 515.25 441.90 516.62 441.92 517.99 442.01 C 518.41 444.98 513.02 442.08 511.83 444.65 C 504.00 442.96 495.84 444.54 487.92 443.98 Z" />
</g>
<g id="#fea4a3ff">
<path fill="#fea4a3" opacity="1.00" d=" M 396.12 446.83 C 399.39 446.92 398.44 451.02 400.64 452.40 C 403.37 454.07 402.86 459.05 407.80 457.29 C 408.28 460.15 408.48 463.09 408.90 465.99 C 406.95 471.16 414.14 472.83 411.92 478.02 C 409.84 482.17 412.92 484.41 415.85 483.20 C 417.48 491.47 416.56 499.91 417.76 508.22 C 418.27 512.53 417.27 517.13 418.67 521.34 C 419.41 529.83 418.88 538.44 418.97 546.99 C 417.22 547.05 415.47 546.95 413.74 546.78 C 416.06 545.79 419.82 545.66 417.00 540.98 C 417.08 532.45 417.37 523.84 415.70 515.43 C 412.28 515.05 412.47 511.13 411.43 508.62 C 408.55 502.87 410.92 494.87 405.42 490.58 C 405.51 482.67 402.66 475.24 398.23 468.80 C 396.17 466.33 398.42 462.16 395.68 460.28 C 392.74 459.87 389.88 459.69 386.99 459.12 C 389.58 454.70 393.05 450.91 396.12 446.83 Z" />
</g>
<g id="#4c81d1ff">
<path fill="#4c81d1" opacity="1.00" d=" M 148.92 450.05 C 158.05 452.33 167.03 449.34 176.02 448.04 C 168.34 452.18 159.14 452.90 150.66 451.41 C 149.75 451.62 146.18 449.70 148.92 450.05 Z" />
</g>
<g id="#faa5a4ff">
<path fill="#faa5a4" opacity="1.00" d=" M 382.01 456.20 C 380.60 453.74 382.34 451.14 385.22 451.96 C 384.14 453.37 383.07 454.78 382.01 456.20 Z" />
</g>
<g id="#fcd9daff">
<path fill="#fcd9da" opacity="1.00" d=" M 231.13 458.96 L 232.17 459.27 C 231.92 465.08 231.98 470.90 232.25 476.72 L 232.13 477.79 L 231.05 478.06 C 231.00 477.60 230.90 476.68 230.84 476.22 C 230.93 470.46 230.92 464.70 231.13 458.96 Z" />
</g>
<g id="#ff9f9fff">
<path fill="#ff9f9f" opacity="1.00" d=" M 386.99 459.12 C 389.88 459.69 392.74 459.87 395.68 460.28 C 398.42 462.16 396.17 466.33 398.23 468.80 C 402.66 475.24 405.51 482.67 405.42 490.58 C 410.92 494.87 408.55 502.87 411.43 508.62 C 412.47 511.13 412.28 515.05 415.70 515.43 C 417.37 523.84 417.08 532.45 417.00 540.98 C 419.82 545.66 416.06 545.79 413.74 546.78 C 413.33 546.84 412.51 546.94 412.10 546.99 C 408.22 545.40 412.40 543.17 411.54 540.64 C 412.84 535.65 405.41 535.31 407.91 529.98 C 408.22 523.26 399.17 521.20 400.74 514.16 C 396.26 509.87 397.11 503.92 396.59 498.32 C 393.99 494.96 394.96 490.14 391.85 487.17 C 389.59 483.61 390.01 478.89 387.57 475.39 C 385.51 472.40 384.58 466.46 379.63 468.59 C 380.72 467.00 381.93 465.51 383.10 463.99 C 385.25 464.82 388.26 462.85 385.85 460.84 C 386.14 460.41 386.71 459.55 386.99 459.12 Z" />
</g>
<g id="#7e90b8ff">
<path fill="#7e90b8" opacity="1.00" d=" M 419.29 479.21 C 423.26 472.75 425.62 464.73 430.06 458.92 C 430.25 461.94 428.06 464.33 427.01 467.00 C 424.40 471.67 422.65 476.87 419.46 481.20 C 419.42 480.70 419.33 479.71 419.29 479.21 Z" />
</g>
<g id="#faa7a6ff">
<path fill="#faa7a6" opacity="1.00" d=" M 383.10 463.99 C 383.66 462.66 384.64 461.61 385.85 460.84 C 388.26 462.85 385.25 464.82 383.10 463.99 Z" />
</g>
<g id="#ff9a9bff">
<path fill="#ff9a9b" opacity="1.00" d=" M 379.63 468.59 C 384.58 466.46 385.51 472.40 387.57 475.39 C 390.01 478.89 389.59 483.61 391.85 487.17 C 394.96 490.14 393.99 494.96 396.59 498.32 C 397.11 503.92 396.26 509.87 400.74 514.16 C 399.17 521.20 408.22 523.26 407.91 529.98 C 405.41 535.31 412.84 535.65 411.54 540.64 C 412.40 543.17 408.22 545.40 412.10 546.99 L 412.02 547.86 C 407.73 547.61 403.49 549.00 399.23 548.72 C 397.67 548.50 394.56 548.07 393.01 547.85 C 392.53 544.61 397.34 544.65 399.02 542.77 C 398.38 539.44 395.44 537.11 393.63 534.38 C 392.31 529.40 392.20 524.21 391.79 519.12 C 390.06 516.00 387.47 513.52 385.49 510.59 C 383.77 503.90 384.00 495.64 377.91 491.11 C 375.65 487.07 377.71 480.27 371.91 478.75 C 374.51 475.38 376.99 471.91 379.63 468.59 Z" />
</g>
<g id="#4c7dceff">
<path fill="#4c7dce" opacity="1.00" d=" M 459.25 471.24 C 459.71 471.18 460.63 471.04 461.09 470.97 C 459.05 473.15 457.29 476.97 453.91 477.03 C 455.30 474.80 457.35 473.03 459.25 471.24 Z" />
</g>
<g id="#6a8ac4ff">
<path fill="#6a8ac4" opacity="1.00" d=" M 93.91 473.96 C 96.63 473.95 97.97 476.78 99.94 478.26 C 100.52 481.50 98.30 478.62 97.12 477.79 C 95.96 476.59 94.77 475.39 93.91 473.96 Z" />
</g>
<g id="#4f81d2ff">
<path fill="#4f81d2" opacity="1.00" d=" M 213.00 474.00 C 216.17 476.47 219.40 479.20 221.02 482.98 C 217.81 480.55 214.57 477.78 213.00 474.00 Z" />
</g>
<g id="#d1def7ff">
<path fill="#d1def7" opacity="1.00" d=" M 111.00 475.01 C 116.66 474.99 122.32 474.84 127.98 475.04 L 128.01 476.00 C 122.34 475.99 116.67 476.01 111.00 475.97 L 111.00 475.01 Z" />
</g>
<g id="#f06571ff">
<path fill="#f06571" opacity="1.00" d=" M 232.25 476.72 C 233.86 481.30 232.68 486.25 233.03 491.00 C 232.65 502.73 233.83 514.56 232.19 526.23 L 232.13 525.19 C 231.91 509.39 231.91 493.59 232.13 477.79 L 232.25 476.72 Z" />
</g>
<g id="#8e82c1ff">
<path fill="#8e82c1" opacity="1.00" d=" M 231.05 478.06 L 232.13 477.79 C 231.91 493.59 231.91 509.39 232.13 525.19 L 231.07 524.96 C 231.00 521.31 231.03 517.73 230.97 514.11 L 230.97 513.12 C 231.04 507.14 231.01 501.16 230.92 495.20 C 230.93 494.69 230.93 493.66 230.93 493.14 C 231.04 488.12 231.00 483.07 231.05 478.06 Z" />
</g>
<g id="#fe9695ff">
<path fill="#fe9695" opacity="1.00" d=" M 361.89 491.79 C 365.24 487.45 368.46 483.01 371.91 478.75 C 377.71 480.27 375.65 487.07 377.91 491.11 C 384.00 495.64 383.77 503.90 385.49 510.59 C 387.47 513.52 390.06 516.00 391.79 519.12 C 392.20 524.21 392.31 529.40 393.63 534.38 C 395.44 537.11 398.38 539.44 399.02 542.77 C 397.34 544.65 392.53 544.61 393.01 547.85 C 394.56 548.07 397.67 548.50 399.23 548.72 C 394.42 550.32 389.18 550.39 384.20 550.82 C 383.55 548.99 382.70 547.23 381.75 545.54 C 381.49 542.60 386.68 537.43 381.87 536.18 C 376.47 534.52 381.59 526.56 376.88 524.12 C 374.08 520.16 377.23 513.40 372.36 510.61 C 370.07 505.13 371.52 498.91 370.83 493.17 C 367.83 492.64 364.90 492.12 361.89 491.79 Z" />
</g>
<g id="#5182cfff">
<path fill="#5182cf" opacity="1.00" d=" M 449.20 480.13 C 458.53 483.62 468.99 483.61 478.76 481.79 C 482.09 480.98 484.88 484.78 477.36 483.54 C 476.00 483.82 474.70 484.36 473.32 484.53 C 465.27 484.01 457.22 483.52 449.23 482.42 C 447.49 483.70 446.24 485.91 443.90 486.08 C 445.43 483.90 447.31 482.00 449.20 480.13 Z" />
</g>
<g id="#4c7fd1ff">
<path fill="#4c7fd1" opacity="1.00" d=" M 155.95 483.91 C 159.06 486.01 162.29 489.32 163.05 493.09 C 159.93 490.98 156.71 487.66 155.95 483.91 Z" />
</g>
<g id="#4b7fd0ff">
<path fill="#4b7fd0" opacity="1.00" d=" M 105.93 485.88 C 107.85 487.04 109.57 488.70 110.06 490.98 C 108.34 489.63 105.87 488.39 105.93 485.88 Z" />
<path fill="#4b7fd0" opacity="1.00" d=" M 429.94 498.07 C 431.37 495.87 433.15 493.27 436.03 493.01 C 434.59 495.25 432.76 497.61 429.94 498.07 Z" />
</g>
<g id="#f9908fff">
<path fill="#f9908f" opacity="1.00" d=" M 322.02 495.04 C 324.22 492.34 325.52 488.22 328.86 486.90 C 330.31 489.54 331.62 492.27 332.95 494.99 C 329.37 494.03 325.64 494.73 322.02 495.04 Z" />
</g>
<g id="#dbabc7ff">
<path fill="#dbabc7" opacity="1.00" d=" M 418.01 488.01 L 418.97 487.96 L 419.01 488.98 C 419.20 499.41 418.37 509.91 419.66 520.31 C 419.41 520.57 418.91 521.09 418.67 521.34 C 417.27 517.13 418.27 512.53 417.76 508.22 C 418.19 501.49 417.93 494.74 418.01 488.01 Z" />
</g>
<g id="#4c7fd0ff">
<path fill="#4c7fd0" opacity="1.00" d=" M 436.03 493.01 C 437.33 490.70 439.29 488.34 442.10 487.93 C 440.63 490.11 438.87 492.62 436.03 493.01 Z" />
</g>
<g id="#9890c5ff">
<path fill="#9890c5" opacity="1.00" d=" M 419.01 488.98 L 420.02 489.03 C 420.08 499.12 419.48 509.25 420.64 519.30 C 420.40 519.55 419.90 520.06 419.66 520.31 C 418.37 509.91 419.20 499.41 419.01 488.98 Z" />
</g>
<g id="#4c7dd3ff">
<path fill="#4c7dd3" opacity="1.00" d=" M 226.91 490.04 C 228.30 491.01 229.63 492.06 230.93 493.14 C 230.93 493.66 230.93 494.69 230.92 495.20 C 229.26 493.77 227.43 492.28 226.91 490.04 Z" />
</g>
<g id="#4d80d0ff">
<path fill="#4d80d0" opacity="1.00" d=" M 110.06 490.98 C 113.14 492.83 114.30 497.63 119.01 496.02 C 135.12 497.19 151.06 499.79 167.07 501.76 C 166.41 499.77 165.48 497.87 164.99 495.84 C 166.90 497.39 167.98 499.65 169.44 501.60 C 179.23 505.36 190.28 504.12 200.00 507.97 C 181.64 506.41 163.67 501.83 145.31 500.24 C 142.79 502.04 141.26 505.67 137.94 506.09 C 139.57 504.03 141.37 502.13 143.03 500.10 C 119.58 496.45 95.70 495.84 71.99 496.03 C 68.43 496.73 68.40 494.27 71.97 494.97 C 85.32 495.18 98.71 494.48 112.03 495.68 C 111.43 494.09 110.65 492.57 110.06 490.98 Z" />
</g>
<g id="#fe9191ff">
<path fill="#fe9191" opacity="1.00" d=" M 354.00 502.80 C 356.28 498.90 359.19 495.40 361.89 491.79 C 364.90 492.12 367.83 492.64 370.83 493.17 C 371.52 498.91 370.07 505.13 372.36 510.61 C 377.23 513.40 374.08 520.16 376.88 524.12 C 381.59 526.56 376.47 534.52 381.87 536.18 C 386.68 537.43 381.49 542.60 381.75 545.54 C 382.70 547.23 383.55 548.99 384.20 550.82 C 380.02 553.13 374.54 551.79 370.00 552.90 C 369.03 546.72 369.08 540.44 368.79 534.22 C 362.36 528.31 362.13 518.67 360.52 510.59 C 360.98 506.79 357.88 502.74 354.00 502.80 Z" />
</g>
<g id="#fe8181ff">
<path fill="#fe8181" opacity="1.00" d=" M 322.02 495.04 C 325.64 494.73 329.37 494.03 332.95 494.99 L 333.34 495.77 C 332.64 498.71 330.61 499.11 328.03 498.13 C 326.99 501.54 329.47 500.77 331.76 500.14 C 331.51 502.99 332.90 505.28 335.96 505.38 C 334.86 507.63 332.31 511.46 336.73 511.39 C 338.36 517.68 339.83 524.05 340.39 530.59 C 346.45 535.86 349.53 544.64 348.42 552.57 C 350.85 553.20 348.66 554.76 347.90 555.91 C 341.08 557.73 333.33 558.14 326.12 558.86 C 325.56 557.95 325.04 557.05 324.46 556.18 C 323.87 558.15 321.80 558.17 320.11 558.01 C 319.23 553.10 321.75 546.96 317.83 543.18 C 314.38 538.93 320.74 533.84 318.92 529.21 C 315.19 527.92 309.61 527.78 311.37 521.61 C 309.16 520.47 309.01 517.64 306.99 516.65 C 312.35 509.70 316.62 501.97 322.02 495.04 Z" />
</g>
<g id="#fe8a8aff">
<path fill="#fe8a8a" opacity="1.00" d=" M 333.34 495.77 C 336.28 501.47 339.14 507.21 342.30 512.80 C 346.02 514.30 347.91 510.31 349.89 507.99 C 352.76 508.40 355.04 506.67 353.09 503.95 C 353.32 503.66 353.77 503.09 354.00 502.80 C 357.88 502.74 360.98 506.79 360.52 510.59 C 362.13 518.67 362.36 528.31 368.79 534.22 C 369.08 540.44 369.03 546.72 370.00 552.90 C 362.69 554.00 355.32 555.40 347.90 555.91 C 348.66 554.76 350.85 553.20 348.42 552.57 C 349.53 544.64 346.45 535.86 340.39 530.59 C 339.83 524.05 338.36 517.68 336.73 511.39 C 332.31 511.46 334.86 507.63 335.96 505.38 C 332.90 505.28 331.51 502.99 331.76 500.14 C 329.47 500.77 326.99 501.54 328.03 498.13 C 330.61 499.11 332.64 498.71 333.34 495.77 Z" />
</g>
<g id="#4e81d4ff">
<path fill="#4e81d4" opacity="1.00" d=" M 426.25 500.23 C 426.71 500.16 427.64 500.03 428.10 499.97 C 426.79 501.71 425.40 504.20 422.90 504.03 C 423.75 502.55 425.00 501.37 426.25 500.23 Z" />
</g>
<g id="#f99794ff">
<path fill="#f99794" opacity="1.00" d=" M 349.89 507.99 C 350.92 506.61 351.97 505.25 353.09 503.95 C 355.04 506.67 352.76 508.40 349.89 507.99 Z" />
</g>
<g id="#4e7fd1ff">
<path fill="#4e7fd1" opacity="1.00" d=" M 124.04 515.01 C 126.25 512.26 130.37 509.89 134.07 508.93 C 131.93 512.13 127.57 513.72 124.04 515.01 Z" />
</g>
<g id="#4e80d1ff">
<path fill="#4e80d1" opacity="1.00" d=" M 117.92 519.06 C 119.02 516.74 121.49 515.16 124.04 515.01 C 122.77 517.04 120.27 518.56 117.92 519.06 Z" />
</g>
<g id="#c4dcfdff">
<path fill="#c4dcfd" opacity="1.00" d=" M 150.70 519.63 C 161.73 518.10 173.17 518.89 184.26 519.71 C 173.09 520.02 161.84 520.43 150.70 519.63 Z" />
</g>
<g id="#bccbecff">
<path fill="#bccbec" opacity="1.00" d=" M 133.70 520.62 C 136.38 519.78 139.20 519.97 142.00 519.99 C 141.10 522.28 136.13 520.57 133.70 520.62 Z" />
</g>
<g id="#b6cefbff">
<path fill="#b6cefb" opacity="1.00" d=" M 107.00 521.03 C 114.00 520.94 120.99 520.97 127.99 521.03 L 128.00 521.99 C 121.00 522.03 114.01 522.07 107.01 521.98 L 107.00 521.03 Z" />
</g>
<g id="#fddadcff">
<path fill="#fddadc" opacity="1.00" d=" M 231.07 524.96 L 232.13 525.19 L 232.19 526.23 C 232.03 529.14 232.00 532.00 231.99 534.95 C 229.09 534.34 231.70 527.74 231.07 524.96 Z" />
</g>
</svg>
