<?xml version="1.0" encoding="UTF-8" ?>
<!DOCTYPE svg PUBLIC "-//W3C//DTD SVG 1.1//EN" "http://www.w3.org/Graphics/SVG/1.1/DTD/svg11.dtd">
<svg width="588pt" height="1090pt" viewBox="0 0 588 1090" version="1.1" xmlns="http://www.w3.org/2000/svg">
<g id="#231f20fc">
<path fill="#231f20" opacity="1.00" d=" M 318.67 36.69 C 325.46 33.81 333.07 35.58 339.63 38.43 C 351.94 46.59 359.95 60.55 361.84 75.10 C 364.35 89.33 364.49 103.87 366.93 118.09 C 370.63 110.68 372.59 102.56 376.05 95.04 C 382.82 81.29 387.43 66.28 397.18 54.18 C 404.13 48.34 410.89 41.94 419.36 38.34 C 426.19 36.75 432.67 39.53 438.66 42.37 C 445.71 47.29 448.24 55.86 451.71 63.29 C 452.44 65.62 456.66 63.90 454.90 68.47 C 455.97 77.11 456.96 85.88 457.64 94.60 C 458.54 106.05 457.26 117.60 458.85 129.01 C 459.07 141.77 458.70 154.57 460.26 167.27 C 467.04 158.25 469.15 146.59 475.03 136.99 C 481.41 126.80 487.11 116.06 494.72 106.74 C 500.01 103.75 506.24 102.80 511.93 100.79 C 521.32 97.93 532.17 100.94 538.68 108.29 C 550.88 123.15 553.87 143.35 553.03 162.00 C 553.73 189.85 549.25 217.41 546.07 244.99 C 542.06 277.69 537.59 310.34 534.23 343.11 C 531.43 368.29 528.98 393.51 525.50 418.61 C 519.32 450.57 516.83 483.17 509.99 515.01 C 502.01 545.94 490.77 575.90 479.85 605.90 C 476.27 614.45 470.77 622.12 468.13 631.10 C 465.67 640.20 461.96 648.97 460.36 658.31 C 457.57 677.43 456.80 696.77 455.13 716.00 C 454.81 807.67 455.13 899.34 454.97 991.00 C 456.20 1023.99 458.43 1056.95 458.00 1090.00 L 421.94 1090.00 C 422.61 1085.34 423.70 1080.57 422.06 1075.98 C 419.90 1070.98 423.51 1066.13 422.82 1061.11 C 421.05 1048.13 419.50 1035.10 419.01 1022.01 C 418.84 1012.65 419.47 1003.28 418.16 994.00 C 417.46 979.54 418.69 965.02 417.61 950.60 C 415.84 926.45 418.30 902.13 416.00 878.01 C 415.98 841.34 416.01 804.67 416.00 768.00 C 415.29 736.99 418.10 706.00 422.33 675.31 C 425.48 662.42 424.35 648.82 428.10 636.09 C 433.10 623.86 436.65 610.98 443.44 599.56 C 459.72 563.17 470.88 524.73 480.03 486.01 C 483.54 465.26 485.16 444.21 489.49 423.59 C 494.27 386.84 496.87 349.84 501.11 313.02 C 504.89 276.26 512.15 239.95 515.31 203.12 C 516.72 181.48 519.20 159.60 515.87 138.02 C 515.43 138.03 514.57 138.06 514.14 138.08 C 506.07 152.09 499.39 166.86 494.39 182.25 C 491.19 191.99 488.03 201.75 484.27 211.29 C 478.71 224.20 479.19 238.69 474.91 251.98 C 471.10 263.34 469.65 275.21 467.92 287.01 C 464.99 302.87 461.18 318.61 459.68 334.70 C 459.25 342.87 454.89 350.60 448.02 355.02 C 439.09 360.01 425.11 354.90 423.96 344.04 C 421.94 328.18 422.89 311.96 424.00 296.01 C 423.90 247.68 424.21 199.34 423.84 151.01 C 421.29 130.00 425.90 108.44 419.75 87.86 C 418.86 88.68 418.10 89.63 417.76 90.80 C 413.15 103.15 405.89 114.36 402.13 127.04 C 397.46 144.29 394.42 161.92 390.37 179.32 C 382.15 215.91 378.35 253.27 373.59 290.41 C 371.88 304.89 369.67 319.38 365.46 333.37 C 364.43 337.21 361.72 340.26 358.74 342.78 C 348.50 347.59 335.07 340.16 332.62 329.36 C 330.85 305.95 329.90 282.43 328.11 259.00 C 328.42 248.19 330.64 237.43 329.48 226.62 C 328.47 208.43 329.17 190.19 329.03 171.98 C 328.85 164.12 332.10 156.49 330.56 148.59 C 328.27 142.71 333.35 137.19 330.65 131.38 C 328.97 124.98 331.22 118.53 330.82 112.11 C 329.30 102.06 328.87 91.86 326.74 81.92 C 320.06 87.67 316.74 96.61 315.20 105.12 C 314.16 110.77 310.73 115.57 309.10 121.04 C 307.63 126.17 306.34 131.38 305.67 136.69 C 303.43 157.43 295.13 177.08 294.17 198.01 C 293.62 216.07 289.28 233.62 286.57 251.40 C 285.21 277.00 280.41 302.24 277.65 327.70 C 277.16 335.04 271.96 341.77 264.88 343.87 C 256.60 347.21 246.95 341.16 243.40 333.65 C 239.51 285.94 235.38 238.25 230.48 190.62 C 229.30 173.65 225.50 157.04 222.55 140.33 C 219.11 124.94 216.34 109.36 211.83 94.23 C 211.41 93.89 210.55 93.23 210.13 92.89 C 208.40 101.10 206.71 109.59 207.82 118.00 C 208.89 129.35 205.94 140.69 207.75 152.01 C 208.33 166.71 211.45 181.24 211.00 196.00 C 212.32 231.01 212.07 266.03 213.91 301.01 C 213.43 307.00 212.78 312.97 212.97 319.01 C 212.99 337.15 208.04 354.85 207.87 372.99 C 206.17 391.75 199.06 409.46 193.41 427.27 C 190.51 436.70 186.50 445.78 180.90 453.93 C 176.12 460.91 174.10 469.34 169.46 476.40 C 163.93 485.82 164.50 498.32 155.81 505.81 C 149.06 512.75 137.80 516.51 128.99 511.01 C 120.75 507.92 118.38 498.73 114.07 491.99 C 97.80 460.77 79.32 430.71 64.08 398.94 C 60.47 390.43 54.98 382.88 49.03 375.86 C 52.92 403.15 59.45 430.13 68.99 456.00 C 78.36 478.74 84.28 502.81 94.98 525.01 C 109.83 553.78 125.97 581.88 141.85 610.10 C 147.50 620.08 155.01 629.03 159.22 639.82 C 167.01 656.39 164.55 675.18 168.35 692.68 C 169.74 706.74 166.73 720.86 168.19 735.00 C 169.77 747.91 168.49 760.94 169.22 773.90 C 171.40 802.88 170.37 831.98 172.21 861.00 C 175.61 907.57 173.35 954.33 174.00 1001.00 C 174.70 1023.61 172.58 1046.12 171.68 1068.69 C 170.30 1075.70 172.21 1083.13 169.96 1090.00 L 135.95 1090.00 C 137.17 1068.34 136.48 1046.60 138.93 1025.01 C 139.10 986.34 138.94 947.66 139.01 908.99 C 139.31 902.56 137.76 896.33 137.15 890.00 C 136.17 853.64 134.43 817.36 133.98 780.99 C 131.42 749.07 134.60 716.92 132.06 685.01 C 133.41 665.52 124.24 647.11 113.47 631.57 C 109.24 628.70 110.11 622.76 106.89 619.08 C 83.47 581.61 62.22 542.58 47.04 501.04 C 44.72 491.13 41.93 481.34 38.10 471.91 C 31.87 448.78 20.83 426.92 18.19 402.89 C 16.79 389.49 10.90 376.72 12.05 363.06 C 13.43 354.40 17.32 346.40 22.23 339.22 C 29.87 332.03 40.73 329.64 50.94 331.08 C 63.58 331.98 72.37 342.57 78.22 352.77 C 85.75 366.22 94.21 379.14 101.09 392.96 C 106.32 401.81 110.29 411.38 116.02 419.95 C 121.56 429.16 128.36 437.74 132.07 447.93 C 133.51 451.90 135.00 455.98 137.69 459.30 C 138.52 459.93 139.49 461.71 140.71 460.79 C 150.02 443.15 157.00 424.43 163.64 405.67 C 167.38 393.71 169.23 381.26 172.16 369.10 C 174.85 359.63 173.61 349.68 174.92 340.01 C 174.74 313.34 178.37 286.64 176.09 260.02 C 176.01 228.94 174.25 197.94 173.25 166.91 C 173.62 147.91 170.92 128.95 172.80 109.99 C 173.57 96.15 173.30 81.59 178.70 68.57 C 182.78 63.44 183.27 56.44 187.37 51.32 C 192.70 46.51 199.15 42.96 206.10 41.14 C 213.58 40.16 219.81 44.84 226.12 47.92 C 233.71 59.83 240.50 72.34 245.41 85.64 C 251.45 98.49 253.95 112.59 255.55 126.59 C 256.87 137.41 261.09 147.56 263.39 158.16 C 265.98 153.52 266.27 148.03 268.09 143.09 C 272.60 129.43 274.28 115.07 278.39 101.32 C 281.79 93.13 283.97 84.50 287.33 76.29 C 295.10 67.17 298.26 53.90 307.70 45.71 C 311.00 42.30 314.43 38.93 318.67 36.69 Z" />
</g>
<g id="#ffd5ffff">
<path fill="#ffd5ff" opacity="1.00" d=" M 315.20 105.12 C 316.74 96.61 320.06 87.67 326.74 81.92 C 328.87 91.86 329.30 102.06 330.82 112.11 C 331.22 118.53 328.97 124.98 330.65 131.38 C 333.35 137.19 328.27 142.71 330.56 148.59 C 332.10 156.49 328.85 164.12 329.03 171.98 C 329.17 190.19 328.47 208.43 329.48 226.62 C 330.64 237.43 328.42 248.19 328.11 259.00 C 329.90 282.43 330.85 305.95 332.62 329.36 C 335.07 340.16 348.50 347.59 358.74 342.78 C 361.72 340.26 364.43 337.21 365.46 333.37 C 369.67 319.38 371.88 304.89 373.59 290.41 C 378.35 253.27 382.15 215.91 390.37 179.32 C 394.42 161.92 397.46 144.29 402.13 127.04 C 405.89 114.36 413.15 103.15 417.76 90.80 C 418.10 89.63 418.86 88.68 419.75 87.86 C 425.90 108.44 421.29 130.00 423.84 151.01 C 424.21 199.34 423.90 247.68 424.00 296.01 C 422.89 311.96 421.94 328.18 423.96 344.04 C 425.11 354.90 439.09 360.01 448.02 355.02 C 454.89 350.60 459.25 342.87 459.68 334.70 C 461.18 318.61 464.99 302.87 467.92 287.01 C 469.65 275.21 471.10 263.34 474.91 251.98 C 479.19 238.69 478.71 224.20 484.27 211.29 C 488.03 201.75 491.19 191.99 494.39 182.25 C 499.39 166.86 506.07 152.09 514.14 138.08 C 514.57 138.06 515.43 138.03 515.87 138.02 C 519.20 159.60 516.72 181.48 515.31 203.12 C 512.15 239.95 504.89 276.26 501.11 313.02 C 496.87 349.84 494.27 386.84 489.49 423.59 C 485.16 444.21 483.54 465.26 480.03 486.01 C 470.88 524.73 459.72 563.17 443.44 599.56 C 436.65 610.98 433.10 623.86 428.10 636.09 C 424.35 648.82 425.48 662.42 422.33 675.31 C 418.10 706.00 415.29 736.99 416.00 768.00 C 416.01 804.67 415.98 841.34 416.00 878.01 C 418.30 902.13 415.84 926.45 417.61 950.60 C 418.69 965.02 417.46 979.54 418.16 994.00 C 419.47 1003.28 418.84 1012.65 419.01 1022.01 C 419.50 1035.10 421.05 1048.13 422.82 1061.11 C 423.51 1066.13 419.90 1070.98 422.06 1075.98 C 423.70 1080.57 422.61 1085.34 421.94 1090.00 L 169.96 1090.00 C 172.21 1083.13 170.30 1075.70 171.68 1068.69 C 172.58 1046.12 174.70 1023.61 174.00 1001.00 C 173.35 954.33 175.61 907.57 172.21 861.00 C 170.37 831.98 171.40 802.88 169.22 773.90 C 168.49 760.94 169.77 747.91 168.19 735.00 C 166.73 720.86 169.74 706.74 168.35 692.68 C 164.55 675.18 167.01 656.39 159.22 639.82 C 155.01 629.03 147.50 620.08 141.85 610.10 C 125.97 581.88 109.83 553.78 94.98 525.01 C 84.28 502.81 78.36 478.74 68.99 456.00 C 59.45 430.13 52.92 403.15 49.03 375.86 C 54.98 382.88 60.47 390.43 64.08 398.94 C 79.32 430.71 97.80 460.77 114.07 491.99 C 118.38 498.73 120.75 507.92 128.99 511.01 C 137.80 516.51 149.06 512.75 155.81 505.81 C 164.50 498.32 163.93 485.82 169.46 476.40 C 174.10 469.34 176.12 460.91 180.90 453.93 C 186.50 445.78 190.51 436.70 193.41 427.27 C 199.06 409.46 206.17 391.75 207.87 372.99 C 208.04 354.85 212.99 337.15 212.97 319.01 C 212.78 312.97 213.43 307.00 213.91 301.01 C 212.07 266.03 212.32 231.01 211.00 196.00 C 211.45 181.24 208.33 166.71 207.75 152.01 C 205.94 140.69 208.89 129.35 207.82 118.00 C 206.71 109.59 208.40 101.10 210.13 92.89 C 210.55 93.23 211.41 93.89 211.83 94.23 C 216.34 109.36 219.11 124.94 222.55 140.33 C 225.50 157.04 229.30 173.65 230.48 190.62 C 235.38 238.25 239.51 285.94 243.40 333.65 C 246.95 341.16 256.60 347.21 264.88 343.87 C 271.96 341.77 277.16 335.04 277.65 327.70 C 280.41 302.24 285.21 277.00 286.57 251.40 C 289.28 233.62 293.62 216.07 294.17 198.01 C 295.13 177.08 303.43 157.43 305.67 136.69 C 306.34 131.38 307.63 126.17 309.10 121.04 C 310.73 115.57 314.16 110.77 315.20 105.12 Z" />
</g>
</svg>
