<?xml version="1.0" encoding="UTF-8" ?>
<!DOCTYPE svg PUBLIC "-//W3C//DTD SVG 1.1//EN" "http://www.w3.org/Graphics/SVG/1.1/DTD/svg11.dtd">
<svg width="585pt" height="1200pt" viewBox="0 0 585 1200" version="1.1" xmlns="http://www.w3.org/2000/svg">
<g id="#231f20f8">
<path fill="#231f20" opacity="0.97" d=" M 200.34 362.50 C 213.77 361.50 227.98 361.09 240.66 366.42 C 250.19 372.32 258.91 379.40 267.76 386.25 C 269.16 387.95 270.81 385.82 272.23 385.24 C 277.17 381.74 283.41 380.86 288.39 377.47 C 299.80 376.20 312.31 373.60 323.03 378.90 C 334.45 381.90 346.98 383.52 356.05 391.93 C 366.01 402.98 373.39 416.79 375.26 431.71 C 375.50 432.02 375.97 432.63 376.20 432.93 C 386.83 433.12 398.04 428.22 408.33 432.60 C 420.95 436.60 430.85 446.51 437.00 458.00 C 439.97 463.50 441.90 469.52 445.33 474.79 C 465.41 472.55 488.15 482.92 495.51 502.61 C 496.71 504.98 497.69 507.46 499.67 509.33 C 506.14 528.04 509.55 547.70 511.65 567.32 C 513.80 571.65 514.20 577.59 518.70 580.25 C 519.32 585.01 521.75 589.22 523.42 593.67 C 526.53 602.69 527.41 612.35 530.54 621.36 C 531.05 632.59 532.62 643.78 532.99 655.01 C 531.60 671.94 528.00 688.69 522.56 704.76 C 520.27 709.79 519.38 715.31 518.75 720.77 C 514.72 722.79 514.26 727.67 512.43 731.34 C 504.60 748.72 497.05 766.38 486.05 782.06 C 475.43 796.04 464.59 810.17 457.45 826.34 C 448.41 846.60 449.17 869.31 446.71 890.93 C 441.95 938.87 440.87 987.00 437.98 1034.99 C 438.74 1076.18 437.17 1117.25 435.46 1158.33 C 433.87 1169.90 437.18 1181.34 435.96 1192.97 C 323.65 1193.01 211.34 1193.05 99.03 1192.95 C 99.30 1158.79 99.02 1124.67 96.60 1090.65 C 94.74 1071.15 95.12 1051.41 91.79 1032.07 C 86.93 1009.72 86.80 986.54 81.66 964.29 C 82.18 950.81 78.90 937.44 77.90 924.00 C 74.06 898.05 66.82 872.47 66.92 846.06 C 63.72 840.94 65.16 834.34 63.54 828.66 C 66.09 822.59 55.97 824.46 59.99 817.98 C 55.88 798.68 53.28 779.00 48.05 759.93 C 47.03 754.25 44.87 748.55 45.38 742.76 C 42.06 718.72 40.05 694.36 41.18 670.07 C 43.89 653.28 47.52 636.61 52.47 620.35 C 55.65 614.64 59.39 608.88 60.26 602.27 C 60.90 602.13 62.18 601.85 62.82 601.72 C 74.02 583.53 85.32 565.42 95.75 546.77 C 105.39 530.29 119.59 517.27 131.65 502.67 C 134.24 498.11 134.26 492.63 135.58 487.67 C 140.44 461.74 145.65 435.88 151.20 410.09 C 155.27 395.93 163.64 383.36 174.02 373.06 C 182.15 368.42 190.57 363.11 200.34 362.50 M 202.33 397.40 C 193.76 399.87 186.38 407.80 185.78 416.92 C 182.71 431.26 176.78 444.77 174.40 459.29 C 173.88 465.12 169.52 470.08 169.99 476.01 C 193.87 474.10 217.86 474.47 241.77 472.81 C 243.61 468.16 245.71 462.89 244.23 457.92 C 243.48 444.96 243.18 431.95 242.05 418.99 C 242.65 412.49 238.16 407.28 234.06 402.95 C 225.49 395.17 212.88 396.98 202.33 397.40 M 297.32 409.40 C 290.11 409.78 284.40 414.28 278.16 417.24 C 277.28 433.14 279.17 449.18 277.08 465.00 C 276.72 470.44 275.91 477.37 281.28 480.69 C 289.93 483.57 299.33 483.02 307.98 486.09 C 315.07 488.94 322.13 492.08 328.23 496.78 C 330.85 499.00 333.06 502.59 336.75 502.97 C 343.45 484.19 342.65 463.93 341.42 444.34 C 340.24 436.62 341.95 427.28 335.79 421.21 C 326.38 410.53 310.92 407.38 297.32 409.40 M 390.35 463.34 C 386.35 465.24 383.69 468.80 383.38 473.28 C 383.25 485.38 381.27 497.36 379.33 509.29 C 375.40 536.04 370.78 562.89 370.93 590.01 C 369.66 598.63 369.42 608.75 375.20 615.88 C 378.35 616.66 381.53 614.74 383.02 612.02 C 387.34 605.44 393.66 600.59 398.24 594.24 C 414.55 566.21 422.87 532.46 415.52 500.34 C 413.40 490.73 412.43 480.49 406.95 472.03 C 403.14 466.67 397.79 460.44 390.35 463.34 M 451.04 506.99 C 451.20 530.02 451.74 553.82 443.61 575.78 C 440.11 584.21 437.43 592.98 433.03 601.01 C 429.69 609.23 423.36 615.81 420.05 624.00 C 421.59 630.76 423.73 637.39 426.19 643.88 C 433.99 644.65 441.34 640.70 447.77 636.76 C 460.13 629.17 468.40 615.62 470.44 601.34 C 474.51 582.21 476.46 562.32 473.22 542.93 C 472.21 535.12 472.28 526.72 468.36 519.68 C 465.59 512.77 459.34 505.44 451.04 506.99 M 197.34 508.51 C 182.10 510.77 166.33 515.94 155.74 527.75 C 143.89 542.03 133.16 557.23 122.38 572.34 C 114.69 584.62 105.13 595.78 98.98 608.99 C 93.82 619.04 89.31 629.40 84.63 639.68 C 80.13 648.16 77.32 657.49 76.06 666.99 C 75.51 682.57 76.40 698.13 77.59 713.66 C 78.86 726.44 79.09 739.44 82.05 752.00 C 85.61 763.97 87.62 776.33 89.47 788.66 C 92.19 803.19 96.18 817.47 98.92 831.99 C 99.03 851.88 104.63 871.09 107.44 890.67 C 113.81 923.54 116.80 956.97 121.79 990.07 C 128.08 1039.50 133.80 1089.14 134.01 1139.00 C 134.53 1156.34 132.09 1173.56 133.04 1190.93 C 222.63 1191.11 312.23 1190.91 401.82 1191.04 C 400.15 1186.90 401.34 1182.25 400.98 1178.00 C 401.10 1151.33 400.85 1124.66 401.09 1097.99 C 403.22 1081.18 401.00 1064.17 402.47 1047.33 C 403.92 1034.92 401.88 1022.35 403.90 1010.00 C 404.33 1000.66 403.31 991.25 404.89 982.00 C 405.01 956.13 408.93 930.48 410.68 904.72 C 412.74 879.39 413.53 853.72 419.98 828.99 C 424.15 811.43 432.69 795.07 444.20 781.20 C 451.60 771.34 457.95 760.74 463.98 750.02 C 471.73 732.07 481.88 715.22 488.86 696.92 C 491.83 685.16 493.97 673.21 496.50 661.35 C 499.02 651.77 497.75 641.71 497.95 631.94 C 497.50 631.99 496.60 632.07 496.16 632.12 C 491.55 642.90 483.73 652.30 474.68 659.66 C 464.77 665.92 455.16 673.12 443.93 676.89 C 422.41 685.19 394.42 671.56 390.89 648.00 C 385.47 648.03 380.51 651.35 375.01 651.01 C 367.71 650.41 359.63 649.19 354.19 643.80 C 348.83 639.23 345.94 632.66 341.81 627.11 C 336.50 625.79 333.84 631.70 329.98 633.98 C 320.21 641.45 307.06 639.10 295.71 638.35 C 278.48 637.65 260.36 629.57 251.88 613.93 C 247.14 617.11 245.05 623.07 239.97 625.97 C 231.95 632.71 222.02 639.07 210.99 636.99 C 202.90 637.26 196.21 632.27 189.15 629.13 C 184.02 642.19 163.24 642.27 157.06 629.94 C 153.75 624.92 154.99 618.17 158.55 613.61 C 169.59 595.19 182.60 578.02 197.64 562.70 C 200.66 557.43 206.38 554.79 210.24 550.26 C 217.71 545.85 226.49 544.72 234.98 544.03 C 262.34 543.70 290.42 546.05 316.93 537.76 C 317.47 534.60 314.75 532.23 312.81 530.19 C 308.75 525.65 303.55 522.26 297.87 520.16 C 282.20 513.98 265.18 513.76 248.72 511.36 C 231.64 509.94 214.44 508.00 197.34 508.51 M 322.25 573.45 C 307.65 576.01 292.82 576.99 278.15 579.14 C 276.71 585.28 276.05 592.53 280.21 597.81 C 286.36 605.02 296.97 607.31 305.99 605.13 C 309.67 605.71 313.04 603.98 315.30 601.28 C 320.21 593.87 323.52 585.01 323.94 576.06 C 323.39 575.32 323.51 572.97 322.25 573.45 M 230.32 581.34 C 221.52 586.94 210.85 594.12 208.96 605.02 C 212.89 604.86 217.34 604.18 219.99 600.98 C 224.57 594.89 228.60 588.19 231.09 580.98 L 230.32 581.34 Z" />
</g>
<g id="#ffd5ffff">
<path fill="#ffd5ff" opacity="1.00" d=" M 202.33 397.40 C 212.88 396.98 225.49 395.17 234.06 402.95 C 238.16 407.28 242.65 412.49 242.05 418.99 C 243.18 431.95 243.48 444.96 244.23 457.92 C 245.71 462.89 243.61 468.16 241.77 472.81 C 217.86 474.47 193.87 474.10 169.99 476.01 C 169.52 470.08 173.88 465.12 174.40 459.29 C 176.78 444.77 182.71 431.26 185.78 416.92 C 186.38 407.80 193.76 399.87 202.33 397.40 Z" />
<path fill="#ffd5ff" opacity="1.00" d=" M 297.32 409.40 C 310.92 407.38 326.38 410.53 335.79 421.21 C 341.95 427.28 340.24 436.62 341.42 444.34 C 342.65 463.93 343.45 484.19 336.75 502.97 C 333.06 502.59 330.85 499.00 328.23 496.78 C 322.13 492.08 315.07 488.94 307.98 486.09 C 299.33 483.02 289.93 483.57 281.28 480.69 C 275.91 477.37 276.72 470.44 277.08 465.00 C 279.17 449.18 277.28 433.14 278.16 417.24 C 284.40 414.28 290.11 409.78 297.32 409.40 Z" />
<path fill="#ffd5ff" opacity="1.00" d=" M 390.35 463.34 C 397.79 460.44 403.14 466.67 406.95 472.03 C 412.43 480.49 413.40 490.73 415.52 500.34 C 422.87 532.46 414.55 566.21 398.24 594.24 C 393.66 600.59 387.34 605.44 383.02 612.02 C 381.53 614.74 378.35 616.66 375.20 615.88 C 369.42 608.75 369.66 598.63 370.93 590.01 C 370.78 562.89 375.40 536.04 379.33 509.29 C 381.27 497.36 383.25 485.38 383.38 473.28 C 383.69 468.80 386.35 465.24 390.35 463.34 Z" />
<path fill="#ffd5ff" opacity="1.00" d=" M 451.04 506.99 C 459.34 505.44 465.59 512.77 468.36 519.68 C 472.28 526.72 472.21 535.12 473.22 542.93 C 476.46 562.32 474.51 582.21 470.44 601.34 C 468.40 615.62 460.13 629.17 447.77 636.76 C 441.34 640.70 433.99 644.65 426.19 643.88 C 423.73 637.39 421.59 630.76 420.05 624.00 C 423.36 615.81 429.69 609.23 433.03 601.01 C 437.43 592.98 440.11 584.21 443.61 575.78 C 451.74 553.82 451.20 530.02 451.04 506.99 Z" />
<path fill="#ffd5ff" opacity="1.00" d=" M 197.34 508.51 C 214.44 508.00 231.64 509.94 248.72 511.36 C 265.18 513.76 282.20 513.98 297.87 520.16 C 303.55 522.26 308.75 525.65 312.81 530.19 C 314.75 532.23 317.47 534.60 316.93 537.76 C 290.42 546.05 262.34 543.70 234.98 544.03 C 226.49 544.72 217.71 545.85 210.24 550.26 C 206.38 554.79 200.66 557.43 197.64 562.70 C 182.60 578.02 169.59 595.19 158.55 613.61 C 154.99 618.17 153.75 624.92 157.06 629.94 C 163.24 642.27 184.02 642.19 189.15 629.13 C 196.21 632.27 202.90 637.26 210.99 636.99 C 222.02 639.07 231.95 632.71 239.97 625.97 C 245.05 623.07 247.14 617.11 251.88 613.93 C 260.36 629.57 278.48 637.65 295.71 638.35 C 307.06 639.10 320.21 641.45 329.98 633.98 C 333.84 631.70 336.50 625.79 341.81 627.11 C 345.94 632.66 348.83 639.23 354.19 643.80 C 359.63 649.19 367.71 650.41 375.01 651.01 C 380.51 651.35 385.47 648.03 390.89 648.00 C 394.42 671.56 422.41 685.19 443.93 676.89 C 455.16 673.12 464.77 665.92 474.68 659.66 C 483.73 652.30 491.55 642.90 496.16 632.12 C 496.60 632.07 497.50 631.99 497.95 631.94 C 497.75 641.71 499.02 651.77 496.50 661.35 C 493.97 673.21 491.83 685.16 488.86 696.92 C 481.88 715.22 471.73 732.07 463.98 750.02 C 457.95 760.74 451.60 771.34 444.20 781.20 C 432.69 795.07 424.15 811.43 419.98 828.99 C 413.53 853.72 412.74 879.39 410.68 904.72 C 408.93 930.48 405.01 956.13 404.89 982.00 C 403.31 991.25 404.33 1000.66 403.90 1010.00 C 401.88 1022.35 403.92 1034.92 402.47 1047.33 C 401.00 1064.17 403.22 1081.18 401.09 1097.99 C 400.85 1124.66 401.10 1151.33 400.98 1178.00 C 401.34 1182.25 400.15 1186.90 401.82 1191.04 C 312.23 1190.91 222.63 1191.11 133.04 1190.93 C 132.09 1173.56 134.53 1156.34 134.01 1139.00 C 133.80 1089.14 128.08 1039.50 121.79 990.07 C 116.80 956.97 113.81 923.54 107.44 890.67 C 104.63 871.09 99.03 851.88 98.92 831.99 C 96.18 817.47 92.19 803.19 89.47 788.66 C 87.62 776.33 85.61 763.97 82.05 752.00 C 79.09 739.44 78.86 726.44 77.59 713.66 C 76.40 698.13 75.51 682.57 76.06 666.99 C 77.32 657.49 80.13 648.16 84.63 639.68 C 89.31 629.40 93.82 619.04 98.98 608.99 C 105.13 595.78 114.69 584.62 122.38 572.34 C 133.16 557.23 143.89 542.03 155.74 527.75 C 166.33 515.94 182.10 510.77 197.34 508.51 Z" />
<path fill="#ffd5ff" opacity="1.00" d=" M 322.25 573.45 C 323.51 572.97 323.39 575.32 323.94 576.06 C 323.52 585.01 320.21 593.87 315.30 601.28 C 313.04 603.98 309.67 605.71 305.99 605.13 C 296.97 607.31 286.36 605.02 280.21 597.81 C 276.05 592.53 276.71 585.28 278.15 579.14 C 292.82 576.99 307.65 576.01 322.25 573.45 Z" />
<path fill="#ffd5ff" opacity="1.00" d=" M 230.32 581.34 L 231.09 580.98 C 228.60 588.19 224.57 594.89 219.99 600.98 C 217.34 604.18 212.89 604.86 208.96 605.02 C 210.85 594.12 221.52 586.94 230.32 581.34 Z" />
<path fill="#ffd5ff" opacity="1.00" d=" M 513.98 734.10 C 514.92 731.43 515.06 727.79 517.02 725.92 C 516.53 729.06 519.06 735.12 513.98 734.10 Z" />
</g>
</svg>
