<?xml version="1.0" encoding="UTF-8" ?>
<!DOCTYPE svg PUBLIC "-//W3C//DTD SVG 1.1//EN" "http://www.w3.org/Graphics/SVG/1.1/DTD/svg11.dtd">
<svg width="485pt" height="1085pt" viewBox="0 0 485 1085" version="1.1" xmlns="http://www.w3.org/2000/svg">
<g id="#231f20fc">
<path fill="#231f20" opacity="1.00" d=" M 109.00 36.99 C 118.95 28.70 133.76 32.51 142.83 40.17 C 147.93 44.14 149.34 50.63 151.78 56.27 C 159.77 70.90 160.99 87.89 163.94 104.00 C 166.86 124.87 167.66 145.98 168.95 166.99 C 171.13 209.67 169.92 253.54 183.31 294.70 C 186.44 304.82 195.10 311.50 202.26 318.72 C 205.73 322.08 213.68 322.83 215.62 317.51 C 223.81 308.44 224.95 295.53 226.94 284.00 C 233.83 230.47 237.15 176.43 247.42 123.37 C 252.58 99.24 257.47 74.15 271.11 53.15 C 280.35 39.02 301.04 31.90 316.02 40.97 C 322.28 43.76 325.33 50.33 330.59 54.40 C 336.88 68.01 340.53 82.95 340.21 97.99 C 341.58 116.62 342.09 135.32 341.99 154.01 C 340.57 179.66 339.46 205.33 338.98 231.01 C 336.77 262.00 338.20 293.16 335.07 324.12 C 337.27 323.60 338.95 321.99 340.73 320.71 C 355.73 307.61 380.14 305.61 396.29 317.71 C 405.41 326.29 408.99 339.06 410.79 351.10 C 413.15 363.35 409.68 375.65 409.14 387.92 C 418.40 388.53 428.40 386.44 436.96 391.03 C 442.62 393.45 446.69 398.44 452.51 400.51 C 461.21 416.96 464.93 435.76 464.41 454.29 C 463.67 483.06 456.36 511.33 446.12 538.10 C 444.62 540.91 446.23 545.56 442.47 546.55 C 440.04 552.78 437.69 559.05 435.41 565.34 C 432.44 576.70 431.73 588.52 428.93 599.93 C 425.43 615.14 421.56 630.17 419.48 645.59 C 416.89 655.40 413.19 664.86 410.60 674.67 C 405.36 689.67 402.84 705.57 396.10 720.04 C 387.35 739.43 384.14 760.58 379.21 781.11 C 375.75 796.89 375.75 813.08 374.24 829.10 C 370.79 877.39 365.36 925.63 365.26 974.07 C 364.06 986.68 363.77 999.33 364.02 1012.00 C 363.51 1036.34 361.61 1060.63 362.00 1085.00 L 325.95 1085.00 C 327.16 1053.68 328.65 1022.37 327.99 990.99 C 329.47 963.88 328.89 936.67 331.41 909.60 C 332.58 877.64 336.86 845.89 340.23 814.11 C 342.51 799.85 342.39 785.40 344.21 771.11 C 346.06 753.98 351.78 737.61 354.73 720.71 C 363.80 701.79 369.64 681.59 376.89 661.96 C 380.89 649.61 386.19 637.56 389.06 624.90 C 388.63 625.02 387.76 625.26 387.33 625.38 C 374.51 635.48 361.10 645.82 345.03 650.03 C 335.99 653.17 326.42 649.25 319.14 643.89 C 309.08 636.27 308.13 622.54 308.12 611.01 C 309.54 594.38 313.66 578.19 316.96 561.89 C 312.86 562.96 309.63 565.95 306.01 568.02 C 297.42 573.40 287.85 577.78 277.60 578.46 C 265.02 581.38 251.06 575.71 244.21 564.79 C 235.79 552.09 235.69 535.90 237.34 521.29 C 239.85 507.06 244.07 492.89 251.34 480.33 C 252.15 479.09 252.07 477.58 251.92 476.19 C 244.61 473.66 236.72 476.01 229.38 477.41 C 215.98 480.31 207.50 492.10 197.28 500.26 C 185.25 515.14 176.01 532.71 160.54 544.52 C 158.63 551.52 152.65 555.39 146.66 558.71 C 137.49 560.59 126.54 554.95 124.60 545.35 C 123.12 538.02 127.62 531.41 131.98 525.98 C 145.95 508.94 158.54 490.76 173.84 474.83 C 181.88 467.21 187.70 456.96 198.05 452.06 C 218.25 440.63 242.19 438.92 264.90 440.22 C 269.81 440.75 274.83 441.49 279.78 440.83 C 281.39 440.04 281.28 437.93 280.38 436.65 C 278.59 433.16 275.30 430.71 271.69 429.35 C 237.27 420.10 202.56 407.52 166.36 410.40 C 158.88 410.89 153.09 416.19 147.19 420.18 C 134.71 429.20 124.88 441.22 113.75 451.74 C 98.41 468.15 83.57 485.06 69.97 502.96 C 65.36 509.70 61.21 516.76 56.39 523.37 C 46.69 535.50 46.39 552.14 47.20 566.91 C 48.85 578.81 49.56 591.17 54.57 602.28 C 58.08 609.78 57.53 618.29 59.85 626.11 C 61.46 630.77 63.97 635.11 64.94 640.01 C 68.87 655.67 74.36 670.89 79.87 686.05 C 87.72 712.32 93.49 739.14 100.43 765.65 C 103.05 773.82 103.61 782.49 104.10 791.01 C 105.49 809.33 107.13 827.63 107.99 845.99 C 108.02 890.99 107.99 936.00 107.99 981.01 C 109.79 1015.63 110.08 1050.61 105.16 1085.00 L 73.12 1085.00 C 75.33 1079.30 73.30 1072.88 74.01 1066.99 C 76.19 1045.36 74.08 1023.63 73.08 1002.01 C 73.45 985.24 71.36 968.60 70.30 951.91 C 70.49 944.73 72.73 937.58 71.38 930.41 C 70.64 926.26 71.95 922.14 71.99 918.00 C 72.44 911.84 70.11 905.81 71.66 899.69 C 74.56 881.56 71.77 863.22 72.94 845.01 C 68.76 820.37 70.08 795.06 64.43 770.63 C 59.84 749.29 54.76 728.05 49.07 706.98 C 48.02 700.61 43.64 695.69 40.98 690.01 C 37.09 682.57 36.77 673.96 35.04 665.93 C 29.90 654.65 27.78 642.41 25.89 630.26 C 24.73 620.66 20.33 611.88 17.37 602.78 C 15.06 592.99 14.32 582.94 13.08 572.98 C 10.30 556.56 13.02 539.91 15.66 523.67 C 17.26 516.41 23.62 511.90 25.97 504.98 C 28.08 499.51 34.34 497.06 36.52 491.63 C 38.62 485.59 43.17 480.91 46.89 475.85 C 56.38 464.05 66.95 453.10 75.59 440.64 C 76.09 439.44 76.59 438.21 76.77 436.93 C 72.38 397.08 69.49 357.07 68.22 317.00 C 69.79 297.03 68.51 277.00 69.15 257.00 C 70.09 246.69 71.26 236.37 71.02 226.00 C 70.61 201.41 73.60 176.95 74.60 152.40 C 75.75 124.72 79.32 96.91 87.34 70.33 C 91.20 57.64 96.79 43.66 109.00 36.99 M 298.25 76.16 C 295.07 83.41 291.86 90.67 289.26 98.16 C 288.31 105.34 287.00 112.53 284.37 119.31 C 281.42 129.98 280.37 141.05 279.09 152.01 C 276.12 177.45 271.83 202.72 268.19 228.07 C 267.66 237.47 267.34 246.91 266.35 256.29 C 265.05 268.59 260.91 280.36 259.44 292.64 C 256.78 305.89 257.57 320.67 248.97 331.95 C 241.43 342.13 232.73 354.64 219.01 356.00 C 211.09 355.74 202.70 357.31 195.28 353.66 C 181.86 346.93 169.60 337.41 161.07 324.94 C 153.93 313.54 146.66 301.57 145.05 287.93 C 140.56 268.93 137.36 249.54 136.89 230.00 C 134.76 215.64 137.02 201.06 135.49 186.67 C 134.95 177.88 134.07 169.13 133.44 160.35 C 128.81 133.64 129.71 106.25 124.35 79.67 C 123.86 78.70 123.47 77.14 122.18 77.06 C 120.61 81.78 119.04 86.50 117.34 91.18 C 107.57 135.66 108.36 181.45 106.41 226.65 C 104.98 241.38 107.29 256.32 105.09 271.00 C 104.81 277.99 105.09 285.00 105.02 292.01 C 103.00 314.58 104.42 337.34 103.98 360.01 C 105.31 376.66 105.08 393.43 107.16 410.05 C 120.30 400.21 131.13 387.40 146.07 380.11 C 159.60 371.85 175.93 373.26 190.99 371.02 C 206.68 372.91 222.14 376.43 237.83 378.34 C 255.70 384.14 272.62 393.20 290.73 397.94 C 292.11 392.38 295.53 387.56 296.97 382.00 C 298.87 376.84 297.64 371.31 298.08 365.99 C 299.42 354.37 300.40 342.71 300.08 330.99 C 302.23 316.74 299.71 302.23 301.91 288.00 C 302.47 275.01 301.07 261.92 302.98 249.01 C 303.26 220.97 301.60 192.69 306.93 165.00 C 306.91 136.84 308.54 108.38 302.51 80.66 C 305.04 74.90 300.77 75.96 298.25 76.16 M 370.34 345.36 C 365.77 348.86 360.18 350.96 356.21 355.22 C 349.89 361.89 342.84 367.90 337.27 375.25 C 331.98 381.98 332.06 391.69 325.73 397.74 C 320.48 402.71 320.63 410.59 317.55 416.75 C 313.39 422.88 318.89 428.59 320.67 434.28 C 322.69 444.48 319.48 455.09 313.30 463.30 C 308.06 468.75 300.48 470.49 294.07 474.05 C 286.39 488.07 280.33 502.91 275.01 517.96 C 273.88 526.17 268.71 534.62 272.17 542.94 C 279.35 543.24 286.12 539.90 291.75 535.73 C 301.37 527.72 306.01 515.77 312.35 505.32 C 324.16 485.88 339.79 468.61 348.36 447.31 C 360.36 424.75 370.42 400.98 375.85 375.94 C 376.54 366.70 375.81 357.47 374.62 348.31 C 374.07 346.43 372.60 343.81 370.34 345.36 M 422.19 421.11 C 416.03 429.33 407.31 435.43 402.84 444.90 C 392.94 462.79 384.90 481.61 376.06 500.02 C 367.91 518.24 361.88 537.28 355.14 556.04 C 352.35 574.90 343.39 592.80 344.04 612.12 C 356.11 608.13 365.24 598.80 373.66 589.71 C 380.07 580.80 387.83 572.86 393.36 563.33 C 408.76 540.00 418.51 513.36 424.18 486.08 C 431.07 467.24 432.40 446.77 428.85 427.09 C 427.66 424.36 425.58 420.92 422.19 421.11 Z" />
</g>
<g id="#ffd5ffff">
<path fill="#ffd5ff" opacity="1.00" d=" M 298.25 76.16 C 300.77 75.96 305.04 74.90 302.51 80.66 C 308.54 108.38 306.91 136.84 306.93 165.00 C 301.60 192.69 303.26 220.97 302.98 249.01 C 301.07 261.92 302.47 275.01 301.91 288.00 C 299.71 302.23 302.23 316.74 300.08 330.99 C 300.40 342.71 299.42 354.37 298.08 365.99 C 297.64 371.31 298.87 376.84 296.97 382.00 C 295.53 387.56 292.11 392.38 290.73 397.94 C 272.62 393.20 255.70 384.14 237.83 378.34 C 222.14 376.43 206.68 372.91 190.99 371.02 C 175.93 373.26 159.60 371.85 146.07 380.11 C 131.13 387.40 120.30 400.21 107.16 410.05 C 105.08 393.43 105.31 376.66 103.98 360.01 C 104.42 337.34 103.00 314.58 105.02 292.01 C 105.09 285.00 104.81 277.99 105.09 271.00 C 107.29 256.32 104.98 241.38 106.41 226.65 C 108.36 181.45 107.57 135.66 117.34 91.18 C 119.04 86.50 120.61 81.78 122.18 77.06 C 123.47 77.14 123.86 78.70 124.35 79.67 C 129.71 106.25 128.81 133.64 133.44 160.35 C 134.07 169.13 134.95 177.88 135.49 186.67 C 137.02 201.06 134.76 215.64 136.89 230.00 C 137.36 249.54 140.56 268.93 145.05 287.93 C 146.66 301.57 153.93 313.54 161.07 324.94 C 169.60 337.41 181.86 346.93 195.28 353.66 C 202.70 357.31 211.09 355.74 219.01 356.00 C 232.73 354.64 241.43 342.13 248.97 331.95 C 257.57 320.67 256.78 305.89 259.44 292.64 C 260.91 280.36 265.05 268.59 266.35 256.29 C 267.34 246.91 267.66 237.47 268.19 228.07 C 271.83 202.72 276.12 177.45 279.09 152.01 C 280.37 141.05 281.42 129.98 284.37 119.31 C 287.00 112.53 288.31 105.34 289.26 98.16 C 291.86 90.67 295.07 83.41 298.25 76.16 Z" />
<path fill="#ffd5ff" opacity="1.00" d=" M 370.34 345.36 C 372.60 343.81 374.07 346.43 374.62 348.31 C 375.81 357.47 376.54 366.70 375.85 375.94 C 370.42 400.98 360.36 424.75 348.36 447.31 C 339.79 468.61 324.16 485.88 312.35 505.32 C 306.01 515.77 301.37 527.72 291.75 535.73 C 286.12 539.90 279.35 543.24 272.17 542.94 C 268.71 534.62 273.88 526.17 275.01 517.96 C 280.33 502.91 286.39 488.07 294.07 474.05 C 300.48 470.49 308.06 468.75 313.30 463.30 C 319.48 455.09 322.69 444.48 320.67 434.28 C 318.89 428.59 313.39 422.88 317.55 416.75 C 320.63 410.59 320.48 402.71 325.73 397.74 C 332.06 391.69 331.98 381.98 337.27 375.25 C 342.84 367.90 349.89 361.89 356.21 355.22 C 360.18 350.96 365.77 348.86 370.34 345.36 Z" />
<path fill="#ffd5ff" opacity="1.00" d=" M 166.36 410.40 C 202.56 407.52 237.27 420.10 271.69 429.35 C 275.30 430.71 278.59 433.16 280.38 436.65 C 281.28 437.93 281.39 440.04 279.78 440.83 C 274.83 441.49 269.81 440.75 264.90 440.22 C 242.19 438.92 218.25 440.63 198.05 452.06 C 187.70 456.96 181.88 467.21 173.84 474.83 C 158.54 490.76 145.95 508.94 131.98 525.98 C 127.62 531.41 123.12 538.02 124.60 545.35 C 126.54 554.95 137.49 560.59 146.66 558.71 C 152.65 555.39 158.63 551.52 160.54 544.52 C 176.01 532.71 185.25 515.14 197.28 500.26 C 207.50 492.10 215.98 480.31 229.38 477.41 C 236.72 476.01 244.61 473.66 251.92 476.19 C 252.07 477.58 252.15 479.09 251.34 480.33 C 244.07 492.89 239.85 507.06 237.34 521.29 C 235.69 535.90 235.79 552.09 244.21 564.79 C 251.06 575.71 265.02 581.38 277.60 578.46 C 287.85 577.78 297.42 573.40 306.01 568.02 C 309.63 565.95 312.86 562.96 316.96 561.89 C 313.66 578.19 309.54 594.38 308.12 611.01 C 308.13 622.54 309.08 636.27 319.14 643.89 C 326.42 649.25 335.99 653.17 345.03 650.03 C 361.10 645.82 374.51 635.48 387.33 625.38 C 387.76 625.26 388.63 625.02 389.06 624.90 C 386.19 637.56 380.89 649.61 376.89 661.96 C 369.64 681.59 363.80 701.79 354.73 720.71 C 351.78 737.61 346.06 753.98 344.21 771.11 C 342.39 785.40 342.51 799.85 340.23 814.11 C 336.86 845.89 332.58 877.64 331.41 909.60 C 328.89 936.67 329.47 963.88 327.99 990.99 C 328.65 1022.37 327.16 1053.68 325.95 1085.00 L 105.16 1085.00 C 110.08 1050.61 109.79 1015.63 107.99 981.01 C 107.99 936.00 108.02 890.99 107.99 845.99 C 107.13 827.63 105.49 809.33 104.10 791.01 C 103.61 782.49 103.05 773.82 100.43 765.65 C 93.49 739.14 87.72 712.32 79.87 686.05 C 74.36 670.89 68.87 655.67 64.94 640.01 C 63.97 635.11 61.46 630.77 59.85 626.11 C 57.53 618.29 58.08 609.78 54.57 602.28 C 49.56 591.17 48.85 578.81 47.20 566.91 C 46.39 552.14 46.69 535.50 56.39 523.37 C 61.21 516.76 65.36 509.70 69.97 502.96 C 83.57 485.06 98.41 468.15 113.75 451.74 C 124.88 441.22 134.71 429.20 147.19 420.18 C 153.09 416.19 158.88 410.89 166.36 410.40 Z" />
<path fill="#ffd5ff" opacity="1.00" d=" M 422.19 421.11 C 425.58 420.92 427.66 424.36 428.85 427.09 C 432.40 446.77 431.07 467.24 424.18 486.08 C 418.51 513.36 408.76 540.00 393.36 563.33 C 387.83 572.86 380.07 580.80 373.66 589.71 C 365.24 598.80 356.11 608.13 344.04 612.12 C 343.39 592.80 352.35 574.90 355.14 556.04 C 361.88 537.28 367.91 518.24 376.06 500.02 C 384.90 481.61 392.94 462.79 402.84 444.90 C 407.31 435.43 416.03 429.33 422.19 421.11 Z" />
</g>
</svg>
