<?xml version="1.0" encoding="UTF-8" ?>
<!DOCTYPE svg PUBLIC "-//W3C//DTD SVG 1.1//EN" "http://www.w3.org/Graphics/SVG/1.1/DTD/svg11.dtd">
<svg width="539pt" height="513pt" viewBox="0 0 539 513" version="1.1" xmlns="http://www.w3.org/2000/svg">
<g id="#ffffffff">
</g>
<g id="#fdd4feff">
<path fill="#fdd4fe" opacity="1.00" d=" M 269.15 63.99 C 270.04 61.85 274.15 62.64 275.99 63.50 C 273.81 64.32 271.54 64.48 269.15 63.99 Z" />
<path fill="#fdd4fe" opacity="1.00" d=" M 283.75 63.25 C 286.20 63.98 292.05 61.43 293.02 64.05 C 289.92 64.03 286.80 63.67 283.75 63.25 Z" />
<path fill="#fdd4fe" opacity="1.00" d=" M 150.25 110.26 C 151.30 109.30 152.56 108.62 153.82 107.97 C 154.02 108.23 154.42 108.74 154.61 108.99 C 164.54 123.73 178.90 135.10 194.36 143.60 C 220.76 157.81 249.30 167.41 276.03 180.93 C 300.06 191.88 321.94 207.03 342.01 224.11 C 343.03 225.62 343.74 228.09 346.00 227.90 C 348.36 229.84 350.54 231.99 352.86 234.01 C 358.32 239.93 363.96 245.72 369.91 251.16 C 372.02 253.64 374.40 255.86 376.83 258.04 C 379.73 261.19 382.64 264.39 385.97 267.11 C 391.74 273.78 396.97 281.58 395.01 291.01 C 392.06 290.42 388.95 290.18 386.31 288.66 C 367.43 277.05 349.34 264.01 332.56 249.56 C 329.08 248.57 328.16 244.43 324.87 243.18 C 321.53 241.77 319.91 238.17 317.21 235.94 C 315.61 234.11 313.88 232.40 312.06 230.79 C 309.65 228.16 306.97 224.66 303.00 224.94 C 301.47 234.28 310.84 238.95 316.89 243.97 C 318.88 246.04 320.27 249.05 323.12 250.02 C 339.14 264.96 357.04 277.79 375.79 289.07 C 381.82 295.59 390.85 298.50 396.77 305.21 C 402.45 311.22 394.86 318.77 391.80 323.92 C 373.92 316.83 358.78 303.90 341.81 295.07 C 331.89 287.97 321.69 281.35 311.86 274.17 C 307.56 270.43 302.55 267.76 299.21 262.93 C 297.61 261.11 295.89 259.41 294.07 257.80 C 292.01 252.37 283.14 257.80 286.22 262.66 C 309.22 278.21 330.48 296.19 354.00 311.01 C 365.86 319.48 379.45 325.20 391.01 334.11 C 391.91 335.76 393.21 337.17 394.90 338.02 C 393.04 348.88 382.62 359.09 371.00 357.01 C 362.04 357.80 356.42 349.88 350.60 344.48 C 332.14 329.76 312.36 316.87 293.90 302.12 C 286.38 296.97 280.27 288.90 270.98 286.95 C 270.15 292.65 275.81 296.14 279.34 299.61 C 299.56 316.39 321.99 330.15 342.93 345.95 C 346.26 348.58 347.92 353.75 352.13 355.01 C 359.42 358.36 357.07 367.12 352.95 372.04 C 351.17 372.80 349.74 374.19 349.07 376.02 C 341.78 379.76 333.20 377.90 325.88 375.18 C 301.36 364.91 280.81 347.96 259.67 332.25 C 245.10 320.73 228.63 311.90 212.94 301.98 C 212.05 308.86 218.50 313.15 221.61 318.36 C 230.18 331.93 240.31 344.86 246.01 360.00 C 248.84 367.18 244.37 374.48 239.62 379.58 C 235.48 381.22 230.48 383.35 226.27 380.76 C 224.81 378.01 223.20 375.37 220.97 373.18 C 219.67 371.10 217.92 369.37 216.06 367.80 C 208.31 359.65 200.38 351.65 192.15 343.98 C 184.36 335.65 177.19 326.71 168.01 319.85 C 163.17 316.21 160.83 310.60 156.62 306.41 C 145.88 288.33 145.75 266.06 135.13 247.91 C 132.02 242.21 127.01 237.86 124.11 232.05 C 120.81 226.90 115.18 223.50 111.32 218.69 C 110.32 217.60 109.40 216.38 107.92 215.94 C 103.67 212.79 99.47 209.90 96.05 205.81 C 94.95 204.36 94.24 202.05 92.08 202.00 C 89.62 200.05 86.78 198.68 84.12 197.02 C 97.48 162.87 121.70 133.13 150.25 110.26 Z" />
<path fill="#fdd4fe" opacity="1.00" d=" M 418.79 114.15 C 421.44 113.84 424.24 116.76 423.93 119.40 L 423.16 118.97 C 421.74 117.33 420.28 115.73 418.79 114.15 Z" />
<path fill="#fdd4fe" opacity="1.00" d=" M 427.96 122.32 C 434.34 124.44 438.36 132.00 443.82 136.27 C 443.79 136.71 443.73 137.60 443.70 138.05 L 443.11 138.10 C 438.51 132.59 433.30 127.60 427.90 122.90 L 427.96 122.32 Z" />
<path fill="#fdd4fe" opacity="1.00" d=" M 501.03 277.99 L 501.99 278.01 C 502.06 283.33 502.06 288.66 501.98 293.99 L 501.02 294.00 C 500.94 288.67 501.00 283.32 501.03 277.99 Z" />
<path fill="#fdd4fe" opacity="1.00" d=" M 441.00 436.65 C 442.06 435.28 443.28 434.05 444.61 432.94 C 445.85 434.88 442.96 437.83 441.00 436.65 Z" />
<path fill="#fdd4fe" opacity="1.00" d=" M 122.28 435.66 L 122.97 436.19 C 125.65 439.41 128.73 442.23 131.85 445.02 C 133.95 447.31 136.09 449.57 138.23 451.83 C 131.56 449.45 127.74 442.11 122.19 437.75 C 122.21 437.22 122.26 436.18 122.28 435.66 Z" />
<path fill="#fdd4fe" opacity="1.00" d=" M 421.94 455.61 C 423.04 454.29 424.27 453.09 425.58 451.97 C 426.88 453.92 423.89 456.86 421.94 455.61 Z" />
<path fill="#fdd4fe" opacity="1.00" d=" M 267.00 507.01 C 276.66 506.94 286.33 506.99 296.00 507.02 L 296.00 507.98 C 286.34 507.96 276.68 508.14 267.02 507.96 L 267.00 507.01 Z" />
</g>
<g id="#4b539aff">
<path fill="#4b539a" opacity="1.00" d=" M 275.99 63.50 C 278.52 62.87 281.11 62.79 283.75 63.25 C 286.80 63.67 289.92 64.03 293.02 64.05 C 338.68 67.58 383.56 84.63 418.79 114.15 C 420.28 115.73 421.74 117.33 423.16 118.97 C 420.63 117.97 418.65 116.14 416.56 114.47 C 378.95 83.63 330.00 68.26 281.63 68.42 C 236.47 68.68 191.40 82.67 154.61 108.99 C 154.42 108.74 154.02 108.23 153.82 107.97 C 161.63 100.56 171.85 95.73 181.08 90.12 C 208.10 75.13 238.67 67.46 269.15 63.99 C 271.54 64.48 273.81 64.32 275.99 63.50 Z" />
<path fill="#4b539a" opacity="1.00" d=" M 423.93 119.40 C 425.67 119.10 426.87 121.20 427.96 122.32 L 427.90 122.90 C 425.81 123.09 424.20 121.35 423.93 119.40 Z" />
<path fill="#4b539a" opacity="1.00" d=" M 443.11 138.10 L 443.70 138.05 C 444.82 139.14 446.92 140.36 446.59 142.14 C 444.68 141.74 442.89 140.21 443.11 138.10 Z" />
<path fill="#4b539a" opacity="1.00" d=" M 92.08 202.00 C 94.24 202.05 94.95 204.36 96.05 205.81 C 93.55 206.45 92.49 203.98 92.08 202.00 Z" />
<path fill="#4b539a" opacity="1.00" d=" M 107.92 215.94 C 109.40 216.38 110.32 217.60 111.32 218.69 C 115.18 223.50 120.81 226.90 124.11 232.05 C 117.41 228.36 112.20 222.15 107.92 215.94 Z" />
<path fill="#4b539a" opacity="1.00" d=" M 342.01 224.11 C 344.43 223.65 345.45 226.00 346.00 227.90 C 343.74 228.09 343.03 225.62 342.01 224.11 Z" />
<path fill="#4b539a" opacity="1.00" d=" M 312.06 230.79 C 313.88 232.40 315.61 234.11 317.21 235.94 C 314.53 235.78 312.23 233.47 312.06 230.79 Z" />
<path fill="#4b539a" opacity="1.00" d=" M 352.86 234.01 C 356.59 234.71 358.53 238.48 361.28 240.72 C 364.23 244.11 368.44 246.72 369.91 251.16 C 363.96 245.72 358.32 239.93 352.86 234.01 Z" />
<path fill="#4b539a" opacity="1.00" d=" M 316.89 243.97 C 320.12 244.40 321.72 247.45 323.12 250.02 C 320.27 249.05 318.88 246.04 316.89 243.97 Z" />
<path fill="#4b539a" opacity="1.00" d=" M 294.07 257.80 C 295.89 259.41 297.61 261.11 299.21 262.93 C 296.53 262.78 294.24 260.48 294.07 257.80 Z" />
<path fill="#4b539a" opacity="1.00" d=" M 376.83 258.04 C 381.13 259.10 384.10 263.38 385.97 267.11 C 382.64 264.39 379.73 261.19 376.83 258.04 Z" />
<path fill="#4b539a" opacity="1.00" d=" M 64.03 273.02 L 64.99 272.99 C 64.99 281.99 65.05 290.99 64.98 300.00 L 64.01 300.00 C 64.00 291.00 63.90 282.01 64.03 273.02 Z" />
<path fill="#4b539a" opacity="1.00" d=" M 168.01 319.85 C 177.19 326.71 184.36 335.65 192.15 343.98 C 185.00 341.55 181.97 333.25 176.26 328.74 C 173.82 325.55 168.58 324.23 168.01 319.85 Z" />
<path fill="#4b539a" opacity="1.00" d=" M 391.01 334.11 C 393.12 333.85 395.60 335.73 394.90 338.02 C 393.21 337.17 391.91 335.76 391.01 334.11 Z" />
<path fill="#4b539a" opacity="1.00" d=" M 342.93 345.95 C 347.41 347.03 349.38 351.74 352.13 355.01 C 347.92 353.75 346.26 348.58 342.93 345.95 Z" />
<path fill="#4b539a" opacity="1.00" d=" M 216.06 367.80 C 217.92 369.37 219.67 371.10 220.97 373.18 C 218.56 372.37 216.18 370.56 216.06 367.80 Z" />
<path fill="#4b539a" opacity="1.00" d=" M 349.07 376.02 C 349.74 374.19 351.17 372.80 352.95 372.04 C 353.21 374.28 351.28 376.16 349.07 376.02 Z" />
<path fill="#4b539a" opacity="1.00" d=" M 117.93 431.00 C 120.59 431.14 122.66 433.64 122.97 436.19 L 122.28 435.66 C 120.65 434.29 119.07 432.81 117.93 431.00 Z" />
<path fill="#4b539a" opacity="1.00" d=" M 425.58 451.97 C 429.78 446.08 435.05 440.76 441.00 436.65 C 436.67 442.16 431.41 448.04 425.58 451.97 Z" />
<path fill="#4b539a" opacity="1.00" d=" M 131.85 445.02 C 136.06 446.23 138.70 450.33 142.33 452.62 C 177.22 481.38 220.89 499.35 265.98 502.95 C 297.43 504.21 329.85 502.33 359.34 490.38 C 372.12 486.18 383.29 477.93 396.06 473.95 C 395.28 476.07 392.50 476.53 390.97 477.96 C 362.30 495.03 329.49 506.03 296.00 507.02 C 286.33 506.99 276.66 506.94 267.00 507.01 C 245.21 507.06 224.02 500.59 203.70 493.31 C 194.14 488.97 184.30 485.15 175.35 479.60 C 171.81 477.40 168.43 474.89 164.46 473.52 C 162.34 469.81 157.83 468.78 154.48 466.52 C 153.28 464.64 151.72 462.97 149.45 462.53 C 148.24 460.59 146.70 458.78 144.26 458.66 C 142.28 456.35 140.53 453.85 138.23 451.83 C 136.09 449.57 133.95 447.31 131.85 445.02 Z" />
</g>
<g id="#212162ff">
<path fill="#212162" opacity="1.00" d=" M 281.63 68.42 C 330.00 68.26 378.95 83.63 416.56 114.47 C 418.65 116.14 420.63 117.97 423.16 118.97 L 423.93 119.40 C 424.20 121.35 425.81 123.09 427.90 122.90 C 433.30 127.60 438.51 132.59 443.11 138.10 C 442.89 140.21 444.68 141.74 446.59 142.14 C 448.12 143.18 448.93 144.84 449.48 146.55 C 451.39 147.70 452.98 149.29 453.50 151.53 C 456.05 153.11 457.22 155.94 458.59 158.48 C 480.02 188.11 492.56 223.74 497.20 259.88 C 500.39 265.44 499.94 271.88 501.03 277.99 C 501.00 283.32 500.94 288.67 501.02 294.00 C 501.51 300.59 501.40 307.13 497.91 312.93 C 495.21 333.95 489.88 354.82 481.43 374.34 C 475.07 390.42 465.54 404.86 456.49 419.50 C 455.00 420.48 453.90 421.77 453.53 423.56 C 451.61 424.69 450.00 426.29 449.51 428.55 C 447.72 429.83 446.14 431.36 444.61 432.94 C 443.28 434.05 442.06 435.28 441.00 436.65 C 435.05 440.76 429.78 446.08 425.58 451.97 C 424.27 453.09 423.04 454.29 421.94 455.61 C 419.54 457.44 418.71 461.24 415.26 461.35 C 409.99 466.68 403.49 471.61 396.06 473.95 C 383.29 477.93 372.12 486.18 359.34 490.38 C 329.85 502.33 297.43 504.21 265.98 502.95 C 220.89 499.35 177.22 481.38 142.33 452.62 C 138.70 450.33 136.06 446.23 131.85 445.02 C 128.73 442.23 125.65 439.41 122.97 436.19 C 122.66 433.64 120.59 431.14 117.93 431.00 C 117.54 430.92 116.75 430.75 116.35 430.67 C 114.60 426.75 112.06 423.01 108.50 420.53 C 107.37 418.15 106.30 415.52 104.06 413.98 C 95.94 400.23 87.23 386.43 81.57 371.33 C 72.52 348.59 66.75 324.40 64.98 300.00 C 65.05 290.99 64.99 281.99 64.99 272.99 C 68.12 247.02 73.34 220.98 84.12 197.02 C 86.78 198.68 89.62 200.05 92.08 202.00 C 92.49 203.98 93.55 206.45 96.05 205.81 C 99.47 209.90 103.67 212.79 107.92 215.94 C 112.20 222.15 117.41 228.36 124.11 232.05 C 127.01 237.86 132.02 242.21 135.13 247.91 C 145.75 266.06 145.88 288.33 156.62 306.41 C 160.83 310.60 163.17 316.21 168.01 319.85 C 168.58 324.23 173.82 325.55 176.26 328.74 C 181.97 333.25 185.00 341.55 192.15 343.98 C 200.38 351.65 208.31 359.65 216.06 367.80 C 216.18 370.56 218.56 372.37 220.97 373.18 C 223.20 375.37 224.81 378.01 226.27 380.76 C 230.48 383.35 235.48 381.22 239.62 379.58 C 244.37 374.48 248.84 367.18 246.01 360.00 C 240.31 344.86 230.18 331.93 221.61 318.36 C 218.50 313.15 212.05 308.86 212.94 301.98 C 228.63 311.90 245.10 320.73 259.67 332.25 C 280.81 347.96 301.36 364.91 325.88 375.18 C 333.20 377.90 341.78 379.76 349.07 376.02 C 351.28 376.16 353.21 374.28 352.95 372.04 C 357.07 367.12 359.42 358.36 352.13 355.01 C 349.38 351.74 347.41 347.03 342.93 345.95 C 321.99 330.15 299.56 316.39 279.34 299.61 C 275.81 296.14 270.15 292.65 270.98 286.95 C 280.27 288.90 286.38 296.97 293.90 302.12 C 312.36 316.87 332.14 329.76 350.60 344.48 C 356.42 349.88 362.04 357.80 371.00 357.01 C 382.62 359.09 393.04 348.88 394.90 338.02 C 395.60 335.73 393.12 333.85 391.01 334.11 C 379.45 325.20 365.86 319.48 354.00 311.01 C 330.48 296.19 309.22 278.21 286.22 262.66 C 283.14 257.80 292.01 252.37 294.07 257.80 C 294.24 260.48 296.53 262.78 299.21 262.93 C 302.55 267.76 307.56 270.43 311.86 274.17 C 321.69 281.35 331.89 287.97 341.81 295.07 C 350.15 303.10 360.70 308.34 370.36 314.59 C 378.95 320.02 388.79 323.74 396.27 330.75 C 398.32 333.20 399.99 328.67 401.91 327.92 C 407.49 340.80 401.74 357.76 389.04 364.07 C 383.33 367.04 376.74 367.06 370.63 368.61 C 365.85 369.66 363.98 374.70 360.98 378.00 C 355.46 386.82 344.18 390.21 334.29 388.73 C 310.19 385.15 289.57 370.79 270.63 356.39 C 265.97 352.11 260.76 348.49 254.93 345.98 C 253.62 356.05 261.45 366.46 255.98 375.99 C 252.14 386.16 241.82 393.18 231.09 393.81 C 226.21 392.85 221.32 390.87 218.20 386.80 C 210.74 377.64 201.98 369.70 193.79 361.22 C 182.90 348.14 169.95 337.01 157.44 325.57 C 146.85 312.73 139.91 297.08 135.93 281.01 C 133.41 266.29 126.48 252.50 116.67 241.31 C 111.01 234.62 103.73 229.62 97.77 223.23 C 96.05 221.56 93.89 219.54 91.27 220.13 C 79.44 249.63 79.07 282.19 81.52 313.40 C 87.29 346.83 99.76 379.57 120.10 406.93 C 155.57 455.51 214.88 483.87 274.40 486.42 C 296.97 488.41 319.23 483.18 341.08 478.04 C 366.80 468.52 392.50 456.79 412.38 437.40 C 417.82 433.20 422.50 428.14 426.83 422.83 C 445.68 403.92 459.92 380.56 468.43 355.28 C 474.61 336.44 480.85 317.07 480.09 296.99 C 482.01 277.98 481.43 258.43 476.00 240.00 C 468.43 205.65 451.54 173.25 427.26 147.74 C 407.21 126.43 382.22 110.01 355.35 98.59 C 325.96 86.47 293.57 83.71 262.10 85.19 C 253.12 86.07 244.17 87.42 235.39 89.48 C 214.20 93.60 194.61 103.48 176.08 114.20 C 176.11 114.59 176.17 115.36 176.20 115.75 C 190.02 131.04 209.58 138.82 227.94 147.13 C 260.31 161.70 294.08 174.06 323.21 194.79 C 345.28 211.84 366.90 229.62 386.26 249.74 C 392.92 255.90 398.86 263.01 402.67 271.30 C 405.99 280.33 405.27 290.12 407.54 299.39 C 409.62 307.12 409.76 316.09 404.81 322.80 C 402.67 325.26 399.33 326.77 395.97 326.02 C 393.95 319.01 402.49 314.99 401.01 308.05 C 398.50 301.90 392.06 298.70 386.91 295.14 C 383.18 293.16 379.88 290.26 375.79 289.07 C 357.04 277.79 339.14 264.96 323.12 250.02 C 321.72 247.45 320.12 244.40 316.89 243.97 C 310.84 238.95 301.47 234.28 303.00 224.94 C 306.97 224.66 309.65 228.16 312.06 230.79 C 312.23 233.47 314.53 235.78 317.21 235.94 C 319.91 238.17 321.53 241.77 324.87 243.18 C 328.16 244.43 329.08 248.57 332.56 249.56 C 349.34 264.01 367.43 277.05 386.31 288.66 C 388.95 290.18 392.06 290.42 395.01 291.01 C 396.97 281.58 391.74 273.78 385.97 267.11 C 384.10 263.38 381.13 259.10 376.83 258.04 C 374.40 255.86 372.02 253.64 369.91 251.16 C 368.44 246.72 364.23 244.11 361.28 240.72 C 358.53 238.48 356.59 234.71 352.86 234.01 C 350.54 231.99 348.36 229.84 346.00 227.90 C 345.45 226.00 344.43 223.65 342.01 224.11 C 321.94 207.03 300.06 191.88 276.03 180.93 C 249.30 167.41 220.76 157.81 194.36 143.60 C 178.90 135.10 164.54 123.73 154.61 108.99 C 191.40 82.67 236.47 68.68 281.63 68.42 Z" />
</g>
</svg>
