<?xml version="1.0" encoding="UTF-8" ?>
<!DOCTYPE svg PUBLIC "-//W3C//DTD SVG 1.1//EN" "http://www.w3.org/Graphics/SVG/1.1/DTD/svg11.dtd">
<svg width="1000pt" height="667pt" viewBox="0 0 1000 667" version="1.1" xmlns="http://www.w3.org/2000/svg">
<g id="#fd9e82ff">
<path fill="#fd9e82" opacity="1.00" d=" M 0.00 0.00 L 0.50 0.00 C 0.37 0.07 0.12 0.22 0.00 0.29 L 0.00 0.00 Z" />
<path fill="#fd9e82" opacity="1.00" d=" M 525.15 33.99 C 527.76 33.03 531.51 33.88 532.06 37.01 C 532.49 45.25 531.53 53.47 531.49 61.69 C 531.30 61.99 530.92 62.61 530.73 62.91 C 530.74 75.57 529.27 88.01 529.12 100.69 C 537.43 102.82 545.24 106.56 553.58 108.62 C 558.28 110.16 562.79 112.26 567.55 113.69 C 575.82 116.31 585.30 118.39 593.40 114.10 C 594.50 125.24 598.42 135.85 602.54 146.18 C 602.01 150.97 600.80 155.73 598.89 160.17 C 597.81 160.70 596.91 161.99 595.61 161.41 C 595.10 160.01 596.03 158.58 595.69 157.15 C 594.19 156.35 592.24 157.37 591.99 159.03 C 591.08 161.74 593.70 163.92 593.58 166.60 C 593.52 168.88 593.40 171.15 593.39 173.43 C 589.24 180.98 584.06 187.97 577.66 193.76 C 576.63 194.41 576.02 195.45 575.87 196.65 C 574.15 195.84 572.79 197.62 571.39 198.30 C 562.23 204.54 549.99 206.58 539.59 202.34 C 534.33 200.59 530.03 197.05 525.76 193.65 C 516.98 184.78 511.22 173.37 507.77 161.47 C 501.16 161.55 495.77 156.21 494.28 150.04 C 491.93 143.02 493.83 134.83 499.53 129.98 C 500.59 130.19 501.69 130.28 502.79 130.39 C 503.08 131.95 503.42 133.49 503.81 135.03 C 502.36 137.14 499.61 138.32 499.15 141.06 C 497.55 146.09 499.89 153.66 505.93 154.12 C 505.43 149.04 504.65 143.99 504.54 138.88 C 506.32 135.99 508.06 133.07 509.88 130.21 C 517.64 128.92 525.16 126.49 532.91 125.15 C 541.20 124.87 548.44 129.62 556.27 131.55 C 561.78 131.23 563.98 123.28 559.36 120.14 C 559.17 122.30 559.43 124.56 558.72 126.64 C 557.77 128.17 555.61 128.34 554.01 128.01 C 547.86 126.76 542.40 122.96 536.00 122.84 C 525.30 121.93 515.48 127.40 504.97 128.21 C 499.20 128.56 496.27 122.60 494.38 118.09 C 494.34 121.97 494.46 125.91 493.21 129.64 C 482.24 133.25 471.29 136.87 460.67 141.41 C 438.54 150.55 416.26 159.33 394.18 168.55 C 391.07 169.46 388.05 170.70 385.17 172.17 C 373.08 176.41 361.31 181.56 349.19 185.73 C 346.20 184.91 347.61 181.15 345.35 179.61 C 343.85 178.22 341.72 176.50 339.59 177.55 C 336.96 178.81 335.32 181.41 333.29 183.41 C 334.57 185.46 336.42 187.09 338.12 188.80 C 334.66 188.71 331.20 188.71 327.74 188.52 L 327.78 187.86 C 329.81 187.38 331.87 187.09 333.95 186.86 C 331.43 183.16 328.09 180.00 326.19 175.90 C 324.08 170.94 322.15 165.56 323.27 160.10 C 324.48 154.55 327.28 149.34 331.32 145.33 C 340.70 136.11 351.81 128.63 364.06 123.80 C 363.81 123.50 363.31 122.90 363.07 122.60 C 372.06 120.34 381.21 118.60 390.44 117.63 C 414.27 114.62 438.19 112.30 461.99 109.00 C 465.11 108.37 468.91 108.59 471.19 105.98 C 471.38 100.42 474.74 95.77 478.51 91.98 C 478.34 86.75 478.57 81.25 481.93 76.92 C 483.45 72.84 488.37 71.96 492.20 72.62 C 495.01 69.73 499.60 68.04 503.26 70.42 C 501.72 79.93 498.19 89.20 498.11 98.89 C 498.57 99.24 499.48 99.95 499.94 100.30 C 500.29 90.67 503.01 81.33 505.10 71.97 C 506.09 67.39 511.65 62.95 516.17 65.79 C 518.31 66.93 517.89 70.12 519.95 71.04 C 521.08 68.53 520.80 65.65 521.24 62.97 C 521.47 55.28 522.28 47.65 522.92 39.99 C 523.40 37.93 523.20 35.36 525.15 33.99 M 518.97 72.40 C 518.71 74.77 521.74 72.52 520.92 71.17 C 520.43 71.48 519.46 72.09 518.97 72.40 Z" />
<path fill="#fd9e82" opacity="1.00" d=" M 525.33 197.89 C 531.74 202.61 538.06 208.03 546.08 209.79 C 556.32 212.56 567.28 209.39 575.70 203.31 C 576.00 203.43 576.60 203.68 576.90 203.81 C 577.58 206.70 577.85 209.69 578.43 212.61 C 578.83 216.77 579.64 220.88 580.26 225.02 C 579.07 232.03 573.49 237.03 569.83 242.79 C 569.71 243.07 569.46 243.62 569.33 243.89 C 562.01 247.96 553.34 250.13 545.03 248.22 C 540.96 247.66 537.42 245.49 533.62 244.11 C 532.89 243.07 532.11 242.08 531.32 241.11 C 527.55 236.76 523.33 232.45 521.41 226.92 C 520.95 222.14 522.21 217.43 522.81 212.72 C 523.80 207.80 524.34 202.81 525.33 197.89 Z" />
<path fill="#fd9e82" opacity="1.00" d=" M 661.00 392.79 C 670.84 392.10 680.57 390.18 690.00 387.29 C 688.48 409.10 684.65 430.66 681.47 452.27 C 679.76 463.51 677.52 474.69 676.02 485.96 C 675.29 498.22 675.41 510.56 673.63 522.75 C 665.96 527.12 660.15 534.12 652.33 538.25 C 649.24 540.03 645.59 539.63 642.25 540.41 C 641.14 541.44 641.53 542.99 641.75 544.29 C 638.67 545.44 639.54 550.08 637.08 552.08 C 635.21 553.58 632.58 554.73 630.20 554.10 C 628.79 542.21 631.01 530.16 630.87 518.19 C 629.96 518.70 629.04 519.18 628.11 519.63 C 625.09 520.09 618.70 521.88 618.90 516.91 C 622.58 513.86 625.84 510.21 627.66 505.73 C 630.84 498.19 635.09 490.43 642.37 486.15 C 644.96 484.41 647.97 483.37 650.47 481.48 C 651.25 472.35 652.13 463.17 651.53 454.00 C 650.67 437.96 648.95 421.99 646.97 406.06 C 646.58 401.58 646.29 397.07 646.48 392.57 C 651.28 393.34 656.18 393.58 661.00 392.79 Z" />
</g>
<g id="#ffffffff">
</g>
<g id="#231f20ff">
<path fill="#231f20" opacity="1.00" d=" M 531.49 61.69 C 537.93 58.85 545.22 58.49 552.12 59.43 C 567.55 61.65 582.11 67.81 595.60 75.44 C 601.55 78.65 607.26 82.74 614.00 84.00 C 615.51 90.20 610.88 95.90 607.07 100.34 C 610.33 112.42 609.01 125.29 605.73 137.24 C 605.07 139.41 604.45 141.59 603.72 143.73 C 603.33 144.55 602.94 145.36 602.54 146.18 C 598.42 135.85 594.50 125.24 593.40 114.10 C 593.34 113.51 593.22 112.34 593.16 111.75 C 593.28 111.39 593.52 110.67 593.64 110.31 C 592.03 109.75 590.57 110.89 589.03 111.18 C 582.20 112.95 574.93 112.78 568.06 111.32 C 568.35 111.44 568.91 111.68 569.20 111.81 C 568.78 112.28 567.96 113.22 567.55 113.69 C 562.79 112.26 558.28 110.16 553.58 108.62 C 545.24 106.56 537.43 102.82 529.12 100.69 C 529.27 88.01 530.74 75.57 530.73 62.91 C 530.92 62.61 531.30 61.99 531.49 61.69 Z" />
</g>
<g id="#eb8971ff">
<path fill="#eb8971" opacity="1.00" d=" M 503.26 70.42 C 503.72 70.80 504.64 71.58 505.10 71.97 C 503.01 81.33 500.29 90.67 499.94 100.30 C 499.48 99.95 498.57 99.24 498.11 98.89 C 498.19 89.20 501.72 79.93 503.26 70.42 Z" />
</g>
<g id="#824231ff">
<path fill="#824231" opacity="1.00" d=" M 518.97 72.40 C 519.46 72.09 520.43 71.48 520.92 71.17 C 521.74 72.52 518.71 74.77 518.97 72.40 Z" />
</g>
<g id="#fcac94ff">
<path fill="#fcac94" opacity="1.00" d=" M 589.03 111.18 C 590.57 110.89 592.03 109.75 593.64 110.31 C 593.52 110.67 593.28 111.39 593.16 111.75 C 585.74 116.01 576.87 114.43 569.20 111.81 C 568.91 111.68 568.35 111.44 568.06 111.32 C 574.93 112.78 582.20 112.95 589.03 111.18 Z" />
</g>
<g id="#2f1a19ff">
<path fill="#2f1a19" opacity="1.00" d=" M 569.20 111.81 C 576.87 114.43 585.74 116.01 593.16 111.75 C 593.22 112.34 593.34 113.51 593.40 114.10 C 585.30 118.39 575.82 116.31 567.55 113.69 C 567.96 113.22 568.78 112.28 569.20 111.81 Z" />
</g>
<g id="#e9856eff">
<path fill="#e9856e" opacity="1.00" d=" M 494.38 118.09 C 496.27 122.60 499.20 128.56 504.97 128.21 C 515.48 127.40 525.30 121.93 536.00 122.84 C 542.40 122.96 547.86 126.76 554.01 128.01 C 555.61 128.34 557.77 128.17 558.72 126.64 C 559.43 124.56 559.17 122.30 559.36 120.14 C 563.98 123.28 561.78 131.23 556.27 131.55 C 548.44 129.62 541.20 124.87 532.91 125.15 C 525.16 126.49 517.64 128.92 509.88 130.21 C 507.52 130.54 505.15 130.60 502.79 130.39 C 501.69 130.28 500.59 130.19 499.53 129.98 C 497.44 129.67 495.29 128.88 493.21 129.64 C 494.46 125.91 494.34 121.97 494.38 118.09 Z" />
</g>
<g id="#ea846eff">
<path fill="#ea846e" opacity="1.00" d=" M 353.10 125.34 C 356.40 124.35 359.75 123.54 363.07 122.60 C 363.31 122.90 363.81 123.50 364.06 123.80 C 351.81 128.63 340.70 136.11 331.32 145.33 C 327.28 149.34 324.48 154.55 323.27 160.10 C 322.15 165.56 324.08 170.94 326.19 175.90 C 328.09 180.00 331.43 183.16 333.95 186.86 C 331.87 187.09 329.81 187.38 327.78 187.86 C 322.35 186.40 317.37 182.51 314.70 177.49 C 313.59 175.02 313.18 172.32 312.29 169.78 C 310.50 163.62 312.97 157.43 314.59 151.54 C 316.48 147.66 318.87 144.02 321.84 140.89 C 325.22 136.73 330.24 134.54 334.67 131.73 C 340.76 129.49 346.85 127.15 353.10 125.34 Z" />
</g>
<g id="#976dafff">
<path fill="#976daf" opacity="1.00" d=" M 322.00 132.97 C 331.26 127.16 342.35 125.43 353.10 125.34 C 346.85 127.15 340.76 129.49 334.67 131.73 C 330.24 134.54 325.22 136.73 321.84 140.89 C 318.87 144.02 316.48 147.66 314.59 151.54 C 312.97 157.43 310.50 163.62 312.29 169.78 C 313.18 172.32 313.59 175.02 314.70 177.49 C 317.37 182.51 322.35 186.40 327.78 187.86 L 327.74 188.52 C 326.02 189.95 325.79 192.12 325.67 194.22 C 321.64 193.13 318.48 190.18 314.50 189.10 C 313.17 187.26 311.64 185.60 310.15 183.90 C 304.07 175.76 301.82 164.75 304.71 154.95 C 307.20 145.65 313.85 137.88 322.00 132.97 Z" />
<path fill="#976daf" opacity="1.00" d=" M 507.22 222.38 C 510.58 216.90 516.80 214.17 522.81 212.72 C 522.21 217.43 520.95 222.14 521.41 226.92 C 523.33 232.45 527.55 236.76 531.32 241.11 C 531.99 243.76 531.49 246.51 531.39 249.20 C 526.87 245.90 523.85 239.99 517.96 239.00 C 512.48 240.13 510.60 246.32 508.38 250.73 C 508.15 250.72 507.71 250.69 507.49 250.68 C 504.42 241.57 504.29 231.55 507.22 222.38 Z" />
<path fill="#976daf" opacity="1.00" d=" M 578.43 212.61 C 584.45 214.24 590.70 216.92 594.06 222.50 C 597.08 231.68 596.51 241.68 593.81 250.86 C 593.45 250.77 592.71 250.59 592.35 250.50 C 590.67 246.03 588.31 239.94 582.98 239.18 C 577.58 240.28 574.01 245.19 570.54 249.10 C 568.92 247.42 569.86 244.86 569.83 242.79 C 573.49 237.03 579.07 232.03 580.26 225.02 C 579.64 220.88 578.83 216.77 578.43 212.61 Z" />
<path fill="#976daf" opacity="1.00" d=" M 690.73 343.98 C 690.88 344.40 691.19 345.22 691.34 345.64 C 693.00 345.14 695.01 345.83 694.87 347.87 C 695.65 359.87 697.04 371.93 696.21 383.95 C 694.54 385.68 692.17 386.42 690.00 387.29 C 680.57 390.18 670.84 392.10 661.00 392.79 C 656.18 393.58 651.28 393.34 646.48 392.57 C 645.30 392.33 644.12 392.01 642.98 391.69 C 640.42 390.46 638.50 388.23 637.35 385.67 C 634.08 378.61 632.60 370.76 632.89 363.00 C 632.99 360.35 633.37 357.22 635.88 355.71 C 638.65 355.67 641.37 355.10 644.14 354.91 C 657.59 353.18 671.08 351.41 684.33 348.45 C 686.79 347.68 690.80 347.46 690.73 343.98 Z" />
</g>
<g id="#281e1dff">
<path fill="#281e1d" opacity="1.00" d=" M 502.79 130.39 C 505.15 130.60 507.52 130.54 509.88 130.21 C 508.06 133.07 506.32 135.99 504.54 138.88 C 504.28 137.59 504.00 136.32 503.81 135.03 C 503.42 133.49 503.08 131.95 502.79 130.39 Z" />
</g>
<g id="#df7361ff">
<path fill="#df7361" opacity="1.00" d=" M 503.81 135.03 C 504.00 136.32 504.28 137.59 504.54 138.88 C 504.65 143.99 505.43 149.04 505.93 154.12 C 499.89 153.66 497.55 146.09 499.15 141.06 C 499.61 138.32 502.36 137.14 503.81 135.03 Z" />
</g>
<g id="#fba389ff">
<path fill="#fba389" opacity="1.00" d=" M 605.73 137.24 C 608.74 137.84 610.67 140.46 611.93 143.05 C 614.14 148.17 613.37 154.06 611.10 159.03 C 608.71 164.82 602.68 169.32 596.20 168.25 C 595.11 169.89 594.33 171.71 593.39 173.43 C 593.40 171.15 593.52 168.88 593.58 166.60 C 593.70 163.92 591.08 161.74 591.99 159.03 C 592.24 157.37 594.19 156.35 595.69 157.15 C 596.03 158.58 595.10 160.01 595.61 161.41 C 596.91 161.99 597.81 160.70 598.89 160.17 C 601.04 162.33 603.86 159.02 605.71 157.69 C 608.16 153.49 609.05 146.26 603.72 143.73 C 604.45 141.59 605.07 139.41 605.73 137.24 Z" />
</g>
<g id="#e17564ff">
<path fill="#e17564" opacity="1.00" d=" M 602.54 146.18 C 602.94 145.36 603.33 144.55 603.72 143.73 C 609.05 146.26 608.16 153.49 605.71 157.69 C 603.86 159.02 601.04 162.33 598.89 160.17 C 600.80 155.73 602.01 150.97 602.54 146.18 Z" />
</g>
<g id="#724c89ff">
<path fill="#724c89" opacity="1.00" d=" M 385.17 172.17 C 388.05 170.70 391.07 169.46 394.18 168.55 C 420.23 185.78 444.89 205.05 469.09 224.77 C 470.31 223.99 471.48 222.97 472.97 222.76 C 477.27 221.49 480.36 226.69 484.62 225.65 C 491.50 221.87 499.65 222.61 507.22 222.38 C 504.29 231.55 504.42 241.57 507.49 250.68 C 507.71 250.69 508.15 250.72 508.38 250.73 C 510.60 246.32 512.48 240.13 517.96 239.00 C 523.85 239.99 526.87 245.90 531.39 249.20 C 531.41 318.81 531.38 388.43 531.40 458.04 C 531.68 461.75 530.07 465.34 531.38 468.98 C 531.23 478.37 531.51 487.76 531.37 497.15 C 530.99 502.81 531.80 508.51 531.18 514.17 C 524.88 514.87 518.51 514.09 512.20 513.70 C 498.90 512.88 485.74 510.09 473.27 505.40 C 467.39 501.84 460.46 497.89 458.40 490.86 C 458.16 446.39 457.54 401.93 457.74 357.47 C 459.55 355.37 460.03 352.57 460.99 350.05 C 465.00 336.93 469.86 324.10 473.89 311.00 C 469.11 314.70 464.46 318.66 458.77 320.93 C 458.70 323.37 458.73 325.85 458.07 328.23 C 457.93 325.81 458.00 323.39 458.13 320.98 C 454.60 315.91 449.79 311.90 445.49 307.51 C 427.88 290.74 409.72 274.55 391.53 258.41 C 365.82 235.34 339.47 212.97 314.50 189.10 C 318.48 190.18 321.64 193.13 325.67 194.22 C 328.58 195.41 331.62 196.90 334.88 196.41 C 338.29 195.93 341.72 195.55 345.16 195.27 C 355.04 193.99 364.30 189.83 372.81 184.80 C 377.67 181.48 382.89 177.84 385.17 172.17 Z" />
<path fill="#724c89" opacity="1.00" d=" M 594.06 222.50 C 602.70 223.53 611.10 225.93 619.35 228.65 C 626.83 231.37 634.45 234.20 640.75 239.22 C 654.51 249.81 664.57 264.55 671.69 280.24 C 680.72 300.56 687.36 321.99 690.73 343.98 C 690.80 347.46 686.79 347.68 684.33 348.45 C 671.08 351.41 657.59 353.18 644.14 354.91 C 639.16 345.19 636.66 334.46 633.43 324.09 C 633.65 334.65 635.21 345.17 635.88 355.71 C 633.37 357.22 632.99 360.35 632.89 363.00 C 632.60 370.76 634.08 378.61 637.35 385.67 C 638.50 388.23 640.42 390.46 642.98 391.69 C 642.94 423.17 642.55 454.66 642.37 486.15 C 635.09 490.43 630.84 498.19 627.66 505.73 C 625.50 505.44 623.70 506.99 621.70 507.51 C 604.91 512.82 587.10 514.70 569.55 514.26 C 569.00 508.46 569.59 502.63 569.36 496.82 C 569.30 412.52 569.25 328.20 569.33 243.89 C 569.46 243.62 569.71 243.07 569.83 242.79 C 569.86 244.86 568.92 247.42 570.54 249.10 L 571.22 249.62 C 575.28 248.10 579.32 245.73 583.84 246.15 C 587.09 246.73 589.05 250.12 592.35 250.50 C 592.71 250.59 593.45 250.77 593.81 250.86 C 596.51 241.68 597.08 231.68 594.06 222.50 M 583.34 425.25 C 583.73 425.68 583.73 425.68 583.34 425.25 Z" />
</g>
<g id="#976cafff">
<path fill="#976caf" opacity="1.00" d=" M 349.19 185.73 C 361.31 181.56 373.08 176.41 385.17 172.17 C 382.89 177.84 377.67 181.48 372.81 184.80 C 364.30 189.83 355.04 193.99 345.16 195.27 C 345.39 194.68 345.85 193.49 346.08 192.90 C 345.09 191.31 343.77 189.96 342.82 188.36 C 344.95 187.50 347.00 186.46 349.19 185.73 Z" />
</g>
<g id="#fca790ff">
<path fill="#fca790" opacity="1.00" d=" M 339.59 177.55 C 341.72 176.50 343.85 178.22 345.35 179.61 C 347.61 181.15 346.20 184.91 349.19 185.73 C 347.00 186.46 344.95 187.50 342.82 188.36 C 341.26 188.57 339.69 188.69 338.12 188.80 C 336.42 187.09 334.57 185.46 333.29 183.41 C 335.32 181.41 336.96 178.81 339.59 177.55 Z" />
</g>
<g id="#9f78b4ff">
<path fill="#9f78b4" opacity="1.00" d=" M 338.12 188.80 C 339.69 188.69 341.26 188.57 342.82 188.36 C 343.77 189.96 345.09 191.31 346.08 192.90 C 345.85 193.49 345.39 194.68 345.16 195.27 C 341.72 195.55 338.29 195.93 334.88 196.41 C 331.62 196.90 328.58 195.41 325.67 194.22 C 325.79 192.12 326.02 189.95 327.74 188.52 C 331.20 188.71 334.66 188.71 338.12 188.80 Z" />
</g>
<g id="#df7360ff">
<path fill="#df7360" opacity="1.00" d=" M 525.76 193.65 C 530.03 197.05 534.33 200.59 539.59 202.34 C 549.99 206.58 562.23 204.54 571.39 198.30 C 572.79 197.62 574.15 195.84 575.87 196.65 C 576.22 199.03 576.52 201.42 576.90 203.81 C 576.60 203.68 576.00 203.43 575.70 203.31 C 567.28 209.39 556.32 212.56 546.08 209.79 C 538.06 208.03 531.74 202.61 525.33 197.89 C 525.46 196.47 525.60 195.06 525.76 193.65 Z" />
</g>
<g id="#684180ff">
<path fill="#684180" opacity="1.00" d=" M 570.54 249.10 C 574.01 245.19 577.58 240.28 582.98 239.18 C 588.31 239.94 590.67 246.03 592.35 250.50 C 589.05 250.12 587.09 246.73 583.84 246.15 C 579.32 245.73 575.28 248.10 571.22 249.62 L 570.54 249.10 Z" />
</g>
<g id="#d2a472ff">
<path fill="#d2a472" opacity="1.00" d=" M 531.32 241.11 C 532.11 242.08 532.89 243.07 533.62 244.11 C 535.03 246.79 536.51 249.60 536.63 252.70 C 536.57 253.06 536.46 253.77 536.40 254.12 C 536.28 323.67 536.44 393.25 536.32 462.78 C 536.86 465.56 535.82 468.29 535.83 471.07 C 537.13 479.91 535.51 488.99 536.81 497.81 C 536.11 497.74 534.70 497.59 534.00 497.51 C 533.12 497.38 532.24 497.26 531.37 497.15 C 531.51 487.76 531.23 478.37 531.38 468.98 C 530.07 465.34 531.68 461.75 531.40 458.04 C 531.38 388.43 531.41 318.81 531.39 249.20 C 531.49 246.51 531.99 243.76 531.32 241.11 Z" />
</g>
<g id="#ffca84ff">
<path fill="#ffca84" opacity="1.00" d=" M 533.62 244.11 C 537.42 245.49 540.96 247.66 545.03 248.22 C 553.34 250.13 562.01 247.96 569.33 243.89 C 569.25 328.20 569.30 412.52 569.36 496.82 C 569.06 496.94 568.46 497.19 568.16 497.31 C 557.76 498.60 547.24 498.50 536.81 497.81 C 535.51 488.99 537.13 479.91 535.83 471.07 C 535.82 468.29 536.86 465.56 536.32 462.78 C 536.44 393.25 536.28 323.67 536.40 254.12 C 543.71 257.71 552.34 258.53 560.16 256.26 C 562.22 255.40 564.76 254.94 566.13 253.01 C 556.47 255.32 546.17 255.97 536.63 252.70 C 536.51 249.60 535.03 246.79 533.62 244.11 Z" />
</g>
<g id="#d29a5aff">
<path fill="#d29a5a" opacity="1.00" d=" M 536.40 254.12 C 536.46 253.77 536.57 253.06 536.63 252.70 C 546.17 255.97 556.47 255.32 566.13 253.01 C 564.76 254.94 562.22 255.40 560.16 256.26 C 552.34 258.53 543.71 257.71 536.40 254.12 Z" />
</g>
<g id="#56346fff">
<path fill="#56346f" opacity="1.00" d=" M 458.77 320.93 C 464.46 318.66 469.11 314.70 473.89 311.00 C 469.86 324.10 465.00 336.93 460.99 350.05 C 460.03 352.57 459.55 355.37 457.74 357.47 C 457.85 347.72 457.88 337.98 458.07 328.23 C 458.73 325.85 458.70 323.37 458.77 320.93 Z" />
</g>
<g id="#563470ff">
<path fill="#563470" opacity="1.00" d=" M 635.88 355.71 C 635.21 345.17 633.65 334.65 633.43 324.09 C 636.66 334.46 639.16 345.19 644.14 354.91 C 641.37 355.10 638.65 355.67 635.88 355.71 Z" />
</g>
<g id="#fefefeff">
</g>
<g id="#724c8aff">
<path fill="#724c8a" opacity="1.00" d=" M 583.34 425.25 C 583.73 425.68 583.73 425.68 583.34 425.25 Z" />
</g>
<g id="#292941ff">
<path fill="#292941" opacity="1.00" d=" M 531.37 497.15 C 532.24 497.26 533.12 497.38 534.00 497.51 C 533.57 497.71 532.71 498.11 532.27 498.32 C 531.95 500.07 532.06 501.87 532.31 503.64 C 539.35 505.88 546.80 504.72 554.04 505.05 C 558.95 505.33 563.86 504.78 568.65 503.68 C 568.89 501.54 568.66 499.39 568.16 497.31 C 568.46 497.19 569.06 496.94 569.36 496.82 C 569.59 502.63 569.00 508.46 569.55 514.26 C 587.10 514.70 604.91 512.82 621.70 507.51 C 623.70 506.99 625.50 505.44 627.66 505.73 C 625.84 510.21 622.58 513.86 618.90 516.91 C 618.70 521.88 625.09 520.09 628.11 519.63 C 627.91 568.75 628.29 617.89 627.90 667.00 L 563.06 667.00 L 563.84 666.58 C 560.49 629.34 557.90 592.00 554.85 554.71 C 552.05 554.73 549.25 554.73 546.46 554.74 C 543.56 592.16 540.55 629.58 537.65 667.00 L 473.26 667.00 C 473.23 613.13 473.21 559.27 473.27 505.40 C 485.74 510.09 498.90 512.88 512.20 513.70 C 518.51 514.09 524.88 514.87 531.18 514.17 C 531.80 508.51 530.99 502.81 531.37 497.15 Z" />
</g>
<g id="#1f2034ff">
<path fill="#1f2034" opacity="1.00" d=" M 532.27 498.32 C 532.71 498.11 533.57 497.71 534.00 497.51 C 534.70 497.59 536.11 497.74 536.81 497.81 C 547.24 498.50 557.76 498.60 568.16 497.31 C 568.66 499.39 568.89 501.54 568.65 503.68 C 563.86 504.78 558.95 505.33 554.04 505.05 C 546.80 504.72 539.35 505.88 532.31 503.64 C 532.06 501.87 531.95 500.07 532.27 498.32 Z" />
</g>
<g id="#eb846eff">
<path fill="#eb846e" opacity="1.00" d=" M 652.33 538.25 C 660.15 534.12 665.96 527.12 673.63 522.75 C 672.90 526.94 671.22 531.16 668.00 534.07 C 666.12 536.00 663.36 536.60 661.29 538.29 C 659.29 539.87 656.54 539.99 654.49 541.42 C 653.15 543.97 650.88 546.19 647.95 546.70 C 645.65 547.15 642.37 547.19 641.75 544.29 C 641.53 542.99 641.14 541.44 642.25 540.41 C 645.59 539.63 649.24 540.03 652.33 538.25 Z" />
</g>
</svg>
