<?xml version="1.0" encoding="UTF-8" ?>
<!DOCTYPE svg PUBLIC "-//W3C//DTD SVG 1.1//EN" "http://www.w3.org/Graphics/SVG/1.1/DTD/svg11.dtd">
<svg width="522pt" height="482pt" viewBox="0 0 522 482" version="1.1" xmlns="http://www.w3.org/2000/svg">
<g id="#ffffffff">
</g>
<g id="#fdd4feff">
<path fill="#fdd4fe" opacity="1.00" d=" M 243.35 20.45 C 295.19 13.68 348.36 28.84 391.65 57.36 C 392.81 57.89 393.22 58.82 392.89 60.13 C 378.40 50.66 363.25 41.99 346.95 36.04 C 321.32 25.62 293.31 23.65 266.00 21.98 C 240.06 22.31 214.51 28.48 190.27 37.40 C 189.46 35.76 191.80 35.41 192.68 34.64 C 194.84 33.91 195.58 31.65 197.26 30.32 C 209.51 26.58 222.04 22.51 235.02 23.00 C 237.99 23.06 240.63 21.45 243.35 20.45 Z" />
<path fill="#fdd4fe" opacity="1.00" d=" M 173.32 40.35 C 174.33 41.56 181.99 38.29 181.83 40.84 C 165.57 47.67 150.60 57.11 136.48 67.55 C 127.33 75.31 117.16 82.00 109.46 91.34 C 107.79 95.24 103.81 97.18 101.79 100.84 C 76.68 130.46 58.21 166.36 52.05 204.92 C 51.11 206.02 50.18 207.13 49.24 208.23 C 56.41 168.49 72.23 129.61 98.76 98.77 C 119.20 74.45 144.40 53.82 173.32 40.35 Z" />
<path fill="#fdd4fe" opacity="1.00" d=" M 401.96 66.01 C 407.69 67.75 413.58 71.25 415.73 77.21 L 416.13 77.99 C 413.88 78.31 412.58 77.03 411.84 75.06 C 411.31 73.15 409.83 71.70 407.93 71.15 C 405.86 69.91 403.93 68.45 401.95 67.08 L 401.96 66.01 Z" />
<path fill="#fdd4fe" opacity="1.00" d=" M 415.73 77.21 C 422.40 79.39 426.26 86.94 431.82 91.27 C 431.79 91.71 431.73 92.60 431.70 93.05 L 431.11 93.10 C 426.58 87.63 421.36 82.77 416.13 77.99 L 415.73 77.21 Z" />
<path fill="#fdd4fe" opacity="1.00" d=" M 317.33 162.35 C 329.53 155.83 344.90 151.79 358.01 157.97 C 372.43 163.50 384.87 172.90 397.76 181.17 C 405.61 188.79 415.93 193.80 426.99 194.05 C 445.69 195.23 464.61 197.36 483.26 195.36 L 483.92 195.16 C 486.68 215.61 490.38 236.32 488.15 256.99 C 487.74 277.40 482.52 297.32 476.85 316.80 L 476.28 316.64 C 460.68 315.08 444.73 316.35 429.01 316.08 C 419.49 315.41 416.79 325.69 410.29 330.27 C 408.89 333.98 405.44 335.95 402.92 338.81 C 400.13 341.41 397.35 344.03 394.83 346.91 C 380.57 361.55 357.51 360.22 338.82 359.91 C 342.04 350.69 350.69 344.04 352.35 334.16 C 353.64 331.87 354.47 328.63 352.21 326.85 C 350.75 317.28 341.07 312.78 333.30 308.97 C 334.19 304.72 336.01 299.82 333.03 295.98 C 330.78 288.04 320.92 289.89 314.69 288.27 C 299.92 288.26 285.48 291.90 270.89 293.81 C 256.98 295.91 242.98 297.39 229.01 298.99 C 215.15 300.72 201.17 299.54 187.26 300.30 C 166.44 299.81 145.59 299.82 124.77 300.30 C 121.70 300.11 118.74 299.23 115.93 298.03 C 115.26 296.19 113.82 294.77 112.01 294.05 C 108.73 289.57 109.94 283.74 112.12 279.03 C 113.82 278.15 115.25 276.79 115.93 274.97 C 119.31 273.53 122.88 272.50 126.61 272.51 C 155.15 269.61 183.51 265.27 212.02 262.12 C 224.55 260.56 237.23 260.05 249.63 257.57 C 254.11 256.29 258.67 254.27 261.82 250.75 C 262.65 242.83 254.13 238.19 248.20 234.85 C 216.04 219.77 184.09 204.23 151.99 189.01 C 144.58 185.80 138.28 180.90 132.96 174.92 C 133.01 169.47 134.69 164.26 136.09 159.06 C 150.42 157.71 163.84 163.70 177.28 167.56 C 206.74 176.41 235.30 188.15 265.08 195.98 C 269.01 197.06 273.23 197.21 276.87 199.23 C 275.45 211.94 274.69 225.34 281.10 236.93 C 283.34 245.92 286.60 254.58 291.53 262.48 C 296.23 264.95 301.61 268.55 307.00 266.01 C 313.39 265.01 317.33 259.38 319.89 253.96 C 326.27 240.69 328.30 225.82 329.25 211.27 C 332.74 210.26 336.30 209.32 339.94 208.96 C 340.19 214.89 339.95 220.84 339.79 226.79 C 339.14 232.85 338.04 239.26 339.67 245.26 C 339.26 258.89 349.89 270.24 361.79 275.31 C 368.54 278.06 375.72 280.33 383.11 279.99 C 382.29 274.90 376.24 274.25 372.10 273.37 C 365.83 271.97 360.03 268.86 354.98 264.93 C 354.18 263.18 352.80 261.78 351.02 261.04 C 342.43 250.04 345.75 235.43 346.69 222.69 C 348.56 216.22 348.10 209.38 345.74 203.13 C 339.23 202.76 332.62 202.80 326.24 204.24 C 324.40 206.43 324.12 209.48 323.19 212.12 C 319.70 226.41 319.79 241.93 311.90 254.83 C 310.18 259.81 303.22 260.62 298.88 259.10 C 298.64 256.90 297.17 255.41 295.00 255.09 C 291.26 248.49 289.93 240.94 286.99 234.01 C 280.94 220.49 281.39 204.22 288.00 190.99 C 294.46 178.58 305.75 169.72 317.33 162.35 Z" />
<path fill="#fdd4fe" opacity="1.00" d=" M 45.45 231.96 C 44.64 230.14 43.76 225.93 46.00 225.17 C 46.37 227.44 46.19 229.70 45.45 231.96 Z" />
<path fill="#fdd4fe" opacity="1.00" d=" M 304.99 296.50 C 311.98 295.97 320.06 295.28 326.71 298.28 C 331.37 305.84 322.02 310.03 318.72 315.64 C 315.42 316.53 312.73 318.97 310.51 321.48 C 304.90 323.50 300.54 327.83 294.98 329.96 C 282.16 335.42 269.13 341.24 255.01 341.96 C 246.49 341.77 237.00 343.28 229.41 338.53 C 227.11 335.55 224.58 332.72 221.51 330.53 C 219.30 326.24 216.30 321.94 216.94 316.84 C 216.95 315.18 216.97 311.85 216.98 310.18 L 217.07 309.27 C 236.00 302.45 256.69 303.98 276.36 300.56 C 283.61 299.34 290.73 297.18 298.14 297.00 C 300.52 297.45 302.81 297.28 304.99 296.50 Z" />
<path fill="#fdd4fe" opacity="1.00" d=" M 323.19 318.19 C 329.42 313.59 337.89 317.29 342.78 322.17 C 346.88 330.28 345.31 341.34 337.81 346.75 C 336.07 348.39 334.39 350.07 332.75 351.81 C 328.25 357.92 320.51 360.05 314.66 364.61 C 306.22 368.32 297.38 372.05 288.01 372.02 C 282.65 371.98 277.33 372.00 271.98 372.01 C 265.72 371.98 259.01 369.93 254.24 365.84 C 253.03 363.70 251.30 361.97 249.17 360.76 C 247.38 359.78 248.13 357.50 247.94 355.85 C 247.96 354.20 247.98 350.90 247.99 349.25 C 275.37 346.33 301.88 335.71 323.19 318.19 Z" />
<path fill="#fdd4fe" opacity="1.00" d=" M 431.00 394.65 C 432.06 393.28 433.27 392.03 434.61 390.94 C 435.85 392.88 432.97 395.83 431.00 394.65 Z" />
<path fill="#fdd4fe" opacity="1.00" d=" M 106.19 397.75 C 110.29 401.68 114.24 405.76 118.22 409.83 C 113.02 408.56 110.20 403.05 106.24 399.72 C 106.22 399.23 106.20 398.24 106.19 397.75 Z" />
<path fill="#fdd4fe" opacity="1.00" d=" M 123.16 414.16 C 124.76 414.91 125.99 416.23 127.05 417.62 C 125.16 418.76 122.37 416.11 123.16 414.16 Z" />
<path fill="#fdd4fe" opacity="1.00" d=" M 251.17 468.00 C 253.44 467.61 255.70 467.80 257.96 468.55 C 256.14 469.36 251.93 470.23 251.17 468.00 Z" />
<path fill="#fdd4fe" opacity="1.00" d=" M 277.01 468.49 C 279.17 467.67 281.45 467.51 283.85 468.00 C 282.97 470.16 278.84 469.35 277.01 468.49 Z" />
</g>
<g id="#212161ff">
<path fill="#212161" opacity="1.00" d=" M 190.27 37.40 C 214.51 28.48 240.06 22.31 266.00 21.98 C 293.31 23.65 321.32 25.62 346.95 36.04 C 363.25 41.99 378.40 50.66 392.89 60.13 C 395.89 62.62 398.71 65.00 401.95 67.08 C 403.93 68.45 405.86 69.91 407.93 71.15 C 407.89 73.31 409.69 75.10 411.84 75.06 C 412.58 77.03 413.88 78.31 416.13 77.99 C 421.36 82.77 426.58 87.63 431.11 93.10 C 430.90 95.21 432.68 96.73 434.59 97.14 C 436.17 98.22 437.05 99.87 437.34 101.73 C 439.05 103.09 441.16 104.13 441.50 106.54 C 442.99 107.49 444.09 108.78 444.50 110.53 C 447.62 112.27 448.21 116.09 450.55 118.48 C 465.88 140.62 475.85 166.05 482.18 192.12 C 482.08 192.49 481.89 193.24 481.79 193.62 C 460.55 192.28 439.01 194.00 417.98 190.00 C 410.61 188.61 404.78 183.39 397.76 181.17 C 384.87 172.90 372.43 163.50 358.01 157.97 C 344.90 151.79 329.53 155.83 317.33 162.35 C 305.75 169.72 294.46 178.58 288.00 190.99 C 281.39 204.22 280.94 220.49 286.99 234.01 C 289.93 240.94 291.26 248.49 295.00 255.09 C 295.31 256.98 296.92 258.84 298.88 259.10 C 303.22 260.62 310.18 259.81 311.90 254.83 C 319.79 241.93 319.70 226.41 323.19 212.12 C 324.12 209.48 324.40 206.43 326.24 204.24 C 332.62 202.80 339.23 202.76 345.74 203.13 C 348.10 209.38 348.56 216.22 346.69 222.69 C 345.75 235.43 342.43 250.04 351.02 261.04 C 350.79 263.28 352.72 265.24 354.98 264.93 C 360.03 268.86 365.83 271.97 372.10 273.37 C 368.69 274.22 365.29 275.04 361.79 275.31 C 349.89 270.24 339.26 258.89 339.67 245.26 C 339.99 239.10 340.00 232.94 339.79 226.79 C 339.95 220.84 340.19 214.89 339.94 208.96 C 336.30 209.32 332.74 210.26 329.25 211.27 C 328.30 225.82 326.27 240.69 319.89 253.96 C 317.33 259.38 313.39 265.01 307.00 266.01 C 301.61 268.55 296.23 264.95 291.53 262.48 C 286.60 254.58 283.34 245.92 281.10 236.93 C 274.69 225.34 275.45 211.94 276.87 199.23 C 273.23 197.21 269.01 197.06 265.08 195.98 C 235.30 188.15 206.74 176.41 177.28 167.56 C 163.84 163.70 150.42 157.71 136.09 159.06 C 134.69 164.26 133.01 169.47 132.96 174.92 C 138.28 180.90 144.58 185.80 151.99 189.01 C 184.09 204.23 216.04 219.77 248.20 234.85 C 254.13 238.19 262.65 242.83 261.82 250.75 C 258.67 254.27 254.11 256.29 249.63 257.57 C 237.23 260.05 224.55 260.56 212.02 262.12 C 183.51 265.27 155.15 269.61 126.61 272.51 C 122.88 272.50 119.31 273.53 115.93 274.97 C 113.70 274.83 111.71 276.75 112.12 279.03 C 109.94 283.74 108.73 289.57 112.01 294.05 C 111.82 296.28 113.71 298.15 115.93 298.03 C 118.74 299.23 121.70 300.11 124.77 300.30 C 139.79 301.81 154.93 300.62 170.00 301.03 C 175.71 300.65 181.66 301.79 187.26 300.30 C 201.17 299.54 215.15 300.72 229.01 298.99 C 242.98 297.39 256.98 295.91 270.89 293.81 C 285.48 291.90 299.92 288.26 314.69 288.27 C 320.92 289.89 330.78 288.04 333.03 295.98 C 336.01 299.82 334.19 304.72 333.30 308.97 C 341.07 312.78 350.75 317.28 352.21 326.85 C 352.24 328.68 352.31 332.33 352.35 334.16 C 350.69 344.04 342.04 350.69 338.82 359.91 C 357.51 360.22 380.57 361.55 394.83 346.91 C 398.31 345.51 402.25 342.77 402.92 338.81 C 405.44 335.95 408.89 333.98 410.29 330.27 C 416.79 325.69 419.49 315.41 429.01 316.08 C 444.73 316.35 460.68 315.08 476.28 316.64 C 471.21 335.46 461.53 352.77 451.46 369.35 C 450.63 372.26 447.47 373.46 446.50 376.38 C 445.91 379.00 442.85 379.79 442.52 382.55 C 438.96 384.61 438.26 388.87 434.61 390.94 C 433.27 392.03 432.06 393.28 431.00 394.65 C 426.42 397.37 423.06 401.62 419.22 405.22 C 416.93 407.62 413.95 409.74 413.17 413.17 C 412.85 414.29 412.32 415.77 410.94 415.89 C 408.35 416.17 407.04 418.69 405.54 420.50 C 399.07 422.96 395.15 429.15 389.04 432.08 C 366.10 447.26 340.34 458.68 313.24 463.62 C 304.17 462.07 295.18 465.22 286.12 465.33 C 227.83 471.00 168.07 450.39 124.61 411.41 C 84.23 376.93 57.91 326.70 51.91 274.00 C 48.49 251.07 50.11 227.88 52.05 204.92 C 58.21 166.36 76.68 130.46 101.79 100.84 C 103.81 97.18 107.79 95.24 109.46 91.34 C 117.16 82.00 127.33 75.31 136.48 67.55 C 150.60 57.11 165.57 47.67 181.83 40.84 C 184.63 39.68 187.50 38.66 190.27 37.40 M 255.34 41.56 C 240.70 42.84 226.29 45.62 211.99 48.99 C 169.23 61.06 130.95 87.73 103.84 122.82 C 88.96 142.80 78.23 165.73 71.60 189.70 C 65.94 209.88 62.54 231.16 65.74 252.06 C 64.78 310.70 94.37 367.88 140.31 403.64 C 168.89 427.17 204.27 441.76 240.66 447.49 C 251.25 447.04 261.75 450.74 272.29 449.35 C 282.84 447.06 293.80 448.99 304.30 446.32 C 327.89 442.04 350.42 433.21 371.07 421.11 C 390.06 409.42 409.06 396.59 422.39 378.37 C 435.14 364.48 444.27 347.91 453.68 331.70 C 454.63 330.09 456.07 327.39 453.78 326.22 C 447.19 325.79 440.66 324.64 434.09 324.07 C 426.23 326.37 421.28 333.24 415.99 338.99 C 409.22 347.99 399.62 353.99 390.96 360.94 C 384.89 365.59 377.35 367.64 369.94 368.86 C 353.01 372.66 335.48 366.21 318.67 370.67 C 310.83 375.77 302.74 381.78 293.00 382.05 C 287.36 382.53 281.73 383.71 276.07 383.84 C 266.21 381.36 255.62 380.01 247.26 373.73 C 240.84 368.36 237.62 360.17 235.76 352.23 C 231.26 348.19 225.07 347.17 220.17 343.83 C 211.35 335.89 207.82 324.13 204.91 313.03 C 193.40 308.53 181.22 311.27 169.35 311.59 C 159.91 313.20 150.49 309.66 140.99 311.07 C 130.34 312.76 118.33 312.16 109.35 305.60 C 98.11 296.75 98.10 277.90 108.16 268.15 C 119.66 260.47 134.17 261.65 147.07 258.19 C 155.49 257.87 163.96 258.03 172.28 256.32 C 189.68 255.03 207.10 253.46 224.28 250.34 C 230.48 249.27 237.21 249.94 242.86 246.74 C 243.95 243.21 238.01 242.77 236.64 240.40 C 229.40 236.66 223.17 231.07 215.34 228.55 C 206.78 224.32 198.06 220.44 189.27 216.72 C 187.30 212.20 181.41 213.50 177.70 211.34 C 167.46 205.96 156.90 201.27 146.31 196.65 C 137.81 191.35 128.29 184.82 125.39 174.67 C 123.95 165.44 125.32 152.01 136.07 149.06 C 148.02 148.51 159.99 151.41 170.95 156.07 C 181.33 160.28 192.67 161.57 202.92 166.12 C 223.71 174.37 245.59 179.37 266.78 186.39 C 269.83 187.19 274.76 191.28 277.28 187.27 C 289.82 166.68 311.62 153.49 333.98 146.02 C 340.21 148.02 346.41 145.30 352.66 146.43 C 361.41 149.13 370.34 151.81 378.01 156.98 C 387.56 163.00 395.82 170.92 405.95 176.04 C 415.20 180.65 425.29 184.52 435.70 184.66 C 444.11 180.91 452.44 185.99 461.02 185.00 C 460.90 173.34 456.06 162.42 450.61 152.34 C 443.96 141.13 437.63 129.67 429.72 119.26 C 420.69 108.72 411.86 97.73 400.62 89.42 C 391.91 83.50 384.33 76.01 375.00 71.00 C 339.68 48.79 296.93 38.08 255.34 41.56 M 298.14 297.00 C 290.73 297.18 283.61 299.34 276.36 300.56 C 256.69 303.98 236.00 302.45 217.07 309.27 L 216.98 310.18 C 215.13 310.92 215.16 316.05 216.94 316.84 C 216.30 321.94 219.30 326.24 221.51 330.53 C 224.58 332.72 227.11 335.55 229.41 338.53 C 237.00 343.28 246.49 341.77 255.01 341.96 C 269.13 341.24 282.16 335.42 294.98 329.96 C 300.54 327.83 304.90 323.50 310.51 321.48 C 312.73 318.97 315.42 316.53 318.72 315.64 C 322.02 310.03 331.37 305.84 326.71 298.28 C 320.06 295.28 311.98 295.97 304.99 296.50 C 303.15 295.63 299.03 294.83 298.14 297.00 M 323.19 318.19 C 301.88 335.71 275.37 346.33 247.99 349.25 C 246.12 349.88 246.17 355.08 247.94 355.85 C 248.13 357.50 247.38 359.78 249.17 360.76 C 249.19 361.22 249.24 362.14 249.26 362.60 C 251.55 363.08 251.66 366.54 254.24 365.84 C 259.01 369.93 265.72 371.98 271.98 372.01 L 272.02 372.98 C 277.34 373.06 282.66 373.07 287.99 372.99 L 288.01 372.02 C 297.38 372.05 306.22 368.32 314.66 364.61 C 320.51 360.05 328.25 357.92 332.75 351.81 C 335.32 352.24 338.24 349.32 337.81 346.75 C 345.31 341.34 346.88 330.28 342.78 322.17 C 337.89 317.29 329.42 313.59 323.19 318.19 Z" />
</g>
<g id="#4b539aff">
<path fill="#4b539a" opacity="1.00" d=" M 407.93 71.15 C 409.83 71.70 411.31 73.15 411.84 75.06 C 409.69 75.10 407.89 73.31 407.93 71.15 Z" />
<path fill="#4b539a" opacity="1.00" d=" M 431.11 93.10 L 431.70 93.05 C 432.82 94.14 434.92 95.36 434.59 97.14 C 432.68 96.73 430.90 95.21 431.11 93.10 Z" />
<path fill="#4b539a" opacity="1.00" d=" M 397.76 181.17 C 404.78 183.39 410.61 188.61 417.98 190.00 C 439.01 194.00 460.55 192.28 481.79 193.62 C 481.89 193.24 482.08 192.49 482.18 192.12 C 483.18 192.37 483.54 193.45 483.26 195.36 C 464.61 197.36 445.69 195.23 426.99 194.05 C 415.93 193.80 405.61 188.79 397.76 181.17 Z" />
<path fill="#4b539a" opacity="1.00" d=" M 49.24 208.23 C 50.18 207.13 51.11 206.02 52.05 204.92 C 50.11 227.88 48.49 251.07 51.91 274.00 C 57.91 326.70 84.23 376.93 124.61 411.41 C 168.07 450.39 227.83 471.00 286.12 465.33 C 295.18 465.22 304.17 462.07 313.24 463.62 C 303.76 466.36 293.71 467.62 283.85 468.00 C 281.45 467.51 279.17 467.67 277.01 468.49 C 270.79 469.12 264.20 469.61 257.96 468.55 C 255.70 467.80 253.44 467.61 251.17 468.00 C 235.41 468.41 220.13 463.60 204.96 459.99 C 186.86 454.28 169.32 446.56 153.01 436.97 C 148.68 433.13 143.40 430.51 138.50 427.49 C 137.51 426.01 136.21 424.92 134.46 424.51 C 133.52 422.89 132.18 421.82 130.27 421.65 C 129.12 420.37 128.20 418.91 127.05 417.62 C 125.99 416.23 124.76 414.91 123.16 414.16 C 121.26 413.04 119.82 411.31 118.22 409.83 C 114.24 405.76 110.29 401.68 106.19 397.75 C 104.15 395.45 101.64 393.73 99.34 391.74 C 99.21 389.30 97.40 387.76 95.48 386.55 C 95.01 384.29 93.37 382.72 91.50 381.53 C 90.38 379.14 89.28 376.53 87.06 374.96 C 67.41 346.28 53.74 312.91 48.62 278.29 C 45.02 263.17 43.96 247.40 45.45 231.96 C 46.19 229.70 46.37 227.44 46.00 225.17 C 45.97 219.38 48.46 213.93 49.24 208.23 Z" />
<path fill="#4b539a" opacity="1.00" d=" M 339.67 245.26 C 338.04 239.26 339.14 232.85 339.79 226.79 C 340.00 232.94 339.99 239.10 339.67 245.26 Z" />
<path fill="#4b539a" opacity="1.00" d=" M 295.00 255.09 C 297.17 255.41 298.64 256.90 298.88 259.10 C 296.92 258.84 295.31 256.98 295.00 255.09 Z" />
<path fill="#4b539a" opacity="1.00" d=" M 351.02 261.04 C 352.80 261.78 354.18 263.18 354.98 264.93 C 352.72 265.24 350.79 263.28 351.02 261.04 Z" />
<path fill="#4b539a" opacity="1.00" d=" M 372.10 273.37 C 376.24 274.25 382.29 274.90 383.11 279.99 C 375.72 280.33 368.54 278.06 361.79 275.31 C 365.29 275.04 368.69 274.22 372.10 273.37 Z" />
<path fill="#4b539a" opacity="1.00" d=" M 112.12 279.03 C 111.71 276.75 113.70 274.83 115.93 274.97 C 115.25 276.79 113.82 278.15 112.12 279.03 Z" />
<path fill="#4b539a" opacity="1.00" d=" M 112.01 294.05 C 113.82 294.77 115.26 296.19 115.93 298.03 C 113.71 298.15 111.82 296.28 112.01 294.05 Z" />
<path fill="#4b539a" opacity="1.00" d=" M 298.14 297.00 C 299.03 294.83 303.15 295.63 304.99 296.50 C 302.81 297.28 300.52 297.45 298.14 297.00 Z" />
<path fill="#4b539a" opacity="1.00" d=" M 124.77 300.30 C 145.59 299.82 166.44 299.81 187.26 300.30 C 181.66 301.79 175.71 300.65 170.00 301.03 C 154.93 300.62 139.79 301.81 124.77 300.30 Z" />
<path fill="#4b539a" opacity="1.00" d=" M 216.94 316.84 C 215.16 316.05 215.13 310.92 216.98 310.18 C 216.97 311.85 216.95 315.18 216.94 316.84 Z" />
<path fill="#4b539a" opacity="1.00" d=" M 352.21 326.85 C 354.47 328.63 353.64 331.87 352.35 334.16 C 352.31 332.33 352.24 328.68 352.21 326.85 Z" />
<path fill="#4b539a" opacity="1.00" d=" M 394.83 346.91 C 397.35 344.03 400.13 341.41 402.92 338.81 C 402.25 342.77 398.31 345.51 394.83 346.91 Z" />
<path fill="#4b539a" opacity="1.00" d=" M 332.75 351.81 C 334.39 350.07 336.07 348.39 337.81 346.75 C 338.24 349.32 335.32 352.24 332.75 351.81 Z" />
<path fill="#4b539a" opacity="1.00" d=" M 247.94 355.85 C 246.17 355.08 246.12 349.88 247.99 349.25 C 247.98 350.90 247.96 354.20 247.94 355.85 Z" />
<path fill="#4b539a" opacity="1.00" d=" M 249.17 360.76 C 251.30 361.97 253.03 363.70 254.24 365.84 C 251.66 366.54 251.55 363.08 249.26 362.60 C 249.24 362.14 249.19 361.22 249.17 360.76 Z" />
<path fill="#4b539a" opacity="1.00" d=" M 271.98 372.01 C 277.33 372.00 282.65 371.98 288.01 372.02 L 287.99 372.99 C 282.66 373.07 277.34 373.06 272.02 372.98 L 271.98 372.01 Z" />
<path fill="#4b539a" opacity="1.00" d=" M 419.22 405.22 C 423.06 401.62 426.42 397.37 431.00 394.65 C 426.69 401.55 419.27 405.95 414.59 412.62 C 414.23 412.76 413.52 413.03 413.17 413.17 C 413.95 409.74 416.93 407.62 419.22 405.22 Z" />
</g>
</svg>
